<?xml version="1.0" encoding="utf-8"?>
<!-- Generator: Adobe Illustrator 27.5.0, SVG Export Plug-In . SVG Version: 6.00 Build 0)  -->
<svg version="1.1" xmlns="http://www.w3.org/2000/svg" xmlns:xlink="http://www.w3.org/1999/xlink" x="0px" y="0px"
	 viewBox="0 0 3710 3710" style="enable-background:new 0 0 3710 3710;" xml:space="preserve">
<g id="Background">
	<g>
		<g>
			<rect style="fill:#FFFFFF;" width="3710" height="3710"/>
		</g>
	</g>
</g>
<g id="Illustration">
	<g>
		<linearGradient id="SVGID_1_" gradientUnits="userSpaceOnUse" x1="3596.4377" y1="4081.4114" x2="1104.9631" y2="987.1564">
			<stop  offset="0" style="stop-color:#DAE3FE"/>
			<stop  offset="1" style="stop-color:#E9EFFD"/>
		</linearGradient>
		<path style="fill:url(#SVGID_1_);" d="M2911.017,2861.149c-57.228,60.247-111.377,99.1-154.159,129.797
			c-502.893,360.831-1097.948,255.651-1224.415,229.964c-186.751-37.93-547.736-111.248-808.721-418.162
			c-394.85-464.335-333.366-1195.882-27.094-1678.786c56.022-88.331,351.946-578.591,953.411-657.214
			c364-47.581,788.307,48.385,1095.578,305.817C3390.608,1312.939,3344.692,2404.59,2911.017,2861.149z"/>
		<g>
			<g>
				<g>
					<path style="fill:#91B3FA;" d="M588.715,1046.151c-1.585-0.751-2.68-2.358-2.666-4.192c0.042-6.052,0.213-12.204,0.508-18.284
						c0.121-2.498,2.275-4.389,4.812-4.225c6.152,0.364,3.99,6.355,3.876,22.732c-0.016,2.502-2.089,4.482-4.629,4.419
						C589.937,1046.584,589.294,1046.426,588.715,1046.151z"/>
					<path style="fill:#91B3FA;" d="M593.013,967.11c2.065-11.443,4.621-22.941,7.595-34.175c0.639-2.411,3.148-3.821,5.607-3.149
						c6.689,1.872,1.944,5.341-4.147,39.064c-0.444,2.457-2.829,4.058-5.33,3.577C594.203,971.938,592.574,969.536,593.013,967.11z
						 M618.627,879.06c4.404-10.814,9.321-21.654,14.452-31.839c2.75-5.479,10.897-1.106,8.252,4.14
						c-5.106,10.158-9.85,20.618-14.16,31.202c-0.94,2.31-3.615,3.395-5.974,2.428C618.812,884.011,617.697,881.345,618.627,879.06z
						 M661.815,798.237c6.513-9.61,13.502-19.08,20.775-28.151c3.753-4.674,10.985,1.044,7.255,5.696
						c-7.127,8.888-13.975,18.168-20.355,27.581C666.133,808.316,658.466,803.174,661.815,798.237z M721.001,734.498
						c-1.788-1.808-1.775-4.677,0.03-6.407c8.4-8.057,17.242-15.886,26.28-23.268c4.647-3.793,10.586,3.228,5.943,7.021
						c-8.854,7.232-17.52,14.903-25.752,22.796C725.699,736.374,722.783,736.308,721.001,734.498z M792.415,677.864
						c-1.383-2.123-0.777-4.919,1.353-6.245c9.928-6.177,20.229-12.039,30.617-17.422c5.347-2.756,9.738,5.267,4.392,8.041
						c-10.18,5.276-20.274,11.018-30.002,17.071C796.649,680.633,793.799,679.987,792.415,677.864z M876.596,639.417
						c-1.041-0.493-1.901-1.362-2.35-2.506c-0.923-2.347,0.246-4.956,2.613-5.824c11.032-4.047,22.356-7.709,33.661-10.889
						c2.432-0.683,4.996,0.713,5.735,3.123c0.735,2.409-0.638,4.914-3.068,5.598c-11.078,3.113-22.176,6.705-32.988,10.671
						C878.985,640.036,877.692,639.937,876.596,639.417z M965.662,616.695c-1.331-0.631-2.343-1.869-2.606-3.403
						c-0.423-2.476,1.265-4.785,3.767-5.159c11.655-1.74,23.536-3.047,35.313-3.88c2.528-0.185,4.765,1.695,4.99,4.196
						c0.227,2.495-1.64,4.665-4.17,4.844c-11.538,0.818-23.18,2.098-34.599,3.804C967.407,617.24,966.474,617.081,965.662,616.695z
						 M1055.214,608.074c0.097-2.5,2.233-4.411,4.771-4.271c11.804,0.652,23.753,1.777,35.513,3.342
						c6.056,0.823,4.952,9.783-1.074,8.982c-11.52-1.534-23.226-2.635-34.792-3.274
						C1057.101,612.715,1055.116,610.578,1055.214,608.074z M1341.214,730.076c-25.773-23.236-31.982-23.401-27.746-28.784
						c1.542-1.964,4.424-2.285,6.444-0.737c9.398,7.239,18.63,14.938,27.442,22.882
						C1351.878,727.512,1345.754,734.161,1341.214,730.076z M1146.844,621.593c0.614-2.417,3.108-3.852,5.573-3.204
						c11.462,3.016,22.967,6.513,34.196,10.399c5.771,1.999,2.855,10.542-2.908,8.547c-11.005-3.807-22.28-7.237-33.511-10.192
						C1147.702,626.485,1146.236,623.986,1146.844,621.593z M1267.167,675.809c-29.88-17.577-36.062-16.525-33.037-22.689
						c1.918-3.909,6.688-1.999,6.135-2.021c10.696,5.238,21.298,10.941,31.51,16.945c2.199,1.293,2.947,4.079,1.674,6.221
						C1272.235,676.313,1269.51,677.147,1267.167,675.809z"/>
					<path style="fill:#91B3FA;" d="M1392.696,784.89c-9.62-12.118-15.849-16.466-11.114-20.404c1.92-1.599,4.825-1.349,6.484,0.589
						c10.453,12.131,15.79,17.064,11.091,20.658C1397.748,786.812,1394.273,786.87,1392.696,784.89z"/>
				</g>
				<g>
					<path style="fill:#91B3FA;" d="M1488.596,1123.693c-1.779-0.843-2.896-2.748-2.622-4.759
						c0.804-5.901,1.491-11.883,2.045-17.785c0.234-2.488,2.474-4.282,5.003-4.007c2.522,0.281,4.388,2.511,4.156,5.003
						c-0.567,6.023-1.27,12.127-2.088,18.15c-0.337,2.474-2.651,4.177-5.167,3.801
						C1489.451,1124.026,1489.005,1123.887,1488.596,1123.693z"/>
					<path style="fill:#91B3FA;" d="M838.761,1451.985c-11.412-5.794-22.716-12.129-33.595-18.832
						c-2.171-1.336-2.863-4.136-1.543-6.252c3.719-5.96,5.843,0.087,39.234,17.042c2.275,1.154,3.201,3.89,2.068,6.111
						C842.949,1453.934,838.209,1451.958,838.761,1451.985z M893.4,1470.772c2.292-6.627,5.884-1.128,41.882,8.312
						c2.473,0.635,3.966,3.133,3.355,5.548c-0.612,2.419-3.107,3.856-5.57,3.21c-12.319-3.229-24.697-7.024-36.788-11.274
						C893.857,1475.713,892.591,1473.113,893.4,1470.772z M754.255,1396.862c-9.866-8.093-19.523-16.703-28.695-25.591
						c-1.826-1.77-1.878-4.64-0.113-6.411c4.974-4.99,5.689,1.352,34.616,25.073c1.969,1.616,2.265,4.475,0.662,6.388
						C759.121,1398.233,756.227,1398.473,754.255,1396.862z M992.951,1499.184c-1.738-0.824-2.852-2.661-2.638-4.64
						c0.269-2.484,2.534-4.246,5.06-3.937c12.427,1.522,25.041,2.539,37.491,3.021c2.546,0.099,4.554,2.205,4.499,4.705
						c-0.054,2.503-2.156,4.45-4.694,4.352c-12.711-0.492-25.586-1.53-38.27-3.084
						C993.883,1499.538,993.395,1499.395,992.951,1499.184z M1092.377,1500.456c-1.404-0.665-2.446-2.008-2.639-3.638
						c-0.292-2.489,1.515-4.707,4.039-4.952c12.381-1.198,24.864-2.936,37.102-5.165c2.49-0.454,4.914,1.176,5.419,3.637
						c0.502,2.462-1.107,4.825-3.594,5.278c-12.49,2.276-25.231,4.047-37.87,5.272
						C1093.964,1500.972,1093.12,1500.809,1092.377,1500.456z M1189.303,1480.199c-1.09-0.516-1.981-1.446-2.409-2.661
						c-0.837-2.377,0.43-4.939,2.827-5.722c11.777-3.845,23.53-8.233,34.932-13.044c2.321-0.975,5.036,0.097,6.073,2.4
						c1.034,2.304-0.008,4.966-2.328,5.944c-11.634,4.908-23.627,9.385-35.647,13.31
						C1191.576,1480.808,1190.348,1480.694,1189.303,1480.199z M1279.073,1439.517c-0.786-0.373-1.48-0.967-1.972-1.757
						c-1.338-2.151-0.673-4.932,1.486-6.214c10.605-6.293,21.061-13.117,31.082-20.277c2.038-1.458,4.917-0.993,6.432,1.047
						c1.515,2.035,1.092,4.865-0.948,6.322c-10.226,7.309-20.897,14.273-31.72,20.697
						C1282.067,1440.146,1280.43,1440.16,1279.073,1439.517z M1356.012,1379.388c-5.003-5.112,1.412-5.53,25.751-32.997
						c3.963-4.475,10.942,1.553,6.972,6.031c-8.304,9.371-17.126,18.504-26.221,27.139
						C1360.709,1381.274,1357.8,1381.216,1356.012,1379.388z M1419.674,1305.095c-6.007-3.917,0.098-5.68,17.628-37.893
						c2.843-5.222,10.983-0.859,8.123,4.391c-5.982,10.993-12.508,21.846-19.396,32.259
						C1424.633,1305.963,1421.75,1306.472,1419.674,1305.095z M1464.594,1218.434c-2.151-1.02-3.213-3.502-2.377-5.718
						c4.334-11.518,8.214-23.313,11.525-35.055c0.679-2.4,3.211-3.769,5.66-3.06c2.452,0.726,3.882,3.232,3.206,5.633
						c-3.381,11.983-7.339,24.016-11.763,35.767c-0.876,2.333-3.52,3.489-5.904,2.581
						C1464.821,1218.538,1464.706,1218.487,1464.594,1218.434z"/>
					<path style="fill:#91B3FA;" d="M683.633,1324.722c-9.896-12.605-14.986-17.756-10.118-21.126
						c5.063-3.509,7.225,2.749,17.354,15.66c1.568,1.997,1.217,4.839-0.781,6.348C688.091,1327.114,685.2,1326.717,683.633,1324.722
						z"/>
				</g>
				<g>
					<path style="fill:#91B3FA;" d="M743.123,1214.789l65.881-2.751c17.962,24.996,40.048,47.422,65.801,66.12
						c-2.591,63.097-7.245,67.338-0.705,70.127l73.121,31.179c2.137,0.91,4.601,0.395,6.135-1.284l43.758-47.87
						c31.299,5.625,62.729,6.021,93.147,1.652l43.724,49.485c1.533,1.734,3.996,2.338,6.133,1.505l73.16-28.533
						c2.138-0.834,3.48-2.922,3.34-5.2l-3.958-64.993c25.047-17.264,47.41-38.639,65.93-63.693l65.834,5.13
						c2.31,0.18,4.453-1.102,5.341-3.191l30.343-71.529c0.887-2.091,0.32-4.529-1.411-6.071l-49.352-43.984
						c5.156-30.754,5-61.728,0.027-91.792c47.406-42.257,53.546-41.795,50.859-48.245c-30.919-70.713-28.371-76.309-35.585-76.01
						l-65.881,2.751c-17.961-24.998-40.048-47.421-65.8-66.12c2.59-63.059,7.247-67.336,0.707-70.129
						c-73.182-29.728-74.554-35.043-79.258-29.894l-43.759,47.871c-31.297-5.628-62.728-6.023-93.147-1.654
						c-43.187-46.901-43.26-53.564-49.857-50.99c-71.897,29.509-76.927,26.713-76.5,33.733l3.957,64.992
						c-25.048,17.264-47.411,38.639-65.929,63.693c-62.947-3.607-68.407-8.47-71.175-1.937c-28.745,71.299-34.269,72.84-28.932,77.6
						l49.352,43.984c-5.154,30.751-4.998,61.728-0.027,91.791c-47.245,42.113-53.555,41.761-50.859,48.245
						C738.456,1209.492,735.908,1215.088,743.123,1214.789z"/>
					<g>
						<path style="fill:#BDD0FB;" d="M967.514,1037.409c6.195-41.391,45.495-69.499,87.606-62.659
							c42.105,6.852,71.33,46.079,65.137,87.47c-6.198,41.389-45.495,69.499-87.607,62.661l0,0
							C990.528,1118.04,961.32,1078.79,967.514,1037.409z M1033.654,1118.173l0.041,0.019L1033.654,1118.173z M1053.111,988.166
							c-34.18-5.554-66.787,16.956-71.948,51.46c-5.09,33.994,18.906,66.231,53.494,71.839c34.585,5.617,66.863-17.468,71.95-51.462
							C1111.703,1025.958,1087.636,993.766,1053.111,988.166z"/>
					</g>
					<path style="fill:#BDD0FB;" d="M962.109,1224.573L962.109,1224.573c-10.352-4.906-20.274-10.665-29.583-17.179
						c-2.799-1.958-3.721-5.558-2.339-8.478c0.165-0.349,0.363-0.687,0.594-1.011c2.169-3.049,6.476-3.736,9.598-1.552
						c10.708,7.492,22.296,13.91,34.431,19.094l0,0c91.442,38.988,196.359-0.072,237.607-87.091c1.053-2.222,2.064-4.477,3.034-6.76
						c39.148-92.294-5.881-198.933-99.498-238.879c-93.491-39.864-201.549,1.815-240.64,93.851
						c-23.238,54.794-10.033,93.914-12.696,99.532c-2.878,6.072-12.088,4.582-13.085-2.086
						c-5.449-36.426-0.44-74.824,16.302-110.147c72.245-152.409,296.816-143.714,362.454,13.882
						c20.201,48.497,20.167,101.513-0.099,149.281c-1.047,2.472-2.144,4.914-3.286,7.328c-20.945,44.2-57.569,78.223-103.896,96.292
						c-48.856,19.052-102.655,18.078-151.485-2.742C967.029,1226.847,964.555,1225.733,962.109,1224.573z"/>
				</g>
			</g>
			<g>
				<path style="fill:#91B3FA;" d="M1538.557,942.913c10.986,13.239,24.164,24.823,39.23,34.12l0.342,36.814
					c0.036,4.085,3.546,2.543,43.972,16.86c3.743,1.25,3.365-2.26,25.783-30.227c17.629,1.638,35.121,0.315,51.863-3.65
					l26.29,25.807c2.923,2.864,4.305-0.71,43.015-19.172c1.156-0.577,1.818-1.823,1.651-3.102l-4.796-36.526
					c13.239-10.986,24.822-24.163,34.119-39.23c35.174-1.06,38.38,1.404,39.657-2.408c13.15-41.738,16.145-42.846,12.99-45.267
					l-29.2-22.422c1.639-17.628,0.316-35.122-3.65-51.863l25.807-26.29c2.862-2.915-0.709-4.305-19.172-43.013
					c-1.75-3.517-3.822-0.799-39.628,3.145c-10.986-13.24-24.163-24.822-39.23-34.12l-0.342-36.814
					c-0.038-4.09-3.547-2.543-43.973-16.859c-3.721-1.246-3.252,2.12-25.782,30.227c-17.629-1.64-35.123-0.316-51.864,3.65
					l-26.289-25.806c-0.921-0.905-2.316-1.125-3.471-0.549l-39.543,19.72c-1.155,0.576-1.819,1.822-1.651,3.103l4.796,36.525
					c-13.24,10.986-24.821,24.163-34.119,39.23c-35.174,1.06-38.385-1.404-39.656,2.409c-13.146,41.722-16.146,42.841-12.99,45.266
					l29.199,22.422c-1.638,17.628-0.315,35.122,3.65,51.863c-24.123,25.621-28.155,26.151-26.356,29.76l19.721,39.544
					C1500.692,949.593,1502.934,946.837,1538.557,942.913z"/>
				<g>
					<g>
						<path style="fill:#BDD0FB;" d="M1616.716,836.223c1.925-25.411,24.041-44.422,49.457-42.497
							c25.403,1.921,44.42,24.04,42.497,49.452c-1.919,25.351-24.104,44.417-49.456,42.5l0,0
							C1633.862,883.756,1614.799,861.579,1616.716,836.223z M1659.731,878.826l0.041,0.019L1659.731,878.826z M1630.419,837.258
							c-1.342,17.799,12.045,33.37,29.83,34.718l0,0c28.577,2.159,45.735-31.554,26.992-53.367
							C1668.579,796.894,1632.595,808.497,1630.419,837.258z"/>
					</g>
					<g>
						<path style="fill:#91B3FA;" d="M1430.535,906.172c-1.707-5.95-3.201-12.052-4.441-18.137c-0.505-2.48,1.093-4.897,3.573-5.403
							c6.238-1.272,5.277,5.668,9.673,21.016c0.698,2.433-0.709,4.969-3.141,5.665
							C1433.779,910.008,1431.235,908.615,1430.535,906.172z"/>
						<path style="fill:#91B3FA;" d="M1421.593,826.961c0.644-12.146,2.232-24.781,4.898-37.414
							c1.254-5.943,10.212-4.019,8.964,1.892c-6.909,32.729-1.878,40.752-9.533,40.341
							C1423.376,831.641,1421.46,829.473,1421.593,826.961z M1448.709,737.868c-2.263-1.132-3.179-3.883-2.049-6.147
							c5.614-11.223,12.166-22.1,19.479-32.329c3.527-4.925,10.979,0.396,7.454,5.33c-7.035,9.839-13.34,20.301-18.737,31.097
							C1452.868,739.791,1448.156,737.848,1448.709,737.868z M1508.725,662.148c-0.58-0.275-1.111-0.675-1.549-1.197
							c-1.624-1.941-1.367-4.829,0.572-6.455c9.634-8.065,19.973-15.432,30.729-21.896c2.166-1.3,4.987-0.599,6.285,1.566
							c1.304,2.168,0.603,4.984-1.566,6.285c-10.35,6.221-20.297,13.311-29.566,21.071
							C1512.212,662.707,1510.291,662.89,1508.725,662.148z M1593.845,616.507c-1.138-0.539-2.05-1.544-2.433-2.846
							c-0.716-2.426,0.672-4.974,3.099-5.687c12.044-3.549,24.468-6.168,36.928-7.782c2.512-0.322,4.807,1.446,5.132,3.957
							c0.324,2.508-1.446,4.805-3.956,5.13c-11.983,1.551-23.933,4.067-35.516,7.481
							C1595.976,617.091,1594.825,616.971,1593.845,616.507z M1687.54,604.042c0.313-2.51,2.6-4.295,5.11-3.983
							c12.502,1.552,24.942,4.091,36.979,7.549c5.812,1.641,3.312,10.481-2.53,8.806c-11.577-3.326-23.547-5.77-35.576-7.26
							C1688.953,608.824,1687.237,606.502,1687.54,604.042z"/>
						<path style="fill:#91B3FA;" d="M1796.43,649.657c-13.734-9.685-19.821-10.735-16.66-16.05
							c1.293-2.174,4.056-2.927,6.279-1.596c5.305,3.153,10.574,6.571,15.663,10.159c2.067,1.457,2.561,4.315,1.103,6.384
							C1801.378,650.59,1798.545,651.135,1796.43,649.657z"/>
					</g>
					<g>
						<path style="fill:#91B3FA;" d="M1893.482,812.531c-1.958-16.756-5.231-21.938,0.84-23.126
							c2.486-0.488,4.889,1.132,5.377,3.612c1.19,6.059,2.161,12.267,2.882,18.45c0.294,2.513-1.505,4.789-4.017,5.081
							C1896.059,816.844,1893.776,815.048,1893.482,812.531z"/>
						<path style="fill:#91B3FA;" d="M1581.314,1062.233c2.466-7.198,7.806,0.3,40.387,6.103c5.951,1.047,4.375,10.084-1.607,9.021
							c-12.184-2.17-24.274-5.302-35.934-9.304C1581.805,1067.252,1580.48,1064.657,1581.314,1062.233z M1675.319,1076.282
							c-0.178-2.522,1.72-4.715,4.245-4.894c33.289-2.372,39.076-9.289,40.793-1.846c0.566,2.466-0.973,4.925-3.438,5.492
							c-12.026,2.765-24.375,4.615-36.707,5.493C1677.688,1080.704,1675.501,1078.805,1675.319,1076.282z M1767.26,1052.325
							c-3.501-6.779,5.528-5.389,32.33-24.954c4.896-3.566,10.302,3.826,5.403,7.402c-9.989,7.288-20.607,13.857-31.56,19.517
							C1771.189,1055.45,1768.422,1054.574,1767.26,1052.325z M1842.397,994.13c-5.889-4.878,2.997-7.13,19.986-35.619
							c3.098-5.2,10.976-0.52,7.871,4.691c-6.32,10.599-13.521,20.799-21.406,30.322
							C1847.23,995.476,1844.343,995.738,1842.397,994.13z M1885.574,905.426c9.408-31.994,4.963-39.88,12.549-38.869
							c2.511,0.332,4.271,2.636,3.939,5.144c-1.634,12.283-4.223,24.498-7.699,36.312c-0.714,2.426-3.259,3.816-5.688,3.102
							C1886.253,910.401,1884.859,907.857,1885.574,905.426z"/>
						<path style="fill:#91B3FA;" d="M1529.915,1041.377c-5.177-3.417-10.283-7.074-15.174-10.873
							c-1.996-1.553-2.358-4.43-0.807-6.429c3.909-5.029,7.677,0.847,21.026,9.654c2.111,1.394,2.693,4.234,1.301,6.347
							C1534.848,1042.217,1531.986,1042.749,1529.915,1041.377z"/>
					</g>
					<path style="fill:#BDD0FB;" d="M1605.753,936.948c-3.75-2.198-4.467-6.472-2.64-9.553c1.937-3.265,6.185-4.333,9.415-2.406
						c6.06,3.593,12.56,6.564,19.326,8.828c1.482,0.195,36.247,14.504,76.161-5.333c79.16-39.484,71.111-155.792-12.875-183.872
						c-48.319-16.159-100.469,6.88-121.765,51.822c-21.452,45.26,1.985,69.184-12.552,72.382c-3.706,0.82-7.371-1.521-8.19-5.228
						c-4.415-19.989-3.297-40.865,3.23-60.375c19.805-59.249,84.198-91.512,143.638-71.633
						c63.96,21.386,95.929,94.304,66.47,156.458c-23.755,50.131-82.442,77.556-138.477,58.812l-0.002-0.001
						C1619.909,944.31,1612.591,940.98,1605.753,936.948z"/>
				</g>
			</g>
		</g>
		<g>
			
				<linearGradient id="SVGID_00000149351817495440492780000013982560739874414220_" gradientUnits="userSpaceOnUse" x1="2066.5164" y1="2615.8313" x2="1662.5792" y2="3633.3459">
				<stop  offset="0" style="stop-color:#09005D"/>
				<stop  offset="1" style="stop-color:#1A0F91"/>
			</linearGradient>
			<polygon style="fill:url(#SVGID_00000149351817495440492780000013982560739874414220_);" points="1678.694,2688.192 
				1627.982,3143.003 2216.334,3143.003 2139.7,2688.192 			"/>
			
				<linearGradient id="SVGID_00000047758664272206323050000000608434862512606389_" gradientUnits="userSpaceOnUse" x1="2161.5298" y1="1078.118" x2="1624.6533" y2="2688.7517">
				<stop  offset="0" style="stop-color:#09005D"/>
				<stop  offset="1" style="stop-color:#1A0F91"/>
			</linearGradient>
			<path style="fill:url(#SVGID_00000047758664272206323050000000608434862512606389_);" d="M444.539,1342.243v1251.153
				c0,102.924,82.018,187.091,184.908,189.745c456.982,11.784,2055.286,40.357,2490.302,33.944
				c74.768-1.102,135.337-60.934,137.494-135.679c8.388-290.66,22.012-989.6-28.404-1314.09
				c-10.617-68.334-68.298-119.433-137.416-121.644c-382.894-12.249-2077.2-51.144-2512.013-41.379
				C504.419,1205.977,444.539,1267.234,444.539,1342.243z"/>
			<path style="fill:#7D97F4;" d="M523.046,1336.153v1188.682c0,60.093,48.238,109.057,108.324,109.956l2425.796,29.97
				c59.571,0.891,108.401-47.036,108.623-106.614l4.058-1178.062c0.159-42.599-33.78-77.503-76.366-78.539l-2483.565-50.175
				C562.284,1250.212,523.046,1288.508,523.046,1336.153z"/>
			<path style="fill:#91B3FA;" d="M591.859,1373.876v1115.68c0,56.402,45.931,102.36,103.142,103.203l2309.753,28.129
				c56.721,0.836,103.215-44.147,103.427-100.066l3.864-1105.712c0.151-39.983-32.164-72.743-72.713-73.716l-2364.759-47.093
				C629.22,1293.213,591.859,1329.157,591.859,1373.876z"/>
			<path style="fill:#91B3FA;" d="M3184.05,2713.832h-0.062l-2661.005-45.341c-2.056-0.036-3.691-1.729-3.658-3.781
				c0.036-2.056,1.845-3.789,3.781-3.658l2661.005,45.341c2.056,0.036,3.691,1.729,3.658,3.781
				C3187.733,2712.208,3186.076,2713.832,3184.05,2713.832z"/>
			<g>
				<path style="fill:#91B3FA;" d="M1879.8,2769.207c-17.316,0-31.407-14.091-31.407-31.407s14.091-31.407,31.407-31.407
					s31.407,14.091,31.407,31.407S1897.116,2769.207,1879.8,2769.207z M1879.8,2713.832c-13.215,0-23.968,10.752-23.968,23.968
					c0,13.215,10.753,23.967,23.968,23.967s23.968-10.752,23.968-23.967C1903.767,2724.584,1893.015,2713.832,1879.8,2713.832z"/>
			</g>
			
				<linearGradient id="SVGID_00000044167154132333989260000014849725363784056483_" gradientUnits="userSpaceOnUse" x1="1470.1218" y1="3658.8833" x2="2093.9243" y2="2999.2886">
				<stop  offset="0" style="stop-color:#09005D"/>
				<stop  offset="1" style="stop-color:#1A0F91"/>
			</linearGradient>
			<path style="fill:url(#SVGID_00000044167154132333989260000014849725363784056483_);" d="M2343.065,3236.057h-861.093
				c-23.393,0-40.961-16.653-36.438-34.542l11.049-43.698c3.323-13.141,17.781-22.789,34.952-23.325l830.125-25.903
				c17.94-0.56,33.824,8.963,37.733,22.621l19.919,69.601C2384.487,3218.893,2366.836,3236.057,2343.065,3236.057z"/>
			<path style="fill:#91B3FA;" d="M1945.516,3147.242c-2.031,0-3.691-1.631-3.72-3.665c-0.029-2.056,1.613-3.745,3.665-3.774
				l35.57-0.519c1.961,0.054,3.745,1.613,3.774,3.665c0.029,2.056-1.613,3.746-3.665,3.774l-35.57,0.519H1945.516z"/>
			<path style="fill:#91B3FA;" d="M1477.416,3212.878c-0.192,0-0.392-0.015-0.589-0.047c-2.031-0.323-3.411-2.23-3.088-4.257
				l5.075-31.781c2.793-17.52,17.698-30.423,35.439-30.684l377.294-5.518c2.118-0.025,3.745,1.613,3.774,3.666
				c0.029,2.052-1.613,3.745-3.665,3.774l-377.294,5.518c-14.12,0.207-25.98,10.473-28.203,24.414l-5.074,31.781
				C1480.794,3211.574,1479.214,3212.878,1477.416,3212.878z"/>
		</g>
		<g>
			<path style="fill:#BDD0FB;" d="M1346.757,1377.105l280.22-2.074c38.286-0.283,69.006,29.263,67.397,64.822l-27.407,605.593
				c-1.503,33.181-30.75,59.458-66.475,59.722l-248.332,1.838c-36.999,0.274-67.199-27.385-67.453-61.776l-4.481-605.358
				C1279.971,1405.482,1309.758,1377.379,1346.757,1377.105z"/>
			<path style="opacity:0.2;fill:#FFFFFF;" d="M1563.996,2227.663l-886.64,10.545c-34.145,0.406-61.063,22.514-59.393,48.781
				l14.763,232.189c1.576,24.774,28.118,44.237,60.325,44.237h871.877c33.357,0,60.397-20.824,60.397-46.511v-242.735
				C1625.326,2248.2,1597.713,2227.261,1563.996,2227.663z"/>
			<path style="fill:#BDD0FB;" d="M2658.722,2163.073l-886.64,12.903c-34.145,0.497-61.063,27.548-59.393,59.688l14.763,284.105
				c1.576,30.313,28.118,54.128,60.326,54.128h871.876c33.357,0,60.398-25.48,60.398-56.911v-297.009
				C2720.052,2188.203,2692.44,2162.583,2658.722,2163.073z"/>
			<path style="fill:#BDD0FB;" d="M1169.764,1349.014H711.772c-37,0-66.995,30.231-66.995,67.521v656.385
				c0,37.291,29.995,67.521,66.995,67.521h457.992c37,0,66.995-30.23,66.995-67.521v-656.385
				C1236.759,1379.245,1206.764,1349.014,1169.764,1349.014z"/>
			<path style="fill:#BDD0FB;" d="M2300.186,1603.452h-457.992c-37,0-66.995,16.201-66.995,36.184v351.757
				c0,19.984,29.995,36.185,66.995,36.185h457.992c37,0,66.995-16.201,66.995-36.185v-351.757
				C2367.181,1619.653,2337.186,1603.452,2300.186,1603.452z"/>
			<path style="fill:#BDD0FB;" d="M3063.897,1572.028h-550.076c-44.439,0-80.464,16.2-80.464,36.184v351.757
				c0,19.984,36.026,36.184,80.464,36.184h550.076c44.439,0,80.464-16.201,80.464-36.184v-351.757
				C3144.361,1588.228,3108.336,1572.028,3063.897,1572.028z"/>
		</g>
		<g>
			
				<linearGradient id="SVGID_00000045609052309631628160000013124100498251763859_" gradientUnits="userSpaceOnUse" x1="1228.49" y1="1544.9591" x2="1473.92" y2="854.6863">
				<stop  offset="0" style="stop-color:#4042E2"/>
				<stop  offset="1" style="stop-color:#4F52FF"/>
			</linearGradient>
			<path style="fill:url(#SVGID_00000045609052309631628160000013124100498251763859_);" d="M1257.223,1619.943l-13.145-57.744
				h-59.623l-13.145,57.744h-42.564l56.649-229.725h57.744l56.806,229.725H1257.223z M1236.097,1524.485l-12.207-53.206
				c-0.73-3.232-2.375-11.346-4.93-24.334c-2.557-12.989-4.096-21.674-4.615-26.055c-1.358,8.974-3.079,18.857-5.165,29.655
				c-2.089,10.798-7.512,35.444-16.276,73.941H1236.097z"/>
			
				<linearGradient id="SVGID_00000047758004021905704700000001012220865460369587_" gradientUnits="userSpaceOnUse" x1="1330.8282" y1="1581.3461" x2="1576.2576" y2="891.0751">
				<stop  offset="0" style="stop-color:#4042E2"/>
				<stop  offset="1" style="stop-color:#4F52FF"/>
			</linearGradient>
			<path style="fill:url(#SVGID_00000047758004021905704700000001012220865460369587_);" d="M1444.851,1461.577
				c0,24.309-6.13,42.956-18.387,55.944c-12.26,12.989-29.967,19.483-53.129,19.483h-10.641v82.939h-42.564v-228.786h58.057
				C1422.631,1391.157,1444.851,1414.63,1444.851,1461.577z M1362.695,1500.073h8.137c10.432,0,18.204-2.868,23.318-8.607
				c5.109-5.736,7.667-15.125,7.667-28.168c0-11.995-2.348-20.891-7.042-26.681c-4.695-5.79-11.946-8.685-21.752-8.685h-10.328
				V1500.073z"/>
			
				<linearGradient id="SVGID_00000031928653386569791120000007967448284698432420_" gradientUnits="userSpaceOnUse" x1="1467.1139" y1="1629.8032" x2="1712.5432" y2="939.5323">
				<stop  offset="0" style="stop-color:#4042E2"/>
				<stop  offset="1" style="stop-color:#4F52FF"/>
			</linearGradient>
			<path style="fill:url(#SVGID_00000031928653386569791120000007967448284698432420_);" d="M1598.366,1461.577
				c0,24.309-6.13,42.956-18.387,55.944c-12.26,12.989-29.967,19.483-53.129,19.483h-10.641v82.939h-42.564v-228.786h58.057
				C1576.146,1391.157,1598.366,1414.63,1598.366,1461.577z M1516.21,1500.073h8.137c10.432,0,18.204-2.868,23.318-8.607
				c5.109-5.736,7.667-15.125,7.667-28.168c0-11.995-2.347-20.891-7.042-26.681s-11.947-8.685-21.752-8.685h-10.328V1500.073z"/>
			
				<linearGradient id="SVGID_00000183217422811449201460000002190643584356137090_" gradientUnits="userSpaceOnUse" x1="1631.8699" y1="1688.3829" x2="1877.2997" y2="998.1105">
				<stop  offset="0" style="stop-color:#4042E2"/>
				<stop  offset="1" style="stop-color:#4F52FF"/>
			</linearGradient>
			<path style="fill:url(#SVGID_00000183217422811449201460000002190643584356137090_);" d="M1669.726,1530.901v89.042h-42.564
				v-228.786h55.709c23.575,0,40.973,5.582,52.189,16.744c11.213,11.165,16.822,28.222,16.822,51.172
				c0,28.899-9.756,49.086-29.263,60.561l43.972,100.309h-45.538l-36.148-89.042H1669.726z M1669.726,1494.283h10.954
				c10.015,0,17.214-2.841,21.595-8.529c4.382-5.685,6.573-14.162,6.573-25.43c0-11.683-2.323-20.004-6.964-24.96
				c-4.642-4.954-11.814-7.433-21.517-7.433h-10.641V1494.283z"/>
			
				<linearGradient id="SVGID_00000005250296320369237540000007635268606921096344_" gradientUnits="userSpaceOnUse" x1="1778.8594" y1="1740.646" x2="2024.2894" y2="1050.373">
				<stop  offset="0" style="stop-color:#4042E2"/>
				<stop  offset="1" style="stop-color:#4F52FF"/>
			</linearGradient>
			<path style="fill:url(#SVGID_00000005250296320369237540000007635268606921096344_);" d="M1944.832,1505.238
				c0,37.87-7.095,66.977-21.282,87.32c-14.189,20.343-34.481,30.515-60.874,30.515c-26.501,0-46.844-10.145-61.031-30.437
				c-14.189-20.29-21.282-49.528-21.282-87.712c0-37.87,7.094-66.899,21.282-87.086c14.187-20.187,34.635-30.28,61.344-30.28
				c26.393,0,46.633,10.147,60.718,30.437C1937.79,1438.287,1944.832,1467.368,1944.832,1505.238z M1823.867,1505.238
				c0,26.082,3.286,45.956,9.858,59.622c6.573,13.668,16.221,20.5,28.951,20.5c25.664,0,38.496-26.706,38.496-80.122
				c0-53.414-12.729-80.123-38.183-80.123c-12.937,0-22.692,6.807-29.264,20.422
				C1827.153,1459.151,1823.867,1479.053,1823.867,1505.238z"/>
			
				<linearGradient id="SVGID_00000113353904499565043790000006625801203308913332_" gradientUnits="userSpaceOnUse" x1="1911.4569" y1="1787.7919" x2="2156.8867" y2="1097.5195">
				<stop  offset="0" style="stop-color:#4042E2"/>
				<stop  offset="1" style="stop-color:#4F52FF"/>
			</linearGradient>
			<path style="fill:url(#SVGID_00000113353904499565043790000006625801203308913332_);" d="M2076.595,1391.157h42.879
				l-53.833,228.786h-54.145l-53.519-228.786h42.877l29.889,139.744c2.712,11.893,5.372,28.95,7.982,51.172
				c2.191-18.881,4.954-35.938,8.294-51.172L2076.595,1391.157z"/>
			
				<linearGradient id="SVGID_00000094614016895030797180000012737373631830317714_" gradientUnits="userSpaceOnUse" x1="2070.7358" y1="1844.4242" x2="2316.1653" y2="1154.1533">
				<stop  offset="0" style="stop-color:#4042E2"/>
				<stop  offset="1" style="stop-color:#4F52FF"/>
			</linearGradient>
			<path style="fill:url(#SVGID_00000094614016895030797180000012737373631830317714_);" d="M2242.787,1619.943h-103.125v-228.786
				h103.125v36.775h-60.561v54.458h56.179v36.931h-56.179v63.377h60.561V1619.943z"/>
			
				<linearGradient id="SVGID_00000132786306733528770200000012303165951679162539_" gradientUnits="userSpaceOnUse" x1="2197.8325" y1="1889.6143" x2="2443.2622" y2="1199.3423">
				<stop  offset="0" style="stop-color:#4042E2"/>
				<stop  offset="1" style="stop-color:#4F52FF"/>
			</linearGradient>
			<path style="fill:url(#SVGID_00000132786306733528770200000012303165951679162539_);" d="M2421.654,1503.359
				c0,37.768-7.696,66.64-23.083,86.617c-15.389,19.979-37.532,29.967-66.429,29.967h-56.022v-228.786h61.187
				c26.602,0,47.311,9.834,62.125,29.498C2414.244,1440.321,2421.654,1467.891,2421.654,1503.359z M2377.993,1504.611
				c0-51.118-14.085-76.679-42.253-76.679h-17.057v154.767h13.771c15.544,0,27.018-6.494,34.427-19.483
				C2374.289,1550.228,2377.993,1530.694,2377.993,1504.611z"/>
		</g>
		<g>
			
				<linearGradient id="SVGID_00000168796716344641833150000009264506198466513045_" gradientUnits="userSpaceOnUse" x1="2992.3298" y1="147.8645" x2="1656.0311" y2="1911.0363">
				<stop  offset="0" style="stop-color:#4042E2"/>
				<stop  offset="1" style="stop-color:#4F52FF"/>
			</linearGradient>
			<path style="fill:url(#SVGID_00000168796716344641833150000009264506198466513045_);" d="M2904.346,992.617
				c-180.328-5.065-1072.325-34.84-1255.399-40.961c-18.065-0.604-32.874,27.152-32.874,61.599v159.223
				c0,34.026,14.468,61.608,32.314,61.608h1255.465c17.846,0,32.313-27.582,32.313-61.608v-118.259
				C2936.166,1020.547,2922.005,993.114,2904.346,992.617z"/>
			<g>
				
					<linearGradient id="SVGID_00000047746912280590254020000004864769765254279848_" gradientUnits="userSpaceOnUse" x1="8425.1641" y1="-191.0712" x2="7878.0586" y2="964.4973" gradientTransform="matrix(-0.9972 0.0747 0.0747 0.9972 9827.8604 24.8171)">
					<stop  offset="0" style="stop-color:#FE7062"/>
					<stop  offset="1" style="stop-color:#FF928E"/>
				</linearGradient>
				<path style="fill:url(#SVGID_00000047746912280590254020000004864769765254279848_);" d="M1715.045,1195.668l48.807-25.565
					c3.796-1.988,8.327-1.981,12.116,0.019l48.729,25.713c9.543,5.036,20.718-3.057,18.91-13.695l-9.231-54.318
					c-0.718-4.224,0.689-8.531,3.762-11.517l39.513-38.398c7.738-7.52,3.494-20.649-7.181-22.216l-54.512-8.006
					c-4.239-0.623-7.901-3.291-9.791-7.137l-24.309-49.444c-4.761-9.683-18.558-9.704-23.348-0.036l-24.459,49.37
					c-1.902,3.839-5.572,6.497-9.813,7.107l-54.536,7.84c-10.681,1.535-14.964,14.651-7.249,22.194l39.396,38.519
					c3.064,2.995,4.457,7.307,3.726,11.528l-9.396,54.29C1694.336,1192.548,1705.486,1200.675,1715.045,1195.668z"/>
			</g>
			<g>
				
					<linearGradient id="SVGID_00000022526971784758619720000018017566600039528608_" gradientUnits="userSpaceOnUse" x1="8230.502" y1="-283.2302" x2="7683.396" y2="872.3381" gradientTransform="matrix(-0.9972 0.0747 0.0747 0.9972 9827.8604 24.8171)">
					<stop  offset="0" style="stop-color:#FE7062"/>
					<stop  offset="1" style="stop-color:#FF928E"/>
				</linearGradient>
				<path style="fill:url(#SVGID_00000022526971784758619720000018017566600039528608_);" d="M1966.878,1202.854l48.807-25.565
					c3.796-1.988,8.327-1.981,12.116,0.019l48.729,25.713c9.543,5.036,20.718-3.057,18.91-13.695l-9.231-54.318
					c-0.718-4.224,0.689-8.531,3.762-11.517l39.513-38.398c7.738-7.52,3.494-20.648-7.181-22.216l-54.512-8.006
					c-4.239-0.623-7.901-3.291-9.791-7.137l-24.309-49.444c-4.761-9.683-18.558-9.704-23.348-0.036l-24.459,49.37
					c-1.902,3.839-5.572,6.497-9.813,7.107l-54.536,7.84c-10.681,1.535-14.964,14.651-7.249,22.194l39.396,38.518
					c3.064,2.995,4.457,7.307,3.726,11.529l-9.396,54.29C1946.17,1199.734,1957.32,1207.861,1966.878,1202.854z"/>
			</g>
			<g>
				
					<linearGradient id="SVGID_00000155856768692747555040000018034362493153035662_" gradientUnits="userSpaceOnUse" x1="8031.5332" y1="-377.4257" x2="7484.4272" y2="778.1426" gradientTransform="matrix(-0.9972 0.0747 0.0747 0.9972 9827.8604 24.8171)">
					<stop  offset="0" style="stop-color:#FE7062"/>
					<stop  offset="1" style="stop-color:#FF928E"/>
				</linearGradient>
				<path style="fill:url(#SVGID_00000155856768692747555040000018034362493153035662_);" d="M2220.91,1204.269l48.807-25.565
					c3.796-1.988,8.327-1.981,12.116,0.019l48.729,25.713c9.543,5.036,20.718-3.057,18.91-13.695l-9.231-54.318
					c-0.718-4.224,0.689-8.531,3.762-11.517l39.512-38.398c7.738-7.52,3.494-20.648-7.181-22.216l-54.512-8.006
					c-4.239-0.623-7.901-3.292-9.791-7.137l-24.309-49.444c-4.76-9.683-18.558-9.704-23.348-0.036l-24.459,49.37
					c-1.902,3.839-5.572,6.497-9.813,7.107l-54.536,7.84c-10.68,1.535-14.964,14.651-7.249,22.195l39.396,38.518
					c3.064,2.995,4.457,7.307,3.727,11.529l-9.396,54.29C2200.202,1201.148,2211.352,1209.275,2220.91,1204.269z"/>
			</g>
			<g>
				
					<linearGradient id="SVGID_00000034069788892956589110000008503785098908022971_" gradientUnits="userSpaceOnUse" x1="7839.0767" y1="-468.5392" x2="7291.9707" y2="687.0291" gradientTransform="matrix(-0.9972 0.0747 0.0747 0.9972 9827.8604 24.8171)">
					<stop  offset="0" style="stop-color:#FE7062"/>
					<stop  offset="1" style="stop-color:#FF928E"/>
				</linearGradient>
				<path style="fill:url(#SVGID_00000034069788892956589110000008503785098908022971_);" d="M2467.495,1207.162l48.807-25.565
					c3.795-1.988,8.326-1.981,12.116,0.019l48.729,25.713c9.543,5.036,20.718-3.057,18.91-13.695l-9.231-54.318
					c-0.718-4.224,0.689-8.531,3.762-11.517l39.513-38.398c7.738-7.52,3.494-20.648-7.181-22.216l-54.512-8.006
					c-4.239-0.623-7.901-3.292-9.791-7.137l-24.309-49.444c-4.761-9.683-18.558-9.704-23.348-0.036l-24.459,49.37
					c-1.902,3.839-5.572,6.497-9.813,7.107l-54.536,7.84c-10.68,1.535-14.964,14.651-7.249,22.194l39.396,38.518
					c3.064,2.995,4.457,7.307,3.727,11.529l-9.396,54.29C2446.787,1204.041,2457.937,1212.168,2467.495,1207.162z"/>
			</g>
			<g>
				
					<linearGradient id="SVGID_00000085216556102290577440000000591041172205585558_" gradientUnits="userSpaceOnUse" x1="7641.894" y1="-561.8909" x2="7094.7881" y2="593.6774" gradientTransform="matrix(-0.9972 0.0747 0.0747 0.9972 9827.8604 24.8171)">
					<stop  offset="0" style="stop-color:#FE7062"/>
					<stop  offset="1" style="stop-color:#FF928E"/>
				</linearGradient>
				<path style="fill:url(#SVGID_00000085216556102290577440000000591041172205585558_);" d="M2718.45,1207.162l48.807-25.565
					c3.796-1.988,8.327-1.981,12.116,0.019l48.729,25.713c9.543,5.036,20.718-3.057,18.91-13.695l-9.231-54.318
					c-0.718-4.224,0.689-8.531,3.761-11.517l39.513-38.398c7.738-7.52,3.494-20.648-7.181-22.216l-54.512-8.006
					c-4.239-0.623-7.901-3.292-9.791-7.137l-24.309-49.444c-4.76-9.683-18.558-9.704-23.348-0.036l-24.459,49.37
					c-1.902,3.839-5.572,6.497-9.813,7.107l-54.536,7.84c-10.68,1.535-14.964,14.651-7.249,22.194l39.396,38.518
					c3.064,2.995,4.457,7.307,3.727,11.529l-9.397,54.29C2697.742,1204.041,2708.892,1212.168,2718.45,1207.162z"/>
			</g>
		</g>
		<g>
			
				<linearGradient id="SVGID_00000057125297471133664110000004318533529892786832_" gradientUnits="userSpaceOnUse" x1="863.8817" y1="4617.5366" x2="-203.8004" y2="6322.3823" gradientTransform="matrix(0.9998 0.0173 -0.0173 0.9998 720.4598 -2564.9292)">
				<stop  offset="0" style="stop-color:#4F52FF"/>
				<stop  offset="1" style="stop-color:#4042E2"/>
			</linearGradient>
			<path style="fill:url(#SVGID_00000057125297471133664110000004318533529892786832_);" d="M743.6,1942.543l789.975,6.524
				c43.583,0.36,79.237,34.81,81.094,78.354l48.853,1145.799c1.453,34.074-25.597,62.583-59.701,62.921l-905.547,8.979
				c-32.046,0.317-58.12-25.713-57.855-57.759l9.519-1152.692C650.363,1983.366,692.296,1942.12,743.6,1942.543z"/>
			<path style="fill:#BDD0FB;" d="M830.736,3227.159h-0.01l-101.299-2.146c-34.099-0.722-61.612-29.057-61.331-63.162l1.263-152.961
				c0.012-1.425,1.177-2.57,2.602-2.558c1.45,0.09,2.573,1.177,2.558,2.602l-1.263,152.96c-0.258,31.296,24.99,57.298,56.28,57.96
				L830.835,3222c1.426,0.03,2.554,1.209,2.525,2.634C833.331,3226.055,832.157,3227.184,830.736,3227.159z"/>
			<path style="fill:#BDD0FB;" d="M672.288,2964.111c-1.414-0.024-2.548-1.184-2.536-2.6l0.203-24.771
				c0.012-1.425,1.176-2.572,2.602-2.56l0.015,0c1.421,0.024,2.555,1.184,2.543,2.6l-0.203,24.771
				c-0.012,1.425-1.176,2.572-2.602,2.56C672.303,2964.111,672.295,2964.111,672.288,2964.111z"/>
			<g>
				
					<linearGradient id="SVGID_00000070827059064746794880000011823852838508411031_" gradientUnits="userSpaceOnUse" x1="1234.0807" y1="2272.8042" x2="202.8611" y2="3787.8816" gradientTransform="matrix(0.9995 -0.0307 0.0307 0.9995 -34.7659 156.024)">
					<stop  offset="0" style="stop-color:#FF928E"/>
					<stop  offset="1" style="stop-color:#FEB3B1"/>
				</linearGradient>
				<path style="fill:url(#SVGID_00000070827059064746794880000011823852838508411031_);" d="M746.106,1933.279
					c107.758,15.52,478.35,63.83,785.254,42.818c13.996-0.959,26.047,9.74,26.676,23.755l51.642,1150.927
					c0.708,15.781-11.449,29.17-27.225,29.974c-129.059,6.568-660.55,31.692-849.874,10.279
					c-11.522-1.303-20.196-11.084-20.168-22.681l2.87-1208.411C715.318,1943.524,729.859,1930.939,746.106,1933.279z"/>
				<path style="opacity:0.6;fill:#FFFFFF;" d="M757.415,1963.217c103.7,14.936,460.337,61.426,755.684,41.206
					c13.469-0.922,25.067,9.373,25.672,22.86l49.696,1107.588c0.682,15.186-11.017,28.072-26.2,28.844
					c-124.198,6.321-635.677,30.498-817.871,9.893c-11.089-1.254-19.437-10.668-19.41-21.827l2.763-1162.907
					C727.786,1973.076,741.779,1960.965,757.415,1963.217z"/>
				<g style="opacity:0.6;">
					<path style="fill:#FFFFFF;" d="M1497.939,2101.575c7.499,0.062,13.428-3.472,13.175-7.854
						c-0.253-4.382-6.596-8.066-14.094-8.187l-658.676-10.632c-7.499-0.121-9.852,4.611-5.229,10.516
						c4.623,5.905,14.541,10.787,22.04,10.849L1497.939,2101.575z"/>
				</g>
				<g style="opacity:0.6;">
					<path style="fill:#FFFFFF;" d="M837.979,2119.15c-7.499-0.121-9.852,4.611-5.229,10.516
						c4.623,5.905,14.541,10.787,22.04,10.849l642.784,5.308c7.499,0.062,13.428-3.473,13.175-7.854
						c-0.253-4.382-6.595-8.066-14.094-8.187L837.979,2119.15z"/>
				</g>
				<path style="fill:#FFFFFF;" d="M944.357,2522.135c-0.081,0.003-0.163,0.005-0.244,0.006l-88.903,1.291
					c-12.811,0.184-23.597-8.378-25.087-19.919l-9.614-74.389c-0.571-4.426,0.701-8.843,3.582-12.441
					c3.217-4.021,8.169-6.614,13.583-7.117l0,0c7.486-0.69,17.791-1.821,29.13-3.062c24.688-2.704,52.669-5.771,69.137-6.373
					c0.122-0.003,0.242-0.01,0.363-0.013c11.783-0.283,22.096,6.656,25.157,16.975c5.053,17.038,5.427,49.469,5.379,84.027
					C966.822,2512.455,956.761,2521.837,944.357,2522.135z M838.345,2416.792c-3.467,0.322-6.598,1.931-8.591,4.424
					c-1.638,2.045-2.367,4.525-2.05,6.976l9.615,74.39c1.017,7.884,8.664,13.727,17.787,13.596l88.903-1.291
					c0.057-0.002,0.117-0.003,0.175-0.004c8.498-0.205,15.391-6.352,15.402-13.772c0.048-33.999-0.306-65.851-5.082-81.957
					c-2.116-7.128-9.972-12.274-18.297-11.773c-16.205,0.593-45.264,3.778-68.615,6.332
					C856.208,2414.962,845.861,2416.094,838.345,2416.792L838.345,2416.792z"/>
				<path style="opacity:0.6;fill:#FFFFFF;" d="M848.072,2424.044c18.641-1.727,59.124-6.826,78.365-7.53
					c8.153-0.298,15.426,4.457,17.509,11.482c4.046,13.645,4.214,41.036,4.179,66.32c-0.011,7.572-6.815,13.781-15.304,13.904
					l-71.045,1.031c-8.737,0.127-16.132-5.654-17.132-13.391l-7.682-59.444C836.167,2430.267,841.162,2424.684,848.072,2424.044z"/>
				<g style="opacity:0.6;">
					<path style="fill:#FFFFFF;" d="M1026.852,2442.863c-7.5,0.002-11.928,5.898-9.841,13.102l5.198,17.939
						c2.087,7.203,9.929,12.949,17.426,12.768l434.867-10.489c7.498-0.181,13.35-6.458,13.005-13.95l-0.271-5.896
						c-0.345-7.492-6.763-13.619-14.263-13.617L1026.852,2442.863z"/>
				</g>
				
					<linearGradient id="SVGID_00000178911035059858527460000004679579018649280663_" gradientUnits="userSpaceOnUse" x1="7006.7642" y1="-9967.7363" x2="7456.7207" y2="-11056.8379" gradientTransform="matrix(0.9998 -0.0241 0.0241 0.9998 1144.9696 -5643.5879)">
					<stop  offset="0" style="stop-color:#FE7062"/>
					<stop  offset="1" style="stop-color:#FF928E"/>
				</linearGradient>
				<path style="fill:url(#SVGID_00000178911035059858527460000004679579018649280663_);" d="M852.138,2435.647L852.138,2435.647
					c6.505-4.031,15.053-1.925,18.941,4.667l18.29,31.003c1.831,3.104,6.417,2.794,7.813-0.528l41.148-97.855
					c2.053-4.881,9.283-3.422,9.332,1.873c0.271,29.622-6.228,86.097-52.405,134.352c0,0-26.317-9.506-48.427-55.106
					C843.635,2447.466,845.915,2439.503,852.138,2435.647z"/>
				<path style="fill:#FFFFFF;" d="M947.806,2322.48c-0.082,0.003-0.163,0.005-0.245,0.006l-88.903,1.291
					c-12.811,0.185-23.596-8.378-25.086-19.918l-9.615-74.389c-0.571-4.426,0.701-8.843,3.582-12.442
					c3.217-4.021,8.169-6.613,13.583-7.116l0,0c7.486-0.691,17.791-1.822,29.13-3.063c24.688-2.704,52.669-5.771,69.137-6.373
					c0.122-0.004,0.242-0.01,0.363-0.012c11.783-0.284,22.096,6.656,25.158,16.975c5.052,17.038,5.426,49.468,5.379,84.027
					C970.271,2312.8,960.21,2322.182,947.806,2322.48z M841.793,2217.138c-3.467,0.321-6.597,1.931-8.591,4.424
					c-1.639,2.044-2.367,4.525-2.05,6.976l9.614,74.389c1.017,7.884,8.665,13.728,17.787,13.596l88.903-1.291
					c0.057-0.001,0.117-0.003,0.175-0.004c8.498-0.205,15.391-6.352,15.403-13.773c0.048-33.999-0.306-65.851-5.081-81.957
					c-2.117-7.129-9.972-12.274-18.298-11.773c-16.205,0.593-45.264,3.778-68.615,6.332
					C859.657,2215.307,849.31,2216.439,841.793,2217.138L841.793,2217.138z"/>
				<path style="opacity:0.6;fill:#FFFFFF;" d="M851.521,2224.389c18.64-1.726,59.124-6.826,78.366-7.53
					c8.153-0.298,15.425,4.457,17.508,11.482c4.046,13.646,4.214,41.035,4.179,66.32c-0.011,7.573-6.815,13.781-15.304,13.905
					l-71.045,1.031c-8.737,0.127-16.132-5.655-17.132-13.391l-7.682-59.444C839.615,2230.612,844.611,2225.03,851.521,2224.389z"/>
				<g style="opacity:0.6;">
					<path style="fill:#FFFFFF;" d="M1030.3,2243.208c-7.5,0.002-11.928,5.898-9.841,13.102l5.198,17.939
						c2.087,7.203,9.929,12.949,17.426,12.768l434.867-10.489c7.497-0.181,13.35-6.458,13.005-13.95l-0.271-5.896
						c-0.345-7.492-6.763-13.619-14.262-13.617L1030.3,2243.208z"/>
				</g>
				
					<linearGradient id="SVGID_00000172440482310521743990000000254216738173563323_" gradientUnits="userSpaceOnUse" x1="6943.4092" y1="-9993.8965" x2="7393.3647" y2="-11082.9961" gradientTransform="matrix(0.9998 -0.0241 0.0241 0.9998 1144.9696 -5643.5879)">
					<stop  offset="0" style="stop-color:#FE7062"/>
					<stop  offset="1" style="stop-color:#FF928E"/>
				</linearGradient>
				<path style="fill:url(#SVGID_00000172440482310521743990000000254216738173563323_);" d="M855.586,2235.992L855.586,2235.992
					c6.505-4.03,15.053-1.925,18.941,4.667l18.289,31.003c1.831,3.104,6.417,2.794,7.814-0.527l41.148-97.854
					c2.053-4.882,9.283-3.422,9.331,1.872c0.271,29.623-6.228,86.097-52.405,134.353c0,0-26.318-9.506-48.427-55.107
					C847.084,2247.811,849.364,2239.849,855.586,2235.992z"/>
				<path style="fill:#FFFFFF;" d="M948.952,2712.631c-0.081,0.002-0.163,0.004-0.244,0.006l-88.903,1.29
					c-12.812,0.185-23.597-8.378-25.087-19.917l-9.614-74.386c-0.572-4.43,0.701-8.846,3.58-12.445
					c3.218-4.022,8.169-6.614,13.584-7.117l0,0c7.486-0.691,17.791-1.821,29.13-3.063c24.688-2.703,52.669-5.77,69.136-6.374
					c0.122-0.002,0.243-0.009,0.362-0.011c11.784-0.285,22.098,6.656,25.158,16.978c5.053,17.035,5.427,49.468,5.378,84.023
					C971.417,2702.952,961.355,2712.332,948.952,2712.631z M842.939,2607.289c-3.464,0.32-6.596,1.931-8.59,4.423
					c-1.639,2.045-2.368,4.526-2.05,6.98l9.615,74.387c1.018,7.884,8.665,13.726,17.788,13.594l88.903-1.29
					c0.056-0.001,0.116-0.002,0.175-0.004c8.497-0.205,15.389-6.352,15.401-13.772c0.049-33.999-0.304-65.852-5.08-81.953
					c-2.118-7.135-9.971-12.187-18.298-11.776c-16.205,0.593-45.265,3.777-68.615,6.332
					C860.802,2605.458,850.455,2606.59,842.939,2607.289L842.939,2607.289z"/>
				<path style="opacity:0.6;fill:#FFFFFF;" d="M852.667,2614.542c18.64-1.728,59.125-6.826,78.365-7.53
					c8.153-0.299,15.425,4.457,17.509,11.482c4.047,13.645,4.214,41.035,4.179,66.319c-0.011,7.572-6.815,13.781-15.304,13.905
					l-71.045,1.03c-8.737,0.127-16.131-5.653-17.132-13.391l-7.682-59.444C840.762,2620.765,845.756,2615.182,852.667,2614.542z"/>
				<g style="opacity:0.6;">
					<path style="fill:#FFFFFF;" d="M1031.446,2633.361c-7.5,0.002-11.928,5.898-9.841,13.101l5.197,17.939
						c2.087,7.204,9.929,12.949,17.426,12.769l434.869-10.489c7.498-0.181,13.35-6.458,13.005-13.95l-0.271-5.897
						c-0.345-7.492-6.763-13.619-14.263-13.617L1031.446,2633.361z"/>
				</g>
				
					<linearGradient id="SVGID_00000011712572010510809200000017306619188065290404_" gradientUnits="userSpaceOnUse" x1="7074.0068" y1="-9939.9531" x2="7523.9634" y2="-11029.0557" gradientTransform="matrix(0.9998 -0.0241 0.0241 0.9998 1144.9696 -5643.5879)">
					<stop  offset="0" style="stop-color:#FE7062"/>
					<stop  offset="1" style="stop-color:#FF928E"/>
				</linearGradient>
				<path style="fill:url(#SVGID_00000011712572010510809200000017306619188065290404_);" d="M856.733,2626.145L856.733,2626.145
					c6.505-4.031,15.053-1.926,18.941,4.666l18.289,31.004c1.831,3.104,6.417,2.793,7.814-0.528l41.148-97.855
					c2.052-4.881,9.284-3.421,9.332,1.874c0.27,29.621-6.229,86.097-52.406,134.353c0,0-26.316-9.507-48.427-55.108
					C848.23,2637.964,850.51,2630.001,856.733,2626.145z"/>
				<path style="fill:#FFFFFF;" d="M945.041,2895.758c-0.078,0.001-0.156,0.003-0.235,0.005l-88.905,1.287
					c-12.81,0.189-23.595-8.374-25.087-19.917l-9.614-74.385c-0.571-4.427,0.702-8.844,3.581-12.443
					c3.217-4.021,8.169-6.613,13.584-7.12l0,0c7.48-0.69,17.773-1.817,29.1-3.058c23.477-2.572,52.695-5.771,69.169-6.373
					c11.693-0.339,22.425,6.535,25.519,16.962c5.052,17.039,5.427,49.468,5.378,84.023
					C967.514,2886.073,957.445,2895.458,945.041,2895.758z M839.034,2790.41c-3.464,0.322-6.596,1.934-8.592,4.427
					c-1.638,2.049-2.366,4.526-2.048,6.977l9.614,74.386c1.018,7.884,8.665,13.73,17.785,13.595l88.905-1.286
					c8.375-0.351,15.564-6.31,15.577-13.78c0.048-33.999-0.305-65.847-5.081-81.954c-2.117-7.131-9.968-12.093-18.298-11.772
					c-16.212,0.589-45.284,3.774-68.643,6.333C856.882,2788.581,846.545,2789.712,839.034,2790.41L839.034,2790.41z"/>
				<path style="opacity:0.6;fill:#FFFFFF;" d="M848.762,2797.664c18.641-1.726,59.124-6.824,78.366-7.529
					c8.153-0.298,15.425,4.455,17.509,11.482c4.046,13.645,4.214,41.035,4.179,66.319c-0.011,7.573-6.816,13.78-15.305,13.904
					l-71.045,1.031c-8.736,0.127-16.131-5.653-17.132-13.391l-7.682-59.444C836.858,2803.888,841.852,2798.305,848.762,2797.664z"/>
				<g style="opacity:0.6;">
					<path style="fill:#FFFFFF;" d="M1027.542,2816.484c-7.5,0.002-11.928,5.898-9.841,13.101l5.197,17.938
						c2.087,7.203,9.929,12.949,17.426,12.768l434.868-10.488c7.498-0.181,13.35-6.458,13.005-13.95l-0.272-5.898
						c-0.345-7.492-6.763-13.619-14.263-13.617L1027.542,2816.484z"/>
				</g>
				
					<linearGradient id="SVGID_00000023984021211684240870000007890935493122138530_" gradientUnits="userSpaceOnUse" x1="7131.4673" y1="-9916.2012" x2="7581.4209" y2="-11005.2969" gradientTransform="matrix(0.9998 -0.0241 0.0241 0.9998 1144.9696 -5643.5879)">
					<stop  offset="0" style="stop-color:#FE7062"/>
					<stop  offset="1" style="stop-color:#FF928E"/>
				</linearGradient>
				<path style="fill:url(#SVGID_00000023984021211684240870000007890935493122138530_);" d="M852.828,2809.269L852.828,2809.269
					c6.505-4.031,15.053-1.926,18.941,4.666l18.29,31.003c1.83,3.104,6.416,2.793,7.813-0.528l41.148-97.854
					c2.052-4.881,9.283-3.422,9.331,1.873c0.27,29.622-6.229,86.096-52.405,134.351c0,0-26.317-9.505-48.427-55.107
					C844.326,2821.086,846.606,2813.124,852.828,2809.269z"/>
				<path style="fill:#FFFFFF;" d="M939.501,3084.639c-0.081,0.002-0.163,0.004-0.244,0.006l-88.904,1.29
					c-12.812,0.186-23.597-8.377-25.086-19.917l-9.614-74.389c-0.571-4.426,0.701-8.843,3.581-12.442
					c3.218-4.021,8.169-6.615,13.584-7.116l0,0c7.486-0.691,17.79-1.822,29.129-3.063c24.688-2.704,52.67-5.77,69.137-6.372
					c12.078-0.132,22.429,6.538,25.52,16.962c5.053,17.039,5.428,49.471,5.379,84.027
					C961.966,3074.959,951.904,3084.34,939.501,3084.639z M833.488,2979.296c-3.466,0.321-6.597,1.931-8.589,4.424
					c-1.639,2.045-2.368,4.525-2.05,6.977l9.615,74.389c1.018,7.884,8.665,13.727,17.787,13.596l88.904-1.291
					c0.057-0.001,0.117-0.003,0.175-0.004c8.496-0.204,15.389-6.351,15.401-13.772c0.049-33.999-0.306-65.851-5.08-81.958
					c-2.117-7.131-9.966-12.002-18.298-11.772c-16.206,0.592-45.265,3.777-68.615,6.332
					C851.352,2977.466,841.004,2978.598,833.488,2979.296L833.488,2979.296z"/>
				<path style="opacity:0.6;fill:#FFFFFF;" d="M843.215,2986.548c18.642-1.726,59.125-6.825,78.367-7.53
					c8.153-0.298,15.425,4.457,17.509,11.482c4.046,13.645,4.214,41.035,4.179,66.319c-0.011,7.573-6.815,13.781-15.304,13.905
					l-71.045,1.031c-8.737,0.127-16.132-5.655-17.133-13.392l-7.681-59.444C831.311,2992.771,836.306,2987.188,843.215,2986.548z"/>
				<g style="opacity:0.6;">
					<path style="fill:#FFFFFF;" d="M1021.995,3005.367c-7.5,0.002-11.928,5.898-9.841,13.102l5.197,17.939
						c2.087,7.203,9.929,12.949,17.426,12.768l434.869-10.489c7.497-0.181,13.35-6.458,13.005-13.95l-0.271-5.897
						c-0.345-7.492-6.763-13.619-14.262-13.617L1021.995,3005.367z"/>
				</g>
				
					<linearGradient id="SVGID_00000102519246899570530900000017008449845701064338_" gradientUnits="userSpaceOnUse" x1="7189.4277" y1="-9892.251" x2="7639.3838" y2="-10981.3516" gradientTransform="matrix(0.9998 -0.0241 0.0241 0.9998 1144.9696 -5643.5879)">
					<stop  offset="0" style="stop-color:#FE7062"/>
					<stop  offset="1" style="stop-color:#FF928E"/>
				</linearGradient>
				<path style="fill:url(#SVGID_00000102519246899570530900000017008449845701064338_);" d="M847.282,2998.151L847.282,2998.151
					c6.505-4.031,15.053-1.925,18.941,4.666l18.289,31.004c1.831,3.103,6.416,2.793,7.813-0.528l41.148-97.854
					c2.053-4.882,9.283-3.423,9.332,1.873c0.27,29.622-6.229,86.097-52.405,134.352c0,0-26.317-9.506-48.427-55.107
					C838.779,3009.97,841.06,3002.007,847.282,2998.151z"/>
			</g>
			
				<linearGradient id="SVGID_00000083793360630034666510000006653609873747656364_" gradientUnits="userSpaceOnUse" x1="2246.4165" y1="3978.8" x2="1894.4171" y2="4441.8472" gradientTransform="matrix(0.8781 0.4785 -0.4785 0.8781 1270.4154 -2813.1836)">
				<stop  offset="0" style="stop-color:#09005D"/>
				<stop  offset="1" style="stop-color:#1A0F91"/>
			</linearGradient>
			<path style="fill:url(#SVGID_00000083793360630034666510000006653609873747656364_);" d="M1188.872,1790.051
				c-28.371-20.086-53.186-19.898-70.695-14.888c-15.972,4.57-26.425,19.867-25.046,36.423l6.853,82.278l89.566,8.694
				C1189.551,1902.558,1244.513,1829.445,1188.872,1790.051z M1148.908,1856.054c-12.343-0.102-22.266-10.191-22.165-22.534
				c0.102-12.343,10.191-22.268,22.534-22.165c12.343,0.102,22.268,10.191,22.165,22.534
				C1171.34,1846.233,1161.251,1856.156,1148.908,1856.054z"/>
			<g>
				<path style="fill:#BDD0FB;" d="M1107.683,1861.347c-1.554-0.584-2.719-2.022-2.865-3.789l-1.091-13.104
					c-0.204-2.443,1.611-4.587,4.054-4.79c2.441-0.208,4.592,1.605,4.794,4.056l1.09,13.104c0.204,2.443-1.612,4.587-4.055,4.789
					C1108.936,1861.669,1108.28,1861.571,1107.683,1861.347z M1105.546,1835.669c-1.554-0.584-2.719-2.021-2.865-3.79l-0.829-9.949
					c-1.403-16.853,9.324-32.441,25.508-37.074c11.078-3.169,22.476-3.546,33.872-1.113c2.359,0.543,3.929,2.87,3.413,5.27
					c-0.511,2.397-2.869,3.928-5.269,3.416c-9.956-2.129-19.907-1.801-29.574,0.964c-12.122,3.468-20.156,15.158-19.103,27.803
					l0.829,9.95c0.203,2.442-1.612,4.585-4.055,4.789C1106.798,1835.991,1106.143,1835.893,1105.546,1835.669z"/>
			</g>
			
				<linearGradient id="SVGID_00000054957901360431285060000003310673736734171039_" gradientUnits="userSpaceOnUse" x1="187.4714" y1="7247.3447" x2="-175.9044" y2="7725.3574" gradientTransform="matrix(1 0.0083 -0.0083 1 1190.2878 -5545.4136)">
				<stop  offset="0" style="stop-color:#09005D"/>
				<stop  offset="1" style="stop-color:#1A0F91"/>
			</linearGradient>
			<path style="fill:url(#SVGID_00000054957901360431285060000003310673736734171039_);" d="M977.214,1945.985l0.342-41.336
				c0.117-14.269,12.038-25.6,26.295-24.993l284.91,12.118c12.644,0.537,22.805,10.606,23.458,23.244l2.054,39.737L977.214,1945.985
				z"/>
			<path style="fill:#BDD0FB;" d="M1071.619,1896.21c-1.413-0.024-2.548-1.184-2.535-2.6c0.012-1.426,1.176-2.571,2.602-2.56
				l12.256,0.101c1.486,0.028,2.573,1.177,2.558,2.601c-0.012,1.426-1.176,2.571-2.602,2.559l-12.256-0.101L1071.619,1896.21z"/>
			<path style="fill:#BDD0FB;" d="M991.203,1935.127c-1.694-0.636-2.893-2.277-2.876-4.194l0.137-16.722
				c0.056-6.866,2.782-13.298,7.678-18.114c4.895-4.815,11.374-7.439,18.242-7.383l45.059,0.374
				c2.439,0.028,4.422,2.023,4.401,4.479c-0.02,2.452-2.025,4.422-4.477,4.404l-45.059-0.375c-9.278-0.076-16.891,7.41-16.966,16.69
				l-0.139,16.723c-0.021,2.452-2.025,4.422-4.477,4.404C992.192,1935.405,991.679,1935.305,991.203,1935.127z"/>
			
				<linearGradient id="SVGID_00000169545581412663642360000009919871244903564964_" gradientUnits="userSpaceOnUse" x1="141.6846" y1="7276.5786" x2="-109.223" y2="7737.2959" gradientTransform="matrix(1 0.0083 -0.0083 1 1190.2878 -5545.4136)">
				<stop  offset="0" style="stop-color:#09005D"/>
				<stop  offset="1" style="stop-color:#1A0F91"/>
			</linearGradient>
			<path style="fill:url(#SVGID_00000169545581412663642360000009919871244903564964_);" d="M888.041,1930.119l498.359,4.103
				c17.92,0.147,33.134,13.169,36.045,30.852l0.402,2.439c3.188,19.368-11.848,36.935-31.476,36.773l-511.288-4.223
				c-11.747-0.097-21.027-9.995-20.366-21.723l1.289-22.876C861.812,1941.156,873.71,1930.002,888.041,1930.119z"/>
		</g>
		<g>
			<g>
				<g>
					<g>
						<g>
							
								<linearGradient id="SVGID_00000055696349432811859720000007755160979250704264_" gradientUnits="userSpaceOnUse" x1="9091.4307" y1="3240.2253" x2="9250.9316" y2="3240.2253" gradientTransform="matrix(-1 0 0 1 12037.9053 0)">
								<stop  offset="0" style="stop-color:#4F52FF"/>
								<stop  offset="1" style="stop-color:#4042E2"/>
							</linearGradient>
							<path style="fill:url(#SVGID_00000055696349432811859720000007755160979250704264_);" d="M2791.478,3232.51
								c27.324,2.362,74.748,6.198,112.134,7.844c22.474,0.99,35.412-1.212,42.863-4.194c-0.013,0.84-0.036,1.633-0.069,2.371
								c-0.176,3.933-3.373,7.081-7.347,7.303c-70.643,3.943-126.825,1.365-146.826,0.148c-4.136-0.253-6.6-4.747-4.486-8.273
								C2788.805,3235.947,2790.086,3234.218,2791.478,3232.51z"/>
							
								<linearGradient id="SVGID_00000027595702515474332970000012669686617695947914_" gradientUnits="userSpaceOnUse" x1="9091.4209" y1="3208.9653" x2="9246.4277" y2="3208.9653" gradientTransform="matrix(-1 0 0 1 12037.9053 0)">
								<stop  offset="0" style="stop-color:#09005D"/>
								<stop  offset="1" style="stop-color:#1A0F91"/>
							</linearGradient>
							<path style="fill:url(#SVGID_00000027595702515474332970000012669686617695947914_);" d="M2903.611,3240.354
								c-37.386-1.646-84.809-5.482-112.134-7.844c26.865-32.96,112.134-55.174,112.134-55.174h24.083
								c16.563,23.876,18.962,46.608,18.781,58.823C2939.023,3239.143,2926.085,3241.344,2903.611,3240.354z"/>
							
								<linearGradient id="SVGID_00000015329303553054924630000012230462804052217476_" gradientUnits="userSpaceOnUse" x1="9106.1563" y1="3165.3213" x2="9151.085" y2="3165.3213" gradientTransform="matrix(-1 0 0 1 12037.9053 0)">
								<stop  offset="0" style="stop-color:#FEBBBA"/>
								<stop  offset="1" style="stop-color:#FF928E"/>
							</linearGradient>
							<path style="fill:url(#SVGID_00000015329303553054924630000012230462804052217476_);" d="M2931.749,3138.019l-2.253,44.597
								c-0.244,4.829-3.859,8.887-8.695,9.579c-4.813,0.688-11.257,0.777-18.091-1.499c-4.205-1.4-7.326-4.942-8.102-9.263
								l-7.787-43.415H2931.749z"/>
						</g>
						<g>
							<g>
								
									<linearGradient id="SVGID_00000013191195585812109080000009163620493904898482_" gradientUnits="userSpaceOnUse" x1="8773.4521" y1="3236.7852" x2="8834.5752" y2="3236.7852" gradientTransform="matrix(-1 0 0 1 12037.9053 0)">
									<stop  offset="0" style="stop-color:#4F52FF"/>
									<stop  offset="1" style="stop-color:#4042E2"/>
								</linearGradient>
								<path style="fill:url(#SVGID_00000013191195585812109080000009163620493904898482_);" d="M3244.55,3240.019
									c11.849-1.652,17.211-7.808,19.458-14.389c0.015,0.06,0.031,0.118,0.045,0.177c1.743,6.943-2.298,14.136-10.378,17.558
									c-9.767,4.135-20.443,4.84-28.734,4.498c-8.893-0.366-17.058-4.047-21.544-9.937l-0.067-0.089
									C3212.258,3242.256,3224.788,3242.776,3244.55,3240.019z"/>
								
									<linearGradient id="SVGID_00000175280757498979513680000003663125078101595575_" gradientUnits="userSpaceOnUse" x1="8773.8965" y1="3189.7222" x2="8863.6143" y2="3189.7222" gradientTransform="matrix(-1 0 0 1 12037.9053 0)">
									<stop  offset="0" style="stop-color:#09005D"/>
									<stop  offset="1" style="stop-color:#1A0F91"/>
								</linearGradient>
								<path style="fill:url(#SVGID_00000175280757498979513680000003663125078101595575_);" d="M3188.682,3137.734h19.86
									c30.252-0.619,49.249,63.188,55.466,87.897c-2.247,6.581-7.609,12.737-19.458,14.389c-19.762,2.757-32.292,2.237-41.22-2.18
									c-16.344-21.507-24.447-53.005-28.342-71.388C3170.559,3145.543,3188.682,3137.734,3188.682,3137.734z"/>
							</g>
							
								<linearGradient id="SVGID_00000132789165498509047830000011555518615635051684_" gradientUnits="userSpaceOnUse" x1="8820.5303" y1="3127.8677" x2="8874.2236" y2="3127.8677" gradientTransform="matrix(-1 0 0 1 12037.9053 0)">
								<stop  offset="0" style="stop-color:#FEBBBA"/>
								<stop  offset="1" style="stop-color:#FF928E"/>
							</linearGradient>
							<path style="fill:url(#SVGID_00000132789165498509047830000011555518615635051684_);" d="M3205.989,3096.341l11.028,43.863
								c1.353,5.378-1.221,10.941-6.194,13.492c-6.17,3.166-14.855,6.493-22.838,5.53c-3.754-0.453-6.873-3.097-8.114-6.632
								l-16.19-46.149L3205.989,3096.341z"/>
						</g>
						
							<linearGradient id="SVGID_00000034054626655783909920000013327411378238526604_" gradientUnits="userSpaceOnUse" x1="3317.8018" y1="1596.7251" x2="3036.4089" y2="2708.8926">
							<stop  offset="0" style="stop-color:#4F52FF"/>
							<stop  offset="1" style="stop-color:#4042E2"/>
						</linearGradient>
						<path style="fill:url(#SVGID_00000034054626655783909920000013327411378238526604_);" d="M3219.144,3109.019
							c-13.721,12.171-58.35,13.778-58.35,13.778c-160.76-385.842-226.523-440.656-226.523-440.656
							c23.213,145.634,3.743,468.05,3.743,468.05c-26.528,11.706-60.73,0-60.73,0c-2.155-238.422-38.801-446.35-82.094-610.276
							c108.655-2.442,166.436-39.624,185.304-54.546C3071.066,2631.387,3219.144,3109.019,3219.144,3109.019z"/>
						
							<linearGradient id="SVGID_00000100375875862675880600000007347508850789309085_" gradientUnits="userSpaceOnUse" x1="2956.5364" y1="2103.26" x2="2481.0154" y2="2860.0022">
							<stop  offset="0" style="stop-color:#FE7062"/>
							<stop  offset="1" style="stop-color:#FF928E"/>
						</linearGradient>
						<path style="fill:url(#SVGID_00000100375875862675880600000007347508850789309085_);" d="M2952.899,2041.65
							c20.566,102.583,13.196,286.189,8.354,369.937c-1.36,23.538,15.072,56.171,28.353,78.433c2.083,3.492,0.797,7.963-2.82,9.822
							c-22.235,11.428-97.568,46.849-184.876,51.255c-5.821,0.294-11.019-3.672-12.528-9.302
							c-64.763-241.817-139.985-396.34-139.985-396.34C2732.446,2012.834,2952.899,2041.65,2952.899,2041.65z"/>
						<path style="fill:#91B3FA;" d="M2923.302,2673.007c0.913,0,1.838-0.247,2.675-0.755c2.426-1.483,3.195-4.645,1.719-7.069
							c-0.865-1.423-21.66-35.034-63.741-55.337c-2.557-1.227-5.637-0.166-6.875,2.398c-1.235,2.559-0.162,5.641,2.401,6.873
							c39.23,18.931,59.223,51.099,59.422,51.421C2919.873,2672.127,2921.567,2673.007,2923.302,2673.007z"/>
						<g>
							
								<linearGradient id="SVGID_00000052065123190073959860000009272562467200813198_" gradientUnits="userSpaceOnUse" x1="9066.5254" y1="2345.2134" x2="8875.3857" y2="2514.4712" gradientTransform="matrix(-1 0 0 1 12037.9053 0)">
								<stop  offset="0" style="stop-color:#FEBBBA"/>
								<stop  offset="1" style="stop-color:#FF928E"/>
							</linearGradient>
							<path style="fill:url(#SVGID_00000052065123190073959860000009272562467200813198_);" d="M3081.899,2336.063
								c-6.606,47.789-26.124,99.914-65.168,155.282l-14.843-12.099c0,0,17.134-69.516,7.394-148.408
								C3033.367,2326.139,3061.813,2330.983,3081.899,2336.063z"/>
							
								<linearGradient id="SVGID_00000047061536399592754330000006357187972231804596_" gradientUnits="userSpaceOnUse" x1="3038.7312" y1="2154.9094" x2="2563.2109" y2="2911.6501">
								<stop  offset="0" style="stop-color:#FE7062"/>
								<stop  offset="1" style="stop-color:#FF928E"/>
							</linearGradient>
							<path style="fill:url(#SVGID_00000047061536399592754330000006357187972231804596_);" d="M2929.929,2168.225l22.971-126.575
								c0,0,153.479,117.317,129,294.413c-20.087-5.081-48.532-9.924-72.617-5.225
								C3002.265,2274.007,2981.307,2212.311,2929.929,2168.225z"/>
						</g>
						<g>
							
								<linearGradient id="SVGID_00000134947111145417605370000001591029298536762517_" gradientUnits="userSpaceOnUse" x1="2812.8359" y1="2012.9615" x2="2337.3154" y2="2769.7029">
								<stop  offset="0" style="stop-color:#FE7062"/>
								<stop  offset="1" style="stop-color:#FF928E"/>
							</linearGradient>
							<path style="fill:url(#SVGID_00000134947111145417605370000001591029298536762517_);" d="M2649.398,2145.454l59.242,127.588
								c-9.579,77.029-50.958,110.335-95.574,123.11c-2.783-35.106-11.659-63.469-19.896-83.087
								C2650.178,2254.206,2649.398,2145.454,2649.398,2145.454z"/>
							
								<linearGradient id="SVGID_00000029757596870788435530000002136868922524781189_" gradientUnits="userSpaceOnUse" x1="9424.8398" y1="2361.2231" x2="9575.3711" y2="2361.2231" gradientTransform="matrix(-1 0 0 1 12037.9053 0)">
								<stop  offset="0" style="stop-color:#FEBBBA"/>
								<stop  offset="1" style="stop-color:#FF928E"/>
							</linearGradient>
							<path style="fill:url(#SVGID_00000029757596870788435530000002136868922524781189_);" d="M2593.169,2313.065
								c8.237,19.619,17.114,47.981,19.896,83.087c-119.038,46.184-150.531-43.385-150.531-43.385l22-3.881
								C2534.215,2354.119,2568.917,2338.103,2593.169,2313.065z"/>
						</g>
						
							<linearGradient id="SVGID_00000047762316570719280770000010186061812721377445_" gradientUnits="userSpaceOnUse" x1="9278.5205" y1="1958.9502" x2="9276.876" y2="2240.0552" gradientTransform="matrix(-1 0 0 1 12037.9053 0)">
							<stop  offset="0" style="stop-color:#FEBBBA"/>
							<stop  offset="1" style="stop-color:#FF928E"/>
						</linearGradient>
						<path style="fill:url(#SVGID_00000047762316570719280770000010186061812721377445_);" d="M2703.98,1987.938l28.6,105.138
							c3.213,11.811,15.989,18.154,27.355,13.611c12.265-4.903,27.826-11.596,41.222-18.829c14.3-7.72,18.773-26.114,9.722-39.611
							l-59.462-88.661L2703.98,1987.938z"/>
					</g>
					
						<linearGradient id="SVGID_00000152952212631806574150000017688076179033147290_" gradientUnits="userSpaceOnUse" x1="8860.1211" y1="2471.4934" x2="9648.3857" y2="2471.4934" gradientTransform="matrix(-1 0 0 1 12037.9053 0)">
						<stop  offset="0" style="stop-color:#09005D"/>
						<stop  offset="1" style="stop-color:#1A0F91"/>
					</linearGradient>
					<path style="fill:url(#SVGID_00000152952212631806574150000017688076179033147290_);" d="M2407.976,2282.411l732.866,266.733
						c30.737,11.188,45.43,46.186,31.888,75.961l-2.224,4.889c-11.981,26.344-43.118,37.898-69.383,25.748l-711.604-329.192
						L2407.976,2282.411z"/>
					<ellipse style="opacity:0.23;fill:#FFFFFF;" cx="2071.121" cy="2121.962" rx="361.778" ry="355.251"/>
					
						<linearGradient id="SVGID_00000139978484113694167950000006706955507842312850_" gradientUnits="userSpaceOnUse" x1="9564.2236" y1="2121.9626" x2="10369.3438" y2="2121.9626" gradientTransform="matrix(-1 0 0 1 12037.9053 0)">
						<stop  offset="0" style="stop-color:#09005D"/>
						<stop  offset="1" style="stop-color:#1A0F91"/>
					</linearGradient>
					<path style="fill:url(#SVGID_00000139978484113694167950000006706955507842312850_);" d="M1668.561,2121.962
						c0,218.319,180.232,395.299,402.56,395.299c222.329,0,402.561-176.98,402.561-395.299
						c0-218.316-180.232-395.297-402.561-395.297C1848.793,1726.664,1668.561,1903.646,1668.561,2121.962z M1727.695,2121.962
						c0-186.247,153.757-337.231,343.426-337.231s343.426,150.984,343.426,337.231c0,186.249-153.757,337.231-343.426,337.231
						S1727.695,2308.21,1727.695,2121.962z"/>
					<g>
						<path style="fill:#BDD0FB;" d="M2443.076,2169.93c-0.073,0-0.146-0.005-0.22-0.013c-0.932-0.12-1.594-0.974-1.475-1.907
							c1.178-9.226,2.01-18.647,2.477-28.002c0.046-0.937,0.882-1.666,1.784-1.618c0.942,0.047,1.665,0.847,1.618,1.788
							c-0.466,9.441-1.308,18.95-2.497,28.265C2444.654,2169.303,2443.918,2169.93,2443.076,2169.93z M2440.31,2059.397
							c-0.809,0-1.528-0.579-1.675-1.403c-4.504-25.114-11.721-49.817-21.452-73.425
							c-57.353-139.126-193.19-229.024-346.062-229.024c-71.291,0-140.591,19.803-200.411,57.268
							c-0.796,0.501-1.848,0.26-2.35-0.539c-0.499-0.799-0.256-1.851,0.539-2.35c60.365-37.804,130.291-57.787,202.222-57.787
							c154.257,0,291.333,90.726,349.211,231.134c9.827,23.831,17.111,48.769,21.659,74.121c0.167,0.927-0.449,1.813-1.378,1.979
							C2440.513,2059.389,2440.409,2059.397,2440.31,2059.397z"/>
					</g>
					
						<linearGradient id="SVGID_00000160886478364807360970000014961926150950807940_" gradientUnits="userSpaceOnUse" x1="9142.0078" y1="2430.4521" x2="8950.8662" y2="2599.7122" gradientTransform="matrix(-1 0 0 1 12037.9053 0)">
						<stop  offset="0" style="stop-color:#FEBBBA"/>
						<stop  offset="1" style="stop-color:#FF928E"/>
					</linearGradient>
					<path style="fill:url(#SVGID_00000160886478364807360970000014961926150950807940_);" d="M3008.009,2477.139l-69.281-5.646
						l-30.005,27.658c0,0,7.099,9.813,29.292,4.173c22.192-5.64,52.591-7.023,52.591-7.023s30.636,13.812,31.01-12.031
						L3008.009,2477.139z"/>
					
						<linearGradient id="SVGID_00000041979671739222151490000015811509457577881003_" gradientUnits="userSpaceOnUse" x1="9559.3789" y1="2343.5442" x2="9613.2852" y2="2343.5442" gradientTransform="matrix(-1 0 0 1 12037.9053 0)">
						<stop  offset="0" style="stop-color:#FEBBBA"/>
						<stop  offset="1" style="stop-color:#FF928E"/>
					</linearGradient>
					<path style="fill:url(#SVGID_00000041979671739222151490000015811509457577881003_);" d="M2471.358,2369.155
						c-5.991,4.681-26.519-5.092-39.081-11.848c-6.122-3.292-9.087-10.451-6.986-17.077c3.023-9.533,8.06-21.837,14.266-23.389
						C2449.855,2314.266,2496.049,2349.865,2471.358,2369.155z"/>
					<path style="fill:#BDD0FB;" d="M3126.385,2644.491c-0.706,0-1.368-0.443-1.611-1.147c-0.306-0.89,0.163-1.861,1.055-2.169
						c21.106-7.299,32.162-19.17,32.857-35.283c0.709-16.302-9.591-31.458-25.624-37.711l-87.996-34.312
						c-0.875-0.341-1.312-1.33-0.969-2.207c0.343-0.879,1.325-1.315,2.207-0.969l87.996,34.312
						c17.394,6.785,28.563,23.275,27.794,41.034c-0.766,17.65-12.59,30.557-35.155,38.359
						C3126.758,2644.461,3126.568,2644.491,3126.385,2644.491z"/>
					<path style="fill:#BDD0FB;" d="M3018.571,2523.413c-0.207,0-0.416-0.037-0.619-0.116l-11.405-4.448
						c-0.875-0.341-1.312-1.33-0.969-2.207c0.34-0.879,1.325-1.315,2.207-0.969l11.405,4.448c0.876,0.341,1.312,1.33,0.969,2.207
						C3019.896,2523.002,3019.253,2523.413,3018.571,2523.413z"/>
					<g>
						
							<linearGradient id="SVGID_00000029047336837893327180000004579956309584631478_" gradientUnits="userSpaceOnUse" x1="7012.0674" y1="1932.5887" x2="6876.7378" y2="2036.1366" gradientTransform="matrix(-1 0 0 1 9704.9053 0)">
							<stop  offset="0" style="stop-color:#FEBBBA"/>
							<stop  offset="1" style="stop-color:#FF928E"/>
						</linearGradient>
						<path style="fill:url(#SVGID_00000029047336837893327180000004579956309584631478_);" d="M2697.8,1884.722
							c0,0-23.673,54.38-25.262,82.923c-1.59,28.543-7.741,47.063,25.262,52.811c33.003,5.748,60.805-10.693,75.866-39.125
							c0,0,23.599-43.81,18.305-61.751C2786.678,1901.639,2697.8,1884.722,2697.8,1884.722z"/>
						
							<linearGradient id="SVGID_00000062152258284335066600000015302507700474826426_" gradientUnits="userSpaceOnUse" x1="6916.9927" y1="1850.8488" x2="7039.5356" y2="2008.6224" gradientTransform="matrix(-1 0 0 1 9704.9053 0)">
							<stop  offset="0" style="stop-color:#09005D"/>
							<stop  offset="1" style="stop-color:#1A0F91"/>
						</linearGradient>
						<path style="fill:url(#SVGID_00000062152258284335066600000015302507700474826426_);" d="M2762.388,1960.89h-4.171
							c0,0,17.191-35.26,2.086-41.455c-15.104-6.195-74.936-18.396-87.844-39.626c-12.444-20.466-1.345-46.903,15.259-54.301
							c1.051-0.469,2.289,0.026,2.827,1.043l1.376,2.602c0.942,1.783,3.574,1.513,4.135-0.424l0,0
							c0.531-1.837,3.008-2.238,4.018-0.614c3.951,6.348,14.652,16.672,43.349,21.969c40.72,7.516,67.641,23.996,68.302,52.138
							c0.042,1.783,1.948,2.766,3.471,1.838c3.006-1.832,7.817-2.691,14.246,2.715c11.181,9.401,6.606,33.79-17.905,53.851
							c-1.165,0.953-1.155,2.772,0.106,3.593c4.444,2.893,11.067,9.776-6.097,18.95c-17.558,9.386-27.947,8.362-31.869,7.359
							c-1.055-0.27-1.765-1.231-1.697-2.318l1.54-24.94c0.08-1.29-0.944-2.379-2.237-2.379H2762.388z"/>
						
							<linearGradient id="SVGID_00000165945515779940849250000015417751453512151686_" gradientUnits="userSpaceOnUse" x1="6995.2808" y1="1910.6506" x2="6859.9521" y2="2014.1975" gradientTransform="matrix(-1 0 0 1 9704.9053 0)">
							<stop  offset="0" style="stop-color:#FEBBBA"/>
							<stop  offset="1" style="stop-color:#FF928E"/>
						</linearGradient>
						<path style="fill:url(#SVGID_00000165945515779940849250000015417751453512151686_);" d="M2761.364,1966.107
							c0,0,9.031-34.737,24.605-24.997c15.574,9.739-8.082,38.921-20.602,40.221L2761.364,1966.107z"/>
					</g>
				</g>
			</g>
		</g>
		
			<linearGradient id="SVGID_00000027604014183688062980000013024490614825467837_" gradientUnits="userSpaceOnUse" x1="1891.4915" y1="2353.9385" x2="2586.8772" y2="998.9566">
			<stop  offset="0" style="stop-color:#FE7062"/>
			<stop  offset="1" style="stop-color:#FF928E"/>
		</linearGradient>
		<path style="fill:url(#SVGID_00000027604014183688062980000013024490614825467837_);" d="M1877.747,1991.621
			c60.953,59.899,113.639,122.142,159.602,186.291c68.477-156.135,141.473-301.189,220.487-431.489l193.753-64.579
			c-133.477,174.044-275.769,433.398-397.413,693.523c-87.955-123.955-175.836-247.663-239.223-291.561L1877.747,1991.621z"/>
	</g>
</g>
</svg>
