<svg width="239" height="189" viewBox="0 0 239 189" fill="none" xmlns="http://www.w3.org/2000/svg">
    <path d="M238.081 167.495H0V167.614H238.081V167.495Z" fill="#EBEBEB" />
    <path d="M211.363 174.359H182.846V174.478H211.363V174.359Z" fill="#EBEBEB" />
    <path d="M161.372 171.783H136.34V171.902H161.372V171.783Z" fill="#EBEBEB" />
    <path d="M180.268 174.3H172.483V174.419H180.268V174.3Z" fill="#EBEBEB" />
    <path d="M49.8911 171.723H26.7178V171.842H49.8911V171.723Z" fill="#EBEBEB" />
    <path d="M56.9737 171.723H52.0083V171.842H56.9737V171.723Z" fill="#EBEBEB" />
    <path d="M96.3431 172.749H80.3193V172.868H96.3431V172.749Z" fill="#EBEBEB" />
    <path
        d="M112.857 146.259H20.9108C19.4123 146.259 18.1929 145.04 18.1929 143.541V14.2958C18.1929 12.7973 19.4123 11.5779 20.9108 11.5779H112.857C114.355 11.5779 115.575 12.7973 115.575 14.2958V143.541C115.575 145.04 114.355 146.259 112.857 146.259ZM20.9108 11.6974C19.4776 11.6974 18.3119 12.863 18.3119 14.2963V143.542C18.3119 144.975 19.4776 146.141 20.9108 146.141H112.857C114.29 146.141 115.456 144.975 115.456 143.542V14.2958C115.456 12.863 114.29 11.6969 112.857 11.6969L20.9108 11.6974Z"
        fill="#EBEBEB" />
    <path
        d="M215.849 146.259H123.903C122.405 146.259 121.186 145.04 121.186 143.541V14.2958C121.186 12.7973 122.405 11.5779 123.903 11.5779H215.849C217.348 11.5779 218.567 12.7973 218.567 14.2958V143.541C218.567 145.04 217.348 146.259 215.849 146.259ZM123.903 11.6974C122.47 11.6974 121.305 12.863 121.305 14.2963V143.542C121.305 144.975 122.47 146.141 123.903 146.141H215.849C217.282 146.141 218.448 144.975 218.448 143.542V14.2958C218.448 12.863 217.282 11.6969 215.849 11.6969L123.903 11.6974Z"
        fill="#EBEBEB" />
    <path
        d="M119.04 78.858C78.3733 78.858 45.4062 111.825 45.4062 152.492H192.674C192.674 111.825 159.707 78.858 119.04 78.858Z"
        fill="#F0F0F0" />
    <path
        d="M230.095 167.495C220.523 167.495 54.5581 167.495 54.5581 167.495C54.5581 167.495 73.2075 155.097 91.4244 144.093C109.641 133.088 119.986 133.199 130.733 141.147C141.479 149.095 163.341 142.428 180.268 139.053C212.864 132.553 214.531 160.017 230.095 167.495Z"
        fill="#F5F5F5" />
    <path
        d="M8.70561 167.495C7.01238 167.495 196.632 167.495 196.632 167.495C196.632 167.495 185.522 167.456 163.459 156.451C141.397 145.446 132.509 146.669 119.494 154.617C106.479 162.565 88.2237 144.669 58.0917 141.911C23.1538 138.712 25.1332 167.495 8.70561 167.495Z"
        fill="#EBEBEB" />
    <path
        d="M194.89 22.6496C189.3 23.311 188.764 23.8476 188.102 29.4378C187.441 23.8476 186.904 23.3115 181.314 22.6496C186.904 21.9882 187.44 21.4516 188.102 15.8615C188.764 21.4516 189.3 21.9882 194.89 22.6496Z"
        fill="#F0F0F0" />
    <path
        d="M37.3788 63.0666C33.7276 63.499 33.3771 63.8489 32.9453 67.5001C32.5129 63.8489 32.1629 63.4985 28.5117 63.0666C32.1629 62.6342 32.5134 62.2843 32.9453 58.6331C33.3771 62.2843 33.7276 62.6347 37.3788 63.0666Z"
        fill="#F0F0F0" />
    <path
        d="M208.294 84.341C204.474 84.7929 204.108 85.1596 203.655 88.9798C203.203 85.1596 202.837 84.7934 199.017 84.341C202.837 83.8892 203.203 83.5225 203.655 79.7023C204.108 83.5225 204.474 83.8892 208.294 84.341Z"
        fill="#EBEBEB" />
    <path
        d="M76.7968 3.77072C73.6913 4.13832 73.3937 4.43592 73.0261 7.54145C72.6585 4.43592 72.3609 4.13832 69.2554 3.77072C72.3609 3.40313 72.6585 3.10553 73.0261 0C73.3932 3.10505 73.6913 3.40313 76.7968 3.77072Z"
        fill="#F0F0F0" />
    <path
        d="M45.5517 25.418C43.5437 24.5133 41.1929 25.4347 40.3291 27.4503C38.3135 26.5865 35.9761 27.5403 35.1451 29.5802C34.33 31.5824 35.368 33.8675 37.355 34.7189L42.8618 37.0792C43.7403 37.4559 44.7579 37.0488 45.1345 36.1702L47.4949 30.6634C48.3467 28.6769 47.523 26.3061 45.5517 25.418Z"
        fill="#EBEBEB" />
    <path
        d="M211.361 43.5898C210.775 41.7694 208.814 40.7899 207.012 41.4061C206.396 39.6043 204.421 38.6524 202.623 39.3038C200.858 39.9433 199.989 41.9418 200.596 43.7183L202.279 48.6413C202.548 49.4265 203.402 49.8456 204.187 49.5775L209.11 47.8947C210.886 47.2871 211.935 45.3768 211.361 43.5898Z"
        fill="#F0F0F0" />
    <path
        d="M161.382 8.32044C161.382 9.0223 160.813 9.59131 160.111 9.59131C159.409 9.59131 158.84 9.0223 158.84 8.32044C158.84 7.61857 159.409 7.04956 160.111 7.04956C160.813 7.04956 161.382 7.61857 161.382 8.32044Z"
        fill="#EBEBEB" />
    <path
        d="M156.525 22.6495C156.525 23.3514 155.956 23.9204 155.254 23.9204C154.552 23.9204 153.983 23.3514 153.983 22.6495C153.983 21.9477 154.552 21.3787 155.254 21.3787C155.956 21.3787 156.525 21.9477 156.525 22.6495Z"
        fill="#F0F0F0" />
    <path
        d="M41.0042 101.313C41.0042 102.014 40.4351 102.583 39.7333 102.583C39.0314 102.583 38.4624 102.014 38.4624 101.313C38.4624 100.611 39.0314 100.042 39.7333 100.042C40.4351 100.042 41.0042 100.611 41.0042 101.313Z"
        fill="#F0F0F0" />
    <path
        d="M204.168 107.551C204.168 108.253 203.599 108.822 202.897 108.822C202.195 108.822 201.626 108.253 201.626 107.551C201.626 106.849 202.195 106.28 202.897 106.28C203.599 106.28 204.168 106.849 204.168 107.551Z"
        fill="#F0F0F0" />
    <path
        d="M119.04 189C170.029 189 211.363 186.586 211.363 183.608C211.363 180.631 170.029 178.217 119.04 178.217C68.052 178.217 26.7178 180.631 26.7178 183.608C26.7178 186.586 68.052 189 119.04 189Z"
        fill="#F5F5F5" />
    <path
        d="M122.387 129.66C165.923 127.437 199.847 98.8211 198.158 65.7446C196.469 32.6681 159.807 7.65655 116.271 9.87977C72.7348 12.103 38.8112 40.7191 40.5003 73.7956C42.1894 106.872 78.8515 131.884 122.387 129.66Z"
        fill="#FFDD98" />
    <path opacity="0.6"
        d="M122.387 129.66C165.923 127.437 199.847 98.8211 198.158 65.7446C196.469 32.6681 159.807 7.65655 116.271 9.87977C72.7348 12.103 38.8112 40.7191 40.5003 73.7956C42.1894 106.872 78.8515 131.884 122.387 129.66Z"
        fill="white" />
    <path opacity="0.2"
        d="M194.21 87.0685L162.787 84.7605L196.766 79.6146C197.608 76.3091 198.092 72.9189 198.196 69.4695L161.993 81.4422L197.509 60.0077C196.844 56.2556 195.724 52.6287 194.192 49.1579L159.99 78.6804L188.729 39.6832C186.35 36.3939 183.571 33.3074 180.438 30.4586L157.082 76.8958L170.431 22.9066C166.614 20.5158 162.486 18.405 158.101 16.6099L153.712 76.3596L143.989 12.1544C138.907 10.9874 133.604 10.2069 128.139 9.85791L150.394 77.1534L110.034 10.2784C103.565 10.9893 97.3472 12.2868 91.4704 14.0915L147.632 79.1566L71.4011 22.9776C65.0715 26.7883 59.5056 31.2914 54.8959 36.3196L145.848 82.064L42.7305 56.5675C40.9192 62.0448 40.0825 67.7858 40.3773 73.6707C40.4463 75.0473 40.5811 76.4086 40.7692 77.7562L145.311 85.4338L49.9067 99.882C54.1355 105.694 59.6228 110.87 66.0857 115.215L146.105 88.7517L86.1464 124.938C91.9675 126.865 98.1643 128.257 104.628 129.044L148.108 91.5135L119.932 129.746C120.711 129.725 121.49 129.697 122.274 129.658C126.028 129.47 129.709 129.081 133.304 128.515L151.016 93.2981L142.794 126.551C146.025 125.717 149.165 124.733 152.199 123.61L154.385 93.8347L158.5 121.007C160.998 119.865 163.41 118.626 165.724 117.294L157.703 93.041L170.534 114.302C172.668 112.869 174.701 111.352 176.627 109.762L160.465 91.0382L180.811 106.032C182.747 104.16 184.543 102.203 186.19 100.171L162.25 88.1308L189.962 94.9828C191.611 92.4329 193.032 89.7893 194.21 87.0685Z"
        fill="#FFDD98" />
    <path
        d="M178.397 48.9479L178.349 48.9827C182.096 42.8183 168.876 43.8996 160.734 55.3056C160.114 50.0136 148.127 58.7049 146.695 64.037L182.678 59.4901C186.882 58.9592 188.975 54.1357 186.518 50.6835C186.41 50.5316 186.301 50.3797 186.191 50.2288C184.375 47.7375 180.887 47.1314 178.397 48.9479Z"
        fill="white" />
    <path
        d="M80.611 60.4086C82.0271 56.8374 80.9215 53.8614 71.4225 60.7953C73.9576 56.9098 69.0208 58.424 64.2925 61.7652C63.2983 61.1953 60.916 61.5257 56.902 64.456C59.6999 60.1677 49.5277 65.2512 47.3535 69.9571L79.6092 65.8812C79.6092 65.8812 87.3835 61.8862 80.611 60.4086Z"
        fill="white" />
    <path
        d="M101.606 89.4169C103.803 86.3709 99.8988 82.2268 87.8948 90.9887C91.0984 86.0785 84.8602 87.9917 78.8844 92.2143C77.6278 91.4944 74.6175 91.912 69.5449 95.6146C73.0809 90.1954 60.2264 96.6193 57.4785 102.566L98.2394 97.4154C98.2394 97.4154 111.124 86.748 101.606 89.4169Z"
        fill="white" />
    <path
        d="M135.776 83.2284C136.107 84.2292 136.529 85.3658 136.979 86.4915C137.44 87.6195 137.915 88.769 138.435 89.9008C139.453 92.1759 140.591 94.4105 141.781 96.5495C142.38 97.6161 143.005 98.6536 143.654 99.6374C144.291 100.629 144.953 101.573 145.628 102.424C146.297 103.275 147.002 104.022 147.622 104.606C148.239 105.192 148.814 105.549 148.996 105.659L147.864 105.44C147.411 105.403 146.919 105.468 146.506 105.598C146.109 105.71 145.784 105.907 145.605 106.031C145.214 106.329 145.229 106.425 145.291 106.398C145.458 106.323 145.867 105.777 146.227 105.156C146.591 104.515 146.968 103.761 147.323 102.96C147.681 102.159 148.005 101.304 148.335 100.433C148.67 99.5617 148.987 98.665 149.291 97.7551C149.598 96.8456 149.913 95.9257 150.203 94.9938L151.98 89.3804L152.009 89.2889C152.565 87.53 154.443 86.5548 156.202 87.1119C157.543 87.5362 158.427 88.7356 158.526 90.057C158.683 92.235 158.679 94.2963 158.608 96.4271C158.559 97.4842 158.506 98.5479 158.411 99.615C158.31 100.682 158.19 101.755 158.038 102.842C157.881 103.928 157.674 105.02 157.424 106.144C157.174 107.266 156.871 108.414 156.43 109.624C155.974 110.844 155.456 112.11 154.373 113.623C153.805 114.378 153.113 115.217 151.861 116.046C151.26 116.45 150.462 116.839 149.584 117.095C148.683 117.355 147.683 117.452 146.727 117.382C146.416 117.359 146.114 117.306 145.824 117.227L145.595 117.162C143.161 116.484 141.388 115.366 139.885 114.26C138.381 113.14 137.171 111.937 136.055 110.737C134.947 109.531 133.958 108.307 133.033 107.071C132.12 105.826 131.28 104.568 130.483 103.3C129.682 102.033 128.939 100.749 128.242 99.4455C127.545 98.1427 126.868 96.8347 126.254 95.4929C125.639 94.1515 125.039 92.7997 124.505 91.395C123.962 89.9875 123.458 88.5623 123.02 86.9524C122.058 83.4112 124.149 79.7609 127.69 78.7986C131.108 77.8696 134.629 79.7862 135.734 83.1055L135.776 83.2284Z"
        fill="#FFB573" />
    <path opacity="0.1"
        d="M135.776 83.2284C136.107 84.2292 136.529 85.3658 136.979 86.4915C137.44 87.6195 137.915 88.769 138.435 89.9008C139.453 92.1759 140.591 94.4105 141.781 96.5495C142.38 97.6161 143.005 98.6536 143.654 99.6374C144.291 100.629 144.953 101.573 145.628 102.424C146.297 103.275 147.002 104.022 147.622 104.606C148.239 105.192 148.814 105.549 148.996 105.659L147.864 105.44C147.411 105.403 146.919 105.468 146.506 105.598C146.109 105.71 145.784 105.907 145.605 106.031C145.214 106.329 145.229 106.425 145.291 106.398C145.458 106.323 145.867 105.777 146.227 105.156C146.591 104.515 146.968 103.761 147.323 102.96C147.681 102.159 148.005 101.304 148.335 100.433C148.67 99.5617 148.987 98.665 149.291 97.7551C149.598 96.8456 149.913 95.9257 150.203 94.9938L151.98 89.3804L152.009 89.2889C152.565 87.53 154.443 86.5548 156.202 87.1119C157.543 87.5362 158.427 88.7356 158.526 90.057C158.683 92.235 158.679 94.2963 158.608 96.4271C158.559 97.4842 158.506 98.5479 158.411 99.615C158.31 100.682 158.19 101.755 158.038 102.842C157.881 103.928 157.674 105.02 157.424 106.144C157.174 107.266 156.871 108.414 156.43 109.624C155.974 110.844 155.456 112.11 154.373 113.623C153.805 114.378 153.113 115.217 151.861 116.046C151.26 116.45 150.462 116.839 149.584 117.095C148.683 117.355 147.683 117.452 146.727 117.382C146.416 117.359 146.114 117.306 145.824 117.227L145.595 117.162C143.161 116.484 141.388 115.366 139.885 114.26C138.381 113.14 137.171 111.937 136.055 110.737C134.947 109.531 133.958 108.307 133.033 107.071C132.12 105.826 131.28 104.568 130.483 103.3C129.682 102.033 128.939 100.749 128.242 99.4455C127.545 98.1427 126.868 96.8347 126.254 95.4929C125.639 94.1515 125.039 92.7997 124.505 91.395C123.962 89.9875 123.458 88.5623 123.02 86.9524C122.058 83.4112 124.149 79.7609 127.69 78.7986C131.108 77.8696 134.629 79.7862 135.734 83.1055L135.776 83.2284Z"
        fill="black" />
    <path
        d="M158.897 79.0838L155.873 77.9024C154.496 77.3639 152.945 78.0629 152.435 79.4519L150.784 83.9564L151.381 91.5469L155.718 93.1982C159.43 92.7582 159.723 85.8196 159.723 85.8196L160.516 82.0908C160.786 80.827 160.1 79.5542 158.897 79.0838Z"
        fill="#FFB573" />
    <path opacity="0.1"
        d="M158.897 79.0838L155.873 77.9024C154.496 77.3639 152.945 78.0629 152.435 79.4519L150.784 83.9564L151.381 91.5469L155.718 93.1982C159.43 92.7582 159.723 85.8196 159.723 85.8196L160.516 82.0908C160.786 80.827 160.1 79.5542 158.897 79.0838Z"
        fill="black" />
    <path
        d="M122.332 82.7198C125.872 75.1736 136.304 75.1284 145.005 92.2326C142.349 100.914 130.541 107.551 130.541 107.551C130.541 107.551 118.076 91.7912 122.332 82.7198Z"
        fill="#FFBE3C" />
    <path opacity="0.3"
        d="M122.332 82.7198C125.872 75.1736 136.304 75.1284 145.005 92.2326C142.349 100.914 130.541 107.551 130.541 107.551C130.541 107.551 118.076 91.7912 122.332 82.7198Z"
        fill="black" />
    <path
        d="M175.135 169.686C173.992 160.127 138.054 141.654 138.054 141.654L108.109 140.207C101.786 156.526 106.756 163.781 113.609 166.003C107.753 166.941 102.605 168.458 99.0996 169.665C95.1565 171.023 93.5109 175.882 96.0803 179.167C96.8507 180.152 97.8159 180.852 98.9001 181.149C98.9001 181.149 178.291 196.067 175.135 169.686Z"
        fill="#263238" />
    <path opacity="0.4"
        d="M175.135 169.686C173.992 160.127 138.054 141.654 138.054 141.654L108.109 140.207C101.786 156.526 106.756 163.781 113.609 166.003C107.753 166.941 102.605 168.458 99.0996 169.665C95.1565 171.023 93.5109 175.882 96.0803 179.167C96.8507 180.152 97.8159 180.852 98.9001 181.149C98.9001 181.149 178.291 196.067 175.135 169.686Z"
        fill="black" />
    <path
        d="M85.2515 179.994L88.5008 173.038C88.7265 172.764 88.716 172.389 88.4751 172.135L83.4587 167.002C81.5631 165.543 78.8576 165.952 77.4424 167.88C75.8949 169.99 75.054 172.231 72.5579 174.15C68.5744 177.213 69.9419 175.975 64.197 177.286C60.7234 178.079 60.9125 181.742 62.4709 181.722C69.5657 181.631 75.9787 181.69 83.1273 180.772C83.9044 180.672 84.6577 180.451 85.2515 179.994Z"
        fill="#FFBE3C" />
    <path
        d="M162.102 171.664C160.959 162.105 120.115 143.687 120.115 143.687L92.3619 140.207C86.0389 156.526 91.0096 163.781 97.862 166.003C92.0067 166.941 86.8579 168.458 83.3529 169.665C79.4098 171.023 79.3613 174.912 80.0817 178.43C80.4945 180.445 82.0687 180.852 83.1534 181.149C83.1534 181.149 165.258 198.044 162.102 171.664Z"
        fill="#263238" />
    <path opacity="0.1"
        d="M115.321 177.644C100.041 177.644 86.9055 175.727 86.6889 175.695C86.5808 175.678 86.506 175.578 86.5222 175.47C86.5384 175.361 86.6408 175.286 86.747 175.303C87.1003 175.356 121.826 180.422 144.074 173.995C133.276 172.351 96.2607 161.992 97.4492 150.723C97.4606 150.614 97.5587 150.534 97.6663 150.547C97.7749 150.558 97.8539 150.656 97.8425 150.764C97.2111 156.754 108.028 162.323 117.212 165.94C128.269 170.293 140.347 173.16 145.029 173.728C145.122 173.739 145.194 173.813 145.202 173.906C145.21 173.999 145.152 174.085 145.063 174.113C136.246 176.822 125.323 177.644 115.321 177.644Z"
        fill="white" />
    <path
        d="M131.541 78.1634C122.764 76.0283 118.139 75.4597 112.406 75.2055C100.791 74.6902 91.4957 84.632 92.708 96.1947C95.2584 120.52 91.8248 135.585 91.4243 141.011C107.907 151.831 134.093 147.411 138.503 142.982C143.367 123.008 141.77 100.951 140.975 91.2959C140.544 86.0729 137.003 79.4919 131.541 78.1634Z"
        fill="#FFBE3C" />
    <path opacity="0.2"
        d="M131.541 78.1634C122.764 76.0283 118.139 75.4597 112.406 75.2055C100.791 74.6902 91.4957 84.632 92.708 96.1947C95.2584 120.52 91.8248 135.585 91.4243 141.011C107.907 151.831 134.093 147.411 138.503 142.982C143.367 123.008 141.77 100.951 140.975 91.2959C140.544 86.0729 137.003 79.4919 131.541 78.1634Z"
        fill="black" />
    <path opacity="0.3"
        d="M128.597 144.291C128.589 144.291 128.582 144.29 128.574 144.289C128.465 144.277 128.387 144.178 128.4 144.07C130.546 125.654 131.734 94.8557 128.27 87.3404C128.224 87.2414 128.268 87.1238 128.367 87.0781C128.466 87.0314 128.583 87.0757 128.629 87.1747C132.464 95.4942 130.628 128.366 128.793 144.116C128.781 144.217 128.696 144.291 128.597 144.291Z"
        fill="#263238" />
    <path
        d="M112.616 61.2716C113.099 69.7125 112.031 72.9904 110.605 77.0616C111.477 80.3362 119.581 84.1397 126.894 85.0906C129.527 82.307 129.133 79.5462 128.461 78.3001C126.327 77.473 124.306 74.8946 125.869 71.0653L112.616 61.2716Z"
        fill="#FFB573" />
    <path opacity="0.2"
        d="M121.627 67.5717L121.622 67.5665L118.816 66.4275C118.79 67.1132 118.824 68.4688 119.413 69.7092C120.201 71.3948 123.265 73.0928 125.329 73.2828C125.371 72.5976 125.545 71.8591 125.867 71.0629L121.627 67.5717Z"
        fill="black" />
    <path
        d="M128.13 39.9824C134.606 43.2156 135.092 46.6215 132.773 50.1632C124.751 45.8463 128.13 39.9824 128.13 39.9824Z"
        fill="#263238" />
    <path
        d="M109.794 54.4649C112.686 62.3468 113.979 67.1108 119.263 69.9844C127.21 74.307 136.014 67.5727 135.533 58.9627C135.099 51.2127 130.442 39.6253 121.634 38.8506C112.956 38.0878 106.901 46.583 109.794 54.4649Z"
        fill="#FFB573" />
    <path
        d="M135.551 35.1065C134.863 36.1817 133.905 36.8735 132.904 37.3178C132.433 34.0546 126.7 29.0602 116.63 29.0602C117.91 29.7292 118.779 30.3192 119.378 30.8115C116.777 31.621 116.649 34.1137 116.649 34.1137C116.649 34.1137 106.468 35.2122 103.731 41.3918C103.222 40.0267 102.771 38.2263 103.124 36.6626C101.835 37.8444 100.155 43.7688 102.321 46.4963C98.0276 48.1438 100.509 52.0683 100.509 52.0683C100.509 52.0683 100.59 50.637 100.898 50.3294C102.085 51.7798 101.294 56.9652 105.117 58.6351C103.93 63.2933 113.466 67.0726 113.686 63.6886C113.906 60.305 113.917 58.4103 113.917 58.4103C114.822 58.3013 116.653 57.2456 116.63 56.9356C116.455 54.5401 113.517 53.1392 112.792 51.7369C115.253 52.1602 117.377 51.0969 117.729 50.098C116.132 50.6551 114.335 49.927 113.19 49.219C113.454 45.7911 120.322 44.3088 127.309 44.7045C127.697 44.7264 128.062 44.7259 128.412 44.7107C128.425 44.7107 128.437 44.7121 128.451 44.7116C128.456 44.7107 128.462 44.7097 128.468 44.7092C130.268 44.6216 131.559 44.0664 132.427 43.316C135.45 41.2704 135.774 37.5949 135.551 35.1065Z"
        fill="#263238" />
    <path
        d="M107.95 60.7353C109.17 62.5114 111.103 63.5504 112.856 63.8356C115.494 64.2647 116.54 61.831 115.579 59.4945C114.714 57.3913 112.299 54.6333 109.762 55.27C107.262 55.8966 106.554 58.7045 107.95 60.7353Z"
        fill="#FFB573" />
    <path
        d="M129.121 51.3893C129.121 51.3893 131.481 54.8891 133.556 56.3633C132.619 57.7341 130.504 57.6903 130.504 57.6903L129.121 51.3893Z"
        fill="#ED893E" />
    <path
        d="M127.413 60.832C124.803 61.0706 123.24 59.5788 123.168 59.5088C123.089 59.4316 123.088 59.305 123.166 59.225C123.244 59.145 123.37 59.1431 123.449 59.2197C123.467 59.2373 125.291 60.9668 128.207 60.2992C128.315 60.2749 128.421 60.342 128.445 60.4501C128.469 60.5582 128.4 60.6658 128.292 60.6906C127.988 60.7606 127.694 60.8063 127.413 60.832Z"
        fill="#263238" />
    <path
        d="M119.659 50.8298C119.593 50.8313 119.525 50.816 119.462 50.7822C119.268 50.6779 119.197 50.4346 119.302 50.2389C120.365 48.28 122.209 48.0986 122.287 48.0914C122.508 48.0719 122.701 48.2357 122.718 48.4566C122.735 48.6766 122.571 48.8709 122.351 48.8914C122.291 48.8971 120.855 49.0542 120.006 50.6175C119.934 50.7503 119.799 50.827 119.659 50.8298Z"
        fill="#263238" />
    <path
        d="M123.253 53.4777C123.202 53.4696 123.152 53.4492 123.109 53.4149C122.975 53.3087 122.953 53.113 123.061 52.9778C124.139 51.6245 125.573 51.7359 125.634 51.7412C125.806 51.7564 125.93 51.9078 125.913 52.0788C125.897 52.2492 125.745 52.3754 125.574 52.3611C125.527 52.3573 124.408 52.2826 123.547 53.3625C123.474 53.4544 123.361 53.4944 123.253 53.4777Z"
        fill="#263238" />
    <path
        d="M133.908 51.1774C133.955 51.1535 133.995 51.1183 134.026 51.0716C134.119 50.9283 134.078 50.736 133.933 50.6417C132.48 49.7003 131.156 50.2612 131.1 50.2855C130.942 50.3545 130.872 50.5374 130.942 50.6945C131.012 50.8512 131.196 50.9226 131.354 50.855C131.398 50.8364 132.435 50.4103 133.594 51.1612C133.691 51.225 133.812 51.2273 133.908 51.1774Z"
        fill="#263238" />
    <path
        d="M133.897 47.7399C133.775 47.7857 133.635 47.7709 133.523 47.6885C132.1 46.6457 130.74 47.1333 130.683 47.1547C130.476 47.2319 130.247 47.1271 130.17 46.92C130.094 46.7129 130.199 46.4819 130.405 46.4029C130.48 46.3757 132.216 45.731 133.997 47.0376C134.175 47.1681 134.213 47.4195 134.082 47.5995C134.034 47.6661 133.969 47.7133 133.897 47.7399Z"
        fill="#263238" />
    <path
        d="M109.409 84.0164C109.774 84.7625 110.32 85.6668 110.985 86.5853C111.657 87.5014 112.424 88.4571 113.273 89.3861C114.124 90.3141 115.021 91.2531 115.977 92.1564C116.935 93.0582 117.932 93.9453 118.952 94.8133C119.976 95.6781 121.032 96.5147 122.11 97.318C123.18 98.1327 124.275 98.9112 125.381 99.6402C126.484 100.373 127.611 101.041 128.704 101.661C129.791 102.268 130.887 102.79 131.771 103.126L130.714 102.915C130.995 103.012 131.459 103.034 132.114 102.912C132.763 102.79 133.556 102.506 134.394 102.096C135.229 101.686 136.112 101.159 136.996 100.562C137.881 99.9592 138.757 99.2721 139.636 98.5469C140.519 97.8241 141.391 97.0504 142.247 96.2385C143.107 95.4314 143.967 94.5981 144.804 93.732C145.644 92.8682 146.485 91.9907 147.303 91.0879C147.718 90.6412 148.127 90.1884 148.531 89.7322L149.715 88.4018L149.835 88.2671C151.053 86.8995 153.149 86.7776 154.517 87.9957C155.617 88.9751 155.908 90.5265 155.348 91.8064C155.048 92.4892 154.775 93.0649 154.477 93.6801C154.178 94.281 153.873 94.8767 153.559 95.469C152.92 96.6447 152.257 97.8113 151.544 98.9545C150.823 100.093 150.082 101.23 149.278 102.338C148.471 103.444 147.621 104.536 146.712 105.61C145.797 106.681 144.807 107.717 143.737 108.733C142.659 109.745 141.496 110.73 140.156 111.63C138.826 112.537 137.319 113.369 135.543 114.001C133.779 114.632 131.677 115.018 129.43 114.842C129.171 114.821 128.92 114.778 128.678 114.714L128.372 114.63C126.423 114.101 124.792 113.449 123.224 112.752C121.665 112.056 120.209 111.272 118.784 110.467C117.362 109.656 115.984 108.804 114.637 107.91C113.298 107.005 111.99 106.059 110.707 105.07C108.134 103.097 105.695 100.918 103.382 98.4288C102.236 97.1732 101.107 95.8476 100.062 94.3524C99.014 92.8597 98.0164 91.2198 97.1974 89.2508C95.7889 85.8644 97.3927 81.9775 100.779 80.569C104.035 79.2148 107.753 80.6447 109.287 83.7659L109.409 84.0164Z"
        fill="#FFB573" />
    <path d="M148.658 91.9316L148.061 84.3411L157 86.2043C157 86.2043 156.707 93.1429 152.995 93.5829L148.658 91.9316Z"
        fill="#FFB573" />
    <path
        d="M153.15 78.2871L156.173 79.4685C157.377 79.9389 158.063 81.2112 157.794 82.475L157.001 86.2038L148.061 84.3406L149.713 79.8361C150.222 78.4476 151.773 77.7491 153.15 78.2871Z"
        fill="#FFB573" />
    <path
        d="M97.856 86.8776C99.5878 80.3556 109.513 75.105 119.523 93.2667C118.415 101.103 110.012 107.27 110.012 107.27C110.012 107.27 95.639 95.2266 97.856 86.8776Z"
        fill="white" />
    <path
        d="M95.7118 86.2043C97.6045 78.6096 108.104 71.3305 118.438 90.4541C117.188 99.4464 108.28 107.551 108.28 107.551C108.28 107.551 93.2886 95.9266 95.7118 86.2043Z"
        fill="#FFBE3C" />
    <path opacity="0.2"
        d="M95.7118 86.2043C97.6045 78.6096 108.104 71.3305 118.438 90.4541C117.188 99.4464 108.28 107.551 108.28 107.551C108.28 107.551 93.2886 95.9266 95.7118 86.2043Z"
        fill="black" />
</svg>