<svg width="249" height="190" viewBox="0 0 249 190" fill="none" xmlns="http://www.w3.org/2000/svg">
    <path d="M206.492 28.7196V13.2582H42.3499V20.1374V60.8306H14.9053V112.607H49.0355" stroke="#FFBE3C"
        stroke-width="1.0658" stroke-miterlimit="10" stroke-dasharray="3.2 3.2" />
    <path d="M29.1587 144.015V143.192" stroke="#FFBE3C" stroke-width="1.0658" stroke-miterlimit="10" />
    <path d="M29.1587 141.635V123.723" stroke="#FFBE3C" stroke-width="1.0658" stroke-miterlimit="10"
        stroke-dasharray="3.02 3.02" />
    <path d="M29.1589 122.944V122.121H28.3354" stroke="#FFBE3C" stroke-width="1.0658" stroke-miterlimit="10" />
    <path d="M26.776 122.121H2.60303" stroke="#FFBE3C" stroke-width="1.0658" stroke-miterlimit="10"
        stroke-dasharray="3.03 3.03" />
    <path d="M1.82347 122.121H1V121.298" stroke="#FFBE3C" stroke-width="1.0658" stroke-miterlimit="10" />
    <path d="M1 119.627V93.7249" stroke="#FFBE3C" stroke-width="1.0658" stroke-miterlimit="10"
        stroke-dasharray="3.24 3.24" />
    <path d="M1 92.889V92.0656H1.82347" stroke="#FFBE3C" stroke-width="1.0658" stroke-miterlimit="10" />
    <path d="M3.4126 92.0656H34.4034" stroke="#FFBE3C" stroke-width="1.0658" stroke-miterlimit="10"
        stroke-dasharray="3.09 3.09" />
    <path d="M35.1982 92.0655H36.0212V91.2421" stroke="#FFBE3C" stroke-width="1.0658" stroke-miterlimit="10" />
    <path d="M36.021 89.6168V22.1459" stroke="#FFBE3C" stroke-width="1.0658" stroke-miterlimit="10"
        stroke-dasharray="3.16 3.16" />
    <path d="M36.021 21.3327V20.5098H36.8445" stroke="#FFBE3C" stroke-width="1.0658" stroke-miterlimit="10" />
    <path d="M38.5049 20.5098H94.1214" stroke="#FFBE3C" stroke-width="1.0658" stroke-miterlimit="10"
        stroke-dasharray="3.22 3.22" />
    <path d="M94.9512 20.5097H95.7746V19.6863" stroke="#FFBE3C" stroke-width="1.0658" stroke-miterlimit="10" />
    <path d="M95.7744 18.0626V2.63513" stroke="#FFBE3C" stroke-width="1.0658" stroke-miterlimit="10"
        stroke-dasharray="3.15 3.15" />
    <path d="M95.7744 1.82346V1H96.5979" stroke="#FFBE3C" stroke-width="1.0658" stroke-miterlimit="10" />
    <path d="M98.249 1H123.837" stroke="#FFBE3C" stroke-width="1.0658" stroke-miterlimit="10"
        stroke-dasharray="3.21 3.21" />
    <path d="M124.662 1H125.486V1.82346" stroke="#FFBE3C" stroke-width="1.0658" stroke-miterlimit="10" />
    <path d="M125.486 3.53015V19.7471" stroke="#FFBE3C" stroke-width="1.0658" stroke-miterlimit="10"
        stroke-dasharray="3.31 3.31" />
    <path d="M125.486 20.6003V21.4238H126.309" stroke="#FFBE3C" stroke-width="1.0658" stroke-miterlimit="10" />
    <path d="M127.975 21.4238H153.806" stroke="#FFBE3C" stroke-width="1.0658" stroke-miterlimit="10"
        stroke-dasharray="3.24 3.24" />
    <path d="M154.64 21.4238H155.463V22.2468" stroke="#FFBE3C" stroke-width="1.0658" stroke-miterlimit="10" />
    <path d="M155.463 24.1301V26.9548" stroke="#FFBE3C" stroke-width="1.0658" stroke-miterlimit="10"
        stroke-dasharray="3.66 3.66" />
    <path d="M155.463 27.8962V28.7197H156.286" stroke="#FFBE3C" stroke-width="1.0658" stroke-miterlimit="10" />
    <path d="M157.879 28.7196H204.871" stroke="#FFBE3C" stroke-width="1.0658" stroke-miterlimit="10"
        stroke-dasharray="3.09 3.09" />
    <path d="M205.668 28.7196H206.491V29.5426" stroke="#FFBE3C" stroke-width="1.0658" stroke-miterlimit="10" />
    <path d="M206.491 31.0392V39.2697" stroke="#FFBE3C" stroke-width="1.0658" stroke-miterlimit="10"
        stroke-dasharray="2.91 2.91" />
    <path d="M206.491 40.0179V40.8414H207.314" stroke="#FFBE3C" stroke-width="1.0658" stroke-miterlimit="10" />
    <path d="M209.048 40.8414H232.452" stroke="#FFBE3C" stroke-width="1.0658" stroke-miterlimit="10"
        stroke-dasharray="3.37 3.37" />
    <path d="M233.319 40.8414H234.142V41.6649" stroke="#FFBE3C" stroke-width="1.0658" stroke-miterlimit="10" />
    <path d="M234.142 43.3319V65.8384" stroke="#FFBE3C" stroke-width="1.0658" stroke-miterlimit="10"
        stroke-dasharray="3.24 3.24" />
    <path d="M234.142 66.6721V67.4956H233.319" stroke="#FFBE3C" stroke-width="1.0658" stroke-miterlimit="10" />
    <path d="M231.532 67.4956H214.559" stroke="#FFBE3C" stroke-width="1.0658" stroke-miterlimit="10"
        stroke-dasharray="3.47 3.47" />
    <path d="M213.665 67.4956H212.842V68.3185" stroke="#FFBE3C" stroke-width="1.0658" stroke-miterlimit="10" />
    <path d="M212.842 69.9279V130.279" stroke="#FFBE3C" stroke-width="1.0658" stroke-miterlimit="10"
        stroke-dasharray="3.12 3.12" />
    <path d="M212.842 131.083V131.906" stroke="#FFBE3C" stroke-width="1.0658" stroke-miterlimit="10" />
    <path d="M230.614 181.997H16.9214V190H230.614V181.997Z" fill="#FFDD98" />
    <path d="M203.471 153.664H44.0658L16.9214 181.997H230.614L203.471 153.664Z" fill="#FFBE3C" />
    <path
        d="M122.783 175.743C166.335 175.743 201.641 172.438 201.641 168.361C201.641 164.285 166.335 160.98 122.783 160.98C79.2309 160.98 43.9248 164.285 43.9248 168.361C43.9248 172.438 79.2309 175.743 122.783 175.743Z"
        fill="#FFDD98" />
    <path d="M106.984 142.463L103.585 166.045H143.95L140.126 142.463H106.984Z" fill="#FFDD98" />
    <path d="M157.972 169.444H89.5635V171.144H157.972V169.444Z" fill="#FFBE3C" />
    <path d="M103.585 166.045L89.5635 169.444H157.972L143.95 166.045H103.585Z" fill="#FFBE3C" />
    <path
        d="M202.126 129.82H45.4092V48.5266C45.4092 45.1953 48.1099 42.4945 51.4413 42.4945H196.094C199.426 42.4945 202.126 45.1953 202.126 48.5266V129.82Z"
        fill="#FFAA00" stroke="#FBA700" />
    <path
        d="M196.122 145.438H51.414C47.8214 145.438 44.9092 142.525 44.9092 138.933V130.32H202.626V138.933C202.626 142.525 199.714 145.438 196.122 145.438Z"
        fill="#FFBE3C" />
    <path d="M196.807 47.0934H50.7285V124.85H196.807V47.0934Z" fill="#B6CEFF" />
    <path
        d="M126.848 137.278C126.848 138.98 125.469 140.359 123.768 140.359C122.066 140.359 120.687 138.98 120.687 137.278C120.687 135.577 122.066 134.198 123.768 134.198C125.469 134.198 126.848 135.577 126.848 137.278Z"
        fill="#F98816" />
    <path d="M125.485 55.9688H73.7583V116.346H125.485V55.9688Z" fill="#FFBE3C" />
    <path d="M118.01 64.2024H81.2344V67.4957H118.01V64.2024Z" fill="#E4EAFE" />
    <path d="M118.01 70.24H81.2344V73.5333H118.01V70.24Z" fill="#E4EAFE" />
    <path d="M118.01 76.2777H81.2344V79.571H118.01V76.2777Z" fill="#E4EAFE" />
    <path d="M118.01 82.3154H81.2344V85.6088H118.01V82.3154Z" fill="#E4EAFE" />
    <path d="M118.01 88.3531H81.2344V91.6465H118.01V88.3531Z" fill="#E4EAFE" />
    <path d="M118.01 94.3909H81.2344V97.6842H118.01V94.3909Z" fill="#E4EAFE" />
    <path d="M118.01 100.429H81.2344V103.722H118.01V100.429Z" fill="#E4EAFE" />
    <path d="M118.01 106.466H81.2344V109.76H118.01V106.466Z" fill="#E4EAFE" />
    <path
        d="M160.314 77.8696V72.6079H157.04C156.763 71.4121 156.3 70.2874 155.68 69.2688L158.013 66.9354L154.293 63.2151L151.977 65.53C150.965 64.8986 149.846 64.4217 148.654 64.1323V60.8302H143.393V64.105C142.197 64.381 141.072 64.844 140.053 65.4651L137.719 63.1317L133.999 66.8519L136.314 69.1668C135.683 70.1793 135.206 71.2978 134.917 72.49H131.615V77.7511H134.89C135.166 78.9469 135.629 80.0722 136.25 81.0908L133.917 83.4237L137.637 87.1439L139.952 84.8286C140.964 85.4605 142.083 85.9378 143.275 86.2268V89.5289H148.537V86.2541C149.732 85.9775 150.858 85.515 151.876 84.894L154.209 87.2274L157.929 83.5071L155.615 81.1917C156.247 80.1793 156.723 79.0612 157.012 77.869L160.314 77.8696ZM145.965 80.2364C143.172 80.2364 140.908 77.9726 140.908 75.1803C140.908 72.3875 143.172 70.1231 145.965 70.1231C148.757 70.1231 151.021 72.387 151.021 75.1803C151.021 77.9726 148.758 80.2364 145.965 80.2364Z"
        fill="#F98816" />
    <path
        d="M179.938 94.0051V89.863H177.36C177.142 88.9216 176.778 88.0359 176.29 87.234L178.127 85.3971L175.198 82.4678L173.375 84.2904C172.578 83.7934 171.697 83.4175 170.759 83.1904V80.5907H166.617V83.1687C165.675 83.386 164.789 83.7507 163.988 84.2394L162.15 82.4024L159.221 85.3311L161.044 87.1537C160.546 87.9509 160.171 88.8315 159.943 89.7703H157.344V93.9124H159.922C160.14 94.8538 160.504 95.7395 160.993 96.5414L159.156 98.3783L162.085 101.308L163.908 99.4845C164.705 99.982 165.586 100.358 166.524 100.585V103.185H170.666V100.607C171.608 100.389 172.494 100.025 173.295 99.536L175.133 101.373L178.062 98.4437L176.239 96.6212C176.737 95.824 177.112 94.9439 177.34 94.0051H179.938ZM168.641 95.8683C166.442 95.8683 164.66 94.0859 164.66 91.8874C164.66 89.6884 166.443 87.9061 168.641 87.9061C170.839 87.9061 172.622 89.6884 172.622 91.8874C172.622 94.0864 170.839 95.8683 168.641 95.8683Z"
        fill="#F98816" />
    <path
        d="M157.262 103.589V100.65H155.433C155.279 99.9821 155.02 99.3538 154.674 98.7847L155.977 97.4813L153.899 95.4033L152.606 96.6964C152.04 96.3437 151.415 96.0774 150.749 95.9157V94.071H147.81V95.9003C147.142 96.0543 146.514 96.3128 145.945 96.6599L144.642 95.3564L142.564 97.4344L143.857 98.7275C143.504 99.293 143.238 99.9177 143.076 100.584H141.232V103.523H143.061C143.215 104.191 143.474 104.819 143.821 105.388L142.517 106.692L144.595 108.77L145.888 107.477C146.454 107.83 147.079 108.096 147.744 108.257V110.102H150.683V108.272C151.351 108.118 151.98 107.859 152.549 107.513L153.852 108.816L155.93 106.738L154.637 105.445C154.99 104.88 155.256 104.255 155.418 103.589H157.262ZM149.247 104.912C147.687 104.912 146.422 103.647 146.422 102.087C146.422 100.527 147.687 99.2626 149.247 99.2626C150.807 99.2626 152.071 100.527 152.071 102.087C152.071 103.647 150.807 104.912 149.247 104.912Z"
        fill="#F98816" />
    <path opacity="0.24" d="M120.052 47.0934L88.6465 124.85H106.03L137.154 47.0934H120.052Z" fill="white" />
    <path opacity="0.24" d="M147.968 47.0934L118.645 124.85H125.632L155.463 47.0934H147.968Z" fill="white" />
    <path
        d="M174.187 30.6824C174.01 30.6824 173.83 30.6432 173.66 30.5603C172.563 30.0258 171.485 30.534 171.44 30.5562C170.844 30.843 170.122 30.6015 169.828 30.0093C169.534 29.417 169.765 28.7017 170.354 28.401C170.441 28.3567 172.52 27.3205 174.716 28.3912C175.315 28.6832 175.564 29.4052 175.272 30.0041C175.064 30.4326 174.634 30.6824 174.187 30.6824Z"
        fill="#FBA700" />
    <path
        d="M177.116 27.406C176.877 27.406 176.636 27.3354 176.424 27.1876C172.544 24.469 168.828 27.1434 168.792 27.1706C168.255 27.5662 167.5 27.4518 167.104 26.9157C166.709 26.3791 166.823 25.6241 167.359 25.2286C169.125 23.9273 173.581 22.2489 177.809 25.2116C178.355 25.5943 178.487 26.3462 178.105 26.892C177.87 27.2273 177.497 27.406 177.116 27.406Z"
        fill="#FBA700" />
    <path
        d="M180.045 24.3454C179.787 24.3454 179.528 24.263 179.308 24.0931C172.124 18.539 166.264 23.7964 166.019 24.023C165.53 24.4737 164.767 24.4448 164.315 23.9576C163.863 23.4705 163.889 22.7103 164.374 22.2566C164.449 22.1871 171.951 15.3532 180.784 22.184C181.312 22.5914 181.408 23.3494 181.001 23.8763C180.763 24.1842 180.406 24.3454 180.045 24.3454Z"
        fill="#FBA700" />
    <path
        d="M219.739 54.0929C227.057 46.775 227.057 34.9103 219.739 27.5924C212.422 20.2746 200.557 20.2745 193.239 27.5924C185.921 34.9103 185.921 46.775 193.239 54.0929C200.557 61.4108 212.422 61.4108 219.739 54.0929Z"
        fill="#FCA232" />
    <path
        d="M192.207 28.7197C189.431 31.9878 187.753 36.2174 187.753 40.8415C187.753 51.1906 196.143 59.5803 206.492 59.5803C211.543 59.5803 216.124 57.578 219.494 54.3285C198.031 51.2957 193.153 37.2355 192.207 28.7197Z"
        fill="#F98816" />
    <path
        d="M207.299 43.4004H205.418C205.307 42.8593 205.112 42.3839 204.834 41.9743C204.561 41.5647 204.227 41.2208 203.832 40.9426C203.443 40.6594 203.011 40.447 202.535 40.3054C202.06 40.1638 201.564 40.093 201.048 40.093C200.108 40.093 199.256 40.3307 198.492 40.8061C197.733 41.2815 197.129 41.9819 196.679 42.9074C196.234 43.8328 196.011 44.9682 196.011 46.3134C196.011 47.6586 196.234 48.7939 196.679 49.7194C197.129 50.6448 197.733 51.3452 198.492 51.8206C199.256 52.296 200.108 52.5337 201.048 52.5337C201.564 52.5337 202.06 52.4629 202.535 52.3213C203.011 52.1797 203.443 51.9698 203.832 51.6917C204.227 51.4085 204.561 51.062 204.834 50.6524C205.112 50.2377 205.307 49.7624 205.418 49.2263H207.299C207.158 50.0203 206.9 50.7308 206.525 51.3579C206.151 51.985 205.686 52.5185 205.13 52.9585C204.573 53.3934 203.949 53.7246 203.256 53.9522C202.568 54.1798 201.832 54.2936 201.048 54.2936C199.723 54.2936 198.545 53.9699 197.513 53.3226C196.482 52.6753 195.67 51.7549 195.078 50.5614C194.487 49.3679 194.191 47.9519 194.191 46.3134C194.191 44.6748 194.487 43.2588 195.078 42.0653C195.67 40.8718 196.482 39.9514 197.513 39.3041C198.545 38.6568 199.723 38.3331 201.048 38.3331C201.832 38.3331 202.568 38.4469 203.256 38.6745C203.949 38.9021 204.573 39.2358 205.13 39.6758C205.686 40.1107 206.151 40.6417 206.525 41.2688C206.9 41.8909 207.158 42.6014 207.299 43.4004ZM194.798 64.5455H197.043L202.323 77.4413H202.505L207.785 64.5455H210.03V80.0812H208.27V68.2777H208.118L203.263 80.0812H201.564L196.709 68.2777H196.558V80.0812H194.798V64.5455ZM203.294 94.4294C203.203 93.6608 202.834 93.064 202.186 92.6392C201.539 92.2144 200.745 92.002 199.804 92.002C199.117 92.002 198.515 92.1133 197.999 92.3358C197.488 92.5583 197.089 92.8643 196.8 93.2537C196.517 93.6431 196.376 94.0856 196.376 94.5812C196.376 94.9959 196.474 95.3524 196.671 95.6508C196.874 95.9441 197.132 96.1893 197.445 96.3866C197.759 96.5787 198.087 96.738 198.431 96.8645C198.775 96.9859 199.091 97.0845 199.38 97.1603L200.957 97.5851C201.362 97.6913 201.812 97.838 202.308 98.0251C202.808 98.2122 203.286 98.4676 203.741 98.7913C204.202 99.1099 204.581 99.5195 204.879 100.02C205.178 100.521 205.327 101.135 205.327 101.863C205.327 102.703 205.107 103.462 204.667 104.139C204.232 104.817 203.595 105.355 202.755 105.755C201.921 106.155 200.907 106.354 199.713 106.354C198.601 106.354 197.637 106.175 196.823 105.816C196.014 105.457 195.377 104.956 194.912 104.314C194.451 103.671 194.191 102.926 194.13 102.076H196.072C196.123 102.663 196.32 103.148 196.664 103.532C197.013 103.912 197.453 104.195 197.984 104.382C198.52 104.564 199.096 104.655 199.713 104.655C200.431 104.655 201.076 104.539 201.648 104.306C202.219 104.068 202.672 103.74 203.006 103.32C203.339 102.895 203.506 102.4 203.506 101.833C203.506 101.317 203.362 100.898 203.074 100.574C202.786 100.25 202.406 99.9873 201.936 99.785C201.466 99.5827 200.957 99.4057 200.411 99.254L198.5 98.7078C197.286 98.3589 196.325 97.8607 195.617 97.2134C194.909 96.5661 194.555 95.719 194.555 94.6722C194.555 93.8024 194.79 93.0438 195.261 92.3965C195.736 91.7441 196.373 91.2384 197.172 90.8793C197.976 90.5152 198.874 90.3331 199.865 90.3331C200.866 90.3331 201.756 90.5127 202.535 90.8717C203.314 91.2257 203.931 91.7112 204.386 92.3282C204.846 92.9452 205.089 93.6456 205.114 94.4294H203.294Z"
        fill="#FBFFFD" />
    <path
        d="M220.124 156.848L221.507 156.852C229.246 156.527 235.297 150.221 235.297 142.466C235.297 134.712 229.245 128.405 221.507 128.08L220.136 128.075C220.132 128.078 220.128 128.081 220.123 128.084C212.474 128.489 206.491 134.794 206.491 142.467C206.491 150.137 212.474 156.443 220.124 156.848ZM211.426 151.777C212.339 151.113 213.328 150.545 214.372 150.083C215.362 152.153 216.739 153.982 218.472 155.529C215.811 155.034 213.339 153.721 211.426 151.777ZM220.338 155.619C218.23 154.036 216.533 151.986 215.408 149.667C216.988 149.093 218.644 148.763 220.338 148.686V155.619ZM220.338 147.573C218.487 147.652 216.679 148.013 214.958 148.646C214.302 147.011 213.916 145.281 213.809 143.496L220.338 143.493V147.573ZM220.338 142.378L213.773 142.382C213.782 140.553 214.083 138.762 214.67 137.054C216.478 137.766 218.383 138.17 220.337 138.255L220.338 142.378ZM223.126 155.564C224.94 153.956 226.363 152.048 227.365 149.883C228.486 150.338 229.551 150.915 230.534 151.602C228.549 153.696 225.947 155.084 223.126 155.564ZM231.27 150.76C230.194 149.996 229.026 149.357 227.794 148.857C228.454 147.15 228.841 145.346 228.944 143.488L234.142 143.485C233.939 146.157 232.95 148.665 231.27 150.76ZM231.686 134.72C233.302 136.964 234.164 139.603 234.184 142.371L228.977 142.375C228.968 140.478 228.661 138.615 228.066 136.832C229.349 136.277 230.565 135.567 231.686 134.72ZM230.999 133.843C229.969 134.62 228.855 135.272 227.68 135.786C226.686 133.346 225.121 131.143 223.125 129.367C226.191 129.886 228.959 131.456 230.999 133.843ZM221.451 129.428C223.772 131.213 225.56 133.544 226.645 136.198C224.975 136.795 223.23 137.117 221.451 137.155V129.428ZM221.451 138.269C223.358 138.232 225.232 137.886 227.028 137.243C227.574 138.895 227.854 140.621 227.864 142.375L221.451 142.378V138.269ZM221.451 143.492L227.828 143.489C227.726 145.211 227.362 146.885 226.748 148.47C225.044 147.901 223.263 147.595 221.451 147.561V143.492ZM221.451 148.672C223.113 148.706 224.746 148.983 226.312 149.497C225.216 151.828 223.543 153.893 221.451 155.502V148.672ZM220.338 129.312V137.14C218.523 137.056 216.753 136.678 215.07 136.013C216.185 133.377 218 131.068 220.338 129.312ZM218.474 129.402C216.557 131.117 215.038 133.234 214.048 135.571C212.953 135.05 211.916 134.406 210.959 133.654C212.936 131.427 215.576 129.937 218.474 129.402ZM210.255 134.517C211.305 135.343 212.443 136.047 213.643 136.611C212.999 138.458 212.668 140.398 212.659 142.383L207.605 142.385C207.622 139.523 208.537 136.808 210.255 134.517ZM207.647 143.499L212.693 143.497C212.802 145.427 213.215 147.298 213.925 149.064C212.772 149.574 211.681 150.206 210.675 150.947C208.902 148.817 207.86 146.249 207.647 143.499Z"
        fill="white" />
    <path d="M60.7382 86.1576H19.8828V94.7754H60.7382V86.1576Z" fill="#FFBE3C" />
    <mask id="mask0_1901_313423" style="mask-type:luminance" maskUnits="userSpaceOnUse" x="21" y="87" width="7"
        height="6">
        <path
            d="M27.0107 90C27.0107 91.4713 25.818 92.664 24.3466 92.664C22.8753 92.664 21.6826 91.4713 21.6826 90C21.6826 88.5286 22.8753 87.3359 24.3466 87.3359C25.818 87.3359 27.0107 88.5286 27.0107 90Z"
            fill="white" />
    </mask>
    <g mask="url(#mask0_1901_313423)">
        <path
            d="M27.0107 90C27.0107 91.4713 25.818 92.664 24.3466 92.664C22.8753 92.664 21.6826 91.4713 21.6826 90C21.6826 88.5286 22.8753 87.3359 24.3466 87.3359C25.818 87.3359 27.0107 88.5286 27.0107 90Z"
            fill="white" />
    </g>
    <mask id="mask1_1901_313423" style="mask-type:luminance" maskUnits="userSpaceOnUse" x="21" y="87" width="7"
        height="6">
        <path
            d="M27.0107 90C27.0107 91.4713 25.818 92.664 24.3466 92.664C22.8753 92.664 21.6826 91.4713 21.6826 90C21.6826 88.5286 22.8753 87.3359 24.3466 87.3359C25.818 87.3359 27.0107 88.5286 27.0107 90Z"
            fill="white" />
    </mask>
    <g mask="url(#mask1_1901_313423)">
        <path
            d="M25.275 89.0267C25.275 89.5396 24.8594 89.9552 24.3465 89.9552C23.8336 89.9552 23.418 89.5396 23.418 89.0267C23.418 88.5137 23.8336 88.0981 24.3465 88.0981C24.8594 88.0981 25.275 88.5137 25.275 89.0267Z"
            fill="#FFBE3C" />
        <path
            d="M26.1875 92.6995H22.5054V91.5593C22.5054 90.7081 23.1955 90.0175 24.0472 90.0175H24.6456C25.4969 90.0175 26.1875 90.7075 26.1875 91.5593V92.6995Z"
            fill="#FFBE3C" />
    </g>
    <path d="M55.5038 88.3529H28.312V88.7634H55.5038V88.3529Z" fill="white" />
    <path d="M55.5038 89.5895H28.312V89.9999H55.5038V89.5895Z" fill="white" />
    <path d="M55.5038 90.8254H28.312V91.2359H55.5038V90.8254Z" fill="white" />
    <path d="M55.5038 92.0619H28.312V92.4723H55.5038V92.0619Z" fill="white" />
    <path d="M60.7382 97.7665H19.8828V106.384H60.7382V97.7665Z" fill="#FFBE3C" />
    <mask id="mask2_1901_313423" style="mask-type:luminance" maskUnits="userSpaceOnUse" x="21" y="98" width="7"
        height="7">
        <path
            d="M27.0107 101.608C27.0107 103.08 25.818 104.272 24.3466 104.272C22.8753 104.272 21.6826 103.08 21.6826 101.608C21.6826 100.137 22.8753 98.9442 24.3466 98.9442C25.818 98.9447 27.0107 100.137 27.0107 101.608Z"
            fill="white" />
    </mask>
    <g mask="url(#mask2_1901_313423)">
        <path
            d="M27.0107 101.608C27.0107 103.08 25.818 104.272 24.3466 104.272C22.8753 104.272 21.6826 103.08 21.6826 101.608C21.6826 100.137 22.8753 98.9442 24.3466 98.9442C25.818 98.9447 27.0107 100.137 27.0107 101.608Z"
            fill="white" />
    </g>
    <mask id="mask3_1901_313423" style="mask-type:luminance" maskUnits="userSpaceOnUse" x="21" y="98" width="7"
        height="7">
        <path
            d="M27.0107 101.608C27.0107 103.08 25.818 104.272 24.3466 104.272C22.8753 104.272 21.6826 103.08 21.6826 101.608C21.6826 100.137 22.8753 98.9442 24.3466 98.9442C25.818 98.9447 27.0107 100.137 27.0107 101.608Z"
            fill="white" />
    </mask>
    <g mask="url(#mask3_1901_313423)">
        <path
            d="M25.275 100.635C25.275 101.148 24.8594 101.564 24.3465 101.564C23.8336 101.564 23.418 101.148 23.418 100.635C23.418 100.123 23.8336 99.7069 24.3465 99.7069C24.8594 99.7069 25.275 100.123 25.275 100.635Z"
            fill="#FFBE3C" />
        <path
            d="M26.1875 104.308H22.5054V103.168C22.5054 102.317 23.1955 101.626 24.0472 101.626H24.6456C25.4969 101.626 26.1875 102.316 26.1875 103.168V104.308Z"
            fill="#FFBE3C" />
    </g>
    <path d="M55.5038 99.9618H28.312V100.372H55.5038V99.9618Z" fill="white" />
    <path d="M55.5038 101.198H28.312V101.609H55.5038V101.198Z" fill="white" />
    <path d="M55.5038 102.434H28.312V102.845H55.5038V102.434Z" fill="white" />
    <path d="M55.5038 103.671H28.312V104.081H55.5038V103.671Z" fill="white" />
    <path
        d="M77.4335 27.2967C77.3068 27.2967 77.1812 27.3019 77.0555 27.306C77.3007 26.2956 77.4335 25.2409 77.4335 24.1548C77.4335 16.7915 71.4643 10.8228 64.101 10.8228C60.9998 10.8228 58.1488 11.8847 55.8839 13.6604C53.7555 9.12696 49.151 5.98657 43.8116 5.98657C37.4283 5.98657 32.0962 10.4736 30.7886 16.4645C29.4074 15.9804 27.9243 15.7141 26.3778 15.7141C19.6072 15.7141 14.0191 20.7626 13.1632 27.2993C13.1241 27.2988 13.0849 27.2962 13.0453 27.2962C9.24674 27.2962 5.93538 29.3752 4.1834 32.4574C3.71991 33.2731 4.30648 34.2871 5.24478 34.2871H22.7208H31.9128H58.5773H67.758H85.234C86.1723 34.2871 86.7589 33.2731 86.2954 32.4574C84.5439 29.3762 81.2326 27.2967 77.4335 27.2967Z"
        fill="white" />
    <path d="M45.0321 37.03L36.0214 21.4238L27.0112 37.03H33.0155V56.5176H39.0274V37.03H45.0321Z" fill="#FFBE3C" />
    <path d="M45.4478 40.9114L54.4579 56.5176L63.4687 40.9114H57.4639V21.4238H51.452V40.9114H45.4478Z" fill="#FCA232" />
    <g opacity="0.51">
        <path d="M248.721 74.5004H186.95V108.006H248.721V74.5004Z" fill="#FFDD98" />
        <path d="M241.2 77.9111H189.752V80.3213H241.2V77.9111Z" fill="#E4EAFE" />
        <path d="M225.72 81.826H189.752V84.2362H225.72V81.826Z" fill="#E4EAFE" />
        <path d="M233.769 85.7405H189.752V88.1506H233.769V85.7405Z" fill="#E4EAFE" />
        <path d="M241.2 89.6554H189.752V92.0655H241.2V89.6554Z" fill="#E4EAFE" />
        <path d="M237.23 93.5703H189.752V95.9804H237.23V93.5703Z" fill="#E4EAFE" />
        <path d="M231.943 97.4847H189.752V99.8949H231.943V97.4847Z" fill="#E4EAFE" />
        <path d="M238.244 101.4H189.752V103.81H238.244V101.4Z" fill="#E4EAFE" />
    </g>
    <path d="M49.0356 133.865H9.28223V157.009H49.0356V133.865Z" fill="#FCA232" />
    <path d="M9.28223 157.01L29.1592 144.015L49.0356 157.01H9.28223Z" fill="#FFB564" />
    <path d="M9.28223 133.865L29.1592 149.822L49.0356 133.865H9.28223Z" fill="#F98816" />
    <path
        d="M126.688 8.54919H115.873C114.568 8.54919 113.51 9.60698 113.51 10.9125V31.9352C113.51 33.2402 114.568 34.2985 115.873 34.2985H126.688C127.993 34.2985 129.051 33.2407 129.051 31.9352V10.9125C129.051 9.60749 127.993 8.54919 126.688 8.54919Z"
        fill="#FCA232" />
    <mask id="mask4_1901_313423" style="mask-type:luminance" maskUnits="userSpaceOnUse" x="114" y="9" width="14"
        height="23">
        <path
            d="M125.792 9.76819H116.769C115.681 9.76819 114.798 10.6509 114.798 11.7396V29.279C114.798 30.3676 115.681 31.2503 116.769 31.2503H125.792C126.88 31.2503 127.763 30.3676 127.763 29.279V11.7401C127.763 10.6509 126.88 9.76819 125.792 9.76819Z"
            fill="white" />
    </mask>
    <g mask="url(#mask4_1901_313423)">
        <path
            d="M125.792 9.76819H116.769C115.681 9.76819 114.798 10.6509 114.798 11.7396V29.279C114.798 30.3676 115.681 31.2503 116.769 31.2503H125.792C126.88 31.2503 127.763 30.3676 127.763 29.279V11.7401C127.763 10.6509 126.88 9.76819 125.792 9.76819Z"
            fill="#B6CEFF" />
    </g>
    <mask id="mask5_1901_313423" style="mask-type:luminance" maskUnits="userSpaceOnUse" x="114" y="9" width="14"
        height="23">
        <path
            d="M125.792 9.76819H116.769C115.681 9.76819 114.798 10.6509 114.798 11.7396V29.279C114.798 30.3676 115.681 31.2503 116.769 31.2503H125.792C126.88 31.2503 127.763 30.3676 127.763 29.279V11.7401C127.763 10.6509 126.88 9.76819 125.792 9.76819Z"
            fill="white" />
    </mask>
    <g mask="url(#mask5_1901_313423)">
        <path d="M112.139 26.2231L126.765 6.5686H130.269L112.139 31.2509V26.2231Z" fill="white" />
    </g>
    <mask id="mask6_1901_313423" style="mask-type:luminance" maskUnits="userSpaceOnUse" x="114" y="9" width="14"
        height="23">
        <path
            d="M125.792 9.76819H116.769C115.681 9.76819 114.798 10.6509 114.798 11.7396V29.279C114.798 30.3676 115.681 31.2503 116.769 31.2503H125.792C126.88 31.2503 127.763 30.3676 127.763 29.279V11.7401C127.763 10.6509 126.88 9.76819 125.792 9.76819Z"
            fill="white" />
    </mask>
    <g mask="url(#mask6_1901_313423)">
        <path d="M113.51 33.9931L130.879 9.76819V12.0537L113.51 36.736V33.9931Z" fill="white" />
    </g>
    <path
        d="M122.042 32.6223C122.042 33.043 121.701 33.3839 121.281 33.3839C120.86 33.3839 120.519 33.043 120.519 32.6223C120.519 32.2015 120.86 31.8606 121.281 31.8606C121.701 31.8601 122.042 32.2015 122.042 32.6223Z"
        fill="white" />
    <path d="M146.524 14.4159H125.652V30.2795H146.524V14.4159Z" fill="white" />
    <path
        d="M132.116 26.9522L127.623 22.459L132.178 17.9039L132.941 18.6677L129.149 22.459L132.88 26.1885L132.116 26.9522Z"
        fill="#FFBE3C" />
    <path
        d="M139.83 26.9522L139.067 26.1885L142.858 22.3972L139.129 18.6677L139.892 17.9039L144.385 22.3972L139.83 26.9522Z"
        fill="#FFBE3C" />
    <path d="M137.147 18.43L133.857 26.3688L134.855 26.7822L138.145 18.8434L137.147 18.43Z" fill="#FFBE3C" />
    <path d="M146.524 12.5681H125.652V14.4159H146.524V12.5681Z" fill="#FFBE3C" />
</svg>