<svg width="40" height="40" viewBox="0 0 40 40" fill="none" xmlns="http://www.w3.org/2000/svg">
    <rect width="40" height="40" rx="20" fill="#FDE6D3" />
    <g clip-path="url(#clip0_1908_137818)">
        <path
            d="M19.3042 11.0469L19.5855 7.89751C19.6306 7.11202 20.1216 6.48274 20.8998 6.54969L20.9714 6.5601C21.6921 6.66498 22.2119 7.30914 22.1661 8.04033C22.1233 8.72093 22.0679 9.47294 22.0118 9.83296C21.8959 10.579 21.1368 10.5872 21.1368 10.5872C21.1354 10.5872 21.0859 11.0432 21.0637 11.2641L20.97 11.7781L20.589 11.5839L19.3042 11.0469Z"
            fill="#FFBF9D" />
        <path
            d="M21.1395 10.5619C21.1395 10.5619 20.6677 10.5217 20.2144 10.1334C20.2144 10.1334 20.3665 10.7292 21.1166 10.7694L21.1395 10.5619Z"
            fill="#FF9A6C" />
        <path
            d="M21.8383 8.68747C21.8324 8.744 21.7793 8.78565 21.7209 8.78044C21.6619 8.77524 21.619 8.72466 21.6257 8.66813C21.6316 8.61159 21.6847 8.56994 21.7431 8.57515C21.8022 8.58035 21.845 8.63019 21.8383 8.68747Z"
            fill="#263238" />
        <path
            d="M21.964 8.32222C21.9492 8.33412 21.8769 8.26271 21.7631 8.24635C21.6494 8.2285 21.5571 8.27536 21.5468 8.25974C21.5416 8.2523 21.5586 8.22924 21.5985 8.20767C21.6384 8.1861 21.7033 8.16899 21.7742 8.18015C21.8451 8.19056 21.9012 8.22552 21.9315 8.25751C21.9625 8.28949 21.9714 8.31627 21.964 8.32222Z"
            fill="#263238" />
        <path
            d="M20.8427 8.55209C20.8368 8.60862 20.7837 8.65027 20.7253 8.64507C20.6663 8.63986 20.6234 8.58928 20.6301 8.53275C20.636 8.47622 20.6891 8.43456 20.7475 8.43977C20.8058 8.44498 20.8486 8.49481 20.8427 8.55209Z"
            fill="#263238" />
        <path
            d="M20.8424 8.1861C20.8269 8.198 20.7553 8.12659 20.6416 8.11023C20.5279 8.09238 20.4356 8.13924 20.4252 8.12362C20.42 8.11618 20.437 8.09312 20.4776 8.0723C20.5175 8.05072 20.5825 8.03362 20.6534 8.04477C20.7243 8.05519 20.7804 8.09089 20.8106 8.12213C20.8409 8.15412 20.8498 8.18089 20.8424 8.1861Z"
            fill="#263238" />
        <path
            d="M21.125 9.12786C21.1257 9.12116 21.1981 9.11893 21.3148 9.12116C21.3443 9.12265 21.3731 9.12042 21.3805 9.10108C21.3901 9.081 21.3827 9.04752 21.3738 9.01108C21.3569 8.93595 21.3384 8.85785 21.3199 8.77528C21.2461 8.43982 21.1966 8.16609 21.2099 8.16311C21.2232 8.16014 21.2941 8.4294 21.3687 8.76487C21.3864 8.84743 21.4034 8.92628 21.4189 9.00141C21.4248 9.03637 21.4388 9.07728 21.4174 9.11893C21.4063 9.13976 21.3827 9.1524 21.3635 9.15464C21.3443 9.15761 21.3273 9.15538 21.3133 9.15464C21.1959 9.14497 21.1243 9.13455 21.125 9.12786Z"
            fill="#263238" />
        <path
            d="M20.9301 7.83203C20.9101 7.85881 20.8038 7.81195 20.6702 7.78963C20.5365 7.76434 20.4206 7.77178 20.411 7.7398C20.4073 7.72418 20.4339 7.70112 20.4841 7.68475C20.5343 7.66764 20.6096 7.65946 20.6901 7.6736C20.7706 7.68773 20.8378 7.7212 20.8798 7.75467C20.9219 7.78815 20.9389 7.81939 20.9301 7.83203Z"
            fill="#263238" />
        <path
            d="M22.017 7.98532C21.9897 8.00838 21.9003 7.96896 21.7889 7.95334C21.6774 7.934 21.5799 7.94441 21.5614 7.91391C21.5533 7.89904 21.5718 7.87523 21.6161 7.85589C21.6604 7.83655 21.7305 7.8254 21.8073 7.8373C21.8841 7.8492 21.9476 7.88193 21.983 7.91317C22.02 7.94515 22.0296 7.97342 22.017 7.98532Z"
            fill="#263238" />
        <path
            d="M19.5693 8.4338C19.5574 8.42636 19.0812 8.20768 19.0243 8.72092C18.9675 9.23416 19.491 9.18581 19.4932 9.17168C19.4954 9.1568 19.5693 8.4338 19.5693 8.4338Z"
            fill="#FFBF9D" />
        <path
            d="M19.3586 8.95969C19.3564 8.95745 19.349 8.96489 19.3335 8.9701C19.318 8.97531 19.2922 8.97679 19.2671 8.96415C19.2154 8.93811 19.1799 8.84662 19.1873 8.75439C19.191 8.70753 19.2058 8.66439 19.2265 8.62942C19.2464 8.59372 19.273 8.56992 19.301 8.56843C19.3283 8.56546 19.3461 8.58405 19.3505 8.59893C19.3557 8.6138 19.3512 8.62422 19.3542 8.62496C19.3557 8.62645 19.366 8.61752 19.3645 8.59595C19.3638 8.58554 19.3586 8.57289 19.3483 8.56174C19.3372 8.55058 19.3195 8.54314 19.3003 8.54314C19.2604 8.54165 19.2213 8.57364 19.1984 8.61232C19.174 8.651 19.1563 8.69935 19.1519 8.75216C19.1438 8.85629 19.1858 8.95894 19.2567 8.9887C19.2914 9.00208 19.3224 8.99465 19.3394 8.98423C19.3564 8.97159 19.3608 8.96043 19.3586 8.95969Z"
            fill="#FF9A6C" />
        <path
            d="M23.2672 7.44448C23.2628 7.41324 23.2436 7.38571 23.2185 7.36712C23.1638 7.32546 23.0966 7.32249 23.0317 7.31431C22.87 7.29348 22.7149 7.23323 22.579 7.14323C22.6322 7.12314 22.6824 7.09785 22.7267 7.06215C22.8183 6.98851 22.8803 6.86726 22.8552 6.75271C22.8508 6.73114 22.8412 6.70808 22.8205 6.69916C22.7887 6.68503 22.7562 6.71478 22.7297 6.73784C22.644 6.81445 22.5702 6.84346 22.4579 6.81892C22.3885 6.80404 22.3221 6.78024 22.2711 6.73933C22.2689 6.73709 22.2674 6.73412 22.2652 6.73114C22.2416 6.70065 22.2187 6.67164 22.1966 6.64263C22.0267 6.42915 21.8768 6.27741 21.7151 6.18963C21.4781 6.06021 21.0661 5.97169 20.7996 6.01037C20.5323 6.04905 20.2753 6.23426 20.2096 6.49832C20.0782 6.35774 19.8596 6.33394 19.6743 6.38526L19.6699 6.38303C19.4646 6.43138 19.3287 6.62849 19.2475 6.82412C19.2431 6.83454 19.2394 6.84569 19.235 6.85685C19.156 6.95578 19.0555 7.03686 18.9396 7.08744C18.9189 7.09636 18.896 7.10752 18.8909 7.12984C18.8864 7.15141 18.9027 7.17149 18.9189 7.18637C18.9625 7.22579 19.0149 7.2548 19.071 7.27116C19.0474 7.31728 19.0208 7.36191 18.9898 7.40357C18.9632 7.43927 18.9315 7.48167 18.947 7.52332C18.9588 7.55531 18.9957 7.57242 19.0297 7.57167C19.0637 7.57018 19.0954 7.55531 19.1264 7.54043C19.0984 7.59101 19.0703 7.64159 19.0422 7.69217C19.1124 7.713 19.187 7.71523 19.2586 7.70259C19.2793 7.89673 19.2711 8.25153 19.3051 8.38542C19.4402 8.40327 19.4749 8.39212 19.5399 8.42261C19.6248 8.46204 19.5731 8.61601 19.6935 8.58402C19.7548 8.56766 19.8692 8.35492 19.8958 8.29765C20.0708 7.91458 20.1616 7.49283 20.1616 7.07182C20.2532 6.99372 20.3602 6.93272 20.4739 6.89479L20.4643 6.90148C20.6807 6.85239 20.9243 6.80776 21.1112 6.929C21.2559 7.02272 21.3275 7.19381 21.4279 7.33439C21.6177 7.60142 21.8488 7.75912 22.1715 7.81044C22.1751 8.04028 22.1419 8.4122 22.1286 8.62493L22.3553 8.22252V8.22401C22.3723 8.20095 22.3871 8.17715 22.4018 8.15335L22.407 8.14591V8.14516C22.4299 8.10723 22.452 8.06855 22.4794 8.03136C22.4801 8.0321 22.4808 8.03285 22.4808 8.03359C22.5835 8.1474 22.7681 8.01276 22.6927 7.87887C22.678 7.8521 22.6588 7.82829 22.6366 7.80747C22.6831 7.86251 22.7577 7.89524 22.8286 7.88185C22.8995 7.86846 22.96 7.80523 22.9623 7.73308C22.9637 7.68399 22.9342 7.63638 22.8921 7.61184C22.9829 7.62969 23.0797 7.62002 23.1646 7.58357C23.2199 7.55679 23.2775 7.51365 23.2672 7.44448Z"
            fill="#263238" />
        <path
            d="M20.4335 6.60986C20.435 6.61209 20.4003 6.62623 20.3508 6.67011C20.3021 6.714 20.2445 6.79359 20.2083 6.90665C20.1899 6.96244 20.1758 7.02641 20.1677 7.09558C20.1596 7.16476 20.1566 7.23914 20.1529 7.31799C20.1492 7.39684 20.1455 7.4794 20.1308 7.56494C20.1234 7.60734 20.1131 7.65048 20.099 7.69288C20.085 7.73453 20.0688 7.77991 20.0318 7.81264C20.003 7.83941 19.9587 7.84834 19.9226 7.83644C19.8864 7.82528 19.8554 7.80148 19.834 7.77173C19.7933 7.70924 19.7889 7.63635 19.7845 7.57238L19.8 7.5761C19.7682 7.62965 19.7358 7.68247 19.6914 7.72338C19.6479 7.76429 19.5918 7.78735 19.5371 7.7866C19.5098 7.78586 19.4832 7.77842 19.4618 7.76429C19.4397 7.75016 19.4249 7.72858 19.4153 7.70627C19.4064 7.68395 19.4035 7.66015 19.4072 7.63784C19.4109 7.61552 19.4219 7.59544 19.4375 7.58205L19.4448 7.59023C19.3799 7.64974 19.3149 7.678 19.2713 7.69288C19.2492 7.70032 19.2314 7.70404 19.2196 7.70627C19.2078 7.7085 19.2012 7.70924 19.2012 7.7085C19.2012 7.70776 19.2071 7.70627 19.2189 7.70329C19.2307 7.70032 19.2477 7.69511 19.2698 7.68693C19.3127 7.67057 19.3762 7.64081 19.4382 7.58205L19.4456 7.59023C19.4175 7.61403 19.4109 7.6609 19.4279 7.70106C19.4367 7.72115 19.45 7.74049 19.4699 7.75239C19.4891 7.76503 19.5135 7.77173 19.5386 7.77173C19.5888 7.77247 19.6412 7.75016 19.6819 7.71148C19.7232 7.6728 19.7549 7.62147 19.7867 7.56717L19.8 7.54411L19.8022 7.57089C19.8074 7.63486 19.8118 7.70553 19.8502 7.76131C19.8694 7.78809 19.8975 7.80966 19.9292 7.81933C19.961 7.82974 19.9971 7.82231 20.0222 7.79925C20.054 7.77098 20.0702 7.72784 20.0843 7.68693C20.0983 7.64528 20.1079 7.60362 20.1153 7.56122C20.13 7.47717 20.1337 7.3946 20.1382 7.3165C20.1419 7.23766 20.1455 7.16327 20.1544 7.09335C20.1633 7.02343 20.1788 6.95946 20.198 6.90219C20.2356 6.78764 20.2969 6.70805 20.3479 6.66491C20.3981 6.62176 20.4335 6.60986 20.4335 6.60986Z"
            fill="#455A64" />
        <path
            d="M22.6575 7.6052C22.6575 7.6052 22.6553 7.60668 22.6509 7.60966C22.6457 7.61264 22.6391 7.61635 22.631 7.62156C22.6221 7.62677 22.611 7.63272 22.597 7.63867C22.583 7.64462 22.5675 7.65206 22.549 7.65727C22.4759 7.68256 22.3615 7.70264 22.2234 7.67884C22.0868 7.65503 21.9273 7.58735 21.7922 7.46015C21.6556 7.33519 21.5426 7.16113 21.4562 6.96699C21.4119 6.86955 21.3787 6.77136 21.3396 6.67987C21.3012 6.58838 21.2561 6.5021 21.1985 6.43218C21.1417 6.36151 21.073 6.30647 20.9984 6.27597C20.9615 6.26035 20.9231 6.25291 20.8869 6.24994C20.85 6.24771 20.8146 6.25143 20.7806 6.25812C20.7142 6.27225 20.658 6.30201 20.6145 6.33474C20.5709 6.36746 20.5399 6.40317 20.5177 6.43515C20.4764 6.50061 20.469 6.5445 20.4668 6.54301C20.4668 6.54301 20.4668 6.54003 20.4683 6.53483C20.4698 6.52887 20.472 6.52144 20.4742 6.51251C20.4801 6.49317 20.4919 6.46491 20.5118 6.43069C20.5333 6.39796 20.5643 6.36003 20.6086 6.32655C20.6521 6.29308 20.709 6.2611 20.7777 6.24548C20.8116 6.23804 20.8485 6.23357 20.8869 6.23581C20.9253 6.23878 20.9652 6.24622 21.0036 6.26184C21.0804 6.29234 21.152 6.34887 21.2103 6.42102C21.2694 6.49243 21.3152 6.5802 21.3543 6.67243C21.3942 6.76467 21.4274 6.86285 21.471 6.95881C21.5566 7.15146 21.6674 7.32329 21.8018 7.44751C21.9339 7.57396 22.0897 7.64164 22.2241 7.66619C22.3592 7.69148 22.4729 7.67363 22.5453 7.65057C22.6199 7.62677 22.6561 7.60297 22.6575 7.6052Z"
            fill="#455A64" />
        <path
            d="M22.762 7.2831C22.7628 7.28458 22.7524 7.28979 22.7332 7.29872C22.714 7.30839 22.686 7.3188 22.6498 7.32996C22.6136 7.34112 22.5693 7.35079 22.5199 7.35674C22.4704 7.36194 22.415 7.36417 22.3574 7.35971C22.2998 7.3545 22.2452 7.34335 22.1972 7.32996C22.1492 7.31582 22.1071 7.29872 22.0731 7.28235C22.0392 7.26524 22.0126 7.25037 21.9956 7.23772C21.9779 7.22582 21.969 7.21838 21.9698 7.21764C21.9712 7.21466 22.0104 7.2407 22.0783 7.2712C22.1123 7.28682 22.1544 7.30169 22.2016 7.31508C22.2489 7.32773 22.302 7.3374 22.3589 7.3426C22.4157 7.34707 22.4696 7.34558 22.5184 7.34112C22.5671 7.33591 22.6107 7.32773 22.6469 7.31806C22.7185 7.29946 22.7613 7.28012 22.762 7.2831Z"
            fill="#455A64" />
        <path
            d="M21.0785 9.47808C21.0748 9.45874 20.9493 9.49295 20.8312 9.41039C20.713 9.32708 20.6902 9.18947 20.6724 9.19319C20.6643 9.19393 20.6562 9.22964 20.6702 9.28691C20.6835 9.3427 20.7234 9.41931 20.7957 9.47064C20.8681 9.52122 20.9486 9.5294 21.001 9.51973C21.0542 9.50932 21.0815 9.48626 21.0785 9.47808Z"
            fill="#263238" />
        <path
            d="M17.6206 10.5893C17.6206 10.5893 17.1252 10.3713 16.7331 10.7938C16.341 11.2163 14.8968 14.0459 14.707 14.5799C14.3939 15.4576 15.0681 16.2082 15.6292 16.2387C16.1904 16.2692 18.3863 15.5581 18.3863 15.5581L17.9086 14.2891L16.5071 14.4022L17.594 12.2034L17.6206 10.5893Z"
            fill="#FFD36C" />
        <path
            d="M20.021 13.0797C20.021 13.0797 20.5615 15.8393 20.8192 16.0624C21.0769 16.2856 23.1096 17.2027 23.1096 17.2027L23.7188 16.206L22.1032 15.2137L22.0951 13.1191C22.0788 12.5277 21.8433 12.1581 21.5745 11.9602L20.021 13.0797Z"
            fill="#FFD36C" />
        <path
            d="M21.1648 11.1985L20.7985 11.6753L20.5711 11.084L19.2797 10.2405L18.9039 10.6042C18.9039 10.6042 17.4552 10.6325 17.3622 10.7039C17.1539 10.8623 16.7737 13.2247 16.7737 13.2247L16.0405 17.6803C15.9785 17.8588 16.5943 17.9837 16.9509 18.0715L20.2366 18.5453C20.2366 18.5453 20.6272 18.6383 20.738 18.3958C20.8273 18.2002 21.0141 16.142 21.2032 15.0188C21.2534 14.7213 21.2984 13.6591 21.2984 13.6591L21.6639 12.016L21.2681 11.7155L21.1648 11.1985Z"
            fill="#FFD36C" />
        <path
            d="M17.0168 13.3862C17.022 13.3884 16.9976 13.4472 16.9541 13.5409C16.9113 13.6346 16.8492 13.7626 16.7783 13.9024C16.7082 14.043 16.6417 14.1687 16.593 14.2594C16.5443 14.3502 16.5111 14.4045 16.5059 14.4015C16.5015 14.3993 16.5258 14.3398 16.5686 14.2468C16.6115 14.1531 16.6735 14.0259 16.7436 13.8853C16.8138 13.7454 16.8795 13.6197 16.929 13.529C16.9792 13.439 17.0117 13.3839 17.0168 13.3862Z"
            fill="#FFD36C" />
        <path
            d="M20.4964 11.1018C20.4993 11.1048 20.4513 11.1591 20.3672 11.2491C20.283 11.3391 20.1626 11.4648 20.0201 11.6106L20.0091 11.6218L19.9965 11.6121C19.9049 11.5415 19.806 11.4626 19.7049 11.3778C19.4782 11.1874 19.2832 11.0029 19.1474 10.8646C19.0795 10.7954 19.0256 10.7381 18.9894 10.6979C18.9532 10.6578 18.934 10.634 18.9362 10.6325C18.9384 10.6303 18.9606 10.6503 19.0004 10.6875C19.0455 10.7307 19.1016 10.7827 19.1673 10.8452C19.3076 10.9776 19.5048 11.1584 19.7307 11.3481C19.8311 11.4329 19.9293 11.5124 20.0194 11.5839L19.9958 11.5853C20.1398 11.441 20.2638 11.319 20.3524 11.2335C20.4403 11.148 20.4934 11.0989 20.4964 11.1018Z"
            fill="#FFD36C" />
        <path
            d="M21.4969 12.672C21.5073 12.6735 21.4873 12.945 21.4526 13.2782C21.4172 13.6122 21.3803 13.8815 21.3699 13.8807C21.3596 13.8792 21.3795 13.6085 21.4142 13.2745C21.4489 12.9405 21.4858 12.6705 21.4969 12.672Z"
            fill="#FFD36C" />
        <path
            d="M22.9741 15.8706C22.9741 15.8706 23.3773 15.187 23.4622 15.2138C23.5471 15.2406 23.5907 15.4183 23.5397 15.5492C23.4888 15.6802 23.3463 16.2053 23.3463 16.2053L22.9741 15.8706Z"
            fill="#FFBF9D" />
        <path
            d="M23.1091 27.7674L22.7089 29.5861C22.7089 29.5861 24.4323 30.4735 24.3902 30.8164L20.8394 30.295L21.3481 27.4357L23.1091 27.7674Z"
            fill="#455A64" />
        <g opacity="0.6">
            <path
                d="M21.6457 29.2297C21.5741 29.2357 21.5128 29.3041 21.5157 29.377C21.5187 29.4492 21.5873 29.5131 21.6597 29.5079C21.7313 29.5027 21.8074 29.4231 21.7963 29.3517C21.7852 29.2803 21.7003 29.2097 21.6317 29.232"
                fill="white" />
        </g>
        <g opacity="0.6">
            <path
                d="M20.8394 30.295L20.8903 30.0063L24.3016 30.6304C24.3016 30.6304 24.4079 30.6974 24.4042 30.8446L20.8394 30.295Z"
                fill="white" />
        </g>
        <path
            d="M22.7695 29.5787C22.7658 29.5958 22.6779 29.5876 22.5834 29.6278C22.4874 29.665 22.4298 29.7327 22.4151 29.7222C22.3996 29.7163 22.4446 29.6166 22.5605 29.5705C22.6757 29.5236 22.7761 29.5638 22.7695 29.5787Z"
            fill="#263238" />
        <path
            d="M23.1111 29.8018C23.1119 29.8197 23.0321 29.8353 22.9598 29.8978C22.8859 29.958 22.8564 30.0347 22.8394 30.0309C22.8224 30.0309 22.8291 29.9268 22.9206 29.8509C23.0107 29.7736 23.1134 29.7847 23.1111 29.8018Z"
            fill="#263238" />
        <path
            d="M23.2397 30.2867C23.2235 30.2875 23.2153 30.196 23.2766 30.1097C23.3379 30.0227 23.4258 30.0003 23.4302 30.016C23.4376 30.0323 23.3756 30.0732 23.3261 30.1454C23.2751 30.2161 23.2567 30.2882 23.2397 30.2867Z"
            fill="#263238" />
        <path
            d="M22.8145 29.154C22.8041 29.1681 22.7295 29.1302 22.6313 29.1183C22.5331 29.1049 22.4512 29.1235 22.4453 29.1071C22.4379 29.093 22.5235 29.0424 22.6395 29.0573C22.7554 29.0714 22.8255 29.1421 22.8145 29.154Z"
            fill="#263238" />
        <g opacity="0.3">
            <path d="M23.0294 28.1274L22.9585 28.4517L21.2271 28.114L21.2787 27.8195L23.0294 28.1274Z" fill="black" />
        </g>
        <path
            d="M17.4629 31.0573L17.2332 32.9057C17.2332 32.9057 19.0312 33.6265 19.0216 33.9724L15.4375 33.7879L15.6775 30.8929L17.4629 31.0573Z"
            fill="#455A64" />
        <g opacity="0.6">
            <path
                d="M16.1419 32.6514C16.071 32.664 16.0164 32.7384 16.026 32.8098C16.0356 32.882 16.1102 32.9385 16.1811 32.9266C16.2519 32.9147 16.3206 32.8284 16.3029 32.7578C16.2852 32.6878 16.1943 32.6254 16.1279 32.6544"
                fill="white" />
        </g>
        <g opacity="0.6">
            <path
                d="M15.4385 33.7879L15.4628 33.4963L18.9169 33.7961C18.9169 33.7961 19.0292 33.8526 19.0388 33.9999L15.4385 33.7879Z"
                fill="white" />
        </g>
        <path
            d="M17.2929 32.8931C17.2906 32.911 17.2028 32.911 17.112 32.9593C17.0197 33.0054 16.9687 33.0783 16.9532 33.0694C16.9377 33.0642 16.9724 32.9616 17.0839 32.9043C17.1947 32.8463 17.298 32.8768 17.2929 32.8931Z"
            fill="#263238" />
        <path
            d="M17.654 33.0828C17.6562 33.0999 17.5779 33.123 17.5122 33.1921C17.4443 33.2591 17.4221 33.3387 17.4051 33.3357C17.3882 33.3372 17.3852 33.233 17.4686 33.149C17.5521 33.0642 17.6554 33.0657 17.654 33.0828Z"
            fill="#263238" />
        <path
            d="M17.8277 33.5536C17.8115 33.5558 17.7952 33.4658 17.8484 33.3736C17.9008 33.2806 17.9865 33.2501 17.9931 33.2657C18.002 33.2814 17.9444 33.3282 17.9016 33.4041C17.8565 33.4792 17.8447 33.5536 17.8277 33.5536Z"
            fill="#263238" />
        <path
            d="M17.2988 32.4654C17.29 32.4811 17.2124 32.4491 17.1128 32.4476C17.0138 32.4431 16.9341 32.4699 16.926 32.4543C16.9171 32.4409 16.9976 32.3821 17.1142 32.3866C17.2316 32.3896 17.3084 32.4528 17.2988 32.4654Z"
            fill="#263238" />
        <g opacity="0.3">
            <path d="M17.4173 31.4233L17.3767 31.7528L15.6216 31.5795L15.6459 31.282L17.4173 31.4233Z" fill="black" />
        </g>
        <path
            d="M15.7249 9.27819C15.8082 8.52243 15.2675 7.84177 14.5173 7.7579C13.7671 7.67402 13.0914 8.2187 13.0082 8.97446C12.9249 9.73023 13.4656 10.4109 14.2158 10.4948C14.966 10.5786 15.6417 10.034 15.7249 9.27819Z"
            fill="#FF725E" />
        <path d="M31 25.036L29.6355 21.8465L15.667 8.48059L13.8232 10.5328L27.7186 23.7975L31 25.036Z" fill="#FF725E" />
        <g opacity="0.7">
            <path
                d="M27.7188 23.7976C27.7402 23.6614 27.8576 23.5662 27.986 23.6146C27.848 23.3989 27.862 23.0954 28.0207 22.8945C28.1788 22.6937 28.4697 22.6104 28.7089 22.6974C28.658 22.449 28.7488 22.176 28.9378 22.0086C29.1276 21.8413 29.4081 21.7862 29.6459 21.8703L31.0001 25.036L27.7188 23.7976Z"
                fill="white" />
        </g>
        <path d="M30.4512 23.7529C30.4512 23.7529 29.8081 23.6034 29.6553 24.5288L30.9998 25.036L30.4512 23.7529Z"
            fill="#263238" />
        <path opacity="0.3"
            d="M28.709 22.6974L14.8579 9.56361L15.7292 8.54382L29.6357 21.8465L29.646 21.8703C29.646 21.8703 29.5087 21.8138 29.3329 21.8346C29.2155 21.8487 29.0738 21.8956 28.9534 21.9952C28.7983 22.1232 28.7267 22.2883 28.7038 22.4274C28.6787 22.5777 28.709 22.6974 28.709 22.6974Z"
            fill="#E84126" />
        <path opacity="0.3"
            d="M27.9862 23.6146L14.0553 10.2837L13.8242 10.553L27.7181 23.7976C27.7181 23.7976 27.741 23.5983 27.936 23.602C27.9522 23.6027 27.9684 23.6102 27.9862 23.6146Z"
            fill="black" />
        <path
            d="M29.4419 22.896C29.4404 22.8975 29.4367 22.8804 29.4124 22.873C29.3902 22.8648 29.343 22.8707 29.323 22.9176C29.3038 22.9615 29.3046 23.0262 29.3208 23.0924C29.3304 23.1251 29.3474 23.1593 29.3769 23.1839C29.4057 23.2084 29.4486 23.2233 29.4884 23.2092C29.5283 23.1965 29.5578 23.1578 29.5763 23.1147C29.5955 23.0716 29.6036 23.0217 29.6103 22.9704C29.6213 22.8685 29.6176 22.7539 29.5829 22.6446C29.5645 22.591 29.532 22.5375 29.4774 22.5152C29.4235 22.4929 29.3585 22.5077 29.3097 22.5427C29.2108 22.6186 29.1717 22.7577 29.1606 22.8878C29.1414 23.1556 29.2795 23.4152 29.4796 23.5275C29.5298 23.5536 29.5881 23.5558 29.6368 23.5327C29.6856 23.5104 29.724 23.4717 29.755 23.4316C29.8163 23.349 29.8591 23.2605 29.8879 23.1779C29.9462 23.0106 29.9506 22.864 29.9455 22.7658C29.9418 22.7167 29.9366 22.6781 29.9322 22.6528C29.9278 22.6267 29.9263 22.6134 29.9263 22.6134C29.9263 22.6134 29.9433 22.6662 29.9529 22.7658C29.9602 22.8648 29.9588 23.0128 29.9012 23.1824C29.8724 23.2672 29.8303 23.3564 29.7683 23.442C29.7365 23.4836 29.6966 23.5245 29.6442 23.5491C29.5925 23.5751 29.5261 23.5722 29.4722 23.5446C29.2632 23.4279 29.1222 23.163 29.1414 22.8878C29.1458 22.8194 29.1613 22.7525 29.185 22.69C29.2093 22.6282 29.2448 22.568 29.2987 22.5293C29.3518 22.4906 29.4235 22.4743 29.4847 22.4996C29.546 22.5248 29.5815 22.5843 29.5999 22.6401C29.6354 22.7547 29.6383 22.8692 29.6265 22.9741C29.6199 23.0262 29.611 23.0768 29.5903 23.1229C29.5704 23.1675 29.5386 23.2099 29.4929 23.224C29.4471 23.2389 29.3998 23.2218 29.3696 23.195C29.3378 23.1683 29.3201 23.1311 29.3105 23.0968C29.295 23.0269 29.295 22.963 29.3164 22.9161C29.3385 22.8663 29.391 22.8611 29.4139 22.8707C29.4397 22.8789 29.4419 22.8968 29.4419 22.896Z"
            fill="white" />
        <path
            d="M29.0853 24.2818C29.0831 24.2811 29.1023 24.2461 29.1193 24.1777C29.137 24.1092 29.1459 24.0058 29.1267 23.8816C29.109 23.7567 29.0595 23.6138 28.9967 23.4584C28.9369 23.3029 28.8631 23.1289 28.8535 22.9318C28.8446 22.7354 28.8993 22.5494 28.9864 22.4051C29.0728 22.2593 29.1924 22.1574 29.3009 22.092C29.4102 22.0265 29.5106 21.9975 29.5793 21.9834C29.6487 21.9692 29.6878 21.9692 29.6878 21.9692C29.6878 21.97 29.6782 21.9715 29.6598 21.9744C29.6413 21.9774 29.6147 21.9819 29.5808 21.9901C29.5128 22.0064 29.4146 22.0377 29.3076 22.1031C29.2012 22.1686 29.0853 22.2697 29.0012 22.4133C28.917 22.5554 28.8631 22.7384 28.8719 22.9303C28.8808 23.1229 28.9532 23.2955 29.0122 23.4517C29.0742 23.6072 29.123 23.7522 29.1392 23.8794C29.1569 24.0058 29.1459 24.1115 29.1252 24.1799C29.1067 24.2483 29.0853 24.2818 29.0853 24.2818Z"
            fill="white" />
        <path
            d="M28.3239 24.0386C28.3195 24.0356 28.4088 24.0103 28.459 23.8876C28.507 23.7686 28.5225 23.5863 28.5299 23.3899C28.5351 23.1921 28.5166 23.0128 28.4959 22.8849C28.4863 22.8209 28.4753 22.7696 28.4686 22.7339C28.4612 22.6982 28.4575 22.6788 28.459 22.6781C28.4605 22.6781 28.4664 22.6967 28.476 22.7324C28.4856 22.7674 28.4974 22.8187 28.5092 22.8834C28.5336 23.0113 28.5543 23.1921 28.5491 23.3914C28.5469 23.4911 28.5388 23.5856 28.5269 23.6711C28.5151 23.7567 28.4989 23.834 28.4716 23.8943C28.445 23.9553 28.4058 23.9947 28.3756 24.0155C28.3438 24.0348 28.3239 24.0386 28.3239 24.0386Z"
            fill="white" />
        <path
            d="M28.099 22.8164C28.1012 22.8157 28.1197 22.8551 28.1426 22.922C28.164 22.989 28.192 23.0864 28.1788 23.1965C28.1677 23.3073 28.1034 23.3966 28.0414 23.4331C28.0111 23.4524 27.9831 23.4613 27.9631 23.465C27.9432 23.4688 27.9321 23.468 27.9321 23.4665C27.9314 23.4628 27.9772 23.4613 28.0333 23.4212C28.0901 23.3832 28.1485 23.2999 28.1588 23.1935C28.1714 23.0879 28.147 22.9927 28.1285 22.925C28.1093 22.8588 28.0961 22.8172 28.099 22.8164Z"
            fill="white" />
        <path
            d="M29.5205 24.4848C29.5197 24.4848 29.5175 24.4796 29.5138 24.4692C29.5101 24.4588 29.5049 24.4439 29.499 24.4238C29.4939 24.4037 29.4865 24.3784 29.4894 24.3487C29.4917 24.3182 29.505 24.2855 29.5234 24.2542C29.5596 24.1888 29.6164 24.1218 29.6726 24.0437C29.7287 23.9656 29.7826 23.8734 29.8306 23.773C29.9273 23.5714 29.9856 23.3765 30.0277 23.2367C30.0454 23.1757 30.0617 23.1206 30.0772 23.07C30.089 23.0306 30.0964 23.009 30.0971 23.0098C30.0986 23.0098 30.0934 23.0321 30.0838 23.0723C30.0742 23.1124 30.0595 23.1697 30.0403 23.2411C30.0011 23.3824 29.945 23.5788 29.8468 23.7819C29.7981 23.883 29.7434 23.976 29.6859 24.0541C29.6283 24.133 29.5707 24.1984 29.5337 24.2609C29.4909 24.3219 29.4931 24.3829 29.505 24.4223C29.516 24.4617 29.5219 24.4841 29.5205 24.4848Z"
            fill="white" />
        <path
            d="M15.8072 8.60555L13.8638 10.5745C13.8365 10.602 13.7915 10.6027 13.7641 10.5745L13.1624 9.97197C13.135 9.94445 13.1343 9.89908 13.1624 9.87155L15.105 7.90264C15.1323 7.87511 15.1774 7.87437 15.2047 7.90264L15.8072 8.50588C15.8345 8.5334 15.8345 8.57803 15.8072 8.60555Z"
            fill="#E0E0E0" />
        <path
            d="M15.8071 8.60557C15.8063 8.60483 15.8115 8.60037 15.8174 8.58846C15.8226 8.57731 15.8285 8.55722 15.8204 8.53416C15.813 8.51111 15.7849 8.49251 15.7591 8.46573C15.7318 8.43895 15.7008 8.4092 15.6668 8.37573C15.5966 8.30655 15.5125 8.22399 15.4143 8.12729C15.3648 8.07894 15.3124 8.02687 15.257 7.97183C15.243 7.9577 15.2289 7.94431 15.2149 7.93017C15.1994 7.9153 15.1883 7.90116 15.1721 7.89745C15.1558 7.89224 15.1374 7.89521 15.1233 7.90488C15.1108 7.91455 15.0938 7.93389 15.0798 7.94803C14.591 8.44565 13.9191 9.12923 13.1763 9.88496C13.1585 9.90207 13.1563 9.93182 13.1711 9.95116C13.1888 9.97124 13.2161 9.99653 13.2375 10.0188C13.2841 10.065 13.3298 10.1111 13.3756 10.1572C13.4664 10.2487 13.5565 10.3387 13.6451 10.4272C13.6894 10.4718 13.733 10.5157 13.7766 10.5589C13.7928 10.5775 13.8186 10.5812 13.8386 10.5715C13.8438 10.5693 13.8482 10.5656 13.8519 10.5618L13.8681 10.5455L13.8999 10.5135C13.9848 10.428 14.0675 10.3446 14.148 10.2628C14.4714 9.93703 14.763 9.64396 15.0082 9.39701C15.2526 9.15303 15.4512 8.95517 15.5907 8.81533C15.6587 8.74913 15.7118 8.69632 15.7502 8.65838C15.7672 8.64202 15.7812 8.62863 15.7923 8.61822C15.8012 8.61004 15.8063 8.60557 15.8071 8.60557C15.8078 8.60632 15.8034 8.61152 15.7945 8.62119C15.7842 8.63235 15.7709 8.64648 15.7547 8.66433C15.717 8.70376 15.6653 8.75731 15.6003 8.82649C15.463 8.96782 15.2673 9.1694 15.0266 9.41635C14.783 9.66553 14.4935 9.96009 14.1723 10.2881C14.0918 10.3699 14.0091 10.454 13.925 10.5395L13.8932 10.5715L13.877 10.5879C13.8703 10.5946 13.8622 10.6005 13.8541 10.605C13.8201 10.6236 13.7736 10.6139 13.7492 10.5856C13.7057 10.5425 13.6621 10.4986 13.6178 10.454C13.5292 10.3655 13.4391 10.2755 13.3483 10.184C13.3025 10.1386 13.2567 10.0925 13.2102 10.0464C13.1866 10.0218 13.1652 10.0032 13.1393 9.97348C13.1142 9.93926 13.1187 9.88719 13.1489 9.85744C13.894 9.10543 14.5688 8.42482 15.0598 7.92869C15.0768 7.91307 15.0872 7.89893 15.1078 7.88257C15.1285 7.86844 15.1558 7.86472 15.1787 7.87216C15.2038 7.87959 15.2186 7.89893 15.2319 7.91232C15.2459 7.92645 15.2599 7.94059 15.274 7.95472C15.3286 8.01051 15.3803 8.06332 15.429 8.11241C15.525 8.2106 15.6085 8.29539 15.6771 8.36531C15.7104 8.39953 15.7406 8.43077 15.7672 8.45829C15.7916 8.48582 15.8196 8.50515 15.8278 8.53268C15.8359 8.55945 15.8278 8.58028 15.8211 8.59144C15.813 8.6026 15.8071 8.60557 15.8071 8.60557Z"
            fill="#263238" />
        <path
            d="M13.3958 9.66251C13.4032 9.65507 13.5656 9.79863 13.7576 9.98384C13.9503 10.1691 14.1002 10.326 14.0935 10.3334C14.0861 10.3409 13.9237 10.1973 13.731 10.0121C13.539 9.82689 13.3884 9.66995 13.3958 9.66251Z"
            fill="#263238" />
        <path
            d="M14.1126 8.88899C14.1199 8.88081 14.2883 9.02958 14.4965 9.21107C14.7047 9.39331 14.8738 9.53985 14.8672 9.54877C14.8605 9.55695 14.6796 9.42306 14.4714 9.24083C14.2624 9.05784 14.1052 8.89643 14.1126 8.88899Z"
            fill="#263238" />
        <path
            d="M15.6965 8.70899C15.6891 8.71642 15.5229 8.57287 15.3251 8.38765C15.1272 8.20244 14.9729 8.04549 14.9802 8.03805C14.9869 8.02987 15.1538 8.17417 15.3516 8.35939C15.5495 8.5446 15.7038 8.70155 15.6965 8.70899Z"
            fill="#263238" />
        <path
            d="M20.1594 12.9912C20.1594 12.9912 19.5015 13.0626 19.3044 13.0909C19.1073 13.1191 18.8414 13.1734 18.7499 13.3311C18.7122 13.3951 18.1356 14.2453 18.1356 14.2453L17.9155 14.3078L18.2677 15.2837L18.8636 14.9854C18.8636 14.9854 19.0659 14.757 19.2276 14.5406C19.3893 14.3249 19.438 14.246 19.438 14.246C19.438 14.246 20.028 14.2736 20.1476 14.1709C20.2133 14.1144 20.1735 14.014 20.1735 14.014L19.5303 13.9567C19.5303 13.9567 20.2296 13.9545 20.3455 13.8771C20.3558 13.8704 20.3647 13.863 20.3728 13.8548C20.44 13.7871 20.3876 13.6703 20.2923 13.6696L19.5399 13.6644C19.5399 13.6644 20.4038 13.5855 20.423 13.4881C20.4267 13.471 20.4282 13.4553 20.4289 13.4405C20.4326 13.378 20.3824 13.3259 20.3204 13.3281L19.6153 13.3505C19.6153 13.3505 20.2975 13.2404 20.3034 13.1444C20.3152 12.9622 20.1594 12.9912 20.1594 12.9912Z"
            fill="#FFBF9D" />
        <path
            d="M15.7012 14.8767C15.8776 14.6052 16.1855 14.4334 16.5067 14.4021C16.5377 14.3992 17.9414 14.2482 17.9414 14.2482L18.3711 15.6019L16.3096 16.1427"
            fill="#455A64" />
        <path
            d="M16.3099 16.1427C16.3099 16.142 16.3232 16.1368 16.349 16.1294C16.3778 16.1212 16.4155 16.11 16.4627 16.0966C16.5661 16.0684 16.7101 16.0282 16.8902 15.9791C17.2594 15.8802 17.7733 15.7433 18.367 15.5849L18.3544 15.6087C18.2739 15.3558 18.1868 15.0828 18.0967 14.7994C18.0377 14.6127 17.9801 14.4312 17.9247 14.2556L17.9446 14.269C17.6035 14.3047 17.2838 14.3382 16.9943 14.3687C16.8504 14.3836 16.7138 14.3977 16.5868 14.4104C16.459 14.4208 16.3446 14.4394 16.2434 14.4758C16.0411 14.5457 15.9038 14.6566 15.8211 14.7391C15.7384 14.8239 15.7051 14.8805 15.7022 14.8782C15.7015 14.8775 15.7096 14.8634 15.7266 14.8373C15.7435 14.8113 15.7716 14.7741 15.8115 14.7295C15.8927 14.6432 16.03 14.5264 16.2353 14.452C16.3365 14.4126 16.4568 14.3925 16.5838 14.3806C16.7108 14.3665 16.8467 14.3509 16.9907 14.3352C17.2794 14.3033 17.5991 14.2683 17.9402 14.2311L17.9557 14.2296L17.9601 14.2445C18.0162 14.42 18.0738 14.6023 18.1329 14.7882C18.2223 15.0716 18.3094 15.3454 18.3891 15.5983L18.395 15.6169L18.3758 15.6221C17.78 15.7753 17.2653 15.9077 16.8954 16.0029C16.7145 16.0483 16.569 16.084 16.4657 16.11C16.4177 16.1212 16.38 16.1301 16.3505 16.1368C16.3246 16.1413 16.3106 16.1435 16.3099 16.1427Z"
            fill="#263238" />
        <path
            d="M23.397 15.8475C23.397 15.8475 23.8105 15.7055 23.9198 15.7806C24.0291 15.8557 24.066 15.977 24.066 15.977C24.066 15.977 24.3185 15.9792 24.2432 16.2447C24.2432 16.2447 24.4647 16.2894 24.3975 16.5497C24.3975 16.5497 24.56 16.5452 24.4824 16.7602C24.4049 16.9752 24.0734 17.4044 23.9973 17.4624C23.8393 17.5821 23.7958 17.3925 23.8341 17.3166C23.8725 17.2407 24.0896 16.8234 24.0896 16.8234C24.0896 16.8234 23.7138 17.4192 23.5868 17.3196C23.5144 17.263 23.5299 17.1753 23.6259 17.0005C23.6924 16.8792 23.8142 16.6397 23.8142 16.6397L23.5189 17.0072C23.4635 17.0756 23.352 17.0488 23.3372 16.9618C23.3321 16.9313 23.335 16.8941 23.352 16.8502C23.4221 16.6687 23.5706 16.4485 23.5706 16.4485L23.3306 16.6858C23.2767 16.7394 23.1873 16.7349 23.1408 16.6747C23.112 16.6367 23.0958 16.5891 23.1224 16.5348C23.1881 16.4017 23.5536 16.0142 23.5536 16.0142L23.397 15.8475Z"
            fill="#FFBF9D" />
        <path
            d="M16.2863 17.8008C16.2863 17.8008 15.9437 19.5339 16.2922 20.2896C16.6407 21.0454 17.5548 21.4076 18.5058 21.7014C19.7766 22.0942 21.9717 23.3111 21.9717 23.3111C21.9717 23.3111 21.6875 24.5734 21.4999 25.3283C21.3197 26.0536 20.8169 28.6934 20.8169 28.6934L23.1273 29.014L24.7746 23.0426C24.7746 23.0426 25.2346 21.816 24.2348 21.2075C23.3783 20.6861 20.3488 18.6264 20.3488 18.6264L20.114 18.079L16.2863 17.8008Z"
            fill="#DB9A2B" />
        <path
            d="M16.3276 19.8641L16.7581 20.8572L16.1733 25.5723C16.1733 25.5723 15.6727 27.1224 15.5619 27.9406C15.4512 28.7589 15.2075 32.054 15.2075 32.054H17.4721C17.4721 32.054 17.8228 28.0448 18.5029 26.8405C19.0374 25.8929 19.4015 24.2423 19.4236 24.1345C19.4458 24.0266 20.2351 21.3853 20.2351 21.3853L19.129 19.092L16.3276 19.8641Z"
            fill="#DB9A2B" />
        <path
            d="M22.7714 22.7592C22.7758 22.7704 22.5668 22.844 22.3461 22.9995C22.1238 23.1534 21.9835 23.326 21.9739 23.3178C21.9702 23.3148 22.0005 23.268 22.0603 23.2003C22.1201 23.1326 22.211 23.0471 22.3239 22.9675C22.4369 22.8886 22.5484 22.8328 22.6318 22.7994C22.7153 22.7666 22.7699 22.7547 22.7714 22.7592Z"
            fill="#DB9A2B" />
        <path
            d="M23.1273 29.0148C23.1273 29.0148 23.1133 29.014 23.0867 29.0111C23.0586 29.0073 23.0188 29.0029 22.9678 28.9962C22.8615 28.9821 22.7072 28.962 22.5093 28.9359C22.1091 28.8816 21.5317 28.8035 20.8155 28.7068L20.8014 28.7046L20.8044 28.6905C20.9351 28.0009 21.0916 27.1805 21.2777 26.2686C21.3242 26.041 21.3729 25.8066 21.4261 25.5686C21.4815 25.3306 21.5376 25.0881 21.5952 24.8404C21.7104 24.3458 21.8307 23.8325 21.9533 23.3059L21.9629 23.3267C21.7931 23.2337 21.6107 23.1356 21.4261 23.0381C20.9115 22.7674 20.4042 22.5137 19.9065 22.2839C19.4089 22.0555 18.9223 21.8472 18.4423 21.6985C17.9624 21.5475 17.5083 21.3823 17.1199 21.154C16.9265 21.0394 16.75 20.9085 16.6038 20.7575C16.4576 20.6073 16.3417 20.4369 16.2671 20.2592C16.1903 20.0806 16.1652 19.8962 16.1453 19.7243C16.1372 19.6381 16.1298 19.554 16.129 19.4729C16.1246 19.3911 16.1261 19.3123 16.1268 19.2364C16.1312 18.9314 16.1564 18.6696 16.1815 18.4569C16.2073 18.2441 16.2331 18.0797 16.2531 17.9682C16.2634 17.9139 16.2715 17.8722 16.2767 17.8417C16.2826 17.8134 16.2863 17.7993 16.2863 17.7993C16.2863 17.7993 16.2848 17.8142 16.2804 17.8425C16.276 17.8722 16.2686 17.9146 16.2605 17.9689C16.2435 18.0805 16.2191 18.2449 16.1962 18.4576C16.1733 18.6703 16.1504 18.9314 16.1482 19.2357C16.1482 19.3115 16.1475 19.3904 16.1519 19.4714C16.1534 19.5525 16.1608 19.6358 16.1696 19.7214C16.1903 19.891 16.2162 20.0739 16.2922 20.248C16.3668 20.4221 16.4805 20.5887 16.6252 20.736C16.7699 20.884 16.9442 21.0127 17.1369 21.1257C17.5223 21.3511 17.975 21.5147 18.4542 21.6643C18.9363 21.813 19.4251 22.0206 19.9235 22.2489C20.4212 22.4788 20.9299 22.7324 21.4446 23.0032C21.6292 23.1006 21.8123 23.198 21.9821 23.2918L21.9946 23.2985L21.9917 23.3126C21.8684 23.84 21.748 24.3532 21.6321 24.8479C21.5745 25.0948 21.5177 25.3373 21.4615 25.5753C21.4084 25.8133 21.3589 26.0462 21.3117 26.2745C21.1241 27.1857 20.9639 28.0054 20.8302 28.6942L20.8192 28.6786C21.5346 28.7805 22.1113 28.8623 22.5108 28.9196C22.7087 28.9486 22.8622 28.9709 22.9686 28.9865C23.0195 28.9947 23.0594 29.0007 23.0874 29.0051C23.114 29.0111 23.1273 29.0148 23.1273 29.0148Z"
            fill="#DB9A2B" />
    </g>
    <defs>
        <clipPath id="clip0_1908_137818">
            <rect width="18" height="28" fill="white" transform="translate(13 6)" />
        </clipPath>
    </defs>
</svg>