<svg width="40" height="40" viewBox="0 0 40 40" fill="none" xmlns="http://www.w3.org/2000/svg">
    <rect width="40" height="40" rx="20" fill="#FDE6D3" />
    <g clip-path="url(#clip0_1908_136578)">
        <path
            d="M33.2067 11H7.79328C7.35504 11 7 11.348 7 11.7775V29.3693C7 29.7988 7.35504 30.1467 7.79328 30.1467H17.5468C17.5468 30.1467 18.1673 32.0267 16.2438 33H25.364C25.364 33 23.1925 32.2703 23.751 30.1467H33.2067C33.645 30.1467 34 29.7988 34 29.3693V11.7775C34 11.348 33.6444 11 33.2067 11Z"
            fill="#263238" />
        <path
            d="M20.8394 28.2968C21.1849 28.7809 20.6438 29.3111 20.15 28.9725C20.1335 28.9611 20.1187 28.9465 20.1076 28.931C19.7626 28.4469 20.3031 27.9172 20.797 28.2553C20.8134 28.2662 20.8282 28.2807 20.8394 28.2968Z"
            fill="#455A64" />
        <path
            d="M33.5621 26.9289H7.4375V11.8258C7.4375 11.5474 7.66748 11.322 7.95151 11.322H33.0486C33.3326 11.322 33.5626 11.5474 33.5626 11.8258V26.9289H33.5621Z"
            fill="white" />
        <path
            d="M33.5621 12.6193H7.4375V11.7977C7.4375 11.5349 7.65476 11.3225 7.92237 11.3225H33.1636C33.3835 11.3225 33.5621 11.4975 33.5621 11.7131V12.6193Z"
            fill="#EBEBEB" />
        <path
            d="M8.45312 11.9977C8.45312 12.0969 8.37099 12.1774 8.26977 12.1774C8.16856 12.1774 8.08643 12.0969 8.08643 11.9977C8.08643 11.8985 8.16856 11.818 8.26977 11.818C8.37099 11.818 8.45312 11.8985 8.45312 11.9977Z"
            fill="#263238" />
        <path
            d="M9 11.9977C9 12.0969 8.91786 12.1774 8.81665 12.1774C8.71544 12.1774 8.6333 12.0969 8.6333 11.9977C8.6333 11.8985 8.71544 11.818 8.81665 11.818C8.91786 11.818 9 11.8985 9 11.9977Z"
            fill="#263238" />
        <path
            d="M9.52051 11.9977C9.52051 12.0969 9.43837 12.1774 9.33716 12.1774C9.23594 12.1774 9.15381 12.0969 9.15381 11.9977C9.15381 11.8985 9.23594 11.818 9.33716 11.818C9.43837 11.818 9.52051 11.8985 9.52051 11.9977Z"
            fill="#263238" />
        <path
            d="M28.663 30.1493C28.663 30.1576 25.0469 30.1644 20.5867 30.1644C16.1253 30.1644 12.5098 30.1576 12.5098 30.1493C12.5098 30.141 16.1253 30.1343 20.5867 30.1343C25.0464 30.1348 28.663 30.141 28.663 30.1493Z"
            fill="#455A64" />
        <path d="M19.2263 15.51H17.5015V15.9572H19.2263V15.51Z" fill="#F5F5F5" />
        <path
            d="M18.497 16.4282C18.497 16.4282 18.4965 16.4251 18.4965 16.4199C18.4965 16.4137 18.4959 16.4064 18.4959 16.397C18.4954 16.3757 18.4954 16.3467 18.4949 16.3093C18.4944 16.2319 18.4933 16.1213 18.4917 15.981L18.497 15.9862C18.1033 15.9868 17.4769 15.9883 16.7722 15.9894C16.7759 15.9857 16.7631 15.9982 16.7806 15.9805V15.981V15.9821V15.9836V15.9873V15.9945V16.0091V16.0377C16.7806 16.0569 16.7806 16.0756 16.7806 16.0948C16.7806 16.1327 16.7806 16.1701 16.7806 16.2075C16.7806 16.2823 16.7806 16.3555 16.7806 16.4277L16.7722 16.4194C17.2634 16.4209 17.6931 16.4225 18.0015 16.423C18.1552 16.424 18.2782 16.4251 18.3645 16.4256C18.4064 16.4261 18.4392 16.4266 18.4626 16.4266C18.4732 16.4266 18.4816 16.4272 18.488 16.4272C18.4938 16.4282 18.497 16.4282 18.497 16.4282C18.497 16.4282 18.4944 16.4287 18.4891 16.4287C18.4827 16.4287 18.4748 16.4292 18.4647 16.4292C18.4419 16.4298 18.4096 16.4298 18.3682 16.4303C18.2824 16.4308 18.16 16.4318 18.0074 16.4329C17.6974 16.4339 17.2655 16.435 16.7722 16.4365H16.7637V16.4282C16.7637 16.3565 16.7637 16.2828 16.7637 16.208C16.7637 16.1706 16.7637 16.1332 16.7637 16.0953C16.7637 16.0766 16.7637 16.0574 16.7637 16.0382V16.0096V15.9951V15.9878V15.9842V15.9826V15.9816V15.981C16.7812 15.9639 16.7684 15.9764 16.7727 15.9722C17.4775 15.9738 18.1038 15.9748 18.4975 15.9759H18.5028V15.981C18.5018 16.1223 18.5007 16.2345 18.4997 16.3124C18.4991 16.3493 18.4986 16.3783 18.4986 16.3991C18.4986 16.4079 18.4981 16.4152 18.4981 16.4209C18.4975 16.4261 18.4975 16.4287 18.497 16.4282Z"
            fill="#E0E0E0" />
        <path d="M10.3425 18.1353H8.61768V18.5824H10.3425V18.1353Z" fill="#EBEBEB" />
        <path
            d="M19.9678 14.1986C19.9678 14.1986 19.9673 14.1955 19.9673 14.1903C19.9673 14.184 19.9667 14.1762 19.9667 14.1664C19.9662 14.144 19.9662 14.1134 19.9651 14.0739C19.9646 13.9929 19.9635 13.8761 19.962 13.7291L19.9678 13.7348C19.5539 13.7358 18.8963 13.7369 18.156 13.7384C18.1603 13.7343 18.1465 13.7473 18.165 13.7296V13.7301V13.7312V13.7332V13.7369V13.7447V13.7597V13.7898C18.165 13.8101 18.165 13.8298 18.165 13.8496C18.165 13.8896 18.165 13.929 18.165 13.968C18.165 14.0464 18.165 14.1233 18.165 14.1991L18.156 14.1903C18.6722 14.1918 19.1236 14.1934 19.4474 14.1944C19.6085 14.1955 19.7383 14.1965 19.8284 14.197C19.8724 14.1975 19.9068 14.1981 19.9312 14.1981C19.9424 14.1981 19.9514 14.1986 19.9582 14.1986C19.9641 14.1981 19.9673 14.1986 19.9678 14.1986C19.9678 14.1986 19.9651 14.1991 19.9593 14.1991C19.9524 14.1991 19.9439 14.1996 19.9333 14.1996C19.909 14.2001 19.8756 14.2001 19.8321 14.2006C19.742 14.2012 19.6133 14.2022 19.4532 14.2032C19.1279 14.2043 18.6743 14.2058 18.1555 14.2074H18.1465V14.1986C18.1465 14.1233 18.1465 14.0459 18.1465 13.9675C18.1465 13.9285 18.1465 13.8885 18.1465 13.8491C18.1465 13.8293 18.1465 13.8091 18.1465 13.7893V13.7592V13.7441V13.7364V13.7327V13.7306V13.7296V13.7291C18.165 13.7109 18.1518 13.7239 18.156 13.7203C18.8963 13.7218 19.5539 13.7228 19.9678 13.7239H19.9736V13.7296C19.972 13.8781 19.9715 13.9955 19.9704 14.0776C19.9699 14.1165 19.9694 14.1472 19.9688 14.169C19.9688 14.1783 19.9683 14.1861 19.9683 14.1923C19.9678 14.1965 19.9678 14.1986 19.9678 14.1986Z"
            fill="#E0E0E0" />
        <path
            d="M20.2134 13.7291C20.2134 13.7291 20.2128 13.726 20.2128 13.7203C20.2128 13.7135 20.2123 13.7052 20.2123 13.6954C20.2118 13.672 20.2113 13.6408 20.2107 13.6014C20.2097 13.5188 20.2086 13.4025 20.207 13.2596L20.2139 13.2664C19.932 13.2669 19.5483 13.2679 19.1255 13.269C19.117 13.2773 19.1366 13.2581 19.1345 13.2601V13.2607V13.2617V13.2638V13.2674V13.2752V13.2908V13.3214C19.1345 13.3417 19.1345 13.3619 19.1345 13.3822C19.1345 13.4227 19.1345 13.4627 19.1345 13.5016C19.1345 13.5801 19.1345 13.6564 19.1339 13.7296L19.1249 13.7208C19.4392 13.7224 19.71 13.7239 19.9039 13.725C19.9993 13.726 20.0761 13.7265 20.1307 13.7276C20.1561 13.7281 20.1763 13.7286 20.1916 13.7286C20.2054 13.7281 20.2134 13.7286 20.2134 13.7291C20.2139 13.7296 20.207 13.7296 20.1938 13.7302C20.1789 13.7307 20.1593 13.7307 20.1344 13.7312C20.0804 13.7317 20.0046 13.7328 19.9097 13.7338C19.7142 13.7348 19.4418 13.7364 19.1249 13.7379H19.1159V13.7291C19.1159 13.6559 19.1159 13.5801 19.1154 13.5011C19.1154 13.4617 19.1154 13.4222 19.1154 13.3817C19.1154 13.3614 19.1154 13.3412 19.1154 13.3209V13.2903V13.2747V13.2669V13.2633V13.2612V13.2601V13.2596C19.1133 13.2617 19.1329 13.2425 19.1249 13.2503C19.5478 13.2513 19.9315 13.2524 20.2134 13.2529H20.2203V13.2591C20.2187 13.404 20.2176 13.5214 20.2165 13.605C20.216 13.6439 20.2155 13.6751 20.215 13.698C20.2144 13.7187 20.2139 13.7291 20.2134 13.7291Z"
            fill="#E0E0E0" />
        <path
            d="M19.9678 19.065C19.9678 19.065 19.9673 19.0619 19.9673 19.0567C19.9673 19.0505 19.9667 19.0427 19.9667 19.0328C19.9662 19.0105 19.9662 18.9799 19.9651 18.9404C19.9646 18.8594 19.9635 18.7425 19.962 18.5955L19.9678 18.6012C19.5539 18.6023 18.8963 18.6033 18.156 18.6049C18.1603 18.6007 18.1465 18.6137 18.165 18.5961V18.5966V18.5976V18.5997V18.6033V18.6111V18.6262V18.6563C18.165 18.6766 18.165 18.6963 18.165 18.716C18.165 18.756 18.165 18.7955 18.165 18.8344C18.165 18.9129 18.165 18.9897 18.165 19.0655L18.156 19.0567C18.6722 19.0583 19.1236 19.0598 19.4474 19.0609C19.6085 19.0619 19.7383 19.0629 19.8284 19.0635C19.8724 19.064 19.9068 19.0645 19.9312 19.0645C19.9424 19.0645 19.9514 19.065 19.9582 19.065C19.9641 19.0645 19.9673 19.0645 19.9678 19.065C19.9678 19.065 19.9651 19.0655 19.9593 19.0655C19.9524 19.0655 19.9439 19.0661 19.9333 19.0661C19.909 19.0666 19.8756 19.0666 19.8321 19.0671C19.742 19.0676 19.6133 19.0687 19.4532 19.0697C19.1279 19.0707 18.6743 19.0723 18.1555 19.0739H18.1465V19.065C18.1465 18.9897 18.1465 18.9123 18.1465 18.8339C18.1465 18.7944 18.1465 18.755 18.1465 18.7155C18.1465 18.6958 18.1465 18.6755 18.1465 18.6558V18.6257V18.6106V18.6028V18.5992V18.5971V18.5961V18.5955C18.165 18.5774 18.1518 18.5903 18.156 18.5867C18.8963 18.5883 19.5539 18.5893 19.9678 18.5903H19.9736V18.5961C19.972 18.7446 19.9715 18.862 19.9704 18.944C19.9699 18.983 19.9694 19.0136 19.9688 19.0354C19.9688 19.0448 19.9683 19.0526 19.9683 19.0588C19.9678 19.0624 19.9678 19.065 19.9678 19.065Z"
            fill="#E0E0E0" />
        <path
            d="M20.2134 18.595C20.2134 18.595 20.2128 18.5918 20.2128 18.5861C20.2128 18.5794 20.2123 18.5711 20.2123 18.5612C20.2118 18.5378 20.2113 18.5067 20.2107 18.4672C20.2097 18.3846 20.2086 18.2683 20.207 18.1255L20.2139 18.1322C19.932 18.1327 19.5483 18.1338 19.1255 18.1348C19.117 18.1431 19.1366 18.1239 19.1345 18.126V18.1265V18.1276V18.1296V18.1333V18.1411V18.1566V18.1873C19.1345 18.2075 19.1345 18.2278 19.1345 18.248C19.1345 18.2885 19.1345 18.3285 19.1345 18.3675C19.1345 18.4459 19.1345 18.5223 19.1339 18.5955L19.1249 18.5867C19.4392 18.5882 19.71 18.5898 19.9039 18.5908C19.9993 18.5918 20.0761 18.5924 20.1307 18.5934C20.1561 18.5939 20.1763 18.5944 20.1916 18.5944C20.2054 18.5944 20.2134 18.595 20.2134 18.595C20.2139 18.5955 20.207 18.5955 20.1938 18.596C20.1789 18.5965 20.1593 18.5965 20.1344 18.597C20.0804 18.5976 20.0046 18.5986 19.9097 18.5996C19.7142 18.6007 19.4418 18.6022 19.1249 18.6038H19.1159V18.595C19.1159 18.5217 19.1159 18.4459 19.1154 18.367C19.1154 18.3275 19.1154 18.288 19.1154 18.2475C19.1154 18.2273 19.1154 18.207 19.1154 18.1868V18.1561V18.1405V18.1327V18.1291V18.127V18.126V18.1255C19.1133 18.1276 19.1329 18.1083 19.1249 18.1161C19.5478 18.1172 19.9315 18.1182 20.2134 18.1187H20.2203V18.125C20.2187 18.2699 20.2176 18.3872 20.2165 18.4708C20.216 18.5098 20.2155 18.541 20.215 18.5638C20.2144 18.5846 20.2139 18.5955 20.2134 18.595Z"
            fill="#E0E0E0" />
        <path d="M23.8169 13.5443H20.9761V16.3285H23.8169V13.5443Z" fill="#EBEBEB" />
        <path d="M23.733 13.6263H21.0596V16.2464H23.733V13.6263Z" fill="white" />
        <path d="M22.7805 14.5602H22.0127V15.3127H22.7805V14.5602Z" fill="#E0E0E0" />
        <path d="M23.9367 13.5457H23.8169V16.3288H23.9367V13.5457Z" fill="#E0E0E0" />
        <path
            d="M20.4313 26.9195C20.4238 26.9195 20.4175 23.7229 20.4175 19.7806C20.4175 15.8366 20.4238 12.6411 20.4313 12.6411C20.4387 12.6411 20.445 15.8372 20.445 19.7806C20.445 23.7229 20.4392 26.9195 20.4313 26.9195Z"
            fill="#263238" />
        <path
            d="M33.5921 19.8164C33.5921 19.8236 27.7303 19.8299 20.5007 19.8299C13.269 19.8299 7.4082 19.8236 7.4082 19.8164C7.4082 19.8091 13.269 19.8029 20.5007 19.8029C27.7303 19.8029 33.5921 19.8086 33.5921 19.8164Z"
            fill="#263238" />
        <path
            d="M33.5624 26.9289C33.5624 26.8541 33.5587 22.3348 33.5529 14.9128C33.5524 13.9853 33.5524 13.0136 33.5518 12.0014C33.5518 11.938 33.5518 11.8746 33.5518 11.8113C33.5508 11.7474 33.5566 11.6835 33.5402 11.6233C33.511 11.5023 33.4157 11.3974 33.2938 11.3563C33.2636 11.3449 33.2318 11.3392 33.2 11.3356C33.1682 11.3335 33.1348 11.3335 33.1019 11.3335C33.0357 11.3335 32.9695 11.3335 32.9027 11.3335C32.7697 11.3335 32.6362 11.3335 32.5016 11.3335C31.9642 11.3335 31.4174 11.3335 30.8604 11.334C28.6337 11.3345 26.255 11.335 23.7511 11.335C21.2478 11.335 18.6195 11.3356 15.8952 11.3361C14.5328 11.3361 13.1471 11.3361 11.7402 11.3361C11.037 11.3361 10.328 11.3361 9.61472 11.3361C9.25809 11.3361 8.9004 11.3361 8.54112 11.3361C8.36149 11.3361 8.18185 11.3361 8.00168 11.3361C7.91106 11.3335 7.82416 11.3413 7.74308 11.3776C7.66306 11.4124 7.59259 11.4685 7.54171 11.5386C7.49137 11.6056 7.46223 11.6866 7.45269 11.7687C7.44739 11.8513 7.4511 11.9385 7.45004 12.0226C7.45004 12.193 7.45004 12.3628 7.45004 12.5326C7.45004 12.8718 7.45004 13.2104 7.45004 13.5474C7.45004 14.2221 7.45004 14.892 7.45004 15.5578C7.45004 16.8889 7.45004 18.2003 7.45004 19.4898C7.45004 22.0684 7.44951 24.5576 7.44951 26.9289L7.43679 26.9164C22.7687 26.9237 33.4469 26.9284 33.5624 26.9289C33.4469 26.9289 22.7687 26.9341 7.43785 26.9414H7.42513V26.9289C7.42513 24.5571 7.4246 22.0684 7.4246 19.4898C7.4246 18.2003 7.4246 16.8884 7.4246 15.5578C7.4246 14.8926 7.4246 14.2221 7.4246 13.5474C7.4246 13.2104 7.4246 12.8718 7.4246 12.5326C7.4246 12.3628 7.4246 12.193 7.4246 12.0226C7.42566 11.937 7.42195 11.8539 7.42725 11.7661C7.43785 11.6794 7.46859 11.5942 7.52158 11.523C7.5751 11.4488 7.64982 11.3896 7.73407 11.3527C7.81833 11.3143 7.91477 11.306 8.0038 11.3091C8.18397 11.3091 8.3636 11.3091 8.54324 11.3091C8.90199 11.3091 9.26021 11.3091 9.61684 11.3091C10.3301 11.3091 11.0386 11.3091 11.7423 11.3091C13.1492 11.3091 14.5355 11.3091 15.8973 11.3091C18.6216 11.3096 21.2494 11.3096 23.7533 11.3101C26.2566 11.3106 28.6359 11.3111 30.8625 11.3111C31.4189 11.3111 31.9663 11.3111 32.5037 11.3117C32.6377 11.3117 32.7718 11.3117 32.9048 11.3117C32.9716 11.3117 33.0378 11.3117 33.1041 11.3117C33.1369 11.3117 33.1703 11.3111 33.2042 11.3137C33.2376 11.3179 33.2715 11.3241 33.3028 11.3361C33.431 11.3797 33.5317 11.4903 33.5624 11.6181C33.5799 11.6825 33.5736 11.7479 33.5746 11.8108C33.5746 11.8746 33.5746 11.938 33.5746 12.0014C33.5741 13.0146 33.5741 13.9873 33.5736 14.9154C33.5661 22.3358 33.5624 26.8541 33.5624 26.9289Z"
            fill="#263238" />
        <path
            d="M8.50441 13.3916C8.50441 13.5178 8.40001 13.6201 8.27125 13.6201C8.14248 13.6201 8.03809 13.5178 8.03809 13.3916C8.03809 13.2654 8.14248 13.1631 8.27125 13.1631C8.40054 13.1636 8.50441 13.2654 8.50441 13.3916Z"
            fill="#455A64" />
        <path
            d="M9.91441 13.4326C9.91441 13.4388 9.62402 13.444 9.2658 13.444C8.90758 13.444 8.61719 13.4388 8.61719 13.4326C8.61719 13.4263 8.90758 13.4211 9.2658 13.4211C9.62402 13.4211 9.91441 13.4263 9.91441 13.4326Z"
            fill="#455A64" />
        <path
            d="M21.7544 13.3916C21.7544 13.5178 21.65 13.6201 21.5217 13.6201C21.393 13.6201 21.2886 13.5178 21.2886 13.3916C21.2886 13.2654 21.393 13.1631 21.5217 13.1631C21.65 13.1636 21.7544 13.2654 21.7544 13.3916Z"
            fill="#455A64" />
        <path
            d="M23.1639 13.4326C23.1639 13.4388 22.8735 13.444 22.5153 13.444C22.1571 13.444 21.8667 13.4388 21.8667 13.4326C21.8667 13.4263 22.1571 13.4211 22.5153 13.4211C22.8735 13.4211 23.1639 13.4263 23.1639 13.4326Z"
            fill="#455A64" />
        <path
            d="M21.7588 20.8754C21.7588 21.0016 21.6544 21.1039 21.5261 21.1039C21.3979 21.1039 21.293 21.0016 21.293 20.8754C21.293 20.7492 21.3974 20.6469 21.5261 20.6469C21.6549 20.6469 21.7588 20.7492 21.7588 20.8754Z"
            fill="#455A64" />
        <path
            d="M23.1688 20.9163C23.1688 20.9226 22.8784 20.9278 22.5202 20.9278C22.162 20.9278 21.8716 20.9226 21.8716 20.9163C21.8716 20.9101 22.162 20.9049 22.5202 20.9049C22.8779 20.9049 23.1688 20.9101 23.1688 20.9163Z"
            fill="#455A64" />
        <path
            d="M8.52296 20.8754C8.52296 21.0016 8.41857 21.1039 8.2898 21.1039C8.16103 21.1039 8.05664 21.0016 8.05664 20.8754C8.05664 20.7492 8.16103 20.6469 8.2898 20.6469C8.41857 20.6469 8.52296 20.7492 8.52296 20.8754Z"
            fill="#455A64" />
        <path
            d="M9.93296 20.9163C9.93296 20.9226 9.64257 20.9278 9.28435 20.9278C8.92613 20.9278 8.63574 20.9226 8.63574 20.9163C8.63574 20.9101 8.92613 20.9049 9.28435 20.9049C9.64257 20.9049 9.93296 20.9101 9.93296 20.9163Z"
            fill="#455A64" />
        <path
            d="M32.6309 13.8668C32.3633 13.8668 32.146 13.6539 32.146 13.3916C32.146 13.1293 32.3633 12.9164 32.6309 12.9164C32.8985 12.9164 33.1157 13.1293 33.1157 13.3916C33.1152 13.6539 32.8985 13.8668 32.6309 13.8668Z"
            fill="#FF725E" />
        <path
            d="M32.6141 13.3952C32.6459 13.3859 32.6687 13.3568 32.6687 13.323C32.6687 13.2809 32.6343 13.2472 32.5913 13.2472C32.5484 13.2472 32.514 13.2809 32.514 13.323C32.514 13.3568 32.5362 13.3848 32.567 13.3947C32.5029 13.4051 32.4541 13.4591 32.4541 13.525H32.7238C32.7238 13.4601 32.6767 13.4066 32.6141 13.3952Z"
            fill="white" />
        <path
            d="M32.7655 13.4175C32.7589 13.4175 32.7539 13.4128 32.7539 13.4066V13.2851C32.7539 13.2788 32.7589 13.2742 32.7655 13.2742C32.7721 13.2742 32.7771 13.2788 32.7771 13.2851V13.4066C32.7771 13.4128 32.7721 13.4175 32.7655 13.4175Z"
            fill="white" />
        <path
            d="M32.827 13.357H32.703C32.6967 13.357 32.6919 13.3523 32.6919 13.346C32.6919 13.3397 32.6967 13.335 32.703 13.335H32.827C32.8334 13.335 32.8382 13.3397 32.8382 13.346C32.8382 13.3523 32.8334 13.357 32.827 13.357Z"
            fill="white" />
        <path d="M7.4375 25.7883V26.933H8.79937H12.229H33.5621V25.7883H7.4375Z" fill="#455A64" />
        <path
            d="M21.3996 26.694C21.6001 26.694 21.7626 26.5348 21.7626 26.3383C21.7626 26.1418 21.6001 25.9825 21.3996 25.9825C21.1991 25.9825 21.0366 26.1418 21.0366 26.3383C21.0366 26.5348 21.1991 26.694 21.3996 26.694Z"
            fill="white" />
        <path
            d="M21.3819 26.4349H21.3369C21.2992 26.4349 21.269 26.4053 21.269 26.3684V26.3243C21.269 26.2874 21.2998 26.2578 21.3369 26.2578H21.3819C21.4195 26.2578 21.4497 26.2874 21.4497 26.3243V26.3684C21.4503 26.4053 21.4195 26.4349 21.3819 26.4349Z"
            fill="#FF725E" />
        <path
            d="M21.4668 26.3778V26.3175L21.5124 26.2692C21.5187 26.263 21.5293 26.2671 21.5293 26.276V26.4126C21.5293 26.4209 21.5193 26.4255 21.5129 26.4198L21.4668 26.3778Z"
            fill="#FF725E" />
        <path
            d="M19.6403 26.3139C19.6403 26.4977 19.4882 26.6468 19.3006 26.6468C19.113 26.6468 18.9609 26.4977 18.9609 26.3139C18.9609 26.13 19.113 25.981 19.3006 25.981C19.4877 25.981 19.6403 26.13 19.6403 26.3139Z"
            fill="white" />
        <path
            d="M19.1926 26.3466C19.174 26.3466 19.1592 26.332 19.1592 26.3138C19.1592 26.2957 19.174 26.2811 19.1926 26.2811C19.2111 26.2811 19.2259 26.2957 19.2259 26.3138C19.2259 26.332 19.2111 26.3466 19.1926 26.3466Z"
            fill="#FF725E" />
        <path
            d="M19.2971 26.3466C19.2785 26.3466 19.2637 26.332 19.2637 26.3138C19.2637 26.2957 19.2785 26.2811 19.2971 26.2811C19.3156 26.2811 19.3304 26.2957 19.3304 26.3138C19.3304 26.332 19.3151 26.3466 19.2971 26.3466Z"
            fill="#FF725E" />
        <path
            d="M19.4084 26.3466C19.3898 26.3466 19.375 26.332 19.375 26.3138C19.375 26.2957 19.3898 26.2811 19.4084 26.2811C19.4269 26.2811 19.4418 26.2957 19.4418 26.3138C19.4418 26.332 19.4269 26.3466 19.4084 26.3466Z"
            fill="#FF725E" />
        <path
            d="M20.3819 26.8665C20.6669 26.8665 20.898 26.6401 20.898 26.3607C20.898 26.0813 20.6669 25.8549 20.3819 25.8549C20.0968 25.8549 19.8657 26.0813 19.8657 26.3607C19.8657 26.6401 20.0968 26.8665 20.3819 26.8665Z"
            fill="white" />
        <path
            d="M20.1798 26.4479L20.272 26.4267C20.2831 26.4241 20.2916 26.4142 20.2916 26.4028V26.3841C20.2916 26.3841 20.2879 26.3524 20.3181 26.3503C20.3398 26.3487 20.4781 26.3503 20.4781 26.3503C20.4781 26.3503 20.5147 26.3498 20.5141 26.3778V26.4048C20.5141 26.4142 20.5205 26.4225 20.5295 26.4251L20.6291 26.4547C20.6397 26.4578 20.6509 26.4526 20.6551 26.4427L20.6678 26.4126C20.6699 26.4069 20.6715 26.4012 20.671 26.395C20.6705 26.383 20.6657 26.3648 20.654 26.3498C20.6344 26.3249 20.5412 26.2662 20.3631 26.2745C20.1936 26.2828 20.1565 26.3524 20.1469 26.3695C20.1411 26.3799 20.139 26.4054 20.1437 26.4163C20.1453 26.4204 20.1485 26.4272 20.1512 26.4334C20.1554 26.4448 20.1676 26.4505 20.1798 26.4479Z"
            fill="#FF725E" />
        <path
            d="M29.0954 22.5092C28.9799 22.3934 28.7743 22.3627 28.6466 22.4651L28.0923 23.189C28.1183 23.308 28.1702 23.4238 28.2571 23.511C28.344 23.5983 28.468 23.6533 28.592 23.6414C28.751 23.6263 28.9205 23.5328 29.0217 23.4108C29.1256 23.2851 29.2221 23.1657 29.2565 22.9387C29.2809 22.7787 29.2109 22.625 29.0954 22.5092Z"
            fill="#263238" />
        <path
            d="M29.0487 23.2145C29.0434 23.214 29.0482 23.175 29.0381 23.1153C29.0286 23.0561 29 22.974 28.9369 22.906C28.8738 22.8385 28.7933 22.8027 28.7339 22.7876C28.6741 22.772 28.6343 22.7736 28.6338 22.7679C28.6333 22.7642 28.6735 22.7544 28.7387 22.7648C28.8028 22.7746 28.8924 22.8094 28.9618 22.8837C29.0307 22.9579 29.0583 23.0488 29.062 23.1122C29.0662 23.1771 29.0524 23.2155 29.0487 23.2145Z"
            fill="#455A64" />
        <path
            d="M29.1335 22.6427C29.1303 22.6526 29.0286 22.6167 28.8993 22.6193C28.7705 22.6214 28.6699 22.6604 28.6661 22.6505C28.6619 22.6443 28.761 22.5892 28.8988 22.5866C29.0366 22.5845 29.1372 22.6365 29.1335 22.6427Z"
            fill="#455A64" />
        <path
            d="M28.7219 21.8424C28.6493 21.5033 28.3022 21.1538 27.9705 21.0343C27.6387 20.9149 27.3367 20.9185 26.9869 20.9663C26.599 21.0276 26.2647 21.2722 26.1131 21.6279C25.9616 21.9832 25.9976 22.3218 26.0278 22.7061C26.0506 22.998 26.1354 23.3454 26.2456 23.4519C26.3558 23.5583 26.3447 23.5022 26.4862 23.5635C26.7665 23.6851 27.0754 23.6482 27.3817 23.6373C27.688 23.6264 28.0505 23.5646 28.2672 23.3516C28.4506 23.1719 28.5062 23.0452 28.5963 22.8115C28.697 22.5503 28.7807 22.1161 28.7219 21.8424Z"
            fill="#263238" />
        <path
            d="M28.1949 22.2205C28.2077 21.6752 27.7514 21.2249 27.178 21.2306C26.6375 21.2364 26.203 21.6679 26.177 22.1878C26.1542 22.6433 26.1421 23.1024 26.1617 23.2665C26.221 23.7614 26.5427 23.924 26.6709 23.9692C26.7001 23.9795 26.7785 23.9868 26.8097 23.9879C26.8119 23.9879 26.8135 23.9894 26.8129 23.9915L26.7589 24.5721C26.7467 24.9502 26.9984 25.2608 27.3905 25.2753C27.7843 25.2904 28.0572 24.973 28.0768 24.5939L28.1949 22.2205Z"
            fill="#FFD6BD" />
        <path
            d="M26.2624 22.4344C26.2703 22.4432 26.3366 22.4391 26.4203 22.4676C26.504 22.4957 26.5581 22.5404 26.5687 22.5378C26.574 22.5367 26.5671 22.5232 26.5438 22.503C26.521 22.4832 26.4791 22.4573 26.4272 22.4396C26.3753 22.4219 26.3281 22.4178 26.2995 22.4204C26.2703 22.423 26.2587 22.4303 26.2624 22.4344Z"
            fill="#263238" />
        <path
            d="M27.198 22.5736C27.2107 22.5747 27.2637 22.53 27.3533 22.4968C27.4423 22.463 27.5175 22.4599 27.5249 22.4511C27.5287 22.4469 27.5143 22.4417 27.481 22.4428C27.4486 22.4438 27.3962 22.4521 27.3405 22.4729C27.2849 22.4937 27.2425 22.5207 27.2202 22.5404C27.1975 22.5607 27.1922 22.5731 27.198 22.5736Z"
            fill="#263238" />
        <path
            d="M26.83 22.9782C26.8305 22.9736 26.7759 22.9621 26.6874 22.9476C26.6652 22.9445 26.644 22.9393 26.6408 22.9242C26.636 22.9081 26.6466 22.8853 26.6588 22.8604C26.6821 22.8084 26.707 22.7544 26.733 22.6973C26.8363 22.4651 26.9121 22.2735 26.9026 22.2693C26.893 22.2657 26.8014 22.4506 26.698 22.6833C26.6731 22.7404 26.6493 22.7954 26.6265 22.8474C26.617 22.8718 26.6011 22.8993 26.6111 22.9325C26.6164 22.9492 26.6323 22.9616 26.6466 22.9658C26.6609 22.9705 26.6737 22.9715 26.6848 22.9725C26.7738 22.9808 26.8295 22.9834 26.83 22.9782Z"
            fill="#263238" />
        <path
            d="M26.8136 23.9873C26.8136 23.9873 27.1538 24.0273 27.5926 23.7961C27.5926 23.7961 27.4384 24.2262 26.7993 24.1441L26.8136 23.9873Z"
            fill="#FFB394" />
        <path
            d="M26.8581 23.1849C26.8915 23.1455 26.9487 23.1257 27.0038 23.1335C27.042 23.1387 27.0801 23.1584 27.1019 23.1891C27.1236 23.2202 27.1268 23.2628 27.1045 23.2909C27.0791 23.3226 27.0287 23.3277 26.9874 23.3148C26.9455 23.3018 26.9106 23.2732 26.8772 23.2457C26.8682 23.2379 26.8586 23.2301 26.8528 23.2197C26.8475 23.2093 26.8464 23.1964 26.8544 23.188"
            fill="#FF725E" />
        <path
            d="M27.0875 23.0473C27.0732 23.0457 27.0689 23.1381 26.9836 23.201C26.8988 23.2638 26.7965 23.2493 26.7955 23.2623C26.7939 23.268 26.8172 23.281 26.8607 23.2841C26.9031 23.2872 26.9656 23.2763 27.0175 23.2379C27.0695 23.1994 27.0933 23.1465 27.0986 23.1085C27.1039 23.0701 27.0938 23.0467 27.0875 23.0473Z"
            fill="#263238" />
        <path
            d="M27.1965 22.0954C27.206 22.1177 27.2807 22.1006 27.3714 22.1053C27.4614 22.1078 27.5362 22.1312 27.5462 22.1094C27.5505 22.099 27.5367 22.0782 27.5054 22.0585C27.4747 22.0388 27.427 22.0211 27.373 22.0185C27.3189 22.0164 27.2707 22.0299 27.2394 22.0471C27.2076 22.0653 27.1923 22.0845 27.1965 22.0954Z"
            fill="#263238" />
        <path
            d="M26.264 22.0553C26.2809 22.0782 26.3514 22.0579 26.4351 22.06C26.5189 22.0595 26.5888 22.0808 26.6063 22.0584C26.6137 22.0475 26.6037 22.0247 26.574 22.0029C26.5443 21.981 26.494 21.9618 26.4367 21.9613C26.379 21.9608 26.3286 21.979 26.2984 22.0008C26.2672 22.0221 26.2566 22.0444 26.264 22.0553Z"
            fill="#263238" />
        <path
            d="M26.9536 21.0328C26.8333 21.2836 26.9722 21.5355 27.2218 21.6653C27.3299 21.7214 27.4671 21.752 27.5206 21.8595C27.5625 21.9426 27.5392 22.0496 27.5922 22.1265C27.6425 22.1992 27.7421 22.2179 27.8142 22.2698C27.9128 22.3405 27.9525 22.4672 27.9631 22.5866C27.9737 22.7061 27.962 22.8276 27.9859 22.945C28.0103 23.0624 28.0818 23.1818 28.1984 23.2166C28.272 22.8775 28.3393 22.5326 28.3203 22.1862C28.3012 21.8398 28.4411 21.4498 28.1952 21.2005C27.9493 20.9512 27.2843 20.9102 26.9536 21.0328Z"
            fill="#263238" />
        <path
            d="M28.7281 22.3737C28.7244 22.3737 28.7334 22.3404 28.709 22.2895C28.6857 22.2397 28.6237 22.1774 28.5236 22.1545C28.4743 22.1415 28.4181 22.1363 28.3572 22.1296C28.2962 22.1228 28.2289 22.115 28.1627 22.088C28.0949 22.0621 28.0376 22.0049 28.0011 21.939C27.9629 21.8735 27.937 21.8013 27.8946 21.7385C27.8532 21.6751 27.7907 21.6326 27.7207 21.6123C27.6513 21.591 27.5798 21.5837 27.5114 21.5754C27.4431 21.5671 27.3768 21.5578 27.3175 21.5375C27.2581 21.5178 27.2062 21.4908 27.1628 21.4612C27.0758 21.4014 27.0213 21.3339 26.9911 21.2851C26.9757 21.2607 26.9656 21.2405 26.9598 21.2264C26.954 21.2124 26.9513 21.2051 26.9524 21.2046C26.955 21.2036 26.9688 21.2321 27.0022 21.2784C27.035 21.3246 27.0907 21.3874 27.1765 21.4425C27.2189 21.47 27.2698 21.4944 27.3265 21.5126C27.3832 21.5308 27.4473 21.5391 27.5157 21.5463C27.584 21.5541 27.6572 21.5604 27.7313 21.5827C27.8055 21.6035 27.8787 21.6523 27.9226 21.7214C27.9682 21.7889 27.9937 21.8621 28.0297 21.9244C28.0641 21.9878 28.1134 22.0371 28.1749 22.0615C28.2978 22.1114 28.4276 22.1015 28.5299 22.1332C28.6348 22.1597 28.7006 22.2303 28.7207 22.2854C28.7318 22.3129 28.7334 22.3363 28.7323 22.3519C28.7318 22.3659 28.7286 22.3737 28.7281 22.3737Z"
            fill="#455A64" />
        <path
            d="M28.7315 22.2278C28.7336 22.2278 28.7341 22.248 28.7304 22.2844C28.7272 22.3207 28.7193 22.3727 28.7071 22.4366C28.6811 22.5643 28.6371 22.7388 28.5645 22.9247C28.4925 23.1122 28.3838 23.2634 28.2885 23.3553C28.2413 23.402 28.1989 23.4347 28.1682 23.455C28.1374 23.4758 28.1189 23.4851 28.1178 23.483C28.1141 23.4784 28.183 23.4337 28.2715 23.3387C28.3605 23.2447 28.4628 23.0961 28.5333 22.9123C28.6048 22.729 28.6525 22.556 28.6838 22.4309C28.7156 22.3062 28.7262 22.2273 28.7315 22.2278Z"
            fill="#455A64" />
        <path
            d="M30.1389 25.7884C29.9243 25.1008 30.0382 25.4026 29.9322 25.1164C29.7902 24.7326 29.1103 24.5337 29.0716 24.5337L28.9863 24.8744L29.1109 25.7864"
            fill="#FF725E" />
        <path
            d="M28.1422 24.222C27.8688 24.7627 27.022 24.7627 26.7496 24.3623L25.7639 24.9237C25.5997 25.0115 25.4656 25.146 25.3824 25.3101C25.3183 25.4363 25.2637 25.5599 25.2197 25.7889L29.3567 25.7863L29.1819 24.5679L28.1422 24.222Z"
            fill="#FF725E" />
        <path
            d="M13.1671 22.22C13.0951 22.1857 13.0394 22.1208 13.0172 22.0455C13.1417 22.0206 13.2408 21.9037 13.2429 21.7791C13.244 21.6991 13.2101 21.6233 13.1862 21.5464C13.1624 21.4696 13.1497 21.3823 13.1899 21.3127C13.2578 21.1953 13.4067 21.1611 13.4925 21.0562C13.5587 20.9757 13.5821 20.8879 13.6059 20.7877C13.66 20.5591 13.8963 20.3867 14.1353 20.4013C14.2407 20.4075 14.3451 20.4459 14.4501 20.4345C14.5947 20.4184 14.7118 20.3119 14.8517 20.273C14.9879 20.2351 15.1426 20.2678 15.2507 20.3576C15.3281 20.4215 15.3811 20.5114 15.4632 20.5695C15.5523 20.6334 15.6646 20.6537 15.7679 20.6921C15.8707 20.7305 15.9757 20.8012 15.9947 20.9071C16.0159 21.0219 15.9306 21.1444 15.9783 21.2514C16.0006 21.3013 16.0869 21.3865 16.1044 21.4379C16.186 21.6737 16.0016 21.8315 16.0324 21.9245C16.1935 22.4153 15.9969 22.6277 15.8315 22.6459L13.7681 22.6028C13.6213 22.6625 13.4491 22.6599 13.3044 22.5965C13.1592 22.5327 13.0431 22.4085 12.9912 22.261C13.0516 22.2636 13.1136 22.2491 13.1671 22.22Z"
            fill="#E0E0E0" />
        <path
            d="M13.6986 22.2538C13.688 22.2491 13.2662 22.1203 13.2725 22.5446C13.2789 22.9689 13.7118 22.8749 13.7124 22.863C13.7129 22.8505 13.6986 22.2538 13.6986 22.2538Z"
            fill="#FFBE9D" />
        <path
            d="M13.5776 22.704C13.5755 22.7025 13.5702 22.7092 13.5575 22.7155C13.5453 22.7212 13.5241 22.7253 13.5013 22.7175C13.4552 22.702 13.416 22.6313 13.4128 22.555C13.4112 22.5166 13.4186 22.4797 13.4324 22.449C13.4451 22.4179 13.4653 22.3961 13.4881 22.3914C13.5108 22.3857 13.5273 22.3992 13.5331 22.4111C13.5389 22.4231 13.5363 22.4314 13.5389 22.4319C13.54 22.4329 13.5479 22.4246 13.5442 22.407C13.5421 22.3987 13.5373 22.3888 13.5267 22.3805C13.5161 22.3722 13.5008 22.3685 13.4849 22.3701C13.4515 22.3727 13.4218 22.4033 13.407 22.4371C13.3906 22.4709 13.3805 22.5124 13.3826 22.5555C13.3868 22.6412 13.4324 22.7201 13.4955 22.7373C13.5262 22.7446 13.5511 22.7352 13.5644 22.7253C13.5771 22.7144 13.5792 22.7046 13.5776 22.704Z"
            fill="#EB996E" />
        <path
            d="M15.8905 23.1195C15.8995 22.8204 15.8672 22.2024 15.8311 21.6436C15.7924 21.0427 15.2896 20.5711 14.6749 20.5607L14.6139 20.5597C13.9552 20.5862 13.6097 21.1491 13.6548 21.7942L13.712 23.9235L14.8402 24.609L15.2376 24.3042L15.2371 23.8253C15.2371 23.8248 15.8719 23.7396 15.8905 23.1195Z"
            fill="#FFBE9D" />
        <path
            d="M15.2378 23.8248C15.2378 23.8248 14.8372 23.8497 14.417 23.5807C14.417 23.5807 14.5993 24.0372 15.232 23.992L15.2378 23.8248Z"
            fill="#EB996E" />
        <path
            d="M15.5532 22.1447C15.5543 22.1914 15.5146 22.2309 15.4647 22.2325C15.4149 22.234 15.3741 22.1977 15.3731 22.1509C15.372 22.1042 15.4118 22.0647 15.4616 22.0632C15.5114 22.0616 15.5522 22.098 15.5532 22.1447Z"
            fill="#263238" />
        <path
            d="M14.5977 22.1156C14.5987 22.1624 14.559 22.2019 14.5092 22.2034C14.4594 22.205 14.4186 22.1686 14.4175 22.1219C14.4164 22.0751 14.4562 22.0357 14.506 22.0341C14.5558 22.0325 14.5966 22.0689 14.5977 22.1156Z"
            fill="#263238" />
        <path
            d="M15.6674 21.9224C15.6557 21.9339 15.5884 21.883 15.4909 21.8814C15.3939 21.8788 15.3213 21.9266 15.3113 21.9147C15.306 21.9095 15.3181 21.8887 15.3494 21.8669C15.3801 21.8456 15.4331 21.8248 15.4935 21.8258C15.554 21.8274 15.6048 21.8497 15.6334 21.8726C15.6631 21.896 15.6727 21.9172 15.6674 21.9224Z"
            fill="#263238" />
        <path
            d="M14.6709 21.9166C14.6587 21.927 14.5946 21.8725 14.4976 21.8647C14.4006 21.8559 14.3259 21.899 14.3164 21.8865C14.3116 21.8808 14.3249 21.8611 14.3577 21.8413C14.39 21.8216 14.4436 21.8045 14.504 21.8097C14.5644 21.8148 14.6131 21.8408 14.6407 21.8652C14.6682 21.8902 14.6767 21.912 14.6709 21.9166Z"
            fill="#263238" />
        <path
            d="M15.0743 22.6583C15.0738 22.6531 15.1347 22.6438 15.2328 22.6328C15.2577 22.6308 15.281 22.6261 15.2858 22.61C15.2921 22.5923 15.2821 22.5658 15.2704 22.5378C15.2481 22.4786 15.2248 22.4163 15.2005 22.3514C15.103 22.086 15.033 21.8678 15.0441 21.8637C15.0553 21.8601 15.1427 22.072 15.2402 22.3379C15.2635 22.4033 15.2858 22.4656 15.307 22.5253C15.316 22.5534 15.3313 22.5851 15.3181 22.6209C15.3112 22.6391 15.2927 22.6521 15.2768 22.6557C15.2609 22.6604 15.2466 22.6604 15.2344 22.6609C15.1353 22.664 15.0743 22.6635 15.0743 22.6583Z"
            fill="#263238" />
        <path
            d="M14.6874 21.5838C14.6752 21.6088 14.5798 21.587 14.4648 21.589C14.3498 21.589 14.255 21.6124 14.2423 21.588C14.2364 21.5761 14.255 21.5537 14.2947 21.5324C14.3339 21.5111 14.3949 21.4935 14.4638 21.4924C14.5327 21.4919 14.5941 21.5085 14.6333 21.5293C14.6736 21.5496 14.6927 21.5719 14.6874 21.5838Z"
            fill="#E0E0E0" />
        <path
            d="M15.6802 21.6124C15.6627 21.6337 15.5959 21.6103 15.5154 21.6077C15.4348 21.6025 15.3665 21.6197 15.3511 21.5968C15.3442 21.5859 15.3553 21.5641 15.3855 21.5444C15.4152 21.5246 15.4645 21.5085 15.5201 21.5111C15.5752 21.5137 15.6229 21.5345 15.6505 21.5568C15.6791 21.5797 15.6876 21.602 15.6802 21.6124Z"
            fill="#E0E0E0" />
        <path
            d="M15.1645 20.4801C14.9265 20.3783 14.6807 20.4189 14.4226 20.4469C14.2181 20.4687 14.0389 20.5269 13.8688 20.6406C13.6028 20.8193 13.4629 21.1137 13.4375 21.429C13.4121 21.7442 13.4608 22.02 13.5308 22.329C13.5122 22.4054 13.4942 22.4869 13.5186 22.5617C13.5435 22.6365 13.6288 22.6977 13.703 22.6692C13.7899 22.6354 13.7973 22.5196 13.7931 22.4277C13.7777 22.1145 13.7941 21.8112 13.8233 21.4991C13.845 21.2685 13.9897 20.9907 14.1778 20.8873C14.6001 20.6578 14.9117 20.8883 15.0543 20.9434C15.2879 20.7611 15.5375 20.8785 15.67 21.0488C15.6287 20.798 15.4024 20.5819 15.1645 20.4801Z"
            fill="#E0E0E0" />
        <path
            d="M13.2925 21.2167C13.2914 21.2307 13.3195 21.2483 13.3757 21.2572C13.4313 21.265 13.5151 21.2608 13.6099 21.2312C13.7048 21.2026 13.8092 21.1502 13.9136 21.0832C14.0174 21.0172 14.1208 20.9409 14.231 20.8791C14.3412 20.8173 14.4472 20.782 14.5468 20.7783C14.6475 20.7742 14.7418 20.7939 14.8165 20.8235C14.9681 20.8812 15.046 20.9632 15.073 20.944C15.0794 20.9398 15.081 20.93 15.0783 20.9149C15.0762 20.8993 15.0682 20.8796 15.055 20.8552C15.028 20.8079 14.976 20.743 14.8907 20.688C14.8065 20.6319 14.6883 20.5851 14.5484 20.5779C14.4784 20.5742 14.4027 20.5825 14.3306 20.6028C14.2575 20.6225 14.1881 20.6537 14.1218 20.6895C13.9909 20.7633 13.8865 20.849 13.7949 20.9196C13.7037 20.9907 13.6216 21.0484 13.549 21.0889C13.4764 21.1304 13.4139 21.1548 13.3683 21.172C13.3222 21.1891 13.2936 21.2006 13.2925 21.2167Z"
            fill="#F5F5F5" />
        <path
            d="M13.2764 21.5895C13.2758 21.5916 13.3087 21.603 13.3649 21.6082C13.421 21.6134 13.5 21.6087 13.5827 21.5828C13.6648 21.5563 13.7321 21.5147 13.7745 21.4784C13.8169 21.442 13.837 21.414 13.8354 21.4124C13.8328 21.4098 13.8089 21.4342 13.765 21.4664C13.7215 21.4986 13.6558 21.5371 13.5763 21.5625C13.4968 21.5874 13.421 21.5947 13.3665 21.5937C13.3113 21.5916 13.2769 21.5859 13.2764 21.5895Z"
            fill="white" />
        <path
            d="M13.0708 22.0475C13.0713 22.0491 13.0841 22.046 13.1063 22.0392C13.1291 22.033 13.1609 22.0216 13.1996 22.006C13.2775 21.9748 13.3813 21.9234 13.4863 21.8507C13.5912 21.778 13.6754 21.6985 13.7311 21.6372C13.7592 21.6066 13.7804 21.5806 13.7941 21.5619C13.8079 21.5432 13.8148 21.5329 13.8138 21.5318C13.8111 21.5297 13.7777 21.5687 13.72 21.6269C13.6622 21.685 13.5774 21.7614 13.4741 21.8336C13.3707 21.9052 13.269 21.9582 13.1938 21.9925C13.1185 22.0268 13.0698 22.0444 13.0708 22.0475Z"
            fill="white" />
        <path
            d="M14.6983 20.3883C14.6972 20.3914 14.7375 20.4049 14.7995 20.4335C14.8609 20.462 14.9452 20.5077 15.0125 20.5846C15.0787 20.662 15.1042 20.7549 15.1026 20.8204C15.1021 20.8868 15.0809 20.9248 15.0846 20.9263C15.0856 20.9268 15.092 20.918 15.0999 20.9003C15.1079 20.8827 15.1158 20.8557 15.1185 20.8209C15.1243 20.7523 15.0999 20.6521 15.0295 20.5706C14.959 20.4895 14.87 20.4449 14.8058 20.4194C14.7412 20.394 14.6993 20.3857 14.6983 20.3883Z"
            fill="white" />
        <path
            d="M14.9508 20.2428C14.9486 20.246 14.9863 20.2678 15.034 20.3166C15.0817 20.3649 15.1368 20.4444 15.1596 20.5446C15.1823 20.6448 15.167 20.7404 15.1447 20.8037C15.1225 20.8681 15.0976 20.9035 15.1013 20.9055C15.1023 20.9061 15.1097 20.8983 15.1209 20.8822C15.132 20.8661 15.1463 20.8417 15.1596 20.8089C15.186 20.7451 15.2057 20.6453 15.1813 20.5399C15.1574 20.4345 15.097 20.3524 15.0451 20.3057C15.0191 20.2818 14.9958 20.2657 14.9783 20.2558C14.9619 20.2454 14.9518 20.2418 14.9508 20.2428Z"
            fill="white" />
        <path
            d="M13.5298 22.4272C13.5298 22.4329 13.6072 22.4272 13.6845 22.3768C13.7624 22.3274 13.7985 22.2599 13.7932 22.2579C13.7879 22.2542 13.7455 22.3124 13.6723 22.3586C13.5997 22.4064 13.5287 22.4209 13.5298 22.4272Z"
            fill="white" />
        <path
            d="M13.5015 22.5144C13.5004 22.5196 13.5852 22.5253 13.6753 22.4781C13.7654 22.4324 13.8088 22.3602 13.8041 22.3581C13.7988 22.354 13.75 22.4158 13.6652 22.4589C13.581 22.5035 13.5009 22.5082 13.5015 22.5144Z"
            fill="white" />
        <path
            d="M15.7237 21.1502C15.7242 21.1523 15.7496 21.1486 15.7851 21.1289C15.8206 21.1097 15.8652 21.0723 15.8964 21.0193C15.9277 20.9658 15.9393 20.9097 15.9383 20.8697C15.9378 20.8297 15.9287 20.8064 15.9266 20.8069C15.9229 20.8074 15.9261 20.8313 15.9229 20.8692C15.9197 20.9071 15.907 20.9585 15.8773 21.0084C15.8477 21.0583 15.8085 21.0946 15.7767 21.1159C15.7454 21.1377 15.7226 21.1465 15.7237 21.1502Z"
            fill="white" />
        <path
            d="M15.6541 21.0171C15.6584 21.0208 15.714 20.9662 15.7617 20.8837C15.8099 20.8016 15.8301 20.7268 15.8242 20.7253C15.8179 20.7232 15.7893 20.7928 15.7426 20.8728C15.696 20.9533 15.6494 21.013 15.6541 21.0171Z"
            fill="white" />
        <path
            d="M14.1335 21.9515C14.1308 21.9551 14.16 21.9775 14.2018 21.9936C14.2437 22.0097 14.2803 22.0123 14.2808 22.0076C14.2818 22.0029 14.2479 21.9931 14.2077 21.9775C14.1679 21.9624 14.1361 21.9474 14.1335 21.9515Z"
            fill="#EB996E" />
        <path
            d="M14.0654 22.0457C14.066 22.0506 14.1078 22.0517 14.1598 22.0485C14.2117 22.0452 14.2536 22.0387 14.253 22.0338C14.2525 22.0289 14.2106 22.0278 14.1587 22.031C14.1068 22.0343 14.0649 22.0408 14.0654 22.0457Z"
            fill="#EB996E" />
        <path
            d="M15.7114 22.1103C15.7114 22.1152 15.7347 22.1195 15.7634 22.1195C15.792 22.1201 15.8153 22.1163 15.8153 22.1114C15.8153 22.1065 15.792 22.1021 15.7634 22.1021C15.7347 22.1016 15.7114 22.1054 15.7114 22.1103Z"
            fill="#EB996E" />
        <path
            d="M15.7356 22.0621C15.7383 22.0662 15.7579 22.059 15.7802 22.046C15.8024 22.033 15.8183 22.019 15.8157 22.0153C15.813 22.0112 15.7934 22.0184 15.7711 22.0314C15.7489 22.0444 15.733 22.0579 15.7356 22.0621Z"
            fill="#EB996E" />
        <path
            d="M14.7368 21.2177C14.7363 21.2203 14.767 21.227 14.8147 21.2452C14.8624 21.2628 14.9249 21.2945 14.997 21.3252C15.0696 21.3558 15.1411 21.3719 15.1936 21.3703C15.2196 21.3698 15.2408 21.3667 15.2545 21.3631C15.2689 21.3594 15.2757 21.3558 15.2757 21.3548C15.2752 21.3517 15.2439 21.361 15.1936 21.3584C15.1433 21.3568 15.0749 21.3397 15.0039 21.3096C14.9329 21.2795 14.8682 21.2488 14.819 21.2338C14.7691 21.2182 14.7368 21.2156 14.7368 21.2177Z"
            fill="#EB996E" />
        <path
            d="M14.8648 21.2032C14.8627 21.2068 14.9443 21.2509 15.0571 21.2665C15.17 21.2831 15.2612 21.2634 15.2601 21.2598C15.2596 21.2546 15.1695 21.266 15.0598 21.2499C14.9496 21.2349 14.8669 21.1985 14.8648 21.2032Z"
            fill="#EB996E" />
        <path
            d="M14.6647 22.743C14.6689 22.7451 14.6837 22.7087 14.7251 22.6926C14.7659 22.6765 14.8024 22.6931 14.804 22.6885C14.8051 22.6864 14.7977 22.6796 14.7818 22.6744C14.7664 22.6693 14.7426 22.6677 14.7182 22.677C14.6943 22.6864 14.6779 22.7041 14.6705 22.7181C14.6631 22.7321 14.6625 22.7425 14.6647 22.743Z"
            fill="#EB996E" />
        <path
            d="M14.5825 22.7237C14.5872 22.7248 14.5968 22.6848 14.6381 22.6593C14.6784 22.6328 14.7203 22.6406 14.7208 22.6359C14.7213 22.6339 14.7118 22.6287 14.6943 22.6271C14.6768 22.6256 14.6519 22.6302 14.6291 22.6448C14.6063 22.6593 14.5915 22.6796 14.5857 22.6962C14.5793 22.7123 14.5809 22.7232 14.5825 22.7237Z"
            fill="#EB996E" />
        <path
            d="M14.441 24.2958C14.441 24.2968 14.4484 24.2958 14.4595 24.289C14.4701 24.2823 14.4828 24.2672 14.4908 24.2465C14.4993 24.2257 14.5019 24.1992 14.5062 24.1722C14.5104 24.1452 14.5194 24.1151 14.5454 24.0995C14.5708 24.0839 14.6058 24.0808 14.6307 24.0611C14.6556 24.0429 14.6694 24.0179 14.6757 23.9967C14.6885 23.9525 14.6731 23.9255 14.672 23.9265C14.6688 23.9271 14.6789 23.9535 14.6641 23.993C14.6567 24.0117 14.6434 24.0335 14.6212 24.0486C14.6 24.0647 14.5676 24.0668 14.5358 24.0855C14.5199 24.0948 14.5088 24.1099 14.5019 24.1249C14.495 24.14 14.4924 24.1556 14.4903 24.1696C14.4866 24.1982 14.4855 24.2231 14.4791 24.2428C14.468 24.2833 14.4394 24.2937 14.441 24.2958Z"
            fill="#EB996E" />
        <path
            d="M14.295 24.2501C14.295 24.2517 14.3252 24.2454 14.357 24.2106C14.3724 24.1935 14.3872 24.1691 14.3936 24.139C14.3967 24.1239 14.3978 24.1078 14.3962 24.0907C14.3946 24.074 14.3909 24.0579 14.3904 24.0424C14.3877 24.0107 14.41 23.9873 14.4317 23.9681C14.4428 23.9582 14.4534 23.9489 14.4624 23.9385C14.472 23.9276 14.4778 23.9156 14.481 23.9047C14.4879 23.8824 14.4842 23.8611 14.4746 23.8502C14.4651 23.8398 14.4566 23.8393 14.4566 23.8403C14.4561 23.8419 14.463 23.8445 14.4688 23.8544C14.4746 23.8642 14.4762 23.8814 14.4688 23.9011C14.4651 23.911 14.4593 23.9208 14.4513 23.9297C14.4428 23.9385 14.4317 23.9473 14.4206 23.9567C14.4094 23.9665 14.3967 23.9769 14.3872 23.9915C14.3771 24.0055 14.3718 24.0252 14.3729 24.0429C14.3734 24.0611 14.3777 24.0772 14.3792 24.0922C14.3808 24.1073 14.3803 24.1218 14.3777 24.1353C14.3724 24.1629 14.3602 24.1857 14.3469 24.2028C14.3204 24.2371 14.2934 24.247 14.295 24.2501Z"
            fill="#EB996E" />
        <path
            d="M15.1547 22.891C15.0349 23.2732 14.6857 22.9315 14.8992 22.7793C14.9925 22.7938 15.0789 22.8479 15.169 22.8775"
            fill="#EB996E" />
        <path
            d="M15.0671 23.0675C14.9399 23.0961 14.7687 22.9512 14.8779 22.8021C14.9309 22.7871 15.0369 22.8619 15.0909 22.8707C15.243 22.9273 15.2488 22.9148 15.102 22.8458C15.0353 22.8239 14.9505 22.7559 14.8721 22.7595C14.6977 22.8831 14.8975 23.1719 15.0671 23.0675Z"
            fill="#263238" />
        <path
            d="M9.90499 25.7884L9.89545 25.5796C9.89492 25.5651 9.89174 25.5505 9.88591 25.5375L9.77304 25.2727C9.77304 25.2727 10.2314 24.7606 10.2558 24.6977C10.2802 24.6349 10.2653 24.5679 10.1519 24.6141C10.0385 24.6604 9.66918 24.9943 9.66918 24.9943L9.52716 24.7476C9.52716 24.7476 9.85889 24.4007 9.89174 24.3638C9.9246 24.3269 9.90552 24.1322 9.78258 24.1971C9.65964 24.262 9.34752 24.5404 9.34752 24.5404L9.26221 24.4568L9.50809 24.086C9.50809 24.086 9.5934 23.9561 9.48901 23.9192C9.38515 23.8824 9.33746 23.9561 9.26168 24.0397C9.1859 24.1234 9.06932 24.3041 9.06932 24.3041L8.99619 24.2984L8.88332 24.2719L8.89233 24.1431C8.89233 24.1431 9.04388 23.9286 9.06932 23.8808C9.09052 23.8413 9.15464 23.7494 9.06932 23.712C8.98401 23.6752 8.92836 23.6679 8.88332 23.7432C8.85524 23.7899 8.79006 23.8413 8.79006 23.8413C8.79006 23.8413 8.69361 23.7567 8.6385 23.7401C8.5712 23.7193 8.49172 23.7956 8.57015 24.007C8.58286 24.0418 8.66023 24.4313 8.66023 24.4313L8.67931 24.6354L8.76992 24.8177L9.17689 25.5152L9.17636 25.7899"
            fill="#FFBE9D" />
        <path
            d="M9.18092 24.9423C9.18622 24.9423 9.19099 24.9013 9.20901 24.8364L9.24133 24.7221C9.24716 24.7003 9.25352 24.6775 9.25935 24.653C9.25988 24.6499 9.26094 24.6478 9.26147 24.6416C9.26147 24.6427 9.262 24.6354 9.26041 24.6323C9.25988 24.6312 9.26094 24.6328 9.25882 24.6292C9.25776 24.6266 9.25087 24.6193 9.24133 24.6193C9.23232 24.6198 9.22862 24.6245 9.22756 24.625L9.22703 24.626L9.22438 24.6297L9.22226 24.6343L9.22014 24.6401C9.21961 24.6437 9.21855 24.6401 9.21802 24.652L9.21855 24.6541C9.21908 24.6567 9.22226 24.665 9.23179 24.6686C9.2408 24.6712 9.24663 24.6681 9.24822 24.6671L9.24928 24.666C9.25087 24.665 9.25246 24.6634 9.25405 24.6619C9.2567 24.6582 9.25564 24.6598 9.25617 24.6588L9.25776 24.6556L9.26253 24.6478C9.26783 24.638 9.27525 24.6286 9.28267 24.6188C9.34732 24.5429 9.42468 24.4848 9.47555 24.4401C9.52802 24.396 9.55928 24.3669 9.55557 24.3622C9.55239 24.3581 9.5153 24.3793 9.45807 24.4183C9.4019 24.4583 9.32241 24.5113 9.25087 24.5944C9.24239 24.6053 9.23391 24.6162 9.22703 24.6292L9.22226 24.638L9.22173 24.639C9.21855 24.6364 9.23021 24.6447 9.23232 24.6458C9.23656 24.6473 9.23656 24.6515 9.23921 24.6504C9.26412 24.6541 9.25458 24.653 9.25723 24.652L9.25829 24.6489V24.6484C9.26094 24.6499 9.24981 24.6442 9.24769 24.6432C9.24398 24.6421 9.24133 24.638 9.24027 24.639C9.23603 24.6411 9.23497 24.6385 9.2265 24.6385C9.21696 24.638 9.22385 24.638 9.22173 24.6385L9.2212 24.6401L9.22014 24.6442C9.21484 24.6671 9.21007 24.6894 9.20477 24.7122C9.1947 24.7559 9.18622 24.7959 9.18092 24.8296C9.17033 24.8987 9.17562 24.9428 9.18092 24.9423Z"
            fill="#EB996E" />
        <path
            d="M8.95745 24.6972C8.96911 24.6946 8.94209 24.5861 8.99031 24.4625C9.03694 24.3399 9.11537 24.2589 9.1053 24.2501C9.10053 24.2433 9.00462 24.315 8.95321 24.449C8.92884 24.5155 8.9246 24.5814 8.93202 24.6271C8.93891 24.6733 8.95374 24.6983 8.95745 24.6972Z"
            fill="#EB996E" />
        <path
            d="M9.62031 25.4451C9.62879 25.4523 9.71358 25.3698 9.81002 25.2607C9.90646 25.1516 9.978 25.0576 9.97005 25.0504C9.96157 25.0431 9.87679 25.1257 9.78034 25.2347C9.68337 25.3438 9.61183 25.4378 9.62031 25.4451Z"
            fill="#EB996E" />
        <path
            d="M9.45274 25.2119C9.46069 25.2192 9.54601 25.1501 9.64298 25.0571C9.73996 24.9642 9.81255 24.8826 9.80566 24.8743C9.79825 24.866 9.71293 24.9356 9.61543 25.0291C9.51739 25.1231 9.44479 25.2046 9.45274 25.2119Z"
            fill="#EB996E" />
        <path
            d="M9.91896 25.5946C9.91684 25.5432 9.90147 25.4949 9.8808 25.4565C9.86014 25.418 9.83788 25.3874 9.82251 25.3604C9.79019 25.3074 9.78701 25.2685 9.78065 25.2685C9.77535 25.2674 9.76846 25.3121 9.79708 25.3723C9.82357 25.4331 9.87762 25.5032 9.87921 25.5962C9.88292 25.6881 9.86702 25.739 9.83099 25.7883H9.87391C9.91896 25.7395 9.9232 25.6979 9.91896 25.5946Z"
            fill="#EB996E" />
        <path
            d="M8.89212 24.3623C8.9006 24.3623 8.90802 24.2781 8.91067 24.1597L8.90749 24.1701C8.9271 24.1441 8.9467 24.114 8.96578 24.0823C9.00923 24.0081 9.04209 23.9395 9.06805 23.8907C9.09349 23.8419 9.10992 23.8118 9.10515 23.8081C9.10091 23.805 9.076 23.8299 9.04368 23.8762C9.01082 23.9219 8.97373 23.9899 8.93134 24.0621C8.91279 24.0932 8.89477 24.1223 8.87676 24.1483L8.87305 24.1535V24.1587C8.87623 24.2781 8.88365 24.3623 8.89212 24.3623Z"
            fill="#EB996E" />
        <path
            d="M8.69153 24.6567C8.69524 24.6547 8.68517 24.6266 8.68199 24.5752C8.67775 24.5238 8.67616 24.4495 8.67881 24.3628V24.3612L8.67828 24.3592C8.66662 24.2958 8.65443 24.2288 8.64172 24.1582C8.64066 24.153 8.6396 24.1478 8.63854 24.1431L8.63907 24.1452C8.63589 24.087 8.6804 24.0356 8.71431 23.9889C8.74611 23.9447 8.77631 23.9027 8.80546 23.8627C8.85633 23.7905 8.88548 23.7443 8.88124 23.7411C8.877 23.738 8.8399 23.7785 8.7832 23.8466C8.75194 23.885 8.71961 23.9255 8.68517 23.9676C8.66715 23.9904 8.64702 24.0148 8.62953 24.0434C8.61204 24.072 8.5972 24.1078 8.59932 24.1473V24.1483V24.1493C8.60038 24.154 8.60144 24.1592 8.60197 24.1644C8.61628 24.2345 8.62953 24.301 8.64225 24.3643L8.64172 24.3607C8.64225 24.4495 8.64861 24.5243 8.6592 24.5768C8.6698 24.6308 8.68782 24.6588 8.69153 24.6567Z"
            fill="#EB996E" />
        <path
            d="M9.49354 25.0593C9.50467 25.0561 9.48983 24.9855 9.4999 24.8998C9.50891 24.8141 9.53858 24.7482 9.52851 24.743C9.52004 24.7367 9.47075 24.8006 9.46068 24.8957C9.44956 24.9907 9.484 25.0629 9.49354 25.0593Z"
            fill="#EB996E" />
        <path
            d="M9.19013 24.7861C9.20179 24.7856 9.20338 24.7092 9.22934 24.6204C9.25372 24.5316 9.2924 24.4651 9.28287 24.4584C9.27492 24.4516 9.21769 24.5134 9.19119 24.6095C9.16311 24.7061 9.18006 24.7877 9.19013 24.7861Z"
            fill="#EB996E" />
        <path
            d="M10.8433 25.7884C10.8433 25.7884 11.5099 24.8017 11.6445 24.73C11.7791 24.6583 13.1431 24.1899 13.1431 24.1899L13.7244 23.7972L13.6311 24.6074L13.8166 25.7884"
            fill="#FFBE3B" />
        <path
            d="M15.2372 23.9073L14.6882 24.4511L13.71 23.8481L13.4302 24.3877L13.657 25.7884L15.7628 25.7765L15.7729 24.8406L15.2372 23.9073Z"
            fill="#F5F5F5" />
        <path
            d="M15.1718 25.7884C15.1172 25.5926 14.8909 25.0593 14.8909 25.0593L15.0271 24.8458C15.0181 24.5524 14.7547 24.5254 14.6185 24.5436C14.4823 24.5612 14.4511 24.8458 14.4511 24.8458L14.6275 25.0951L14.415 25.7843L15.1718 25.7884Z"
            fill="#FF725E" />
        <path
            d="M17.6997 25.7884L17.4607 25.1158C17.423 24.9881 17.325 24.8858 17.1973 24.8406L15.837 24.3623L15.2266 23.8834L15.5551 24.6214L15.554 25.7962L17.6997 25.7884Z"
            fill="#FFBE3B" />
        <path
            d="M12.0736 25.7765C12.0694 25.777 12.0625 25.7256 12.0466 25.6441C12.0307 25.5625 12.0037 25.4503 11.9597 25.3314C11.9157 25.2125 11.8638 25.1091 11.8225 25.0369C11.7811 24.9642 11.752 24.9211 11.7557 24.9185C11.7583 24.9165 11.7928 24.9559 11.8394 25.0271C11.8855 25.0977 11.9412 25.2011 11.9862 25.3221C12.0307 25.4431 12.0551 25.5573 12.0662 25.6409C12.0773 25.724 12.0773 25.776 12.0736 25.7765Z"
            fill="#455A64" />
        <path
            d="M16.9452 25.725C16.9415 25.724 16.9495 25.6777 16.967 25.6029C16.985 25.5287 17.012 25.4264 17.0512 25.3163C17.0904 25.2062 17.1355 25.109 17.1752 25.0431C17.2144 24.9766 17.2457 24.9403 17.2483 24.9418C17.252 24.9444 17.2266 24.9844 17.1922 25.0519C17.1577 25.1194 17.1159 25.216 17.0772 25.3251C17.0003 25.5443 16.9537 25.7271 16.9452 25.725Z"
            fill="#455A64" />
        <path
            d="M16.1141 25.7645C16.112 25.764 16.1205 25.7339 16.1374 25.6809C16.1565 25.6227 16.1814 25.548 16.2111 25.4581L16.2127 25.468C16.1819 25.4306 16.1485 25.3901 16.113 25.3464C16.095 25.3246 16.0759 25.3023 16.0569 25.2794C16.0468 25.268 16.0373 25.2566 16.0272 25.2452L16.0118 25.2286L15.9986 25.2161L15.9864 25.2041L15.9933 25.1958C16.0457 25.1346 16.1215 25.094 16.2015 25.0618C16.2286 25.0509 16.2556 25.0421 16.2815 25.0343L16.2736 25.0541C16.1565 24.8577 16.0357 24.6921 15.9567 24.5679C15.917 24.5061 15.8857 24.4552 15.8661 24.4199C15.846 24.3841 15.8364 24.3644 15.8375 24.3633C15.8391 24.3623 15.8518 24.381 15.8746 24.4147C15.9005 24.4526 15.9334 24.5004 15.9721 24.5581C16.0547 24.6796 16.1787 24.8432 16.2974 25.0411L16.3065 25.0556L16.2895 25.0603C16.2646 25.0676 16.2381 25.0764 16.2121 25.0868C16.1353 25.1179 16.0616 25.1579 16.0145 25.2125L16.0092 25.1922C16.0219 25.2 16.0245 25.2052 16.0309 25.2114L16.0468 25.2291C16.0569 25.241 16.0669 25.2524 16.0765 25.2639C16.0955 25.2872 16.1141 25.3101 16.1321 25.3319C16.1666 25.376 16.1994 25.4176 16.2291 25.4555L16.2328 25.4602L16.2307 25.4654C16.1978 25.5537 16.1703 25.6279 16.1485 25.6851C16.1284 25.7365 16.1162 25.765 16.1141 25.7645Z"
            fill="#455A64" />
        <path
            d="M12.9658 25.7885C12.9642 25.789 12.9584 25.7672 12.9462 25.7277C12.9335 25.6835 12.9165 25.6269 12.8969 25.5589C12.8773 25.4867 12.8519 25.401 12.8381 25.3003C12.8349 25.2759 12.8333 25.2463 12.8413 25.2192C12.8487 25.1928 12.8598 25.1668 12.8752 25.1424C12.9049 25.0941 12.9557 25.0489 13.0214 25.0396L13.022 25.066C12.9785 25.0614 12.9329 25.0562 12.8863 25.051C12.8519 25.0473 12.8185 25.0432 12.7862 25.0401C12.7787 25.039 12.7734 25.0328 12.774 25.025C12.774 25.0235 12.7745 25.0224 12.775 25.0209C12.8752 24.7981 12.9658 24.6007 13.032 24.4589C13.0638 24.3919 13.0903 24.3364 13.111 24.2927C13.1301 24.2538 13.1412 24.233 13.1428 24.2335C13.1444 24.234 13.1364 24.2564 13.12 24.2969C13.1014 24.3416 13.0776 24.3982 13.0485 24.4667C12.987 24.6101 12.8996 24.809 12.7999 25.0323L12.7888 25.0136C12.8206 25.0172 12.8545 25.0209 12.889 25.0245C12.9356 25.0297 12.9812 25.0349 13.0246 25.0396C13.032 25.0406 13.0373 25.0468 13.0368 25.0546C13.0363 25.0608 13.031 25.0655 13.0251 25.0666C12.9706 25.0738 12.925 25.1123 12.8974 25.1564C12.8831 25.1787 12.8725 25.2021 12.8656 25.2265C12.8582 25.2504 12.8593 25.2733 12.8619 25.2982C12.8736 25.3958 12.8974 25.4826 12.9144 25.5547C12.9515 25.6986 12.9711 25.7874 12.9658 25.7885Z"
            fill="#455A64" />
        <path
            d="M28.9238 16.6323C28.9243 16.6412 28.6377 16.6604 28.2842 16.6754C27.9308 16.6905 27.6436 16.6957 27.6436 16.6874C27.643 16.6786 27.9292 16.6593 28.2832 16.6443C28.6366 16.6287 28.9233 16.6235 28.9238 16.6323Z"
            fill="white" />
        <path
            d="M25.7982 14.3986C25.8544 14.0974 25.928 13.7879 26.1172 13.5443C26.3064 13.3007 26.6418 13.1408 26.9375 13.2389L27.3026 13.4461C27.2274 14.2781 27.0541 15.1018 26.7881 15.8949C26.7621 15.9728 26.733 16.0533 26.6741 16.1114C26.556 16.2288 26.362 16.8749 26.1946 16.8556C25.9927 16.8328 25.6864 17.1112 25.6 16.9304C25.5581 16.8437 25.6334 15.7629 25.6398 15.6669C25.6673 15.2415 25.7203 14.8177 25.7982 14.3986Z"
            fill="#263238" />
        <path
            d="M27.8519 13.8626L26.7274 13.497C26.3634 13.4326 26.0868 13.8579 26.0364 14.2173C25.9808 14.6162 25.9289 15.1059 25.9554 15.4082C26.0078 16.0169 26.4726 16.127 26.4726 16.127C26.4726 16.1249 26.4175 16.316 26.436 16.585C26.4651 16.9995 26.7375 17.1064 26.9611 17.1215C27.3135 17.1579 27.6808 17.0483 27.7216 16.7034L28.0289 14.0911C28.0395 13.9815 27.9621 13.8824 27.8519 13.8626Z"
            fill="#FFBE9D" />
        <path
            d="M26.2528 14.6889C26.2486 14.7294 26.2799 14.7668 26.3228 14.772C26.3657 14.7772 26.4044 14.7491 26.4092 14.7081C26.4134 14.6676 26.3821 14.6302 26.3392 14.625C26.2963 14.6198 26.2576 14.6484 26.2528 14.6889Z"
            fill="#263238" />
        <path
            d="M26.1579 14.5311C26.1669 14.542 26.2299 14.503 26.3142 14.5093C26.399 14.5145 26.4578 14.5617 26.4679 14.5519C26.4726 14.5477 26.4642 14.529 26.4387 14.5077C26.4133 14.4864 26.3693 14.4646 26.3168 14.461C26.2639 14.4573 26.2183 14.4734 26.1913 14.4911C26.1632 14.5087 26.1531 14.5259 26.1579 14.5311Z"
            fill="#263238" />
        <path
            d="M27.042 14.7632C27.0372 14.8037 27.069 14.8411 27.1119 14.8463C27.1548 14.8515 27.1935 14.8235 27.1983 14.7824C27.2025 14.7419 27.1713 14.7045 27.1284 14.6993C27.0854 14.6936 27.0467 14.7222 27.042 14.7632Z"
            fill="#263238" />
        <path
            d="M27.0043 14.6147C27.0134 14.6256 27.0764 14.5867 27.1607 14.5929C27.2455 14.5981 27.3043 14.6453 27.3143 14.6355C27.3191 14.6313 27.3106 14.6126 27.2852 14.5913C27.2598 14.57 27.2158 14.5482 27.1633 14.5446C27.1103 14.5409 27.0648 14.557 27.0377 14.5747C27.0102 14.5924 27.0001 14.61 27.0043 14.6147Z"
            fill="#263238" />
        <path
            d="M26.6399 15.1511C26.6404 15.1465 26.5885 15.134 26.5042 15.1168C26.483 15.1132 26.4624 15.1075 26.4603 15.093C26.4565 15.0774 26.4671 15.055 26.4793 15.0312C26.5037 14.9813 26.5286 14.9288 26.5551 14.8743C26.6611 14.651 26.7395 14.4666 26.73 14.4625C26.721 14.4583 26.6272 14.6359 26.5217 14.8598C26.4963 14.9148 26.4719 14.9673 26.4486 15.0177C26.4385 15.041 26.4226 15.0675 26.4311 15.1002C26.4359 15.1163 26.4507 15.1293 26.4645 15.134C26.4783 15.1392 26.4905 15.1402 26.5011 15.1418C26.5858 15.1516 26.6388 15.1558 26.6399 15.1511Z"
            fill="#263238" />
        <path
            d="M26.473 16.127C26.473 16.127 26.9192 16.1852 27.3463 15.9733C27.3463 15.9733 27.0723 16.3789 26.4624 16.2786L26.473 16.127Z"
            fill="#EB996E" />
        <path
            d="M26.9636 14.3591C26.9705 14.3825 27.0558 14.3778 27.1544 14.3965C27.2535 14.4137 27.3314 14.4474 27.3462 14.4282C27.3526 14.4189 27.3404 14.3965 27.3096 14.3726C27.2789 14.3487 27.2296 14.3243 27.1703 14.3134C27.1109 14.3025 27.0558 14.3082 27.0187 14.3202C26.9806 14.3316 26.961 14.3482 26.9636 14.3591Z"
            fill="#263238" />
        <path
            d="M26.1533 14.2833C26.1702 14.3035 26.2444 14.289 26.3313 14.2942C26.4188 14.2973 26.4908 14.3186 26.5094 14.2999C26.5173 14.2911 26.5073 14.2713 26.4765 14.2511C26.4463 14.2308 26.3944 14.2126 26.334 14.21C26.2741 14.2075 26.2211 14.2204 26.1893 14.2376C26.157 14.2547 26.1453 14.2734 26.1533 14.2833Z"
            fill="#263238" />
        <path
            d="M26.6136 13.6456C26.6581 13.723 26.7233 13.7868 26.788 13.8492C26.8913 13.9489 26.9941 14.0486 27.0974 14.1483C27.1706 14.2195 27.2442 14.2901 27.3264 14.3519C27.3989 14.4064 27.4774 14.4532 27.5558 14.4994C27.6374 14.5477 27.6793 14.6723 27.7609 14.7206C27.7794 14.7315 27.8388 14.7248 27.8584 14.7388C27.8547 14.8733 27.8526 15.3023 27.851 15.4732C27.8488 15.7422 27.7503 16.4594 27.7503 16.4594H27.984C28.1673 16.4319 28.4254 16.8235 28.5234 16.6692C28.6321 16.4989 28.5001 15.7681 28.4943 15.6316C28.4778 15.2244 28.3962 14.81 28.3729 14.4599C28.3634 14.3187 28.3538 14.1748 28.303 14.0424C28.2309 13.8549 28.0831 13.7048 27.9236 13.5791C27.7402 13.4347 27.533 13.3137 27.3036 13.2628C27.0746 13.2119 26.8213 13.2374 26.6263 13.3657C26.5961 13.3854 26.5654 13.4108 26.5575 13.4456C26.5288 13.5292 26.5691 13.5677 26.6136 13.6456ZM27.8637 14.743C27.8653 14.8011 27.8722 14.7591 27.8637 14.743V14.743Z"
            fill="#263238" />
        <path
            d="M27.8232 14.9049C27.8391 14.7772 27.9875 14.7019 28.0961 14.7741C28.156 14.8135 28.1984 14.8878 28.1825 15.0233C28.1411 15.3848 27.7797 15.2695 27.7803 15.2591C27.7803 15.2519 27.8046 15.0545 27.8232 14.9049Z"
            fill="#FFBE9D" />
        <path
            d="M27.9083 15.134C27.9099 15.133 27.9141 15.1392 27.9247 15.1455C27.9348 15.1512 27.9528 15.1569 27.9724 15.1517C28.0132 15.1418 28.053 15.0852 28.062 15.0198C28.0668 14.9871 28.063 14.9549 28.0546 14.9279C28.0461 14.9003 28.0312 14.8796 28.0116 14.8744C27.9926 14.8676 27.9772 14.878 27.9719 14.8874C27.9661 14.8967 27.9671 14.9045 27.9655 14.905C27.9645 14.9061 27.9581 14.8983 27.9629 14.8837C27.965 14.877 27.9703 14.8687 27.9798 14.8629C27.9894 14.8567 28.0032 14.8546 28.0164 14.8578C28.0445 14.8629 28.0673 14.8915 28.0773 14.9211C28.0885 14.9512 28.0932 14.9876 28.0879 15.0245C28.0773 15.0972 28.0312 15.1611 27.9761 15.1704C27.9496 15.174 27.9284 15.1642 27.9184 15.1543C27.9078 15.1429 27.9067 15.1346 27.9083 15.134Z"
            fill="#EB996E" />
        <path
            d="M28.0224 15.2997C28.0197 15.3392 27.9848 15.3688 27.9445 15.3657C27.9042 15.3631 27.874 15.3288 27.8772 15.2893C27.8798 15.2499 27.9148 15.2203 27.9551 15.2234C27.9948 15.2265 28.025 15.2608 28.0224 15.2997Z"
            fill="#E0E0E0" />
        <path
            d="M26.859 15.3195C26.8887 15.3636 26.8951 15.4223 26.8749 15.4716C26.8548 15.521 26.8092 15.5594 26.7562 15.5714C26.735 15.576 26.7123 15.5765 26.6927 15.5677C26.6582 15.5521 26.6428 15.5127 26.6312 15.4768C26.6216 15.4472 26.6121 15.4176 26.602 15.388C26.5989 15.3782 26.5957 15.3667 26.601 15.3579C26.6068 15.348 26.6195 15.3454 26.6307 15.3434C26.7048 15.3314 26.7785 15.319 26.8527 15.307"
            fill="#EB996E" />
        <path
            d="M26.6984 15.5578C26.6984 15.5599 26.7366 15.5671 26.7986 15.5526C26.8288 15.5448 26.8664 15.5266 26.8903 15.4892C26.9025 15.4716 26.9094 15.4461 26.9083 15.4238C26.9083 15.4009 26.9046 15.377 26.8961 15.3542C26.8876 15.3319 26.8744 15.3121 26.859 15.2955L26.8537 15.2898L26.8463 15.2919C26.6979 15.3319 26.5835 15.3495 26.584 15.3552C26.5845 15.3615 26.7022 15.3542 26.8532 15.3163L26.8405 15.3126C26.8537 15.3267 26.8643 15.3438 26.8717 15.363C26.8855 15.4025 26.8887 15.4472 26.8701 15.4762C26.8511 15.5074 26.8203 15.5251 26.7933 15.5344C26.7371 15.5531 26.6979 15.5531 26.6984 15.5578Z"
            fill="#263238" />
        <path
            d="M27.4937 13.8653C27.7248 14.0268 27.9229 14.234 28.0729 14.4708L27.8737 14.8022C27.535 14.771 27.4948 14.7372 27.2563 14.4994C27.0179 14.262 26.5436 13.7889 26.5171 13.4565C26.8377 13.5448 27.2224 13.6757 27.4937 13.8653Z"
            fill="#263238" />
        <path
            d="M28.0291 16.4458C28.0281 16.4453 28.0339 16.4334 28.0456 16.411C28.0572 16.3892 28.0742 16.356 28.0949 16.3134C28.1362 16.2282 28.1913 16.102 28.2401 15.9405C28.2877 15.7785 28.3285 15.5806 28.337 15.3578C28.3407 15.2467 28.3407 15.1288 28.3185 15.0109C28.2962 14.8935 28.2475 14.774 28.1553 14.6847C28.0636 14.5954 27.9475 14.5383 27.8368 14.4843C27.725 14.4313 27.6185 14.3736 27.5236 14.3098C27.3339 14.1825 27.1839 14.0397 27.0721 13.9099C26.9587 13.7811 26.8819 13.6652 26.831 13.5847C26.8056 13.5442 26.787 13.512 26.7754 13.4902C26.7632 13.4684 26.7574 13.4565 26.7584 13.456C26.7595 13.4554 26.7669 13.4663 26.7807 13.4871C26.7939 13.5084 26.8141 13.5396 26.8406 13.5785C26.8941 13.6569 26.973 13.7702 27.0875 13.8964C27.2004 14.0231 27.3503 14.1628 27.5385 14.2874C27.6328 14.3497 27.7372 14.4058 27.849 14.4583C27.9597 14.5123 28.079 14.5699 28.1754 14.6634C28.2729 14.7574 28.3238 14.8836 28.346 15.0041C28.3688 15.1262 28.3678 15.2451 28.3635 15.3573C28.3535 15.5827 28.31 15.7821 28.2591 15.9447C28.2072 16.1072 28.1489 16.2329 28.1044 16.317C28.0816 16.3591 28.0636 16.3913 28.0498 16.4126C28.0371 16.4354 28.0302 16.4463 28.0291 16.4458Z"
            fill="#455A64" />
        <path
            d="M28.2912 14.5581C28.2848 14.5607 28.2838 14.4439 28.1736 14.3062C28.12 14.2382 28.0416 14.1676 27.9425 14.1078C27.844 14.0471 27.7258 13.9957 27.6023 13.9396C27.3527 13.8295 27.1487 13.6861 27.0162 13.5688C26.9495 13.5106 26.8991 13.4592 26.8657 13.4228C26.8324 13.3865 26.8154 13.3647 26.817 13.3636C26.8186 13.3621 26.8382 13.3813 26.8742 13.415C26.9097 13.4488 26.9622 13.4976 27.03 13.5532C27.1651 13.6659 27.3676 13.8045 27.615 13.9136C27.738 13.9697 27.8572 14.0221 27.9574 14.0855C28.0586 14.1478 28.1375 14.2221 28.1905 14.2938C28.2446 14.3654 28.2711 14.434 28.2827 14.4818C28.2886 14.5057 28.2912 14.5249 28.2917 14.5379C28.2923 14.5514 28.2923 14.5581 28.2912 14.5581Z"
            fill="#455A64" />
        <path
            d="M25.6947 16.8235C25.6937 16.8235 25.6937 16.81 25.6942 16.7845C25.6953 16.7549 25.6963 16.718 25.6979 16.6729C25.7021 16.5757 25.7085 16.4355 25.7186 16.2621C25.7387 15.9157 25.7694 15.4358 25.8357 14.9097C25.8685 14.6469 25.9072 14.395 25.9745 14.1764C26.0402 13.9572 26.1372 13.776 26.2405 13.6523C26.3439 13.5277 26.4483 13.4586 26.5235 13.4264C26.5606 13.4098 26.5908 13.401 26.6115 13.3968C26.6321 13.3927 26.6427 13.3911 26.6427 13.3922C26.6433 13.3958 26.5998 13.4041 26.5272 13.4399C26.4546 13.4753 26.3539 13.5464 26.2548 13.6705C26.1552 13.7936 26.0625 13.9712 25.9994 14.1873C25.9342 14.4028 25.8966 14.6521 25.8638 14.9144C25.7981 15.4389 25.7636 15.9172 25.7382 16.2636C25.726 16.4329 25.7159 16.5716 25.7085 16.6739C25.7048 16.7191 25.7016 16.756 25.699 16.7856C25.6974 16.81 25.6953 16.8235 25.6947 16.8235Z"
            fill="#455A64" />
        <path
            d="M24.7825 17.926C24.7825 17.926 24.8487 17.4051 25.1052 17.1444C25.3617 16.8837 26.4342 16.5576 26.4342 16.5576C26.4342 16.5576 26.4787 16.9294 26.7352 17.0187C27.0076 17.1138 27.3154 17.0779 27.5147 16.8515C27.7076 16.6323 27.7638 16.3503 27.7638 16.3503C27.7638 16.3503 29.0445 16.4656 29.2533 16.81C29.4621 17.1543 29.7324 18.488 29.7324 18.488L28.5348 18.7373L28.6116 19.8191L25.6685 19.8357L25.5773 18.8785L24.7109 18.9995L24.7825 17.926Z"
            fill="#971719" />
        <path
            d="M28.2973 18.8131C28.2952 18.8131 28.2942 18.7944 28.2931 18.7612C28.292 18.728 28.2915 18.6797 28.2915 18.6199C28.2915 18.501 28.2936 18.3364 28.2973 18.1546C28.301 17.9728 28.3063 17.8082 28.3111 17.6893C28.3138 17.6295 28.3159 17.5818 28.3185 17.5485C28.3206 17.5153 28.3233 17.4966 28.3249 17.4966C28.327 17.4966 28.3281 17.5148 28.3291 17.5485C28.3302 17.5818 28.3307 17.6301 28.3307 17.6898C28.3307 17.8087 28.3286 17.9733 28.3249 18.1551C28.3212 18.3369 28.3159 18.5015 28.3111 18.6204C28.3085 18.6802 28.3063 18.728 28.3037 18.7612C28.3016 18.7944 28.2989 18.8131 28.2973 18.8131Z"
            fill="#263238" />
        <path
            d="M25.2828 17.8668C25.2902 17.8648 25.365 18.0979 25.4497 18.3872C25.5345 18.6765 25.5976 18.9128 25.5902 18.9149C25.5827 18.917 25.508 18.6838 25.4232 18.3945C25.3385 18.1052 25.2754 17.8689 25.2828 17.8668Z"
            fill="#263238" />
        <path
            d="M29.12 16.7274C29.121 16.732 29.0633 16.7424 28.9758 16.7752C28.8884 16.8074 28.7729 16.8666 28.6648 16.958C28.5572 17.0499 28.4814 17.1538 28.4369 17.2343C28.3919 17.3148 28.3733 17.3693 28.3686 17.3677C28.367 17.3672 28.3702 17.3532 28.3776 17.3283C28.3845 17.3033 28.3988 17.268 28.4194 17.2259C28.4608 17.1418 28.536 17.0327 28.6468 16.9382C28.7575 16.8442 28.8783 16.7861 28.969 16.7575C29.0145 16.743 29.0521 16.7341 29.0786 16.731C29.1051 16.7269 29.1194 16.7258 29.12 16.7274Z"
            fill="#263238" />
        <path
            d="M25.0856 17.2498C25.093 17.2477 25.1179 17.3204 25.1417 17.4118C25.1656 17.5032 25.1788 17.5785 25.1714 17.5801C25.164 17.5822 25.1391 17.5095 25.1152 17.4181C25.0914 17.3272 25.0781 17.2514 25.0856 17.2498Z"
            fill="#263238" />
        <path
            d="M28.3249 17.4966C28.326 17.5054 27.6456 17.5953 26.8057 17.6971C25.9652 17.7994 25.2838 17.8752 25.2827 17.8669C25.2817 17.8581 25.9615 17.7682 26.802 17.6664C27.6419 17.5641 28.3239 17.4883 28.3249 17.4966Z"
            fill="white" />
        <path
            d="M29.4693 17.4576C29.4715 17.4659 29.2213 17.534 28.9103 17.6093C28.5992 17.6846 28.3454 17.7391 28.3433 17.7308C28.3412 17.7225 28.5913 17.6545 28.9023 17.5792C29.2134 17.5038 29.4672 17.4493 29.4693 17.4576Z"
            fill="white" />
        <path
            d="M29.6634 18.1836C29.665 18.1919 29.3725 18.2604 29.0089 18.3368C28.6454 18.4126 28.3497 18.4677 28.3482 18.4593C28.3466 18.451 28.6391 18.3825 29.0026 18.3061C29.3656 18.2298 29.6613 18.1753 29.6634 18.1836Z"
            fill="white" />
        <path
            d="M26.4257 16.8099C26.4278 16.8182 26.1459 16.8961 25.7962 16.9839C25.4464 17.0717 25.1614 17.1361 25.1587 17.1278C25.1566 17.1195 25.438 17.0416 25.7882 16.9538C26.138 16.866 26.4231 16.8016 26.4257 16.8099Z"
            fill="white" />
        <path
            d="M28.2775 18.595C28.278 18.6038 27.6686 18.6459 26.9166 18.6895C26.1642 18.7331 25.5542 18.7617 25.5537 18.7529C25.5532 18.744 26.1626 18.702 26.9151 18.6583C27.667 18.6147 28.2769 18.5862 28.2775 18.595Z"
            fill="white" />
        <path
            d="M24.877 18.2226C24.8764 18.2138 24.9835 18.1993 25.1154 18.1826C25.2474 18.166 25.3549 18.1541 25.3565 18.1624C25.3581 18.1707 25.2527 18.1967 25.1197 18.2133C24.9866 18.2304 24.8775 18.2309 24.877 18.2226Z"
            fill="white" />
        <path
            d="M28.2333 19.4794C28.2333 19.4815 28.2005 19.4852 28.1406 19.4893C28.0749 19.4935 27.9901 19.4992 27.8873 19.5059C27.6679 19.5205 27.3754 19.5392 27.0527 19.5605C26.73 19.5854 26.4374 19.6077 26.2186 19.6243C26.1163 19.6321 26.031 19.6389 25.9658 19.6441C25.9059 19.6482 25.8731 19.6493 25.8726 19.6472C25.8726 19.6451 25.9049 19.6399 25.9642 19.6316C26.0236 19.6238 26.11 19.6134 26.2165 19.602C26.4295 19.5792 26.7241 19.5521 27.0506 19.5288C27.3764 19.5059 27.6721 19.4909 27.8862 19.4836C27.9933 19.48 28.0802 19.4779 28.14 19.4774C28.2005 19.4768 28.2333 19.4774 28.2333 19.4794Z"
            fill="white" />
        <path
            d="M25.5779 18.8785L25.1688 18.9304L24.7825 17.953L24.1572 18.2007C24.1572 18.2007 24.5022 19.3454 24.6368 19.8081H25.9065L25.5779 18.8785Z"
            fill="#FFBE9D" />
        <path
            d="M25.6217 19.6414C25.5417 19.5552 25.468 19.4716 25.4113 19.3885C25.3536 19.3059 25.309 19.2259 25.2751 19.1579C25.2412 19.0893 25.2184 19.0322 25.2025 18.9922C25.1866 18.9522 25.1787 18.9304 25.1766 18.9309C25.175 18.9314 25.1797 18.9548 25.1925 18.9958C25.2052 19.0369 25.2258 19.0955 25.2576 19.1662C25.2894 19.2363 25.3324 19.3178 25.3901 19.403C25.4468 19.4882 25.521 19.5744 25.6016 19.6606C25.681 19.7468 25.6742 19.7395 25.7298 19.8237L25.7621 19.8226C25.7059 19.7343 25.7012 19.7276 25.6217 19.6414Z"
            fill="#EB996E" />
        <path
            d="M24.7825 17.9525C24.7825 17.9525 24.7847 17.5251 24.7465 17.4041L24.4556 16.7383C24.4556 16.7383 24.3713 16.6962 24.3554 16.8229C24.3385 16.9595 24.4031 17.0888 24.4031 17.0888L24.4127 17.2654L24.2876 17.1662L24.0476 16.7253C24.0476 16.7253 23.8822 16.4043 23.8393 16.4552C23.7964 16.5061 23.8107 16.6095 23.8817 16.7481C23.9532 16.8868 24.0438 17.0623 24.0438 17.0623C24.0438 17.0623 24.0682 17.1179 23.9834 17.0374C23.8986 16.9564 23.7137 16.5643 23.6756 16.5155C23.6374 16.4667 23.5849 16.3228 23.5023 16.355C23.4196 16.3877 23.5256 16.5596 23.5256 16.5596L23.7905 17.1413C23.7905 17.1413 23.6369 16.9211 23.6093 16.8837C23.5818 16.8463 23.5176 16.7206 23.4673 16.6562C23.417 16.5918 23.3618 16.5669 23.3258 16.5825C23.2601 16.6105 23.2797 16.6713 23.2797 16.6713L23.5627 17.1522C23.5627 17.1522 23.7042 17.3677 23.7036 17.3843C23.7036 17.4004 23.5802 17.3132 23.5802 17.3132L23.4615 17.1652C23.4615 17.1652 23.3332 16.9434 23.2659 16.9554C23.1986 16.9673 23.2108 17.0166 23.2108 17.0166L23.4493 17.4207L23.7948 17.8564L24.1641 18.2163L24.3777 18.1488L24.7825 17.9525Z"
            fill="#FFBE9D" />
        <path
            d="M24.1029 17.8803C24.1087 17.8808 24.1119 17.8279 24.1251 17.7458C24.1389 17.6658 24.167 17.5464 24.2672 17.469C24.3111 17.4347 24.3625 17.415 24.4108 17.4155H24.4283L24.4272 17.3968C24.4219 17.3137 24.4245 17.2348 24.4219 17.1823C24.4203 17.1288 24.4145 17.0971 24.4102 17.0977C24.4071 17.0982 24.406 17.1288 24.4018 17.1823C24.3991 17.2363 24.3912 17.3085 24.3949 17.402L24.4113 17.3833C24.3551 17.3817 24.2942 17.4036 24.2454 17.442C24.1909 17.4841 24.1543 17.5407 24.1336 17.5947C24.1124 17.6487 24.1045 17.7001 24.1002 17.7427C24.0928 17.8279 24.0986 17.8803 24.1029 17.8803Z"
            fill="#EB996E" />
        <path
            d="M28.4133 18.7621L28.311 19.8081H29.3269C29.3677 19.6554 29.5192 18.5326 29.5192 18.5326L28.4133 18.7621Z"
            fill="#FFBE9D" />
        <path
            d="M13.5523 15.0374L13.5232 17.3521C13.5184 17.7458 13.5931 18.3249 14.2285 18.3041C14.7785 18.2454 14.9242 17.7354 14.9285 17.3682C14.9306 17.1942 14.9327 17.0488 14.9338 17.0307C14.9338 17.0307 15.5358 16.9824 15.5866 16.3996C15.611 16.1182 15.6136 15.5339 15.6094 15.0057C15.6052 14.4381 15.1558 13.9696 14.5787 13.9281L14.5215 13.9239C13.8994 13.9156 13.5443 14.4282 13.5523 15.0374Z"
            fill="#936760" />
        <path
            d="M14.9336 17.0307C14.9336 17.0307 14.5568 17.0255 14.1758 16.7507C14.1758 16.7507 14.3332 17.1901 14.9309 17.1802L14.9336 17.0307Z"
            fill="#6F4C47" />
        <path
            d="M14.5933 15.2452C14.5817 15.2571 14.5128 15.2026 14.4131 15.2C14.3135 15.1958 14.2393 15.2452 14.2287 15.2327C14.2234 15.227 14.2356 15.2057 14.2685 15.1834C14.3003 15.1611 14.3543 15.1403 14.4163 15.1424C14.4783 15.1444 14.5297 15.1688 14.5594 15.1933C14.5891 15.2177 14.5991 15.2395 14.5933 15.2452Z"
            fill="#263238" />
        <path
            d="M14.4917 15.4457C14.4901 15.4872 14.4525 15.5204 14.4085 15.5194C14.364 15.5184 14.3295 15.4841 14.3311 15.4425C14.3327 15.401 14.3703 15.3678 14.4143 15.3688C14.4583 15.3693 14.4933 15.4041 14.4917 15.4457Z"
            fill="#263238" />
        <path
            d="M14.8428 15.9239C14.8428 15.9187 14.9005 15.913 14.9933 15.9083C15.0166 15.9078 15.0394 15.9047 15.0441 15.8891C15.051 15.873 15.0431 15.8476 15.0335 15.8201C15.0155 15.7629 14.997 15.7032 14.9774 15.6409C14.9 15.3859 14.846 15.1771 14.856 15.174C14.8666 15.1709 14.9376 15.3755 15.015 15.6305C15.0335 15.6933 15.051 15.7531 15.068 15.8107C15.0749 15.8372 15.0881 15.8678 15.0733 15.9016C15.0659 15.9182 15.0479 15.9296 15.0325 15.9322C15.0171 15.9359 15.0039 15.9348 14.9922 15.9348C14.9 15.9327 14.8422 15.9291 14.8428 15.9239Z"
            fill="#263238" />
        <path
            d="M14.5509 14.878C14.5414 14.8998 14.4614 14.8832 14.366 14.8884C14.2706 14.891 14.1922 14.9138 14.181 14.893C14.1763 14.8832 14.1911 14.8629 14.2234 14.8437C14.2558 14.8245 14.3061 14.8074 14.3633 14.8053C14.4206 14.8032 14.472 14.8157 14.5054 14.8328C14.5387 14.8489 14.5552 14.8676 14.5509 14.878Z"
            fill="#263238" />
        <path
            d="M15.4966 15.0587C15.486 15.0763 15.4087 15.0566 15.3143 15.054C15.22 15.0493 15.1421 15.0628 15.132 15.0447C15.1278 15.0358 15.1432 15.0203 15.176 15.0062C15.2083 14.9922 15.2587 14.9813 15.3154 14.9839C15.3721 14.986 15.4219 15.001 15.4537 15.0171C15.486 15.0332 15.5014 15.0504 15.4966 15.0587Z"
            fill="#263238" />
        <path
            d="M13.5689 15.4732C13.5588 15.468 13.1688 15.3252 13.1524 15.7251C13.1354 16.1244 13.5482 16.0585 13.5498 16.0471C13.5514 16.0356 13.5689 15.4732 13.5689 15.4732Z"
            fill="#936760" />
        <path
            d="M13.4318 15.8907C13.4302 15.8891 13.4243 15.8954 13.4121 15.9C13.4 15.9047 13.3798 15.9078 13.3592 15.899C13.3168 15.8818 13.2834 15.8133 13.2844 15.7411C13.285 15.7048 13.294 15.6705 13.3083 15.6424C13.3221 15.6139 13.3422 15.5941 13.3639 15.591C13.3857 15.5869 13.4005 15.6004 13.4053 15.6118C13.41 15.6232 13.4074 15.631 13.4095 15.632C13.4106 15.6331 13.4185 15.6258 13.4159 15.6092C13.4143 15.6014 13.41 15.5915 13.401 15.5837C13.3915 15.5754 13.3772 15.5708 13.3623 15.5718C13.3305 15.5728 13.3014 15.5998 13.2855 15.631C13.268 15.6622 13.2569 15.7006 13.2564 15.7416C13.2558 15.8221 13.2945 15.8995 13.3528 15.9182C13.3814 15.9265 13.4053 15.9192 13.418 15.9104C13.4302 15.9 13.4328 15.8912 13.4318 15.8907Z"
            fill="#6F4C47" />
        <path
            d="M14.7463 16.2008C14.7506 16.1909 14.6711 16.167 14.6149 16.0938C14.5868 16.0574 14.5704 16.018 14.5587 15.9894C14.5471 15.9603 14.5381 15.9421 14.5333 15.9437C14.5291 15.9447 14.5301 15.9645 14.5365 15.9961C14.5434 16.0273 14.5572 16.072 14.5889 16.113C14.6202 16.1546 14.6621 16.1795 14.6933 16.1909C14.7241 16.2034 14.7453 16.2039 14.7463 16.2008Z"
            fill="#263238" />
        <path
            d="M16.399 14.4833C16.3927 14.4599 16.3752 14.4407 16.354 14.4282C16.3074 14.4012 16.2539 14.4049 16.2019 14.4038C16.044 14.4012 15.8877 14.354 15.7547 14.2709C15.6927 14.1831 15.6227 14.1005 15.5464 14.0237C15.3663 13.8414 15.2179 13.7178 15.0647 13.657C14.8665 13.5786 14.5343 13.5469 14.3276 13.6004C14.121 13.6534 13.935 13.818 13.9063 14.0257C13.7903 13.9297 13.616 13.9302 13.475 13.9863L13.4713 13.9847C13.3139 14.0398 13.2244 14.2028 13.1783 14.3597C13.1316 14.517 13.112 14.6853 13.0272 14.826C13.0092 14.8556 12.9885 14.891 13.0039 14.9216C13.0161 14.9455 13.0468 14.9548 13.0733 14.9512C13.0998 14.9476 13.1237 14.933 13.1465 14.9185C13.129 14.9595 13.1115 15.0011 13.094 15.0421C13.1507 15.052 13.21 15.0473 13.2652 15.0307C13.2985 15.1776 13.3383 15.3459 13.377 15.4456C13.4427 15.4456 13.5031 15.4503 13.5434 15.4856C13.5985 15.5344 13.6234 15.6253 13.7145 15.591C13.7612 15.5734 13.8035 15.4773 13.8194 15.4311C13.9228 15.1221 13.9572 14.7912 13.9201 14.4687C13.9853 14.4007 14.0637 14.3451 14.1506 14.3057L14.1437 14.3119C14.3101 14.2553 14.4977 14.1997 14.6556 14.2761C14.7781 14.3353 14.8496 14.4599 14.9413 14.5591C15.1145 14.7471 15.3376 14.8489 15.5957 14.8598C15.6047 15.0239 15.601 15.2561 15.61 15.4202L15.751 15.1574V15.1589C15.7626 15.1397 15.7722 15.1205 15.7812 15.1008L15.7844 15.0951V15.0945C15.7992 15.0634 15.813 15.0322 15.8315 15.0011C15.832 15.0016 15.8326 15.0021 15.8331 15.0026C15.9237 15.081 16.0573 14.9611 15.9857 14.8655C15.9714 14.8463 15.9545 14.8297 15.9354 14.8157C15.9767 14.8536 16.0387 14.8723 16.0928 14.8556C16.1468 14.839 16.1892 14.7855 16.1844 14.73C16.1813 14.6921 16.1537 14.6583 16.1187 14.6432C16.1919 14.6489 16.2671 14.6334 16.3307 14.5975C16.372 14.5731 16.4128 14.5347 16.399 14.4833Z"
            fill="#263238" />
        <path
            d="M14.0935 14.0922C14.0945 14.0937 14.0686 14.1077 14.0336 14.1457C13.9991 14.1836 13.9605 14.2495 13.9424 14.3394C13.9329 14.384 13.9271 14.4339 13.9271 14.4874C13.9271 14.5409 13.9313 14.5985 13.9356 14.6593C13.9398 14.7201 13.944 14.7839 13.9398 14.8504C13.9377 14.8836 13.934 14.9174 13.9265 14.9512C13.9191 14.9844 13.9101 15.0202 13.8847 15.0488C13.8645 15.0722 13.8301 15.0826 13.801 15.0763C13.7713 15.0711 13.7448 15.0555 13.7257 15.0343C13.6876 14.9906 13.678 14.9351 13.6685 14.8862L13.6812 14.8878C13.6611 14.9319 13.6399 14.9751 13.6086 15.0098C13.5779 15.0446 13.536 15.068 13.4931 15.0716C13.4719 15.0737 13.4502 15.0701 13.4316 15.0613C13.4131 15.0524 13.3993 15.0369 13.3897 15.0213C13.3807 15.0047 13.376 14.987 13.377 14.9699C13.3781 14.9527 13.385 14.9361 13.3961 14.9247L13.4025 14.9304C13.3564 14.9818 13.3081 15.0093 13.2748 15.0244C13.2578 15.0322 13.2445 15.0363 13.235 15.0394C13.226 15.042 13.2207 15.0431 13.2207 15.0431C13.2207 15.0426 13.2249 15.041 13.234 15.0374C13.243 15.0337 13.2562 15.0285 13.2721 15.0202C13.3044 15.0041 13.3516 14.9756 13.3956 14.9247L13.4019 14.9304C13.3818 14.9512 13.3807 14.9875 13.3982 15.0171C13.4067 15.0317 13.4194 15.0452 13.4358 15.053C13.4523 15.0607 13.4719 15.0639 13.4915 15.0618C13.5307 15.0581 13.5704 15.0363 13.5991 15.0031C13.6282 14.9699 13.6483 14.9278 13.6685 14.8836L13.677 14.8639L13.6807 14.8842C13.6902 14.933 13.7003 14.9865 13.7352 15.0259C13.7527 15.0446 13.7766 15.0587 13.8031 15.0633C13.829 15.068 13.8566 15.0597 13.8746 15.04C13.8969 15.015 13.9059 14.9813 13.9133 14.9486C13.9207 14.9158 13.9244 14.8826 13.9265 14.8499C13.9308 14.7845 13.9265 14.7211 13.9228 14.6603C13.9191 14.5996 13.9149 14.5419 13.9159 14.4879C13.9165 14.4334 13.9228 14.383 13.9329 14.3378C13.9525 14.2469 13.9933 14.1805 14.0299 14.1425C14.0664 14.1046 14.0935 14.0922 14.0935 14.0922Z"
            fill="#455A64" />
        <path
            d="M15.9334 14.6594C15.9334 14.6594 15.9319 14.6609 15.9287 14.6635C15.9244 14.6667 15.9197 14.6698 15.9138 14.6739C15.9075 14.6786 15.899 14.6843 15.8884 14.6895C15.8783 14.6952 15.8667 14.7025 15.8524 14.7082C15.7973 14.7342 15.7088 14.7596 15.598 14.7529C15.4883 14.7466 15.3569 14.7087 15.2393 14.623C15.1206 14.5394 15.0162 14.4158 14.9309 14.2746C14.8874 14.2039 14.8524 14.1317 14.8137 14.0647C14.7751 13.9977 14.7327 13.9359 14.6807 13.8871C14.6299 13.8383 14.5705 13.802 14.5096 13.7853C14.4794 13.7765 14.4486 13.7744 14.419 13.7749C14.3898 13.7765 14.3617 13.7822 14.3363 13.7905C14.2849 13.8071 14.2436 13.8352 14.2123 13.8638C14.181 13.8923 14.1598 13.923 14.145 13.9489C14.118 14.0024 14.1164 14.0367 14.1143 14.0362C14.1143 14.0362 14.1143 14.0341 14.1148 14.0299C14.1153 14.0253 14.1164 14.019 14.1174 14.0123C14.1201 13.9967 14.127 13.9739 14.1402 13.9463C14.154 13.9193 14.1752 13.8876 14.207 13.858C14.2388 13.8284 14.2806 13.7994 14.3331 13.7812C14.3596 13.7723 14.3882 13.7661 14.4184 13.764C14.4486 13.763 14.481 13.7651 14.5122 13.7739C14.5758 13.7905 14.6367 13.8279 14.6892 13.8778C14.7422 13.9276 14.7862 13.9905 14.8249 14.0575C14.8641 14.125 14.8996 14.1972 14.9425 14.2668C15.0273 14.407 15.1301 14.529 15.2467 14.6121C15.3622 14.6973 15.4904 14.7352 15.5985 14.7425C15.7077 14.7498 15.7951 14.7264 15.8502 14.7025C15.9059 14.6796 15.9324 14.6578 15.9334 14.6594Z"
            fill="#455A64" />
        <path
            d="M15.9875 14.4034C15.988 14.4044 15.9806 14.4091 15.9663 14.4179C15.952 14.4267 15.9308 14.4376 15.9033 14.4496C15.8757 14.4615 15.8418 14.4724 15.8031 14.4818C15.7644 14.4906 15.721 14.4968 15.6754 14.4984C15.6293 14.4994 15.5858 14.4958 15.5466 14.4901C15.5074 14.4833 15.473 14.4745 15.4449 14.4641C15.4168 14.4543 15.3945 14.4449 15.3797 14.4366C15.3649 14.4288 15.3569 14.4241 15.3574 14.4236C15.3585 14.4215 15.3914 14.4376 15.4481 14.4553C15.4761 14.4641 15.5106 14.4719 15.5487 14.4781C15.5874 14.4833 15.6298 14.4865 15.6749 14.4854C15.7199 14.4839 15.7623 14.4781 15.8005 14.4704C15.8386 14.462 15.872 14.4522 15.8995 14.4413C15.9547 14.42 15.9859 14.4013 15.9875 14.4034Z"
            fill="#455A64" />
        <path
            d="M15.501 15.2816C15.4894 15.2935 15.4205 15.239 15.3209 15.2364C15.2212 15.2322 15.147 15.2816 15.1364 15.2691C15.1311 15.2634 15.1433 15.2421 15.1762 15.2198C15.208 15.1974 15.262 15.1767 15.324 15.1787C15.386 15.1808 15.4374 15.2052 15.4671 15.2296C15.4973 15.254 15.5069 15.2764 15.501 15.2816Z"
            fill="#263238" />
        <path
            d="M15.3603 15.4669C15.3587 15.5084 15.3211 15.5417 15.2771 15.5406C15.2326 15.5396 15.1982 15.5053 15.1998 15.4638C15.2013 15.4222 15.239 15.389 15.283 15.39C15.3275 15.3906 15.3619 15.4254 15.3603 15.4669Z"
            fill="#263238" />
        <path
            d="M13.5355 17.1605L12.8233 17.4519C12.3819 17.6326 11.9971 17.9297 11.7295 18.3181C11.6659 18.4106 11.464 19.1216 11.4492 19.1803C11.3904 19.414 11.2939 19.8159 11.2939 19.8159H16.9523C16.9523 19.8159 16.7854 18.2314 16.3821 17.9255C16.1204 17.7266 14.9228 17.1849 14.9228 17.1849C14.9228 17.1849 14.8073 17.4747 14.4379 17.4841C13.8773 17.4976 13.5355 17.1605 13.5355 17.1605Z"
            fill="#FFBE3B" />
    </g>
    <defs>
        <clipPath id="clip0_1908_136578">
            <rect width="27" height="22" fill="white" transform="translate(7 11)" />
        </clipPath>
    </defs>
</svg>