<svg width="40" height="40" viewBox="0 0 40 40" fill="none" xmlns="http://www.w3.org/2000/svg">
    <rect width="40" height="40" rx="20" fill="#FDE6D3" />
    <g clip-path="url(#clip0_1908_137406)">
        <path
            d="M23.2812 18.1101L23.2203 13.1742C23.1647 11.947 23.8422 10.8916 25.0881 10.8711L25.2031 10.8757C26.3626 10.9229 27.291 11.8402 27.3368 12.9838C27.3789 14.0479 27.4117 15.2243 27.381 15.7931C27.317 16.9706 26.1149 17.1051 26.1149 17.1051C26.1123 17.1051 26.1076 17.8216 26.1081 18.1676L26.0415 18.9806L25.4055 18.7399L23.2812 18.1101Z"
            fill="#AE7461" />
        <path
            d="M26.1084 17.1112C26.1084 17.1112 25.3538 17.1241 24.5727 16.5944C24.5727 16.5944 24.9099 17.4952 26.1058 17.4377L26.1084 17.1112Z"
            fill="#6F4439" />
        <path
            d="M26.8057 13.9595C26.8051 14.0483 26.7281 14.1212 26.6339 14.1228C26.5397 14.1238 26.4638 14.053 26.4643 13.9642C26.4648 13.8754 26.5418 13.802 26.6355 13.8009C26.7302 13.7994 26.8062 13.8702 26.8057 13.9595Z"
            fill="#263238" />
        <path
            d="M27.0609 13.453C27.039 13.4741 26.9136 13.3745 26.7299 13.3673C26.5467 13.3575 26.4083 13.4453 26.389 13.4222C26.3797 13.412 26.4031 13.3735 26.4635 13.3334C26.5228 13.2939 26.6232 13.2569 26.7372 13.2621C26.8517 13.2672 26.9459 13.3129 26.9995 13.3575C27.0541 13.4032 27.0718 13.4438 27.0609 13.453Z"
            fill="#263238" />
        <path
            d="M25.189 13.9267C25.1884 14.0155 25.1114 14.0884 25.0172 14.0899C24.923 14.091 24.8471 14.0201 24.8476 13.9313C24.8481 13.8425 24.9251 13.7696 25.0188 13.7681C25.1135 13.7666 25.1895 13.8379 25.189 13.9267Z"
            fill="#263238" />
        <path
            d="M25.2601 13.4216C25.2383 13.4427 25.1128 13.3431 24.9291 13.3359C24.7459 13.3262 24.6075 13.4139 24.5883 13.3909C24.5789 13.3806 24.6018 13.3421 24.6627 13.3021C24.722 13.2625 24.8224 13.2256 24.9364 13.2307C25.0509 13.2358 25.1451 13.2815 25.1987 13.3262C25.2533 13.3719 25.271 13.4124 25.2601 13.4216Z"
            fill="#263238" />
        <path
            d="M25.8606 14.8394C25.8601 14.8291 25.9751 14.8142 26.1608 14.7983C26.2082 14.7952 26.2524 14.788 26.2618 14.7567C26.2743 14.7239 26.2566 14.6731 26.2363 14.6187C26.1968 14.5052 26.1556 14.3861 26.1125 14.2609C25.9407 13.7517 25.8189 13.3344 25.8398 13.3277C25.8606 13.321 26.0167 13.7281 26.1879 14.2373C26.229 14.3625 26.2686 14.4821 26.306 14.5966C26.3217 14.65 26.3498 14.7105 26.3227 14.7788C26.3086 14.8127 26.2733 14.8363 26.2431 14.8435C26.2129 14.8512 26.1863 14.8507 26.1629 14.8512C25.9761 14.8537 25.8611 14.8496 25.8606 14.8394Z"
            fill="#263238" />
        <path
            d="M24.5157 12.7677C24.5324 12.7179 24.7161 12.7348 24.9305 12.7025C25.1454 12.6737 25.3171 12.606 25.3473 12.6491C25.3609 12.6696 25.3322 12.7174 25.2635 12.7672C25.1954 12.817 25.0861 12.8662 24.957 12.8847C24.8285 12.9032 24.7093 12.8868 24.6297 12.858C24.5501 12.8288 24.5089 12.7913 24.5157 12.7677Z"
            fill="#263238" />
        <path
            d="M26.413 12.622C26.4635 12.5963 26.5884 12.6877 26.7565 12.7508C26.9225 12.8191 27.0776 12.8386 27.0953 12.891C27.1026 12.9156 27.0656 12.9464 26.9891 12.9602C26.9142 12.9741 26.7997 12.9664 26.6852 12.9212C26.5702 12.8761 26.4833 12.8042 26.4391 12.7436C26.3948 12.682 26.3901 12.6348 26.413 12.622Z"
            fill="#263238" />
        <path
            d="M23.2812 14.0099C23.2615 14.0001 22.471 13.7373 22.4632 14.5432C22.4554 15.3496 23.2776 15.191 23.2797 15.1679C23.2813 15.1448 23.2812 14.0099 23.2812 14.0099Z"
            fill="#AE7461" />
        <path
            d="M23.0331 14.8605C23.0294 14.8579 23.0185 14.8702 22.9945 14.881C22.9711 14.8913 22.9305 14.8984 22.8879 14.882C22.802 14.8502 22.7302 14.7142 22.7276 14.5689C22.726 14.4955 22.7427 14.4257 22.7692 14.3682C22.7947 14.3097 22.8337 14.2686 22.8775 14.2615C22.9206 14.2522 22.9514 14.2779 22.9612 14.301C22.9722 14.3236 22.9664 14.3395 22.9711 14.341C22.9732 14.3431 22.9888 14.3277 22.9826 14.2943C22.9795 14.2784 22.9701 14.2589 22.9508 14.2435C22.9316 14.2276 22.9024 14.2194 22.8722 14.2224C22.8093 14.226 22.752 14.283 22.7224 14.3461C22.6891 14.4098 22.6693 14.4878 22.6708 14.5705C22.6745 14.7332 22.7572 14.8856 22.8754 14.9205C22.9326 14.9359 22.981 14.919 23.006 14.9005C23.031 14.88 23.0357 14.862 23.0331 14.8605Z"
            fill="#6F4439" />
        <path
            d="M28.987 11.8823C28.9745 11.8345 28.9401 11.795 28.8975 11.7699C28.8043 11.7144 28.6966 11.7201 28.592 11.7175C28.3328 11.7103 28.0763 11.6421 27.8462 11.524C27.9274 11.4845 28.0034 11.4362 28.0679 11.3741C28.2017 11.2458 28.2798 11.0471 28.2215 10.8726C28.2105 10.8398 28.1918 10.8054 28.158 10.7946C28.1049 10.7782 28.0581 10.829 28.0206 10.869C27.8972 11.002 27.7843 11.0584 27.6027 11.0379C27.4898 11.0256 27.381 10.9994 27.2931 10.944C27.2894 10.9404 27.2863 10.9363 27.2832 10.9327C27.241 10.8891 27.1999 10.847 27.1598 10.8069C27.1598 10.8069 27.1598 10.8069 27.1598 10.8064C26.8549 10.502 26.5931 10.2906 26.322 10.1797C25.9249 10.017 25.2577 9.94511 24.8404 10.0483C24.423 10.1514 24.0452 10.48 23.9827 10.8998C23.7517 10.7027 23.4014 10.7002 23.1157 10.81L23.1084 10.8069C22.7905 10.9147 22.6068 11.2427 22.51 11.5599C22.5048 11.5774 22.5001 11.5948 22.4949 11.6123C22.3861 11.7786 22.2388 11.9203 22.064 12.0178C22.0333 12.0352 21.9979 12.0563 21.9937 12.0907C21.9896 12.1251 22.0187 12.1538 22.0473 12.1743C22.1228 12.2288 22.2107 12.2652 22.3023 12.2821C22.2727 12.3576 22.2378 12.4305 22.1946 12.5003C22.1582 12.5593 22.115 12.6307 22.1452 12.6928C22.1686 12.741 22.2305 12.7616 22.2841 12.7544C22.3377 12.7472 22.3861 12.7184 22.4324 12.6902C22.396 12.7734 22.3601 12.856 22.3237 12.9392C22.4382 12.9602 22.5568 12.9525 22.6682 12.9202C22.7322 13.2189 22.7764 13.7707 22.8514 13.9734C23.0684 13.9796 23.1215 13.957 23.2302 13.994C23.3713 14.0417 23.3145 14.2886 23.4993 14.2203C23.5935 14.1854 23.7413 13.8364 23.774 13.743C23.9895 13.1198 24.0665 12.451 23.9989 11.7966C24.1316 11.66 24.2913 11.5492 24.4662 11.4722L24.4521 11.4845C24.7878 11.3736 25.1672 11.2653 25.4826 11.4234C25.7271 11.5461 25.8687 11.7996 26.0503 12.0024C26.3943 12.3868 26.7867 12.5947 27.3061 12.6224C27.3487 12.9792 27.356 13.5613 27.3701 13.8939L27.6651 13.2322V13.2348C27.6891 13.1963 27.7083 13.1568 27.7276 13.1178L27.7344 13.106V13.1044C27.7645 13.0418 27.7932 12.9787 27.8312 12.9166C27.8322 12.9176 27.8332 12.9186 27.8343 12.9196C28.0149 13.0803 28.2865 12.8406 28.145 12.6455C28.1169 12.607 28.083 12.5721 28.0445 12.5434C28.1273 12.6214 28.2511 12.6599 28.3609 12.6281C28.4707 12.5963 28.5566 12.488 28.5488 12.3756C28.5431 12.2986 28.4884 12.2293 28.4187 12.1985C28.566 12.2113 28.7169 12.1815 28.8465 12.1107C28.9308 12.0645 29.014 11.987 28.987 11.8823Z"
            fill="#263238" />
        <path
            d="M24.3573 11.0394C24.3599 11.0425 24.3069 11.0702 24.2361 11.1462C24.1658 11.2222 24.0867 11.3546 24.0477 11.5358C24.0279 11.6256 24.0149 11.7267 24.0139 11.8355C24.0123 11.9444 24.0196 12.0609 24.0269 12.1836C24.0336 12.3062 24.0409 12.4361 24.0316 12.5706C24.0269 12.6378 24.018 12.7061 24.0024 12.7744C23.9868 12.8416 23.9681 12.914 23.9155 12.9715C23.8739 13.0182 23.8052 13.0382 23.7458 13.0254C23.686 13.0141 23.6334 12.9822 23.5949 12.9391C23.519 12.8498 23.5013 12.7369 23.483 12.6378L23.508 12.6409C23.4659 12.7297 23.4227 12.817 23.3597 12.8863C23.2973 12.9561 23.2119 13.0018 23.1255 13.0084C23.0823 13.012 23.0391 13.0043 23.0022 12.9858C22.9647 12.9674 22.9377 12.9361 22.9194 12.9037C22.9017 12.8703 22.8929 12.8339 22.8955 12.799C22.8981 12.7641 22.9122 12.7307 22.9351 12.7076L22.9475 12.7189C22.8539 12.8216 22.756 12.876 22.6884 12.9063C22.654 12.9212 22.627 12.9304 22.6082 12.9361C22.5895 12.9412 22.5796 12.9432 22.5796 12.9427C22.5796 12.9417 22.589 12.9381 22.6067 12.9314C22.6244 12.9242 22.6509 12.914 22.6842 12.8981C22.7498 12.8657 22.845 12.8098 22.9345 12.7076L22.947 12.7189C22.9064 12.7605 22.9033 12.8344 22.9371 12.894C22.9543 12.9232 22.9793 12.9509 23.0121 12.9668C23.0449 12.9833 23.0844 12.9894 23.1234 12.9858C23.2031 12.9792 23.2827 12.9361 23.341 12.8693C23.4008 12.8031 23.4425 12.7179 23.4841 12.6291L23.5018 12.5916L23.5091 12.6327C23.5273 12.7318 23.546 12.8401 23.6157 12.9207C23.6501 12.9597 23.6985 12.9884 23.7511 12.9976C23.8036 13.0084 23.8588 12.992 23.8952 12.952C23.941 12.9027 23.9597 12.8334 23.9754 12.7677C23.9904 12.701 23.9998 12.6342 24.0045 12.568C24.0144 12.4356 24.0076 12.3068 24.0014 12.1841C23.9951 12.0614 23.9884 11.9444 23.991 11.8345C23.993 11.7247 24.0076 11.6225 24.029 11.5312C24.0706 11.3474 24.1544 11.2134 24.2283 11.1385C24.3027 11.0636 24.3573 11.0394 24.3573 11.0394Z"
            fill="#455A64" />
        <path
            d="M28.0454 12.2292C28.0459 12.2297 28.0422 12.2323 28.0355 12.2369C28.0271 12.2426 28.0173 12.2497 28.0053 12.258C27.9923 12.2677 27.9756 12.2785 27.9543 12.2893C27.9335 12.3006 27.9095 12.3144 27.8809 12.3262C27.769 12.377 27.5905 12.4268 27.3678 12.4114C27.1471 12.3965 26.8833 12.3165 26.6486 12.1404C26.4113 11.9679 26.2047 11.7159 26.0366 11.428C25.9512 11.2842 25.882 11.1369 25.8055 11.0009C25.7295 10.8649 25.6452 10.7386 25.5422 10.6385C25.4407 10.5379 25.3221 10.4635 25.1998 10.4281C25.1389 10.4096 25.0769 10.4044 25.0181 10.4055C24.9588 10.408 24.9031 10.4188 24.8511 10.4352C24.7475 10.4681 24.6637 10.5235 24.5997 10.5805C24.5357 10.638 24.4925 10.6991 24.4629 10.7519C24.4072 10.8597 24.4035 10.9295 24.3989 10.928C24.3983 10.928 24.3989 10.9239 24.3999 10.9157C24.4015 10.9059 24.4035 10.8941 24.4061 10.8798C24.4124 10.8484 24.4264 10.8028 24.453 10.7468C24.4816 10.6924 24.5248 10.6293 24.5888 10.5692C24.6528 10.5097 24.7382 10.4517 24.8443 10.4168C24.8974 10.3993 24.9552 10.3875 25.0166 10.3844C25.0775 10.3829 25.1425 10.3875 25.2055 10.4065C25.333 10.4419 25.4553 10.5184 25.5594 10.6205C25.665 10.7222 25.7514 10.8505 25.8284 10.9876C25.906 11.1246 25.9752 11.2714 26.06 11.4141C26.2271 11.7 26.4311 11.949 26.6632 12.1199C26.8932 12.2944 27.1513 12.375 27.3683 12.3919C27.5874 12.4094 27.7638 12.3637 27.8757 12.3165C27.9897 12.2687 28.0433 12.2256 28.0454 12.2292Z"
            fill="#455A64" />
        <path
            d="M28.1606 11.7118C28.1616 11.7134 28.146 11.7236 28.1174 11.7411C28.0888 11.7585 28.0451 11.7806 27.9894 11.8032C27.9337 11.8268 27.865 11.8484 27.7875 11.8663C27.7094 11.8827 27.622 11.8946 27.5299 11.8971C27.4377 11.8987 27.3498 11.8899 27.2712 11.8771C27.1926 11.8622 27.1234 11.8437 27.0667 11.8227C27.01 11.8022 26.9657 11.7821 26.9366 11.7657C26.9069 11.7498 26.8913 11.74 26.8924 11.7385C26.895 11.7339 26.9605 11.7683 27.0735 11.8042C27.1297 11.8227 27.1984 11.8391 27.2759 11.8525C27.3534 11.8643 27.4393 11.8715 27.5299 11.8704C27.6204 11.8679 27.7058 11.8571 27.7828 11.8422C27.8593 11.8258 27.9275 11.8068 27.9831 11.7862C28.094 11.7442 28.158 11.7072 28.1606 11.7118Z"
            fill="#455A64" />
        <path
            d="M25.8431 15.3906C25.8337 15.3614 25.6407 15.4348 25.4398 15.3244C25.2384 15.2146 25.1801 15.0036 25.153 15.0123C25.14 15.0144 25.1333 15.0719 25.1645 15.1581C25.1947 15.2433 25.2701 15.3552 25.393 15.423C25.5158 15.4902 25.6448 15.4902 25.7265 15.4661C25.8098 15.4425 25.8494 15.403 25.8431 15.3906Z"
            fill="#263238" />
        <path
            d="M26.1082 17.9812C26.1082 17.9812 28.1014 18.8025 28.6364 19.1879C29.1713 19.5734 28.7951 22.2097 28.8362 22.7579C28.8773 23.3056 28.7977 27.3781 28.7977 27.3781C28.7977 27.3781 29.0818 29.5447 28.9725 29.9271C28.9725 29.9271 25.7476 30.0436 24.4929 29.983C23.2382 29.9225 20.6944 30.0005 20.6944 30.0005L20.7709 27.1209L20.8739 22.6157L20.0923 18.6988L23.1804 17.5742L23.246 17.3801C23.246 17.3801 24.3752 18.3846 25.0747 18.3441C25.7736 18.3035 26.1082 17.9812 26.1082 17.9812Z"
            fill="#FFBE3B" />
        <g opacity="0.3">
            <path
                d="M20.6453 26.3469C20.7156 26.1672 20.854 26.0235 20.9935 25.8885C21.9875 24.9246 23.1813 24.1613 24.4802 23.6608C24.9829 23.4668 25.5085 23.3108 26.0482 23.2954C26.5879 23.28 27.1463 23.416 27.5631 23.7542C28.1142 24.2008 28.3458 24.9266 28.4457 25.6231C28.5462 26.3197 28.5446 27.0362 28.7575 27.7081L28.8818 28.3277C28.6747 28.4175 28.4244 28.341 28.2537 28.1942C28.0835 28.0474 27.9779 27.8426 27.8837 27.6399C27.5824 26.9906 27.3555 26.3079 27.2087 25.6088C27.1249 25.2094 27.0458 24.7675 26.7253 24.5098C26.3724 24.2265 25.8551 24.2742 25.4206 24.4061C23.9837 24.8419 22.8956 25.9763 21.6346 26.7842C21.3578 26.9618 20.9633 27.1143 20.7275 26.8864C20.5886 26.7509 20.5751 26.526 20.6453 26.3469Z"
                fill="#FFBE3B" />
        </g>
        <path
            d="M20.0913 18.6987C20.0913 18.6987 19.5641 18.9857 19.3492 19.3219C19.1348 19.6581 18.2761 22.1979 18.2761 22.1979L21.1331 23.034L21.5073 20.8345L20.0913 18.6987Z"
            fill="#FFBE3B" />
        <path
            d="M28.5408 19.1233C28.5408 19.1233 28.9644 19.2408 29.2647 19.6864C29.4926 20.0241 30.4976 22.6404 30.4976 22.6404L28.5627 23.6505L28.5408 19.1233Z"
            fill="#FFBE3B" />
        <path
            d="M28.7975 20.8104C28.7902 20.8104 28.784 21.9428 28.784 23.3389C28.784 24.7356 28.7902 25.8674 28.7975 25.8674C28.8048 25.8674 28.811 24.7356 28.811 23.3389C28.811 21.9422 28.8048 20.8104 28.7975 20.8104Z"
            fill="#FFBE3B" />
        <path
            d="M20.2806 18.8748C20.2795 18.8763 20.2988 18.8979 20.3347 18.9354C20.3711 18.9728 20.4226 19.0283 20.4841 19.0986C20.6074 19.2387 20.7672 19.442 20.915 19.6848C21.0622 19.9281 21.1689 20.1627 21.2355 20.3361C21.2694 20.4229 21.2949 20.4937 21.311 20.543C21.3276 20.5923 21.338 20.6195 21.3396 20.619C21.3412 20.6185 21.3349 20.5902 21.3209 20.5399C21.3079 20.4896 21.285 20.4172 21.2532 20.3295C21.1908 20.1534 21.0862 19.9158 20.9379 19.6709C20.789 19.4266 20.6256 19.2233 20.4981 19.0858C20.4341 19.017 20.3805 18.9631 20.342 18.9277C20.304 18.8928 20.2821 18.8738 20.2806 18.8748Z"
            fill="#FFBE3B" />
        <path
            d="M20.9456 23.1413C20.9529 23.1423 21.0101 22.6721 21.0731 22.0911C21.1361 21.51 21.1808 21.0388 21.1735 21.0383C21.1663 21.0373 21.109 21.5075 21.046 22.0885C20.9831 22.6691 20.9383 23.1408 20.9456 23.1413Z"
            fill="#FFBE3B" />
        <path
            d="M23.7211 22.7127L20.8386 24.1495L20.81 24.0802L20.9354 22.9755L18.5405 22.2749C18.5405 22.2749 18.3078 24.9107 18.1777 25.4645C17.9743 26.3304 18.6888 27.3801 19.9893 27.3781C20.684 27.377 24.8057 24.1654 24.8057 24.1654L23.7211 22.7127Z"
            fill="#AE7461" />
        <path
            d="M28.1466 22.609L27.3587 24.1119L27.8577 25.5933L28.0716 26.1882C28.0716 26.1882 28.6415 28.3754 29.2566 28.4282C29.8722 28.4811 30.3401 28.3877 30.8189 27.4648C31.3398 26.4608 30.5951 23.7146 30.3599 22.7132L28.8476 23.4549L28.1466 22.609Z"
            fill="#AE7461" />
        <path
            d="M25.0273 22.0177C25.1439 21.9787 25.4338 22.1999 25.606 22.3452C25.7783 22.4905 26.091 22.6424 26.091 22.6424C26.091 22.6424 24.841 21.5604 24.8441 21.3951C24.8473 21.2298 24.9243 21.1138 25.1397 21.2088C25.1397 21.2088 24.8931 21.0137 25.1064 20.8012C25.3198 20.5887 26.6677 21.8042 26.6677 21.8042L26.7259 21.7462C26.7259 21.7462 25.5545 20.7406 25.6242 20.6483C25.694 20.5553 25.8886 20.4778 26.1311 20.6842C26.3742 20.8905 27.3166 21.6353 27.5024 21.8309C27.8266 22.1722 27.9552 22.1255 28.0686 22.1224L28.8477 23.4539L27.4181 24.2352C27.4181 24.2352 26.7306 24.0006 26.001 23.1891C26.001 23.1891 25.2412 22.6239 25.0846 22.4325C24.9269 22.241 24.9102 22.0567 25.0273 22.0177Z"
            fill="#AE7461" />
        <path
            d="M24.7462 24.2039C24.7462 24.2039 25.5201 24.1505 26.5 23.5156C26.5 23.5156 27.4414 23.1419 27.6569 22.9879C27.8723 22.8339 27.9415 22.6486 27.8322 22.5762C27.7229 22.5039 27.3623 22.6527 27.1437 22.7549C26.9252 22.857 26.5604 22.9279 26.5604 22.9279C26.5604 22.9279 28.1518 22.1569 28.1955 21.986C28.2392 21.815 28.1918 21.6744 27.9441 21.7134C27.9441 21.7134 28.2532 21.5805 28.0935 21.3033C27.9478 21.0502 26.4932 21.7627 26.2408 21.8889C26.22 21.8992 26.1945 21.8915 26.1825 21.8715C26.17 21.8499 26.1784 21.8227 26.2008 21.8114C26.385 21.7185 27.1396 21.3341 27.4523 21.118C27.6506 20.9809 27.3722 20.7258 27.0641 20.8716C26.756 21.0174 25.5846 21.5825 25.2963 21.6102C25.008 21.6379 24.625 21.6903 24.5948 21.6143C24.5646 21.5379 24.7322 21.2304 24.804 21.0969C24.8758 20.9635 24.9918 20.6714 24.6452 20.5857C24.6452 20.5857 24.1509 21.1955 23.9921 21.4249C23.8334 21.6539 23.5644 22.7846 23.5644 22.7846"
            fill="#AE7461" />
        <path
            d="M23.5644 22.7846C23.5644 22.7846 23.5685 22.7707 23.5758 22.743C23.5831 22.7148 23.594 22.6737 23.6076 22.6198C23.6357 22.5115 23.6773 22.3509 23.7366 22.1455C23.7658 22.0429 23.8001 21.9284 23.8412 21.8047C23.8615 21.7426 23.8839 21.6784 23.9099 21.6122C23.9359 21.5465 23.9646 21.4783 24.0072 21.4156C24.1873 21.1677 24.408 20.8946 24.652 20.5918L24.6427 20.5949C24.6916 20.6098 24.7426 20.6252 24.7832 20.6575C24.8243 20.6883 24.855 20.7329 24.8659 20.7848C24.8774 20.8361 24.8706 20.891 24.856 20.9439C24.8415 20.9968 24.8186 21.0481 24.7915 21.0979C24.7369 21.1985 24.6812 21.3022 24.6333 21.4126C24.6109 21.4685 24.5849 21.5234 24.5802 21.5891C24.5792 21.5973 24.5813 21.6061 24.5833 21.6153C24.5849 21.6245 24.5927 21.6338 24.6005 21.6389C24.6156 21.6497 24.6323 21.6538 24.6479 21.6574C24.6796 21.6641 24.7114 21.6656 24.7436 21.6661C24.8706 21.6671 24.9986 21.6528 25.1287 21.6405C25.1938 21.6328 25.2588 21.6292 25.3254 21.6184C25.3926 21.6076 25.4561 21.5855 25.5206 21.5645C25.7761 21.4752 26.0311 21.3633 26.2929 21.2462C26.5541 21.1297 26.8195 21.0014 27.0912 20.8762C27.1583 20.8479 27.2338 20.8361 27.3061 20.8474C27.3779 20.8577 27.4503 20.8931 27.4883 20.9532C27.5075 20.9829 27.5112 21.0199 27.4961 21.0507C27.4805 21.0815 27.4534 21.1046 27.4201 21.1256C27.3561 21.1687 27.2895 21.2088 27.2223 21.2488C26.9528 21.4069 26.6702 21.5568 26.3824 21.7051L26.2741 21.7606L26.2195 21.7883L26.1914 21.8027C26.1799 21.8093 26.1706 21.8201 26.1664 21.8324C26.1571 21.8576 26.1685 21.8879 26.1924 21.9007C26.2039 21.9074 26.2179 21.9094 26.2315 21.9069C26.246 21.9038 26.2538 21.8976 26.2632 21.8935L26.3735 21.8391C26.5213 21.7672 26.6717 21.6974 26.8242 21.6297C27.1156 21.5024 27.4071 21.3797 27.7063 21.3012C27.7812 21.2827 27.8567 21.2668 27.9322 21.2637C27.9696 21.2627 28.0076 21.2642 28.0404 21.2776C28.0565 21.2842 28.0701 21.294 28.0789 21.3068C28.0878 21.3212 28.0951 21.3391 28.1034 21.3551C28.1325 21.4218 28.1336 21.4988 28.0977 21.5609C28.0638 21.6235 28.0024 21.6713 27.9384 21.702L27.8635 21.7385L27.9457 21.7267C27.9962 21.7195 28.0487 21.7159 28.0961 21.7303C28.1435 21.7436 28.1799 21.7801 28.1898 21.8273C28.2017 21.874 28.1955 21.9248 28.1846 21.9731C28.1835 21.9797 28.182 21.9854 28.1794 21.989C28.1773 21.9936 28.1752 21.9982 28.171 22.0023C28.1643 22.0116 28.1559 22.0203 28.1466 22.029C28.1289 22.046 28.1091 22.0619 28.0888 22.0773C27.9254 22.1969 27.7479 22.2944 27.5757 22.3909C27.2286 22.5818 26.8856 22.7548 26.5546 22.917L26.4703 22.9581L26.5625 22.9391C26.7149 22.9078 26.8627 22.8703 27.0048 22.8215C27.0761 22.7979 27.1448 22.7666 27.2104 22.7358C27.277 22.7061 27.3436 22.6778 27.4102 22.6522C27.4768 22.627 27.5439 22.6039 27.6116 22.5875C27.6782 22.5721 27.75 22.5572 27.8104 22.5772C27.839 22.5885 27.8614 22.6147 27.8682 22.6439C27.876 22.6737 27.8702 22.7061 27.8598 22.7358C27.838 22.7959 27.7963 22.8482 27.7516 22.8939C27.7058 22.9391 27.6548 22.9786 27.6012 23.0109C27.5465 23.0428 27.4909 23.072 27.4352 23.0992C27.3238 23.1542 27.2135 23.2039 27.1063 23.2517C26.8913 23.3461 26.6873 23.4308 26.4969 23.5073L26.4958 23.5078L26.4953 23.5083C25.9921 23.8353 25.544 24.0083 25.2333 24.0991C25.0777 24.1448 24.9549 24.17 24.8722 24.1849C24.8305 24.192 24.7988 24.1967 24.778 24.1992C24.7566 24.2018 24.7457 24.2033 24.7457 24.2033C24.7457 24.2033 24.7566 24.2033 24.778 24.2013C24.7993 24.1992 24.8311 24.1951 24.8727 24.189C24.9559 24.1756 25.0788 24.1515 25.2354 24.1073C25.5477 24.0191 25.9978 23.8481 26.5036 23.5217L26.5021 23.5222C26.6931 23.4462 26.8976 23.362 27.113 23.2681C27.2208 23.2209 27.3311 23.1711 27.4435 23.1167C27.4997 23.0895 27.5554 23.0602 27.6116 23.0279C27.6673 22.9945 27.7193 22.9545 27.7662 22.9083C27.8125 22.8616 27.8557 22.8077 27.8796 22.743C27.8911 22.7107 27.8978 22.6747 27.889 22.6388C27.8801 22.6029 27.8541 22.5716 27.8187 22.5577C27.7469 22.5341 27.6751 22.5516 27.6064 22.5664C27.5372 22.5834 27.4695 22.6065 27.4024 22.6316C27.3347 22.6573 27.2681 22.6855 27.201 22.7153C27.1339 22.7461 27.0683 22.7764 26.9975 22.7995C26.857 22.8472 26.7092 22.8842 26.5583 22.9155L26.5661 22.9375C26.8976 22.7753 27.2405 22.6029 27.5887 22.4119C27.762 22.3149 27.9389 22.2179 28.1055 22.0963C28.1263 22.0809 28.1466 22.0644 28.1653 22.0465C28.1752 22.0377 28.184 22.028 28.1929 22.0167C28.2012 22.0075 28.2095 21.989 28.2111 21.9777C28.2226 21.9269 28.2298 21.8735 28.2163 21.8196C28.2095 21.7934 28.1976 21.7667 28.1773 21.7467C28.157 21.7267 28.132 21.7118 28.1049 21.7041C28.0513 21.6877 27.9957 21.6918 27.9426 21.6995L27.9499 21.7246C28.0196 21.6908 28.0836 21.6415 28.1221 21.5717C28.1622 21.5029 28.1606 21.4141 28.1289 21.3433C28.12 21.3258 28.1127 21.3084 28.1018 21.2904C28.0893 21.2719 28.0706 21.2591 28.0513 21.2514C28.0123 21.236 27.9712 21.2344 27.9322 21.2355C27.8531 21.2385 27.7766 21.255 27.7006 21.2734C27.3982 21.353 27.1063 21.4757 26.8138 21.6035C26.6613 21.6713 26.5104 21.7416 26.3626 21.8134L26.2518 21.8678C26.2424 21.8725 26.233 21.8781 26.2273 21.8786C26.2205 21.8802 26.2127 21.8786 26.2065 21.875C26.194 21.8684 26.1878 21.8519 26.1924 21.8386C26.1945 21.8319 26.1997 21.8263 26.2055 21.8227L26.232 21.8093L26.2866 21.7816L26.3954 21.7262C26.6837 21.5773 26.9663 21.4274 27.2364 21.2683C27.3035 21.2278 27.3706 21.1877 27.4352 21.1441C27.4674 21.1246 27.5023 21.0964 27.5205 21.0584C27.5393 21.0199 27.5341 20.9716 27.5117 20.9372C27.4669 20.8669 27.3883 20.8305 27.3108 20.8192C27.2327 20.8069 27.1526 20.8197 27.0818 20.85C26.8081 20.9768 26.5442 21.1046 26.283 21.2216C26.0223 21.3386 25.7673 21.451 25.5138 21.5398C25.4503 21.5609 25.3863 21.5825 25.3228 21.5932C25.2588 21.6035 25.1917 21.6076 25.1272 21.6153C24.9976 21.6281 24.8696 21.6425 24.7447 21.642C24.7134 21.6415 24.6827 21.6399 24.6531 21.6338C24.6385 21.6307 24.6244 21.6266 24.614 21.6194C24.6036 21.6132 24.6026 21.602 24.6026 21.5876C24.6062 21.5306 24.6317 21.4736 24.6536 21.4192C24.7009 21.3099 24.7561 21.2067 24.8102 21.1061C24.8378 21.0553 24.8607 21.0024 24.8758 20.9475C24.8904 20.8931 24.8982 20.8351 24.8857 20.7797C24.8742 20.7237 24.8399 20.6744 24.7951 20.6416C24.7509 20.6072 24.6978 20.5913 24.6473 20.5759L24.6416 20.5743L24.638 20.579C24.3949 20.8828 24.1753 21.1564 23.9958 21.4064C23.9521 21.4711 23.9235 21.5398 23.898 21.6061C23.8725 21.6723 23.8501 21.737 23.8298 21.7996C23.7897 21.9238 23.7559 22.0383 23.7273 22.1414C23.6695 22.3478 23.6294 22.5084 23.6029 22.6173C23.5899 22.6711 23.58 22.7127 23.5732 22.741C23.567 22.7702 23.5644 22.7846 23.5644 22.7846Z"
            fill="#6F4439" />
        <path
            d="M28.6496 23.13C28.6486 23.1305 28.6559 23.1439 28.6705 23.169C28.6856 23.1942 28.7064 23.2317 28.736 23.2784C28.7938 23.3728 28.8823 23.5058 28.9962 23.668C29.2221 23.9929 29.5604 24.4225 29.9044 24.9173C30.074 25.1663 30.2338 25.4055 30.3519 25.6369C30.4711 25.8679 30.5434 26.0928 30.5715 26.2868C30.6012 26.4808 30.5887 26.641 30.5694 26.7482C30.5601 26.8021 30.5497 26.8437 30.5419 26.8714C30.534 26.8991 30.5304 26.914 30.5309 26.9145C30.532 26.9151 30.5372 26.9007 30.5471 26.873C30.5564 26.8452 30.5689 26.8042 30.5798 26.7503C30.6022 26.6425 30.6178 26.4803 30.5903 26.2842C30.5642 26.0881 30.4929 25.8597 30.3738 25.6262C30.2561 25.3916 30.0964 25.1514 29.9262 24.9024C29.5817 24.4066 29.2408 23.979 29.0113 23.6572C28.8958 23.497 28.8047 23.3656 28.7444 23.2732C28.7131 23.2275 28.6908 23.1911 28.6746 23.167C28.6595 23.1423 28.6507 23.1295 28.6496 23.13Z"
            fill="#6F4439" />
        <path
            d="M26.3298 22.454C26.3308 22.4556 26.3527 22.4463 26.3928 22.4284C26.4323 22.4104 26.4891 22.3832 26.5588 22.3493C26.7029 22.2775 26.8924 22.183 27.1021 22.0783C27.3144 21.9736 27.5101 21.8858 27.6532 21.8253C27.7209 21.797 27.7781 21.7729 27.8229 21.7544C27.8629 21.7375 27.8848 21.7272 27.8843 21.7257C27.8837 21.7241 27.8603 21.7308 27.8192 21.7447C27.7776 21.7585 27.7188 21.7801 27.6459 21.8078C27.5007 21.8638 27.303 21.9495 27.0901 22.0542C26.8773 22.1594 26.6878 22.26 26.5505 22.3324C26.4859 22.3673 26.4313 22.396 26.3881 22.4191C26.3496 22.4402 26.3293 22.4525 26.3298 22.454Z"
            fill="#6F4439" />
        <path
            d="M19.6353 24.8963C19.6363 24.8978 19.6571 24.8819 19.6925 24.8526C19.7289 24.8239 19.7815 24.7833 19.8497 24.7361C19.9845 24.6406 20.1786 24.5195 20.3982 24.3937C20.6178 24.269 20.8208 24.1622 20.9691 24.0873C21.0398 24.0519 21.0987 24.0226 21.145 23.9995C21.1866 23.979 21.2095 23.9667 21.2085 23.9651C21.2074 23.9636 21.1835 23.9723 21.1403 23.9898C21.0971 24.0077 21.0357 24.0344 20.9607 24.0704C20.8103 24.1407 20.6053 24.2454 20.3852 24.3706C20.165 24.4969 19.972 24.6206 19.8393 24.7207C19.7727 24.7705 19.7211 24.8136 19.6868 24.8449C19.6519 24.8767 19.6342 24.8952 19.6353 24.8963Z"
            fill="#6F4439" />
        <path
            d="M18.1003 11.8186C18.067 11.6323 17.9838 11.4439 17.8256 11.3361C17.632 11.2042 17.3744 11.2211 17.1423 11.2581C16.8097 11.3109 16.4522 11.4131 16.2628 11.6877C16.1535 11.8458 16.116 12.0449 16.1285 12.2359C16.141 12.4268 16.2008 12.6121 16.2727 12.7897L17.1495 13.1537C17.3577 12.8272 17.824 12.7276 18.0212 12.3945C18.1217 12.2236 18.1352 12.0136 18.1003 11.8186Z"
            fill="#263238" />
        <path
            d="M9.60236 19.1079C9.57061 19.0237 9.47538 18.9852 9.39472 18.9431C9.10641 18.7927 8.91542 18.4765 8.91854 18.1547C8.92166 17.8328 9.1189 17.5202 9.40981 17.3755C9.48162 17.3396 9.56073 17.3118 9.61537 17.2533C9.75119 17.1081 9.66533 16.8755 9.69603 16.68C9.76056 16.2663 10.321 16.1056 10.4714 15.7139C10.563 15.4753 10.4808 15.2109 10.4314 14.9604C10.3825 14.7099 10.3861 14.4086 10.5891 14.2505C10.6983 14.1653 10.8467 14.1392 10.9523 14.0498C11.1704 13.8656 11.1089 13.5268 11.1579 13.2476C11.2349 12.8077 11.6694 12.4576 12.1222 12.4715C12.1222 12.4715 11.8896 12.1168 12.3246 11.855C12.8497 11.5388 12.9455 11.931 13.1661 11.6461C13.4008 11.3432 13.8656 11.2421 14.2075 11.4192C14.3141 11.4747 14.4089 11.5527 14.5228 11.5922C14.6613 11.6404 14.8132 11.6256 14.9594 11.6358C15.5184 11.6753 16.5337 12.1912 16.324 12.9293L13.4466 19.52C13.4466 19.52 12.7836 19.7556 12.297 20.0687C12.1904 20.1375 12.155 21.0543 12.0337 21.0938C11.8828 21.1425 11.7173 21.1287 11.5638 21.0871C11.2312 20.9963 10.9382 20.772 10.766 20.4768C10.4527 20.6739 10.0088 20.6385 9.73142 20.3952C9.45404 20.1514 9.36765 19.7207 9.53002 19.3912C9.5753 19.3003 9.63723 19.2018 9.60236 19.1079Z"
            fill="#263238" />
        <path
            d="M16.5472 13.8743L16.5815 13.4508L14.0295 12.8133C13.2384 12.6829 12.3298 13.419 12.2314 14.2038C12.1222 15.0759 12.0238 16.1446 12.0889 16.8042C12.22 18.13 13.2306 18.3579 13.2306 18.3579L13.1567 19.6622L16.0991 19.8737L16.5472 13.8743Z"
            fill="#FFBF9D" />
        <path
            d="M12.7141 15.427C12.7053 15.5158 12.7745 15.5959 12.8687 15.6067C12.9623 15.6174 13.0451 15.5538 13.0539 15.4655C13.0628 15.3767 12.9936 15.2961 12.8999 15.2858C12.8057 15.2746 12.7229 15.3382 12.7141 15.427Z"
            fill="#263238" />
        <path
            d="M12.4792 14.7788C12.499 14.8019 12.6343 14.7151 12.818 14.7264C13.0017 14.7352 13.1307 14.8363 13.1521 14.8152C13.1625 14.806 13.1432 14.7649 13.087 14.7192C13.0319 14.6741 12.9356 14.6274 12.8211 14.6207C12.7066 14.6145 12.6077 14.6505 12.55 14.6895C12.4906 14.7295 12.4693 14.768 12.4792 14.7788Z"
            fill="#263238" />
        <path
            d="M14.3704 15.4748C14.3615 15.5636 14.4307 15.6436 14.5244 15.6544C14.6181 15.6652 14.7008 15.6015 14.7097 15.5132C14.7185 15.4244 14.6493 15.3439 14.5556 15.3336C14.462 15.3228 14.3792 15.386 14.3704 15.4748Z"
            fill="#263238" />
        <path
            d="M14.2834 14.9194C14.3032 14.9425 14.4385 14.8558 14.6222 14.8671C14.8059 14.8758 14.9349 14.9769 14.9563 14.9559C14.9667 14.9466 14.9474 14.9055 14.8912 14.8599C14.8361 14.8142 14.7398 14.768 14.6253 14.7613C14.5108 14.7552 14.4119 14.7911 14.3542 14.8301C14.2954 14.8706 14.2735 14.9091 14.2834 14.9194Z"
            fill="#263238" />
        <path
            d="M13.5348 16.2241C13.5363 16.2139 13.4234 16.1877 13.2397 16.1533C13.1929 16.1456 13.1492 16.1338 13.1434 16.102C13.1346 16.0681 13.157 16.0193 13.183 15.9665C13.234 15.8571 13.2871 15.7427 13.3433 15.622C13.5665 15.1319 13.7315 14.7274 13.7112 14.7186C13.6909 14.7099 13.4937 15.1005 13.2704 15.5907C13.2163 15.7119 13.1648 15.8269 13.1159 15.9372C13.095 15.9885 13.0607 16.0465 13.0805 16.1174C13.0909 16.1528 13.1242 16.18 13.1533 16.1898C13.183 16.2005 13.209 16.2026 13.2324 16.2051C13.4177 16.2267 13.5332 16.2344 13.5348 16.2241Z"
            fill="#263238" />
        <path
            d="M13.231 18.3616C13.231 18.3616 14.1688 18.4719 15.0884 17.9982C15.0884 17.9982 14.5825 18.8913 13.2118 18.6891L13.231 18.3616Z"
            fill="#FF9A6C" />
        <path
            d="M15.2329 14.6227C15.2298 14.5703 15.0466 14.5411 14.8473 14.4559C14.6459 14.3748 14.497 14.266 14.4565 14.3004C14.4382 14.3173 14.4539 14.3702 14.5075 14.4359C14.5605 14.501 14.6542 14.576 14.7744 14.6258C14.8946 14.6756 15.0143 14.6894 15.0986 14.6812C15.184 14.673 15.2334 14.6473 15.2329 14.6227Z"
            fill="#263238" />
        <path
            d="M13.0885 14.0627C13.0416 14.0381 12.9438 14.1285 12.8054 14.1916C12.669 14.2593 12.5368 14.2799 12.5275 14.3312C12.5244 14.3553 12.5597 14.3851 12.6274 14.3979C12.694 14.4113 12.7924 14.4025 12.8866 14.3574C12.9808 14.3122 13.0484 14.2414 13.0791 14.1818C13.1114 14.1213 13.1098 14.0756 13.0885 14.0627Z"
            fill="#263238" />
        <path
            d="M12.2368 13.2594C12.537 12.8713 12.9726 12.588 13.4524 12.4679L15.6085 12.7353L16.1976 13.0849C16.2382 12.9509 16.1289 12.7985 16.1289 12.7985C16.3313 12.6455 17.0235 12.3991 17.5127 12.9032C17.6891 13.0849 17.8364 13.5689 17.8405 13.8209C17.8421 13.9164 17.8327 14.0324 17.9134 14.0848C17.9415 14.1033 17.9758 14.1089 18.0091 14.1161C18.5576 14.2347 18.9469 14.8352 18.8257 15.3757C18.8178 15.4111 18.808 15.4481 18.8137 15.484C18.8231 15.541 18.8699 15.5831 18.91 15.6252C19.1712 15.8977 19.2342 16.3361 19.0609 16.6697C19.0073 16.7729 18.9329 16.8689 18.9141 16.9833C18.8808 17.1876 19.0323 17.3704 19.1499 17.5418C19.5017 18.0572 19.5771 18.8055 19.1644 19.2742C19.064 19.3881 18.9349 19.4898 18.897 19.6361C18.8787 19.7074 18.8845 19.7829 18.885 19.8563C18.8876 20.2304 18.6877 20.6493 18.3167 20.7278C18.1106 20.7715 17.8608 20.7145 17.7146 20.8633C17.6506 20.9285 17.624 21.0194 17.5829 21.1005C17.4278 21.41 17.0308 21.5784 16.6961 21.4767C16.3615 21.3751 16.2507 20.0364 16.2991 19.6946C15.8937 19.5493 15.5939 19.5236 15.6132 19.0986C15.6132 19.0986 15.6756 18.3677 15.5559 18.0115C15.4357 17.6552 15.6767 16.8976 15.814 16.5291C15.9514 16.161 15.7875 15.3038 15.7511 14.9635C15.7448 14.904 15.7563 14.8008 15.7797 14.672V14.6725C15.7797 14.672 15.7797 14.672 15.7802 14.6715C15.7953 14.5888 15.8151 14.4954 15.838 14.3953C15.8463 14.3019 15.8474 14.208 15.8458 14.1207C15.8406 13.7989 15.5122 13.5679 15.2026 13.6705C15.1276 13.6952 15.0496 13.7096 14.9705 13.7116C14.7155 13.7183 14.4605 13.5992 14.3049 13.4006C14.0124 13.708 13.5404 13.8353 13.1303 13.7173C12.9638 13.9462 12.7946 14.1787 12.5729 14.3568C12.3512 14.5349 12.0676 14.6556 11.7835 14.6248C11.7736 14.1366 11.9365 13.6474 12.2368 13.2594Z"
            fill="#263238" />
        <path
            d="M12.4612 13.6397C12.4648 13.6392 12.4586 13.592 12.4659 13.5057C12.4737 13.4205 12.4982 13.2948 12.5762 13.1593C12.6532 13.0253 12.7891 12.8816 12.9889 12.8097C13.1846 12.7373 13.439 12.7353 13.6592 12.8503L13.6748 12.8585L13.6862 12.8451C13.7664 12.7491 13.8663 12.6624 13.9798 12.5916C14.2327 12.4376 14.5262 12.3791 14.7807 12.4119C15.0377 12.4417 15.2506 12.5556 15.4015 12.6763C15.5535 12.7989 15.6466 12.9293 15.7023 13.0222C15.757 13.1167 15.7778 13.1736 15.7819 13.1721C15.7835 13.1716 15.7788 13.1572 15.7689 13.13C15.7601 13.1023 15.7419 13.0638 15.7174 13.0145C15.6654 12.918 15.5748 12.7815 15.4218 12.6532C15.2698 12.5264 15.0523 12.4058 14.7864 12.3724C14.5225 12.3365 14.2191 12.395 13.9569 12.5546C13.8392 12.628 13.7357 12.7178 13.6529 12.8179L13.68 12.8128C13.4463 12.6917 13.1799 12.6963 12.9759 12.7748C12.7672 12.8523 12.6277 13.0058 12.5518 13.1459C12.4742 13.2876 12.4539 13.418 12.4508 13.5052C12.4492 13.5489 12.4513 13.5833 12.4544 13.6058C12.4576 13.6284 12.4596 13.6402 12.4612 13.6397Z"
            fill="#455A64" />
        <path
            d="M17.3782 13.6233C17.3704 13.6274 17.3303 13.5412 17.2278 13.4324C17.1274 13.3246 16.9525 13.1983 16.7282 13.1547C16.5039 13.1116 16.2937 13.1624 16.1589 13.225C16.022 13.2871 15.9523 13.3523 15.9466 13.3451C15.9445 13.3431 15.9596 13.3246 15.9918 13.2959C16.0241 13.2671 16.0746 13.2296 16.1433 13.1937C16.2786 13.1208 16.4998 13.0603 16.7381 13.1065C16.9759 13.1532 17.157 13.2918 17.2543 13.4098C17.3043 13.4694 17.3366 13.5227 17.3553 13.5612C17.374 13.5992 17.3813 13.6218 17.3782 13.6233Z"
            fill="#455A64" />
        <path
            d="M17.2958 17.5525C17.2958 17.5525 17.2239 17.5305 17.1251 17.4417C17.0278 17.3549 16.9122 17.1866 16.8846 16.9505C16.8721 16.8339 16.8815 16.7 16.9372 16.5706C16.9653 16.5065 17.0054 16.4433 17.0522 16.3874C17.097 16.3309 17.1454 16.2734 17.161 16.2057C17.1761 16.1374 17.1495 16.0671 17.098 16.0101C17.0475 15.9516 16.982 15.9013 16.9221 15.8402C16.8607 15.7807 16.8097 15.698 16.7946 15.6087C16.7774 15.5194 16.7858 15.4275 16.8076 15.3392C16.8534 15.1616 16.9492 15.0138 17.009 14.8613C17.0709 14.7104 17.0892 14.5508 17.0715 14.4025C17.0387 14.1027 16.8669 13.8635 16.6775 13.7372C16.487 13.6069 16.2961 13.5678 16.168 13.5601C16.0385 13.5514 15.9666 13.5678 15.9656 13.5622C15.9651 13.5607 15.9828 13.5566 16.0171 13.5504C16.0515 13.5453 16.1025 13.5396 16.1686 13.5412C16.2997 13.5432 16.4975 13.5776 16.6973 13.709C16.8966 13.8363 17.0803 14.0847 17.1173 14.3978C17.137 14.5523 17.1188 14.7217 17.0543 14.8798C16.9924 15.0374 16.8982 15.1852 16.856 15.3515C16.8357 15.4342 16.8284 15.5199 16.8435 15.6C16.8581 15.6811 16.8997 15.7499 16.9575 15.8068C17.0142 15.8653 17.0798 15.9162 17.135 15.9798C17.1912 16.0414 17.2265 16.1323 17.2063 16.2159C17.186 16.2991 17.1318 16.3591 17.0866 16.4151C17.0397 16.4705 17.0033 16.527 16.9757 16.5876C16.9216 16.7087 16.9107 16.8355 16.92 16.9479C16.9419 17.1748 17.048 17.3406 17.1386 17.4288C17.2302 17.5182 17.2994 17.5469 17.2958 17.5525Z"
            fill="#455A64" />
        <path
            d="M17.6459 13.1055C17.6355 13.1126 17.5861 12.9638 17.3951 12.8267C17.3004 12.7616 17.1739 12.6938 17.0225 12.6692C16.871 12.644 16.6962 12.644 16.5244 12.6851C16.4901 12.6933 16.4573 12.7046 16.4271 12.7159L16.398 12.7272L16.3886 12.6984C16.2887 12.3827 16.0779 12.1543 15.9072 12.0291C15.735 11.9008 15.6059 11.8587 15.6101 11.8489C15.6111 11.8458 15.6439 11.8535 15.7011 11.8751C15.7584 11.8967 15.8385 11.9357 15.9301 11.9973C16.1123 12.1179 16.3376 12.3509 16.4438 12.681L16.4053 12.663C16.438 12.6502 16.474 12.6384 16.5104 12.6296C16.693 12.586 16.8731 12.5881 17.0324 12.6173C17.1937 12.6471 17.3233 12.7215 17.4195 12.7944C17.5158 12.8693 17.5751 12.9504 17.6069 13.009C17.6397 13.068 17.649 13.1039 17.6459 13.1055Z"
            fill="#455A64" />
        <path
            d="M13.6675 16.6636C13.7278 16.5758 13.8392 16.524 13.9527 16.5302C14.0312 16.5348 14.1124 16.5681 14.1629 16.6282C14.2134 16.6888 14.2279 16.7776 14.1879 16.8392C14.1426 16.909 14.0416 16.9295 13.9547 16.91C13.8673 16.89 13.7908 16.8381 13.7174 16.7858C13.6971 16.7714 13.6763 16.756 13.6633 16.736C13.6503 16.7155 13.6461 16.6883 13.6602 16.6698"
            fill="#FF9A6C" />
        <path
            d="M14.1059 16.3361C14.0768 16.3361 14.0862 16.5286 13.9254 16.6739C13.7651 16.8196 13.5559 16.8084 13.5553 16.835C13.5533 16.8474 13.6037 16.8705 13.6917 16.8684C13.7781 16.8669 13.903 16.8335 14.0008 16.7447C14.0987 16.6559 14.1372 16.5414 14.1398 16.4619C14.1434 16.3808 14.1195 16.3341 14.1059 16.3361Z"
            fill="#263238" />
        <path
            d="M17.9644 19.8085L16.5166 19.2362C16.5166 19.2362 14.9319 19.8327 14.131 19.7839C13.3306 19.7356 12.5953 19.2362 12.5953 19.2362L10.4242 19.8753L10.2904 22.3555L10.4549 26.5881C10.4549 26.5881 10.0875 28.0197 10.1322 28.5186C10.177 29.0175 10.6323 29.2567 10.6323 29.2567L10.5246 29.8989H17.4403L17.2988 29.2439C17.2988 29.2439 18.2053 29.169 17.9732 27.8246C17.9035 27.4212 17.2712 26.6456 17.5428 25.0103C17.8306 23.2784 17.9644 19.8085 17.9644 19.8085Z"
            fill="#FF725E" />
        <g opacity="0.3">
            <path
                d="M11.1106 24.8476C11.2735 24.5561 11.4561 24.262 11.734 24.0731C12.0255 23.8749 12.3913 23.8144 12.7447 23.8072C13.2703 23.7964 13.8074 23.8965 14.2585 24.1619C14.882 24.5289 15.2822 25.1679 15.635 25.7936C15.9879 26.4193 16.3339 27.0763 16.8996 27.5255L18.0352 28.3483C16.8814 28.5362 15.6413 28.0614 14.9179 27.1554C14.2991 26.3803 14.0311 25.3229 13.2287 24.7347C13.0741 24.6213 12.9018 24.5289 12.7176 24.4734C12.4449 24.3918 12.1311 24.399 11.8943 24.5561C11.5946 24.7552 11.4879 25.1351 11.4109 25.4836C11.185 26.5097 11.0034 27.602 10.3222 28.4083C10.2764 28.4628 10.1947 28.5187 10.1411 28.472C10.114 28.4484 10.1104 28.4083 10.1088 28.3729C10.0547 27.1385 10.5054 25.9302 11.1106 24.8476Z"
                fill="black" />
        </g>
        <path
            d="M10.449 19.8732C10.449 19.8732 9.46442 19.9106 8.93568 22.1594C8.70045 23.1608 7.63362 26.5953 8.15455 27.5993C8.63332 28.5222 9.10169 28.6161 9.71681 28.5627C10.3325 28.5099 11.0839 26.3381 11.0839 26.3381V25.8012L11.6147 24.5785L10.8268 22.7435"
            fill="#FF725E" />
        <path
            d="M10.8269 22.7441C10.8269 22.7441 10.8305 22.7554 10.8393 22.7764C10.8482 22.798 10.8612 22.8293 10.8784 22.8703C10.9138 22.9535 10.9648 23.0751 11.0314 23.2327C11.1662 23.5489 11.3618 24.0078 11.6064 24.5822V24.5755C11.4487 24.9374 11.2697 25.348 11.0735 25.7971L11.0725 25.7992V25.8013C11.0725 25.9686 11.072 26.1508 11.072 26.3382L11.0725 26.3346C10.9616 26.6451 10.8321 26.9669 10.6811 27.2944C10.6057 27.4582 10.5235 27.6229 10.4324 27.7867C10.3413 27.9499 10.2398 28.1121 10.1191 28.2625C10.0577 28.3364 9.99056 28.4078 9.91197 28.4653C9.89272 28.4807 9.8719 28.493 9.85057 28.5043C9.83027 28.5176 9.80685 28.5248 9.78447 28.534C9.7621 28.5438 9.73764 28.5443 9.71422 28.5499L9.63928 28.5551C9.53936 28.5618 9.43788 28.5643 9.33692 28.5556C9.28644 28.553 9.23648 28.5443 9.186 28.5366C9.13656 28.5248 9.08609 28.5156 9.03873 28.4971C8.84305 28.435 8.67548 28.3041 8.53601 28.1506C8.39654 27.9956 8.28413 27.8154 8.18526 27.6281C8.115 27.5008 8.07805 27.3601 8.05567 27.219C8.03226 27.0773 8.02861 26.9341 8.02601 26.7924C8.02653 26.5086 8.05255 26.2293 8.08742 25.9568C8.15924 25.4112 8.26748 24.8902 8.37937 24.3964C8.4923 23.9026 8.61303 23.437 8.72804 23.0012C8.78529 22.7831 8.84045 22.5726 8.89353 22.3704C8.94297 22.1666 8.99397 21.9731 9.04237 21.7878C9.15114 21.4208 9.27603 21.0969 9.41759 20.8269C9.55758 20.5564 9.71994 20.3454 9.87346 20.1961C10.0275 20.0457 10.1753 19.9605 10.2809 19.9184C10.3075 19.9081 10.3314 19.9004 10.3517 19.8932C10.3725 19.8881 10.3902 19.8835 10.4043 19.8799C10.4329 19.8742 10.448 19.8722 10.448 19.8722C10.448 19.8722 10.4444 19.8722 10.4365 19.8727C10.4287 19.8737 10.4178 19.8753 10.4038 19.8773C10.3892 19.8809 10.3715 19.885 10.3507 19.8896C10.3304 19.8963 10.3059 19.9035 10.2789 19.9138C10.1722 19.9543 10.0223 20.039 9.86618 20.1889C9.71006 20.3383 9.54561 20.5492 9.40405 20.8202C9.26094 21.0902 9.13396 21.4152 9.02364 21.7827C8.9742 21.968 8.92268 22.1625 8.87272 22.3653C8.81912 22.5675 8.76343 22.778 8.70619 22.9956C8.59065 23.4309 8.46888 23.8969 8.35491 24.3907C8.24198 24.8845 8.1327 25.406 8.06088 25.9532C8.02549 26.2268 7.99947 26.507 7.99895 26.7924C8.00155 26.9351 8.00467 27.0794 8.02861 27.2226C8.05099 27.3653 8.08898 27.51 8.1608 27.6404C8.26072 27.8293 8.37365 28.011 8.5152 28.1686C8.65623 28.3241 8.82848 28.4586 9.02936 28.5222C9.07828 28.5412 9.1298 28.5505 9.18028 28.5628C9.2318 28.5705 9.2828 28.5797 9.33432 28.5823C9.43684 28.591 9.53936 28.5879 9.64032 28.5818L9.71578 28.5766C9.74128 28.571 9.76834 28.5695 9.79176 28.5597C9.8157 28.5505 9.84068 28.5422 9.86202 28.5284C9.88439 28.5161 9.90625 28.5032 9.92602 28.4873C10.0072 28.4278 10.0754 28.3549 10.1378 28.28C10.2606 28.1275 10.3621 27.9643 10.4532 27.8C10.5448 27.6358 10.627 27.4705 10.7025 27.3062C10.8534 26.9772 10.9825 26.6549 11.0933 26.3433L11.0938 26.3418V26.3397C11.0938 26.1523 11.0933 25.9701 11.0933 25.8028L11.0923 25.8069C11.2869 25.3567 11.4644 24.9456 11.621 24.5837L11.6226 24.5801L11.621 24.5765C11.3733 24.0037 11.175 23.5458 11.0387 23.2302C10.9705 23.0736 10.9174 22.952 10.8815 22.8693C10.8633 22.8288 10.8498 22.798 10.8404 22.7764C10.8326 22.7543 10.8269 22.7441 10.8269 22.7441Z"
            fill="#263238" />
        <path
            d="M10.449 21.158C10.4469 21.1585 10.4516 21.1857 10.4615 21.2355C10.4719 21.2899 10.4859 21.3602 10.5026 21.4444C10.5354 21.621 10.5765 21.8663 10.589 22.1399C10.6015 22.4135 10.578 22.6614 10.5494 22.8385C10.5348 22.9273 10.5213 22.9986 10.5104 23.0474C10.5 23.0967 10.4953 23.1239 10.4969 23.1244C10.4984 23.1249 10.5067 23.0982 10.5203 23.0495C10.5343 23.0012 10.5505 22.9299 10.5676 22.8411C10.6015 22.664 10.628 22.414 10.6155 22.1384C10.6025 21.8627 10.5583 21.6163 10.5208 21.4403C10.5015 21.352 10.4844 21.2812 10.4714 21.2324C10.4589 21.1841 10.4505 21.1575 10.449 21.158Z"
            fill="#263238" />
        <path
            d="M17.5331 19.8804C17.7178 19.7593 17.7678 19.4775 17.6835 19.265C17.5992 19.0525 17.4097 18.9047 17.2088 18.8179C16.8758 18.6742 16.5026 18.6737 16.1472 18.726C15.4332 18.8307 14.7489 19.1413 14.1738 19.6043C13.6092 19.1361 12.9852 18.7481 12.3248 18.4545C12.1728 18.3867 12.0022 18.3236 11.8466 18.3821C11.7144 18.4319 11.6212 18.5628 11.5749 18.704C11.5291 18.8451 11.5239 18.9965 11.5192 19.1459C11.5124 19.3615 11.5166 19.6068 11.6675 19.7506C11.7648 19.843 11.9012 19.8696 12.0297 19.8922C12.955 20.056 13.9037 20.2197 14.8249 20.0313C15.2776 19.9389 15.7127 19.7634 16.1665 19.6787C16.6203 19.5935 17.0709 19.805 17.5331 19.8804Z"
            fill="#FF725E" />
        <path
            d="M9.27423 21.7294C9.27267 21.734 9.3575 21.7637 9.4876 21.8253C9.6177 21.8869 9.79152 21.985 9.96482 22.1195C10.1376 22.2545 10.2745 22.3987 10.365 22.5096C10.4561 22.6204 10.505 22.6949 10.5086 22.6923C10.5102 22.6913 10.4993 22.6718 10.4779 22.6379C10.4571 22.6035 10.4238 22.5552 10.3796 22.4983C10.2922 22.3838 10.1558 22.2355 9.98095 22.0989C9.80609 21.9629 9.62811 21.8659 9.49489 21.8084C9.42827 21.7797 9.37311 21.7586 9.3346 21.7463C9.29661 21.734 9.27527 21.7278 9.27423 21.7294Z"
            fill="#263238" />
        <path
            d="M14.1147 19.8794C14.1153 19.8789 14.109 19.8692 14.096 19.8512C14.083 19.8332 14.0627 19.8076 14.0356 19.7758C13.9805 19.7131 13.8967 19.6213 13.7655 19.5422C13.7328 19.5227 13.6974 19.5042 13.6583 19.4888C13.6391 19.4806 13.6188 19.4729 13.5954 19.4698C13.5725 19.4668 13.5444 19.4719 13.5256 19.4899C13.4882 19.5258 13.4871 19.5874 13.5152 19.6295C13.5423 19.6731 13.5844 19.7013 13.6245 19.7306C13.7895 19.8456 14.0081 19.9241 14.2428 19.9236C14.4775 19.9236 14.696 19.8435 14.86 19.728C14.8797 19.7131 14.9011 19.7003 14.9193 19.6798C14.9281 19.6695 14.9359 19.6567 14.9375 19.6418C14.9396 19.6269 14.9349 19.6115 14.925 19.5997C14.9047 19.5771 14.8771 19.573 14.8537 19.5704C14.8287 19.5679 14.8053 19.573 14.7835 19.5761C14.6945 19.5925 14.6159 19.6207 14.5456 19.649C14.4051 19.7065 14.2979 19.766 14.2251 19.8081C14.1886 19.8291 14.1605 19.8466 14.1423 19.8589C14.1241 19.8717 14.1142 19.8784 14.1147 19.8794C14.1153 19.8805 14.1257 19.8748 14.1449 19.864C14.1668 19.8522 14.1954 19.8368 14.2303 19.8178C14.3047 19.7788 14.4129 19.7224 14.5529 19.6674C14.6227 19.6408 14.7012 19.6136 14.7876 19.5987C14.8095 19.5956 14.8308 19.5915 14.8522 19.594C14.873 19.5961 14.8959 19.6017 14.9073 19.6156C14.9188 19.629 14.9162 19.6495 14.9011 19.6649C14.887 19.6808 14.8657 19.6941 14.8459 19.7085C14.6846 19.8199 14.4712 19.8974 14.2428 19.8974C14.0143 19.8979 13.8009 19.822 13.6391 19.7111C13.599 19.6828 13.5589 19.6551 13.5355 19.6177C13.5111 19.5822 13.5137 19.533 13.5412 19.5063C13.5693 19.4791 13.6141 19.4929 13.6505 19.5078C13.6885 19.5222 13.7234 19.5402 13.7557 19.5586C13.8847 19.6341 13.9701 19.7224 14.0273 19.7829C14.0559 19.8137 14.0767 19.8384 14.0913 19.8548C14.1064 19.8712 14.1142 19.88 14.1147 19.8794Z"
            fill="#263238" />
        <path
            d="M14.3406 21.7904C14.3427 21.7904 14.3448 21.7637 14.3468 21.7144C14.3494 21.6657 14.3505 21.5948 14.35 21.5076C14.3494 21.3325 14.3385 21.0908 14.3073 20.8259C14.2761 20.5605 14.2303 20.3229 14.1897 20.1525C14.1699 20.0673 14.1522 19.999 14.1382 19.9518C14.1246 19.9046 14.1163 19.8789 14.1142 19.8794C14.1127 19.8799 14.1173 19.9066 14.1278 19.9543C14.1387 20.0067 14.1533 20.075 14.1709 20.1566C14.2063 20.3275 14.249 20.5646 14.2802 20.829C14.3115 21.0933 14.325 21.3336 14.3307 21.5081C14.3328 21.5912 14.3344 21.661 14.3359 21.7144C14.3375 21.7632 14.3385 21.7904 14.3406 21.7904Z"
            fill="#263238" />
        <path
            d="M13.573 20.9691C13.5766 20.9707 13.6011 20.9163 13.6401 20.8285C13.6823 20.733 13.7343 20.6155 13.7916 20.4856C13.8504 20.3563 13.9035 20.2392 13.9461 20.1438C13.9857 20.0565 14.0096 20.0016 14.006 20C14.0029 19.9985 13.9727 20.0498 13.9284 20.1355C13.8842 20.2213 13.8259 20.3403 13.7661 20.4748C13.7062 20.6088 13.6557 20.732 13.6219 20.8218C13.5881 20.9111 13.5694 20.9681 13.573 20.9691Z"
            fill="#263238" />
        <path
            d="M14.5006 20C14.5011 20.001 14.5115 19.9969 14.5308 19.9892C14.5526 19.98 14.5802 19.9687 14.6146 19.9543C14.6505 19.9384 14.6952 19.9199 14.7478 19.9004C14.8004 19.8809 14.8592 19.8563 14.9263 19.8347C14.9929 19.8116 15.0663 19.787 15.1459 19.7649C15.225 19.7403 15.3114 19.7203 15.4019 19.6977C15.5841 19.6566 15.786 19.6212 16.0004 19.5991C16.2148 19.5786 16.4204 19.5745 16.6067 19.5791C16.6998 19.5837 16.7883 19.5863 16.8711 19.595C16.9538 19.6012 17.0303 19.6109 17.1006 19.6207C17.1708 19.6284 17.2333 19.6412 17.289 19.65C17.3446 19.6587 17.392 19.6684 17.4305 19.6766C17.4669 19.6838 17.4966 19.69 17.52 19.6946C17.5403 19.6982 17.5512 19.6997 17.5518 19.6992C17.5518 19.6982 17.5414 19.6951 17.5216 19.6895C17.4987 19.6833 17.4695 19.6761 17.4331 19.6669C17.3946 19.6566 17.3478 19.6458 17.2921 19.6356C17.2369 19.6253 17.1739 19.6109 17.1037 19.6022C17.0334 19.5914 16.9569 19.5801 16.8737 19.5735C16.7909 19.5637 16.7019 19.5601 16.6083 19.555C16.4209 19.5488 16.2143 19.5529 15.9983 19.5735C15.7829 19.5955 15.5794 19.6325 15.3973 19.6746C15.3067 19.6982 15.2198 19.7187 15.1407 19.7449C15.0606 19.768 14.9877 19.7937 14.9211 19.8183C14.854 19.8409 14.7952 19.8671 14.7431 19.8876C14.6911 19.9081 14.6468 19.9287 14.6114 19.9456C14.5781 19.9615 14.5511 19.9749 14.5297 19.9851C14.5094 19.9939 14.5001 19.999 14.5006 20Z"
            fill="#263238" />
        <path
            d="M11.6905 19.4421C11.69 19.4436 11.7202 19.4554 11.7759 19.4744C11.8316 19.4939 11.9127 19.5201 12.0132 19.5504C12.2146 19.612 12.4956 19.6885 12.8094 19.7572C13.1237 19.826 13.411 19.8738 13.6197 19.902C13.7243 19.9164 13.8086 19.9261 13.8674 19.9318C13.9262 19.9374 13.9585 19.94 13.959 19.9379C13.959 19.9359 13.9272 19.9302 13.869 19.9215C13.8065 19.9117 13.7232 19.8989 13.6228 19.883C13.4152 19.8502 13.1289 19.7993 12.8151 19.7311C12.5018 19.6623 12.2208 19.5889 12.0184 19.5319C11.9205 19.5042 11.8399 19.4811 11.779 19.4642C11.7228 19.4482 11.6916 19.44 11.6905 19.4421Z"
            fill="#263238" />
        <path
            d="M10.1266 23.59C10.1266 23.59 10.9077 22.5681 11.1507 22.4541C11.3938 22.3402 13.0721 21.601 13.2095 21.5384C13.3469 21.4758 13.5425 21.5738 13.5025 21.6498C13.4629 21.7257 13.3463 21.9028 13.3463 21.9028L13.6222 21.7781L13.8423 22.4541C13.8423 22.4541 13.033 23.4673 12.7989 23.7486C12.5647 24.0299 11.6149 24.247 11.6149 24.247L11.4291 24.6146C10.4976 24.5766 10.1266 23.59 10.1266 23.59Z"
            fill="#FFBF9D" />
        <path
            d="M14.3423 23.182C14.3423 23.182 14.1138 22.2621 14.0082 22.0856C13.9025 21.9085 13.4805 21.4193 13.4274 21.2422C13.3748 21.0651 13.3884 20.9296 13.3129 20.9091C13.2375 20.8886 13.0475 21.0651 13.0475 21.2525C13.0475 21.4398 13.3129 22.0024 13.3129 22.0024C13.3129 22.0024 12.4032 21.6693 12.129 21.5754C11.8547 21.4814 11.0731 21.4506 11.0731 21.4506C11.0731 21.4506 10.9466 21.638 11.1152 21.7632L10.6932 21.7216C10.6932 21.7216 10.651 21.9506 10.7884 22.0132L10.5563 21.9506C10.5563 21.9506 10.3981 22.2006 10.7254 22.3463L10.8207 22.3879C10.8207 22.3879 10.7046 22.565 10.8524 22.6897C11.0002 22.8145 11.6231 23.106 11.7288 23.221C11.8344 23.3354 12.4678 23.9288 12.7634 24.0227C13.059 24.1167 13.5003 24.3261 13.5003 24.3261L14.3423 23.182Z"
            fill="#FFBF9D" />
        <path
            d="M14.3422 23.182C14.3422 23.182 14.3365 23.1886 14.3266 23.2015C14.3162 23.2153 14.3016 23.2343 14.2829 23.2595C14.2443 23.3113 14.1876 23.3863 14.1148 23.4833C13.9691 23.6794 13.7578 23.9637 13.4924 24.3205L13.5028 24.3179C13.3061 24.226 13.0885 24.1275 12.845 24.0397C12.7836 24.0176 12.7211 24.0012 12.6639 23.9673C12.6051 23.937 12.5489 23.8996 12.4921 23.8611C12.3797 23.7825 12.2684 23.6942 12.157 23.5998C12.0456 23.5054 11.9337 23.4053 11.8229 23.2985C11.7953 23.2718 11.7677 23.2446 11.7412 23.2169C11.7126 23.1881 11.6798 23.164 11.6465 23.1425C11.5799 23.0988 11.5101 23.0588 11.4393 23.0187C11.2983 22.9392 11.1516 22.8622 11.0069 22.777C10.971 22.7554 10.9351 22.7334 10.9002 22.7097C10.8659 22.6856 10.8336 22.66 10.8138 22.6251C10.7717 22.5558 10.7883 22.4634 10.8305 22.3941L10.8383 22.3812L10.8247 22.3751C10.7389 22.3356 10.6416 22.3037 10.5812 22.2267C10.551 22.1898 10.5323 22.1441 10.5307 22.0958C10.5291 22.0481 10.5432 21.9983 10.5666 21.9567L10.5515 21.9624C10.6244 21.9819 10.704 22.0035 10.7836 22.025L10.9085 22.0589L10.7925 22.0004C10.7711 21.9896 10.7524 21.9742 10.7378 21.9542C10.7238 21.9336 10.7144 21.9095 10.7082 21.8839C10.6962 21.833 10.6967 21.7766 10.705 21.7232L10.6905 21.734C10.8247 21.7473 10.9679 21.7612 11.1125 21.7755L11.1547 21.7797L11.1219 21.7514L11.1203 21.7499C11.0761 21.7165 11.0433 21.6678 11.0402 21.6128C11.036 21.5589 11.0542 21.5025 11.0829 21.4568L11.0709 21.463C11.2775 21.4722 11.481 21.4866 11.6808 21.5081C11.7807 21.5189 11.8796 21.5322 11.9759 21.5507C12.0243 21.56 12.0716 21.5713 12.1174 21.5856C12.1638 21.6021 12.2095 21.6185 12.2553 21.6349C12.6207 21.7663 12.9725 21.8931 13.3066 22.0132L13.3347 22.0235L13.3222 21.9968C13.2629 21.87 13.2087 21.7432 13.1598 21.618C13.1354 21.5553 13.1135 21.4927 13.0937 21.4301C13.0755 21.368 13.0557 21.3043 13.0573 21.2427C13.0594 21.1806 13.0818 21.1211 13.114 21.0693C13.1463 21.0174 13.1884 20.9707 13.2384 20.9389C13.2629 20.9245 13.2925 20.9106 13.3149 20.9209C13.3383 20.9307 13.3503 20.9589 13.3581 20.9861C13.3732 21.0421 13.3805 21.1006 13.3935 21.157C13.3997 21.1853 13.407 21.2135 13.4148 21.2407C13.4195 21.2546 13.4252 21.2679 13.4304 21.2818L13.4497 21.3197C13.4773 21.369 13.5069 21.4162 13.5382 21.4604C13.5996 21.5502 13.6631 21.6339 13.7239 21.714C13.7848 21.794 13.8436 21.871 13.8998 21.9449C13.955 22.0194 14.0086 22.0897 14.0372 22.1677C14.0981 22.3227 14.1397 22.4675 14.1772 22.5922C14.2136 22.7174 14.2433 22.8247 14.2672 22.912C14.2907 22.9987 14.3089 23.0655 14.3214 23.1117C14.3276 23.1337 14.3318 23.1507 14.3354 23.163C14.3401 23.1763 14.3417 23.1815 14.3422 23.182C14.3427 23.182 14.3411 23.1758 14.3385 23.164C14.3354 23.1517 14.3318 23.1342 14.3266 23.1122C14.3151 23.0655 14.298 22.9987 14.2761 22.9115C14.2532 22.8237 14.2251 22.7164 14.1892 22.5907C14.1528 22.4654 14.1127 22.3207 14.0523 22.1636C14.0237 22.0835 13.9691 22.0106 13.9144 21.9367C13.8587 21.8628 13.8004 21.7853 13.7396 21.7047C13.6792 21.6241 13.6162 21.5405 13.5553 21.4511C13.495 21.3608 13.4315 21.2689 13.4148 21.1534C13.4023 21.0975 13.3956 21.0395 13.3794 20.981C13.3711 20.9527 13.3586 20.9178 13.3243 20.9024C13.3081 20.8942 13.2878 20.8963 13.2722 20.9009C13.2561 20.906 13.2415 20.9132 13.228 20.9214C13.1739 20.9558 13.1302 21.0041 13.0958 21.0585C13.062 21.1129 13.0375 21.176 13.0354 21.2427C13.0339 21.3105 13.0542 21.3736 13.0724 21.4373C13.0922 21.5004 13.114 21.5636 13.1385 21.6267C13.1869 21.753 13.2415 21.8792 13.3008 22.007L13.3165 21.9906C12.9824 21.87 12.6306 21.7427 12.2652 21.6108C12.2194 21.5944 12.1736 21.5779 12.1273 21.5615C12.0794 21.5466 12.031 21.5348 11.9821 21.5256C11.8843 21.5066 11.7849 21.4937 11.685 21.4825C11.4846 21.4609 11.2806 21.4465 11.073 21.4368L11.0652 21.4363L11.0615 21.4424C11.0298 21.4943 11.0105 21.5533 11.0147 21.6154C11.0178 21.678 11.0563 21.735 11.1052 21.7714L11.1068 21.773L11.1162 21.7489C10.9715 21.7345 10.8279 21.7206 10.6941 21.7073L10.6811 21.7063L10.6795 21.7186C10.6707 21.7761 10.6702 21.8341 10.6832 21.89C10.69 21.9177 10.7004 21.9449 10.7165 21.9691C10.7331 21.9927 10.7566 22.0117 10.7821 22.0245L10.7914 21.9999C10.7113 21.9783 10.6322 21.9573 10.5593 21.9372L10.5494 21.9347L10.5448 21.9429C10.5177 21.9906 10.5036 22.043 10.5047 22.0969C10.5063 22.1508 10.5276 22.2026 10.5609 22.2432C10.5765 22.2642 10.5973 22.2806 10.6166 22.2976C10.6384 22.3114 10.6582 22.3279 10.6811 22.3381C10.7259 22.3622 10.7706 22.3792 10.8143 22.3992L10.8086 22.3802C10.7847 22.4197 10.7701 22.4623 10.7649 22.507C10.7592 22.5516 10.7685 22.5989 10.7914 22.6379C10.8143 22.6779 10.8508 22.7062 10.8856 22.7303C10.921 22.7544 10.9574 22.777 10.9939 22.7985C11.1396 22.8843 11.2863 22.9607 11.4274 23.0398C11.4976 23.0793 11.5674 23.1188 11.6329 23.162C11.6662 23.183 11.6969 23.2061 11.7235 23.2328C11.7505 23.2615 11.7786 23.2882 11.8062 23.3154C11.9176 23.4222 12.03 23.5223 12.1419 23.6167C12.2538 23.7112 12.3657 23.7995 12.4796 23.8785C12.5369 23.9175 12.5941 23.9545 12.654 23.9853C12.7128 24.0192 12.7789 24.0366 12.8382 24.0582C13.0807 24.1444 13.2988 24.2419 13.4955 24.3328L13.5017 24.3359L13.5059 24.3302C13.7687 23.9704 13.9789 23.6835 14.1231 23.4858C14.1939 23.3878 14.249 23.3124 14.287 23.26C14.3052 23.2348 14.3188 23.2153 14.3287 23.2015C14.338 23.1886 14.3422 23.182 14.3422 23.182Z"
            fill="#FF9A6C" />
        <path
            d="M11.1153 21.7627C11.1153 21.7648 11.1367 21.7673 11.1762 21.7714C11.2152 21.775 11.272 21.7807 11.3412 21.7899C11.4801 21.8074 11.6716 21.8397 11.8777 21.8951C11.9808 21.9234 12.077 21.9552 12.1639 21.9865C12.2503 22.0199 12.3274 22.0507 12.3898 22.0815C12.5163 22.141 12.5896 22.1872 12.5922 22.1831C12.5933 22.1815 12.5756 22.1687 12.5428 22.1472C12.5267 22.1359 12.5059 22.1235 12.4819 22.1097C12.458 22.0958 12.4304 22.0799 12.3986 22.064C12.3367 22.0306 12.2597 21.9973 12.1728 21.9629C12.0859 21.9295 11.9886 21.8972 11.8845 21.8684C11.6768 21.812 11.4832 21.7827 11.3433 21.7699C11.273 21.7632 11.2163 21.7601 11.1767 21.7601C11.1372 21.7601 11.1158 21.7606 11.1153 21.7627Z"
            fill="#FF9A6C" />
        <path
            d="M12.143 22.4782C12.1441 22.4767 12.129 22.4643 12.1003 22.4433C12.0722 22.4217 12.029 22.394 11.9744 22.3612C11.8656 22.296 11.7059 22.2195 11.5211 22.1605C11.3359 22.1014 11.1631 22.0681 11.0377 22.0486C10.9747 22.0388 10.9237 22.0321 10.8888 22.0286C10.8534 22.025 10.8337 22.0239 10.8337 22.0255C10.8331 22.0275 10.8524 22.0321 10.8873 22.0388C10.9279 22.0465 10.9768 22.0558 11.0345 22.067C11.1589 22.0912 11.3296 22.1276 11.5133 22.1856C11.6965 22.2441 11.8552 22.317 11.9656 22.3771C12.0759 22.4382 12.1404 22.4818 12.143 22.4782Z"
            fill="#FF9A6C" />
        <path
            d="M10.8657 22.351C10.8652 22.3551 10.935 22.3674 11.0453 22.3951C11.1556 22.4229 11.3065 22.4696 11.4647 22.5404C11.6229 22.6112 11.7577 22.6929 11.8514 22.7565C11.9456 22.8202 12.0002 22.8643 12.0034 22.8607C12.0044 22.8592 11.9919 22.8468 11.968 22.8258C11.9446 22.8042 11.9081 22.775 11.8623 22.7411C11.7707 22.6728 11.6354 22.5881 11.4757 22.5163C11.3154 22.4449 11.1619 22.4003 11.0494 22.3772C10.9932 22.3654 10.9474 22.3577 10.9152 22.3546C10.884 22.3505 10.8663 22.3489 10.8657 22.351Z"
            fill="#FF9A6C" />
        <path
            d="M17.94 19.8466C17.9952 19.8645 18.1446 19.8999 18.6202 20.3178C19.0194 20.6689 19.2754 21.331 19.4341 21.9326C19.5882 22.5157 19.6662 23.1152 19.6792 23.7178C19.6969 24.5355 19.7297 26.0549 19.7318 26.2396C19.7355 26.6164 19.7703 28.0408 18.0363 28.2266C16.8108 28.358 14.7598 26.4773 14.6682 26.1693C14.5761 25.8613 14.4778 25.4025 14.4778 25.4025L13.3636 24.4159L14.3929 23.0197L17.2968 24.7506L16.9383 22.5121"
            fill="#FF725E" />
        <path
            d="M16.9382 22.5116C16.9382 22.5116 16.9397 22.5244 16.9434 22.5501C16.947 22.5763 16.9527 22.6137 16.9606 22.663C16.9762 22.7631 16.9991 22.9104 17.0287 23.1019C17.0891 23.4858 17.1776 24.0453 17.2889 24.7511L17.3009 24.7434C16.5239 24.2789 15.5357 23.6891 14.3986 23.0095L14.3897 23.0038L14.3835 23.012C14.0603 23.4499 13.7142 23.9185 13.3531 24.4077L13.3463 24.4169L13.3546 24.4246C13.709 24.7388 14.0837 25.0704 14.4683 25.4117L14.4642 25.4045C14.5141 25.6319 14.5677 25.8629 14.6322 26.0949C14.6406 26.1241 14.6479 26.1524 14.6588 26.1821C14.6702 26.2129 14.6879 26.2381 14.7051 26.2638C14.74 26.3146 14.78 26.3613 14.8201 26.408C14.9013 26.5004 14.9887 26.5882 15.0782 26.6744C15.4389 27.0173 15.8401 27.3355 16.2752 27.6173C16.6207 27.838 16.9819 28.0336 17.367 28.1542C17.559 28.2127 17.7583 28.2533 17.9587 28.2441C18.1575 28.2317 18.3516 28.1953 18.5384 28.1383C18.7242 28.0803 18.9027 27.9997 19.0583 27.8878C19.1364 27.8329 19.2082 27.7698 19.2743 27.7025C19.3388 27.6332 19.3987 27.5609 19.4491 27.4823C19.6547 27.1677 19.7307 26.7986 19.7427 26.4475C19.7484 26.2709 19.7401 26.0975 19.7375 25.926C19.7338 25.7546 19.7302 25.5852 19.7265 25.4189C19.7192 25.0852 19.7125 24.7619 19.7057 24.4488C19.6979 24.1356 19.6948 23.8338 19.6839 23.5428C19.6708 23.2523 19.6433 22.9741 19.6037 22.7102C19.523 22.1831 19.3971 21.7144 19.2462 21.3182C19.0953 20.9224 18.9079 20.599 18.6966 20.384C18.5884 20.2788 18.4843 20.1961 18.3943 20.1232C18.3037 20.0514 18.2241 19.9939 18.157 19.9513C18.0898 19.9087 18.0362 19.8809 17.9983 19.8661C17.9603 19.8512 17.94 19.8466 17.94 19.8466C17.94 19.8466 17.9446 19.8486 17.9545 19.8522C17.9644 19.8558 17.979 19.8604 17.9972 19.8686C18.0347 19.8845 18.0878 19.9128 18.1544 19.9559C18.2205 19.999 18.2996 20.057 18.3896 20.1294C18.4786 20.2028 18.5832 20.2865 18.6894 20.3912C18.898 20.6057 19.0833 20.9281 19.2321 21.3233C19.3815 21.7191 19.5054 22.1867 19.585 22.7128C19.624 22.9756 19.6511 23.2533 19.663 23.5433C19.6734 23.8333 19.676 24.1356 19.6833 24.4488C19.6896 24.7619 19.6963 25.0852 19.7026 25.4189C19.7057 25.5857 19.7094 25.7546 19.713 25.926C19.7151 26.0975 19.7234 26.2715 19.7177 26.4465C19.7057 26.795 19.6297 27.1595 19.4273 27.4685C19.3779 27.5455 19.3185 27.6173 19.2556 27.6851C19.1905 27.7513 19.1197 27.8129 19.0427 27.8673C18.8897 27.9771 18.7138 28.0567 18.5301 28.1137C18.3459 28.1696 18.1523 28.2056 17.9571 28.2179C17.7615 28.2271 17.5647 28.1871 17.3748 28.1291C16.9939 28.01 16.6343 27.8155 16.2897 27.5952C15.8562 27.3145 15.4561 26.9973 15.097 26.6559C15.0075 26.5702 14.9211 26.4829 14.8404 26.3916C14.8009 26.3454 14.7608 26.2997 14.727 26.2499C14.7103 26.2253 14.6937 26.2001 14.6838 26.1739C14.6739 26.1472 14.6661 26.117 14.6577 26.0882C14.5932 25.8572 14.5396 25.6268 14.4897 25.3994L14.4886 25.3953L14.4855 25.3927C14.1004 25.0519 13.7252 24.7203 13.3708 24.4067L13.3723 24.4231C13.733 23.9334 14.078 23.4648 14.4007 23.0264L14.3856 23.0295C15.5242 23.7065 16.5135 24.2948 17.2915 24.7572L17.3061 24.766L17.3035 24.749C17.189 24.0433 17.0979 23.4843 17.036 23.1008C17.0043 22.9099 16.9803 22.7626 16.9637 22.6625C16.9553 22.6132 16.9491 22.5757 16.9444 22.5496C16.9408 22.5244 16.9382 22.5116 16.9382 22.5116Z"
            fill="#263238" />
        <path
            d="M18.8945 20.9071C18.894 20.906 18.8857 20.9091 18.8695 20.9153C18.8508 20.923 18.8274 20.9322 18.7998 20.9435C18.7696 20.9558 18.7327 20.9712 18.691 20.9923C18.6494 21.0128 18.601 21.0349 18.5505 21.0641C18.499 21.0924 18.4433 21.1232 18.3855 21.1606C18.3262 21.196 18.2669 21.2386 18.2034 21.2833C18.079 21.3752 17.9479 21.4835 17.8209 21.6087C17.695 21.735 17.5857 21.8654 17.4936 21.9886C17.4493 22.0517 17.4061 22.1107 17.3707 22.1692C17.3333 22.2262 17.3021 22.2822 17.274 22.333C17.2443 22.3833 17.223 22.431 17.2021 22.4721C17.1813 22.5132 17.1652 22.5496 17.1532 22.5799C17.1418 22.6076 17.1329 22.6302 17.1251 22.6492C17.1189 22.6651 17.1163 22.6738 17.1168 22.6738C17.1178 22.6743 17.122 22.6661 17.1298 22.6512C17.1386 22.6333 17.1496 22.6112 17.1626 22.584C17.1761 22.5547 17.1933 22.5188 17.2151 22.4788C17.237 22.4382 17.2599 22.3915 17.2901 22.3422C17.3192 22.2924 17.351 22.2375 17.389 22.1816C17.4249 22.1236 17.4686 22.0656 17.5128 22.0035C17.6055 21.8818 17.7142 21.753 17.8391 21.6277C17.9651 21.5035 18.0946 21.3952 18.2175 21.3033C18.2799 21.2587 18.3387 21.2155 18.397 21.1796C18.4537 21.1416 18.5089 21.1098 18.5594 21.0805C18.6093 21.0503 18.6567 21.0277 18.6973 21.0056C18.7379 20.9835 18.7738 20.9666 18.8034 20.9527C18.8305 20.9399 18.8529 20.9286 18.8711 20.9199C18.8872 20.9122 18.895 20.9076 18.8945 20.9071Z"
            fill="#263238" />
        <path
            d="M15.7828 23.8118C15.7807 23.8113 15.7729 23.839 15.7578 23.8883C15.7427 23.9375 15.7183 24.0084 15.6824 24.0931C15.6111 24.263 15.4825 24.4857 15.304 24.7049C15.1255 24.9241 14.9403 25.1027 14.8065 25.2321C14.742 25.2942 14.6884 25.3455 14.6478 25.385C14.6103 25.4215 14.5905 25.442 14.5916 25.4435C14.5926 25.4451 14.6155 25.4266 14.6551 25.3927C14.6946 25.3588 14.7513 25.3091 14.82 25.2459C14.9574 25.1202 15.1458 24.9431 15.3254 24.7218C15.5054 24.5011 15.6329 24.2737 15.7001 24.1002C15.7344 24.0135 15.7557 23.9416 15.7682 23.8908C15.775 23.8657 15.7781 23.8457 15.7807 23.8323C15.7828 23.819 15.7838 23.8118 15.7828 23.8118Z"
            fill="#263238" />
        <path
            d="M8.17773 26.291C8.18085 26.291 8.18137 26.2381 8.19386 26.1432C8.20583 26.0487 8.23393 25.9117 8.30783 25.7577C8.37965 25.6027 8.5009 25.4363 8.65078 25.2659C8.72676 25.1807 8.80586 25.0914 8.88861 24.999C8.9292 24.9523 8.97187 24.9056 9.01195 24.8543C9.05202 24.8035 9.08897 24.7496 9.1254 24.6952C9.27007 24.4749 9.39132 24.2563 9.5105 24.0628C9.62863 23.8693 9.7426 23.6983 9.85657 23.57C9.96898 23.4412 10.0866 23.3585 10.1808 23.3365C10.275 23.3139 10.3286 23.3365 10.3291 23.3313C10.3291 23.3303 10.3161 23.3272 10.2911 23.3221C10.2656 23.318 10.2271 23.3159 10.1787 23.3262C10.0809 23.3457 9.95857 23.4283 9.84252 23.5572C9.72543 23.6855 9.60938 23.8559 9.48916 24.0494C9.36843 24.2424 9.24665 24.4611 9.10302 24.6798C9.06659 24.7342 9.03016 24.7875 8.99061 24.8373C8.9521 24.8871 8.90943 24.9343 8.86883 24.9811C8.78661 25.074 8.70647 25.1628 8.63205 25.2495C8.48269 25.4215 8.36091 25.5909 8.29066 25.7495C8.2178 25.907 8.1923 26.0467 8.18345 26.1416C8.17669 26.1894 8.17877 26.2268 8.17721 26.252C8.17669 26.2776 8.17721 26.291 8.17773 26.291Z"
            fill="#263238" />
        <path
            d="M10.1176 23.4714C10.116 23.472 10.1207 23.4986 10.1327 23.5459C10.1452 23.5931 10.167 23.6603 10.2024 23.7409C10.2721 23.9006 10.4059 24.1115 10.6146 24.284C10.8232 24.457 11.0564 24.5509 11.2281 24.5909C11.3145 24.6115 11.3853 24.6212 11.4347 24.6253C11.4842 24.6294 11.5112 24.6289 11.5112 24.6274C11.5112 24.6253 11.4842 24.6222 11.4358 24.6151C11.3874 24.6079 11.3171 24.5956 11.2328 24.573C11.0642 24.5288 10.8368 24.4339 10.6317 24.264C10.4272 24.0941 10.293 23.8893 10.2196 23.7332C10.1826 23.6552 10.1576 23.589 10.1426 23.5433C10.1275 23.4971 10.1197 23.4709 10.1176 23.4714Z"
            fill="#263238" />
        <path
            d="M9.24422 24.75C9.24318 24.75 9.24422 24.7582 9.24734 24.7731C9.25046 24.788 9.25358 24.8106 9.26191 24.8383C9.27596 24.8948 9.3025 24.9748 9.34726 25.0693C9.43521 25.2566 9.61319 25.4999 9.89109 25.6668C10.1695 25.8331 10.4708 25.8767 10.6795 25.8669C10.7851 25.8628 10.8695 25.849 10.9267 25.8351C10.9553 25.8295 10.9772 25.8218 10.9923 25.8177C11.0068 25.813 11.0146 25.8105 11.0146 25.8094C11.0141 25.8074 10.9824 25.8146 10.9251 25.8248C10.8679 25.8351 10.7836 25.8459 10.6795 25.8479C10.4729 25.8526 10.1778 25.8069 9.90566 25.6437C9.63348 25.4804 9.4555 25.2438 9.36495 25.0606C9.31863 24.9687 9.28949 24.8901 9.27232 24.8352C9.25462 24.7808 9.2463 24.7495 9.24422 24.75Z"
            fill="#263238" />
        <path
            d="M10.7052 29.3014C10.7052 29.3086 12.1499 29.3148 13.9312 29.3148C15.7131 29.3148 17.1572 29.3086 17.1572 29.3014C17.1572 29.2942 15.7131 29.2881 13.9312 29.2881C12.1499 29.2881 10.7052 29.2937 10.7052 29.3014Z"
            fill="#263238" />
        <path
            d="M18.6431 20.0283C18.488 20.2895 18.1783 20.4533 17.8723 20.4358C17.5658 20.4184 17.2775 20.2208 17.1537 19.9436C16.8445 20.1361 16.4147 20.1166 16.1243 19.8974C15.8344 19.6777 15.7043 19.2732 15.8126 18.9288C15.5284 18.9221 15.3432 18.627 15.2786 18.3539C15.1308 17.7313 15.3447 17.0383 15.8188 16.6025"
            fill="#263238" />
        <path
            d="M18.1042 25.5539C18.1057 25.5534 18.1016 25.5375 18.0927 25.5092C18.0839 25.481 18.0677 25.441 18.0443 25.3927C17.9985 25.2967 17.9173 25.171 17.8013 25.055C17.6847 24.9395 17.5577 24.8589 17.4609 24.8127C17.4125 24.7896 17.372 24.7732 17.3433 24.7644C17.3147 24.7552 17.2986 24.7511 17.2981 24.7526C17.2965 24.7573 17.3584 24.7798 17.4521 24.8296C17.5453 24.8794 17.6681 24.961 17.782 25.074C17.896 25.1874 17.9777 25.309 18.0271 25.4014C18.0771 25.4938 18.0995 25.5554 18.1042 25.5539Z"
            fill="#263238" />
    </g>
    <defs>
        <clipPath id="clip0_1908_137406">
            <rect width="23" height="20" fill="white" transform="matrix(-1 0 0 1 31 10)" />
        </clipPath>
    </defs>
</svg>