<svg width="40" height="40" viewBox="0 0 40 40" fill="none" xmlns="http://www.w3.org/2000/svg">
    <rect width="40" height="40" rx="20" fill="#FDE6D3" />
    <g clip-path="url(#clip0_1908_136127)">
        <path
            d="M25.8012 15.0232C25.8196 14.9091 25.744 14.8009 25.6246 14.7721L25.3969 14.787L24.583 14.512C24.4309 14.4743 24.2777 14.5795 24.2747 14.7274C24.2706 14.9547 24.1767 15.5742 23.9867 15.3796C23.9826 15.3747 23.9775 15.3717 23.9735 15.3667C23.7049 15.0759 23.3945 14.9349 23.274 14.9518C23.1566 14.9677 23.128 15.1106 23.2158 15.1861C23.2291 15.199 23.2444 15.2109 23.2638 15.2188C23.272 15.2218 23.2822 15.2287 23.2914 15.2327C23.3904 15.2953 23.5119 15.4104 23.6028 15.5027C23.6886 15.5911 23.758 15.6933 23.808 15.8035C23.8632 15.9266 23.905 16.0338 23.9387 16.1262L23.951 16.8538L23.6263 20.2559C23.6263 20.2559 21.4728 18.056 21.5218 18.0342L21.6454 21.4581L22.9503 22.5085C23.5048 22.9542 24.2941 22.9969 24.8955 22.6137C25.3662 22.3139 25.646 21.7996 25.6368 21.2526L25.5612 16.8538L25.6143 16.2771L25.8012 15.0232Z"
            fill="#FFBE9D" />
        <path
            d="M13.7045 19.8589L11.3478 25.1055L9.48227 28.8898L8.09665 29.3425C8.09665 29.3425 7 29.6522 7 29.8726C7 30.093 7.28897 30.0433 7.28897 30.0433C7.34206 30.3729 7.81177 30.1863 8.13954 30.0384C8.46833 29.8905 9.19738 29.8607 9.19738 29.8607C8.99623 30.0116 9.06056 30.2439 9.17696 30.3233C9.29337 30.4027 9.49554 30.3064 9.63339 30.1644C9.77022 30.0225 10.1235 29.956 10.5156 29.82C10.9087 29.684 10.9731 29.1707 10.9731 29.1707L15.6936 21.4403L13.7045 19.8589Z"
            fill="#FFBE9D" />
        <path
            d="M21.53 21.7638L22.1233 22.5263L23.4088 19.7536C23.4088 19.7536 22.161 18.2734 21.7046 17.6529C21.2523 17.0374 20.9133 16.9302 20.9133 16.9302C20.9133 16.9302 20.0841 16.691 19.6706 16.6989L17.6223 16.8181L15.5423 17.7006C15.0318 17.917 14.5968 18.2734 14.2905 18.7261L12.332 21.7847L15.1053 22.9373L16.0355 28.1064C16.2142 28.8817 16.3694 29.6134 17.1056 29.9708L22.2489 25.165L21.6464 24.2427L21.53 21.7638Z"
            fill="#E8505B" />
        <path
            d="M16.6124 20.8158C16.6246 20.8237 16.3071 21.3032 15.9047 21.8859C15.5014 22.4687 15.1645 22.9353 15.1522 22.9273C15.1399 22.9194 15.4565 22.4409 15.8598 21.8572C16.2642 21.2744 16.6011 20.8078 16.6124 20.8158Z"
            fill="#263238" />
        <path
            d="M20.9246 25.7238C20.9266 25.7268 20.8776 25.7546 20.7878 25.8033C20.6979 25.8519 20.5672 25.9194 20.4049 26.0008C20.0802 26.1646 19.6278 26.384 19.1224 26.6153C18.6169 26.8466 18.1554 27.0462 17.8184 27.1851C17.65 27.2546 17.5131 27.3102 17.4182 27.346C17.3232 27.3827 17.2701 27.4016 17.2681 27.3976C17.2671 27.3946 17.3171 27.3698 17.41 27.3271C17.5111 27.2814 17.6438 27.2229 17.8031 27.1514C18.136 27.0035 18.5945 26.799 19.0999 26.5677C19.6043 26.3363 20.0587 26.1219 20.3875 25.9671C20.5458 25.8926 20.6765 25.831 20.7776 25.7844C20.8715 25.7427 20.9236 25.7199 20.9246 25.7238Z"
            fill="#263238" />
        <path
            d="M16.448 19.696C16.4419 19.7 16.3745 19.6136 16.2673 19.4756C16.1591 19.3377 16.011 19.1451 15.8109 18.9694C15.6108 18.7936 15.3912 18.6815 15.2217 18.6318C15.0532 18.5812 14.9409 18.5822 14.9409 18.5733C14.9409 18.5703 14.9685 18.5663 15.0195 18.5673C15.0706 18.5683 15.1441 18.5752 15.2319 18.5971C15.4086 18.6378 15.6404 18.75 15.8466 18.9306C16.0519 19.1113 16.1979 19.3109 16.299 19.4538C16.398 19.5997 16.4542 19.6921 16.448 19.696Z"
            fill="#263238" />
        <path
            d="M20.6795 22.2156C20.6815 22.2156 20.6825 22.2344 20.6815 22.2702C20.6805 22.3059 20.6825 22.3595 20.6764 22.427C20.6693 22.563 20.6468 22.7606 20.5947 22.9998C20.4936 23.4773 20.2424 24.1286 19.7584 24.7143C19.2744 25.301 18.6751 25.6812 18.2176 25.8807C17.9889 25.982 17.7949 26.0465 17.6601 26.0833C17.5927 26.1031 17.5396 26.113 17.5039 26.122C17.4681 26.1299 17.4487 26.1329 17.4487 26.1319C17.4477 26.1279 17.5223 26.1071 17.655 26.0644C17.7877 26.0217 17.9777 25.9532 18.2023 25.848C18.6516 25.6415 19.2397 25.2613 19.7176 24.6825C20.1955 24.1038 20.4487 23.4634 20.559 22.9919C20.6151 22.7556 20.6437 22.5601 20.657 22.425C20.6703 22.291 20.6754 22.2156 20.6795 22.2156Z"
            fill="#263238" />
        <g opacity="0.3">
            <path d="M15.4639 24.9347C15.4547 24.8851 16.1235 21.5247 16.1235 21.5247L15.1157 22.9959" fill="black" />
        </g>
        <path
            d="M21.3981 18.5385C21.4001 18.5385 21.4022 18.5583 21.4052 18.596C21.4083 18.6397 21.4114 18.6943 21.4165 18.7618C21.4246 18.9127 21.4348 19.1202 21.4481 19.3723C21.4736 19.8945 21.5094 20.6043 21.5482 21.3876C21.587 22.1748 21.6176 22.8886 21.6329 23.4048C21.6411 23.6629 21.6462 23.8724 21.6472 24.0164C21.6472 24.0839 21.6483 24.1395 21.6483 24.1831C21.6483 24.2209 21.6472 24.2407 21.6452 24.2417C21.6431 24.2417 21.6411 24.2218 21.638 24.1841C21.635 24.1404 21.6319 24.0858 21.6268 24.0183C21.6186 23.8674 21.6084 23.66 21.5952 23.4078C21.5696 22.8856 21.5339 22.1758 21.4951 21.3916C21.4563 20.6043 21.4257 19.8915 21.4103 19.3753C21.4022 19.1172 21.3971 18.9077 21.396 18.7638C21.396 18.6963 21.395 18.6407 21.395 18.597C21.395 18.5583 21.396 18.5385 21.3981 18.5385Z"
            fill="#263238" />
        <g opacity="0.2">
            <path
                d="M17.2933 27.3947C17.1289 27.2616 17.1667 26.9896 17.3117 26.8368C17.4567 26.6839 17.6721 26.6184 17.8764 26.5538C18.8535 26.2461 19.8358 25.8113 20.4812 25.033C20.57 24.9257 20.6537 24.8106 20.7701 24.7312C20.8865 24.6517 21.0448 24.614 21.1714 24.6776C21.3685 24.7778 21.3767 25.0558 21.294 25.2563C21.1929 25.5015 20.9978 25.709 20.7548 25.8281"
                fill="black" />
        </g>
        <g opacity="0.2">
            <path d="M21.4199 19.1351L21.9907 22.3546L21.5455 21.7837L21.4199 19.1351Z" fill="black" />
        </g>
        <path
            d="M26.8502 27.5942L25.8853 30.8127L29.9972 32.001C30.0901 31.6118 28.197 30.2309 28.197 30.2309L28.9026 28.1938L26.8502 27.5942Z"
            fill="#E8505B" />
        <g opacity="0.6">
            <path
                d="M26.979 29.6889C26.8932 29.6869 26.8115 29.7584 26.8064 29.8418C26.8013 29.9252 26.8748 30.0066 26.9606 30.0096C27.0464 30.0126 27.1474 29.9302 27.1434 29.8468C27.1393 29.7634 27.0474 29.672 26.9626 29.6889"
                fill="white" />
        </g>
        <g opacity="0.6">
            <path
                d="M25.8853 30.8117L25.9955 30.4911L29.8971 31.7499C29.8971 31.7499 30.0564 31.8799 29.9972 32L25.8853 30.8117Z"
                fill="white" />
        </g>
        <path
            d="M28.2704 30.229C28.2643 30.2478 28.1612 30.228 28.0427 30.2627C27.9243 30.2935 27.8467 30.364 27.8314 30.3511C27.814 30.3422 27.8793 30.2339 28.0233 30.1952C28.1652 30.1535 28.2796 30.2121 28.2704 30.229Z"
            fill="#263238" />
        <path
            d="M28.6482 30.5267C28.6472 30.5466 28.5502 30.5555 28.4562 30.6181C28.3613 30.6786 28.3164 30.763 28.297 30.7561C28.2776 30.7541 28.298 30.6349 28.4154 30.5595C28.5328 30.4821 28.6533 30.5079 28.6482 30.5267Z"
            fill="#263238" />
        <path
            d="M28.74 31.0996C28.7206 31.0986 28.7227 30.9934 28.8064 30.901C28.8901 30.8087 28.9974 30.7938 29.0014 30.8127C29.0076 30.8315 28.929 30.8723 28.8616 30.9487C28.7911 31.0222 28.7605 31.1026 28.74 31.0996Z"
            fill="#263238" />
        <path
            d="M28.3777 29.7465C28.3634 29.7614 28.2796 29.7088 28.1642 29.6829C28.0489 29.6551 27.9498 29.6671 27.9437 29.6472C27.9365 29.6293 28.0448 29.5827 28.1806 29.6144C28.3174 29.6452 28.392 29.7346 28.3777 29.7465Z"
            fill="#263238" />
        <path
            d="M28.4246 29.2442C28.4225 29.2521 28.3388 29.2412 28.2193 29.1836C28.1591 29.1548 28.0917 29.1131 28.0233 29.0565C27.9896 29.0287 27.9559 28.997 27.9232 28.9612C27.9079 28.9444 27.8895 28.9255 27.8752 28.8957C27.8589 28.8689 27.8619 28.8133 27.8977 28.7895C27.9283 28.7647 27.9692 28.7627 27.9998 28.7706C28.0304 28.7786 28.0529 28.7915 28.0743 28.8034C28.1172 28.8272 28.155 28.855 28.1897 28.8828C28.2581 28.9404 28.3082 29.0029 28.3429 29.0585C28.4123 29.1717 28.4225 29.2541 28.4144 29.2561C28.4031 29.2601 28.3756 29.1856 28.3 29.0863C28.2622 29.0367 28.2112 28.9831 28.1468 28.9324C28.1142 28.9076 28.0784 28.8838 28.0396 28.863C27.9998 28.8391 27.962 28.8282 27.9457 28.8441C27.9395 28.8501 27.9385 28.853 27.9436 28.8679C27.9498 28.8818 27.9641 28.8987 27.9783 28.9156C28.008 28.9493 28.0386 28.9801 28.0682 29.0079C28.1295 29.0635 28.1907 29.1062 28.2449 29.1399C28.3521 29.2064 28.4286 29.2342 28.4246 29.2442Z"
            fill="#263238" />
        <path
            d="M28.3902 29.265C28.382 29.266 28.3637 29.1846 28.3953 29.0556C28.4106 28.992 28.4413 28.9176 28.4903 28.8441C28.5148 28.8074 28.5454 28.7716 28.5801 28.7379C28.6159 28.7051 28.6618 28.6605 28.7425 28.6744C28.7833 28.6843 28.8078 28.725 28.8119 28.7548C28.817 28.7855 28.8129 28.8094 28.8109 28.8342C28.8037 28.8828 28.7895 28.9285 28.7701 28.9692C28.7313 29.0506 28.6741 29.1112 28.6189 29.1509C28.5066 29.2313 28.4157 29.2303 28.4168 29.2233C28.4127 29.2114 28.4944 29.1946 28.5863 29.1122C28.6312 29.0715 28.6782 29.0149 28.7088 28.9424C28.7241 28.9067 28.7353 28.8669 28.7404 28.8253C28.7466 28.7806 28.7415 28.7419 28.7231 28.7419C28.7027 28.7359 28.6577 28.7577 28.6312 28.7865C28.5995 28.8163 28.5709 28.8481 28.5475 28.8799C28.4995 28.9444 28.4668 29.0109 28.4464 29.0685C28.4035 29.1856 28.4025 29.265 28.3902 29.265Z"
            fill="#263238" />
        <path
            d="M31.0723 22.8023C31.1764 23.5449 30.915 24.3818 30.6393 25.0817L28.8361 29.2035L26.8399 28.9057C26.8399 28.9057 26.4232 29.3564 25.8913 29.5281C25.6533 29.6055 24.8702 29.7545 24.2259 29.3038C24.2259 29.3038 23.314 30.5387 21.8794 30.912C20.4448 31.2852 18.2729 31.4917 17.2212 29.8597L22.2276 25.17C22.3307 25.1938 26.5397 22.435 28.8126 21.8066C28.8126 21.8066 30.8803 21.4363 31.0723 22.8023Z"
            fill="#263238" />
        <path
            d="M26.691 28.8898C26.691 28.8888 26.7002 28.8838 26.7175 28.8739C26.739 28.863 26.7655 28.8491 26.7992 28.8322C26.8707 28.7955 26.9779 28.7419 27.1127 28.6694C27.2475 28.5969 27.4108 28.5056 27.5895 28.3835C27.7672 28.2614 27.9612 28.1065 28.1297 27.8961C28.3002 27.6886 28.4299 27.4176 28.4799 27.1078C28.532 26.8001 28.5146 26.4596 28.437 26.1161C28.3594 25.7756 28.1961 25.4202 27.8867 25.1839C27.5793 24.9476 27.1739 24.8245 26.7594 24.7938C26.5511 24.7769 26.3438 24.7799 26.1416 24.7987C25.9395 24.8196 25.7414 24.8553 25.5494 24.9C25.1655 24.9923 24.8071 25.1234 24.4721 25.2623C23.8044 25.5453 23.2254 25.852 22.7169 26.0625C22.2104 26.2789 21.7795 26.406 21.4763 26.4655C21.4007 26.4824 21.3333 26.4923 21.2741 26.5013C21.2159 26.5112 21.1659 26.5172 21.125 26.5211C21.0872 26.5251 21.0566 26.5271 21.0331 26.5301C21.0127 26.532 21.0015 26.532 21.0015 26.5311C21.0015 26.5301 21.0117 26.5281 21.0321 26.5251C21.0556 26.5211 21.0852 26.5172 21.123 26.5112C21.1628 26.5062 21.2128 26.4983 21.271 26.4874C21.3292 26.4765 21.3966 26.4655 21.4712 26.4467C21.7714 26.3821 22.1982 26.2501 22.7006 26.0297C23.206 25.8153 23.7819 25.5056 24.4517 25.2187C24.7877 25.0777 25.1481 24.9447 25.5361 24.8513C25.7301 24.8057 25.9303 24.7699 26.1355 24.7481C26.3407 24.7292 26.5521 24.7263 26.7635 24.7431C27.1852 24.7749 27.5997 24.9 27.9183 25.1452C28.0766 25.2683 28.2032 25.4222 28.2941 25.5889C28.386 25.7557 28.4442 25.9324 28.485 26.1062C28.5626 26.4556 28.579 26.8011 28.5238 27.1158C28.4707 27.4305 28.3359 27.7094 28.1593 27.9189C27.9857 28.1313 27.7876 28.2862 27.6059 28.4073C27.4241 28.5284 27.2577 28.6168 27.1219 28.6873C26.985 28.7578 26.8768 28.8074 26.8033 28.8411C26.7686 28.857 26.741 28.8689 26.7196 28.8789C26.7012 28.8868 26.691 28.8898 26.691 28.8898Z"
            fill="#455A64" />
        <path
            d="M27.9428 23.4804C27.9551 23.4883 27.7682 23.7852 27.5242 24.1435C27.2811 24.5019 27.0739 24.7868 27.0616 24.7789C27.0494 24.7709 27.2362 24.4741 27.4803 24.1157C27.7233 23.7574 27.9306 23.4724 27.9428 23.4804Z"
            fill="#455A64" />
        <path
            d="M26.5029 28.5621C26.5039 28.5701 26.364 28.5989 26.1404 28.6535C25.9168 28.7071 25.6084 28.7905 25.2765 28.9026C24.9447 29.0158 24.6506 29.1379 24.4413 29.2312C24.2309 29.3245 24.1033 29.3871 24.0992 29.3801C24.0972 29.3772 24.1278 29.3573 24.1829 29.3255C24.2391 29.2928 24.3208 29.2491 24.4239 29.1985C24.6302 29.0962 24.9232 28.9682 25.2582 28.854C25.5931 28.7408 25.9035 28.6624 26.1312 28.6177C26.2445 28.5949 26.3374 28.579 26.4018 28.5711C26.4671 28.5611 26.5029 28.5582 26.5029 28.5621Z"
            fill="#455A64" />
        <path
            d="M28.7995 28.9335C28.7903 28.9365 28.7669 28.8451 28.6821 28.724C28.5994 28.6039 28.4442 28.456 28.2267 28.3865C28.0092 28.318 27.7938 28.3498 27.6539 28.3994C27.5119 28.449 27.4374 28.5096 27.4323 28.5016C27.4303 28.4997 27.4466 28.4818 27.4803 28.455C27.514 28.4282 27.5681 28.3954 27.6396 28.3646C27.7815 28.3031 28.0092 28.2634 28.242 28.3359C28.4748 28.4093 28.6351 28.5721 28.7127 28.7032C28.7526 28.7687 28.7761 28.8263 28.7873 28.867C28.8006 28.9097 28.8036 28.9325 28.7995 28.9335Z"
            fill="#455A64" />
        <path
            d="M20.1637 27.3947C20.1668 27.3937 20.177 27.4264 20.1893 27.487C20.2005 27.5476 20.2128 27.6369 20.2128 27.7481C20.2128 27.9685 20.1627 28.2842 19.9769 28.577C19.7931 28.8719 19.5102 29.0506 19.2928 29.1171C19.1835 29.1528 19.0906 29.1637 19.0273 29.1667C18.964 29.1697 18.9282 29.1647 18.9282 29.1617C18.9272 29.1508 19.0712 29.1588 19.2805 29.0823C19.4878 29.0089 19.7543 28.8331 19.932 28.5492C20.1106 28.2673 20.1658 27.9615 20.175 27.7461C20.1842 27.5307 20.1535 27.3967 20.1637 27.3947Z"
            fill="#455A64" />
        <path
            d="M17.9115 29.6224C17.9003 29.6313 17.8472 29.5867 17.7982 29.5191C17.7481 29.4516 17.7216 29.3881 17.7348 29.3802C17.7471 29.3732 17.793 29.4229 17.8421 29.4884C17.889 29.5539 17.9227 29.6125 17.9115 29.6224Z"
            fill="#455A64" />
        <path
            d="M18.332 30.0533C18.3228 30.0642 18.2646 30.0265 18.2033 29.9689C18.1421 29.9113 18.1012 29.8567 18.1114 29.8468C18.1227 29.8369 18.1798 29.8746 18.2401 29.9312C18.3003 29.9878 18.3412 30.0424 18.332 30.0533Z"
            fill="#455A64" />
        <path
            d="M18.8275 30.4017C18.8204 30.4146 18.756 30.3878 18.6846 30.3422C18.6131 30.2965 18.562 30.2508 18.5702 30.2389C18.5794 30.227 18.6427 30.2538 18.7131 30.2985C18.7836 30.3432 18.8347 30.3898 18.8275 30.4017Z"
            fill="#455A64" />
        <path
            d="M19.389 30.637C19.3849 30.6509 19.3165 30.639 19.2358 30.6112C19.1551 30.5824 19.0949 30.5496 19.101 30.5367C19.1071 30.5238 19.1756 30.5357 19.2542 30.5625C19.3318 30.5893 19.393 30.6231 19.389 30.637Z"
            fill="#455A64" />
        <path
            d="M19.9924 30.7293C19.9924 30.7432 19.9229 30.7492 19.8372 30.7412C19.7514 30.7333 19.685 30.7164 19.6871 30.7015C19.6891 30.6876 19.7585 30.6817 19.8423 30.6896C19.925 30.6965 19.9924 30.7144 19.9924 30.7293Z"
            fill="#455A64" />
        <path
            d="M20.6032 30.6966C20.6052 30.7105 20.5368 30.7264 20.452 30.7323C20.4061 30.7353 20.3652 30.7343 20.3377 30.7313H20.3397C20.3142 30.7294 20.2989 30.7244 20.2989 30.7184C20.2979 30.7115 20.3122 30.7045 20.3356 30.6976H20.3377C20.3652 30.6906 20.4051 30.6847 20.45 30.6817C20.5327 30.6758 20.6021 30.6827 20.6032 30.6966Z"
            fill="#455A64" />
        <path
            d="M21.2055 30.5913C21.2096 30.6052 21.1442 30.63 21.0615 30.6479C20.9788 30.6647 20.9094 30.6677 20.9063 30.6538C20.9043 30.6399 20.9686 30.6141 21.0503 30.5972C21.132 30.5794 21.2014 30.5774 21.2055 30.5913Z"
            fill="#455A64" />
        <path
            d="M21.7907 30.4176C21.7958 30.4305 21.7345 30.4633 21.6538 30.4891C21.5732 30.5149 21.5048 30.5258 21.5007 30.5119C21.4966 30.498 21.5579 30.4663 21.6375 30.4405C21.7161 30.4146 21.7856 30.4047 21.7907 30.4176Z"
            fill="#455A64" />
        <path
            d="M22.3534 30.1852C22.3595 30.1981 22.3024 30.2359 22.2248 30.2706C22.1472 30.3044 22.0798 30.3222 22.0747 30.3083C22.0685 30.2954 22.1267 30.2567 22.2033 30.223C22.2799 30.1892 22.3473 30.1723 22.3534 30.1852Z"
            fill="#455A64" />
        <path
            d="M22.8901 29.8994C22.8983 29.9113 22.8442 29.955 22.7717 29.9967C22.6981 30.0384 22.6328 30.0612 22.6256 30.0493C22.6185 30.0364 22.6716 29.9937 22.7441 29.952C22.8166 29.9103 22.8819 29.8865 22.8901 29.8994Z"
            fill="#455A64" />
        <path
            d="M23.3955 29.5638C23.4047 29.5747 23.3557 29.6233 23.2863 29.672C23.2169 29.7206 23.1546 29.7494 23.1464 29.7375C23.1382 29.7256 23.1872 29.677 23.2557 29.6293C23.3241 29.5817 23.3864 29.5519 23.3955 29.5638Z"
            fill="#455A64" />
        <path
            d="M23.8677 29.1846C23.8779 29.1955 23.834 29.2472 23.7697 29.3018C23.7054 29.3554 23.6461 29.3911 23.637 29.3792C23.6278 29.3683 23.6717 29.3157 23.735 29.2621C23.7983 29.2084 23.8575 29.1737 23.8677 29.1846Z"
            fill="#455A64" />
        <path
            d="M24.3128 28.7756C24.323 28.7865 24.2801 28.8401 24.2189 28.8967C24.1576 28.9533 24.0994 28.99 24.0892 28.9801C24.078 28.9691 24.1208 28.9155 24.1821 28.859C24.2454 28.8024 24.3036 28.7646 24.3128 28.7756Z"
            fill="#455A64" />
        <path
            d="M24.7966 28.4092C24.8048 28.4212 24.7558 28.4698 24.6884 28.5174C24.6199 28.5651 24.5577 28.5949 24.5485 28.584C24.5393 28.573 24.5883 28.5244 24.6567 28.4758C24.7261 28.4271 24.7894 28.3973 24.7966 28.4092Z"
            fill="#455A64" />
        <path
            d="M25.3339 28.1214C25.34 28.1343 25.2838 28.175 25.2083 28.2107C25.1327 28.2465 25.0664 28.2663 25.0592 28.2534C25.0521 28.2405 25.1082 28.2008 25.1848 28.1641C25.2614 28.1283 25.3278 28.1085 25.3339 28.1214Z"
            fill="#455A64" />
        <path
            d="M25.9179 27.9447C25.92 27.9586 25.8567 27.9864 25.776 28.0062C25.6953 28.0261 25.6259 28.031 25.6208 28.0171C25.6167 28.0032 25.68 27.9764 25.7627 27.9556C25.8465 27.9357 25.9159 27.9308 25.9179 27.9447Z"
            fill="#455A64" />
        <path
            d="M26.5285 27.9149C26.5275 27.9288 26.4581 27.9338 26.3753 27.9328C26.2916 27.9308 26.2232 27.9238 26.2222 27.9099C26.2212 27.896 26.2896 27.8802 26.3753 27.8811C26.4621 27.8821 26.5295 27.901 26.5285 27.9149Z"
            fill="#455A64" />
        <path
            d="M27.1186 28.0658C27.1115 28.0787 27.0461 28.0598 26.9685 28.033C26.8899 28.0062 26.8276 27.9794 26.8307 27.9655C26.8337 27.9516 26.9052 27.9566 26.9859 27.9844C27.0676 28.0112 27.1258 28.0529 27.1186 28.0658Z"
            fill="#455A64" />
        <path
            d="M26.9899 28.4977C26.9808 28.4858 27.0267 28.4371 27.0808 28.3776C27.1349 28.318 27.1788 28.2684 27.1921 28.2753C27.2044 28.2823 27.1788 28.3478 27.1206 28.4113C27.0614 28.4758 26.9981 28.5086 26.9899 28.4977Z"
            fill="#455A64" />
        <path
            d="M26.4489 28.7707C26.4448 28.7568 26.503 28.721 26.5807 28.6902C26.6572 28.6595 26.7256 28.6446 26.7328 28.6575C26.7399 28.6704 26.6807 28.7061 26.6011 28.7379C26.5214 28.7697 26.453 28.7836 26.4489 28.7707Z"
            fill="#455A64" />
        <path
            d="M25.8646 28.9523C25.8594 28.9384 25.9207 28.9066 26.0014 28.8808C26.082 28.855 26.1505 28.8441 26.1545 28.858C26.1586 28.8719 26.0974 28.9037 26.0177 28.9295C25.9391 28.9553 25.8697 28.9662 25.8646 28.9523Z"
            fill="#455A64" />
        <path
            d="M25.2928 29.1648C25.2877 29.1519 25.3469 29.1162 25.4255 29.0864C25.5042 29.0566 25.5726 29.0427 25.5777 29.0556C25.5828 29.0685 25.5236 29.1043 25.4449 29.134C25.3663 29.1648 25.2979 29.1777 25.2928 29.1648Z"
            fill="#455A64" />
        <path
            d="M24.7285 29.397C24.7223 29.3841 24.7805 29.3474 24.8592 29.3146C24.9368 29.2819 25.0052 29.266 25.0103 29.2789C25.0164 29.2918 24.9572 29.3295 24.8796 29.3613C24.802 29.3941 24.7336 29.4099 24.7285 29.397Z"
            fill="#455A64" />
        <path
            d="M23.5869 12.3736C23.5869 12.3736 24.2547 12.1781 25.142 11.2161C26.0294 10.2542 26.3878 9.03508 26.5052 9.0321C26.6226 9.02913 27.1158 8.76208 28.2441 10.7456C29.3724 12.729 29.0263 13.2343 28.8322 13.2443C28.6382 13.2542 27.2996 12.9941 26.4868 13.144C25.674 13.2939 24.6519 13.7853 24.6519 13.7853L23.5869 12.3736Z"
            fill="#455A64" />
        <path
            d="M22.2299 13.5977L22.4943 14.0087L22.6128 14.1933C22.7751 14.4465 23.1131 14.5309 23.3806 14.3869L24.7979 13.7883L23.8064 11.9686L22.4106 12.8273C22.1431 12.9921 22.0624 13.3356 22.2299 13.5977Z"
            fill="#263238" />
        <path
            d="M23.1221 14.2221L23.653 15.0719L23.8797 14.9925L25.4859 16.0805L25.8474 15.2447C25.8474 15.2447 24.9233 14.9349 24.7344 14.6361C24.5455 14.3383 24.7313 14.2539 24.7313 14.2539L24.2749 13.8191L23.1221 14.2221Z"
            fill="#263238" />
        <path
            d="M28.1676 10.7892C28.77 11.8643 29.06 12.8402 28.818 12.9692C28.575 13.0983 27.8898 12.3299 27.2884 11.2548C26.687 10.1797 26.396 9.20381 26.639 9.07475C26.881 8.94669 27.5662 9.71407 28.1676 10.7892Z"
            fill="#263238" />
        <path d="M22.1532 14.2251L22.5381 14.0762L22.2594 13.6423L21.9775 13.8429L22.1532 14.2251Z" fill="#455A64" />
        <path d="M24.431 13.968L23.4211 14.7026L23.27 14.4594L24.431 13.968Z" fill="#455A64" />
        <path d="M22.2593 13.6423L22.538 14.0762L22.4584 14.1069L22.2256 13.6662L22.2593 13.6423Z" fill="#455A64" />
        <path
            d="M22.5393 13.7267C22.5464 13.7386 22.7374 13.6503 22.9661 13.5292C23.1948 13.4081 23.3755 13.2999 23.3684 13.2879C23.3612 13.276 23.1703 13.3644 22.9416 13.4855C22.7129 13.6066 22.5321 13.7148 22.5393 13.7267Z"
            fill="#455A64" />
        <path
            d="M22.3972 13.4667C22.4043 13.4786 22.5769 13.3922 22.7822 13.2751C22.9884 13.1569 23.1487 13.0527 23.1416 13.0408C23.1344 13.0289 22.9619 13.1152 22.7566 13.2324C22.5514 13.3505 22.3901 13.4557 22.3972 13.4667Z"
            fill="#455A64" />
        <path
            d="M22.7135 13.9978C22.7166 14.0037 22.7625 13.9898 22.835 13.9621C22.8718 13.9482 22.9147 13.9303 22.9627 13.9104C23.0097 13.8896 23.0587 13.8618 23.1107 13.834C23.319 13.7208 23.4763 13.6136 23.4702 13.6027C23.463 13.5898 23.2925 13.6791 23.0862 13.7903C23.0342 13.8181 22.9872 13.8479 22.9412 13.8697C22.8953 13.8916 22.8544 13.9124 22.8208 13.9293C22.7523 13.966 22.7105 13.9918 22.7135 13.9978Z"
            fill="#455A64" />
        <path
            d="M27.0952 10.6185C27.0952 10.6185 27.6578 10.2204 28.0407 10.9719C28.4226 11.7234 27.812 11.8962 27.812 11.8962C27.5271 11.5309 27.2872 11.107 27.0952 10.6185Z"
            fill="#455A64" />
        <path
            d="M26.3969 9.73988C26.3939 9.74088 26.4061 9.7925 26.4317 9.88581C26.4572 9.97913 26.495 10.1151 26.545 10.2809C26.5767 10.3623 26.6104 10.4507 26.6471 10.546C26.6655 10.5936 26.6849 10.6433 26.7043 10.6939C26.7145 10.7197 26.7247 10.7455 26.7349 10.7713C26.7462 10.7971 26.7594 10.822 26.7717 10.8488C26.8227 10.952 26.8758 11.0612 26.931 11.1734C26.9453 11.2012 26.9585 11.23 26.9728 11.2588C26.9861 11.2876 27.0045 11.3144 27.0208 11.3422C27.0545 11.3977 27.0882 11.4543 27.1219 11.5119C27.1566 11.5695 27.1903 11.6261 27.223 11.6817C27.2404 11.7095 27.2547 11.7383 27.2741 11.7641C27.2924 11.7899 27.3108 11.8157 27.3292 11.8415C27.4027 11.9438 27.4732 12.042 27.5406 12.1363C27.5579 12.1592 27.5732 12.183 27.5916 12.2058C27.61 12.2277 27.6284 12.2485 27.6457 12.2694C27.6815 12.3111 27.7162 12.3518 27.7499 12.3915C27.8173 12.4699 27.8796 12.5424 27.9367 12.6099C28.0593 12.735 28.1624 12.8322 28.2329 12.9007C28.3033 12.9683 28.3442 13.005 28.3472 13.002C28.3493 13 28.3146 12.9583 28.2472 12.8868C28.1787 12.8134 28.0817 12.7111 27.9623 12.5851C27.9071 12.5175 27.8469 12.4441 27.7815 12.3647C27.7489 12.325 27.7152 12.2843 27.6805 12.2426C27.6631 12.2217 27.6457 12.1999 27.6274 12.179C27.61 12.1572 27.5947 12.1334 27.5783 12.1095C27.512 12.0152 27.4425 11.9169 27.37 11.8147C27.3517 11.7889 27.3333 11.7631 27.3149 11.7373C27.2965 11.7115 27.2812 11.6827 27.2649 11.6559C27.2322 11.6003 27.1985 11.5447 27.1648 11.4871C27.1311 11.4305 27.0974 11.3739 27.0637 11.3193C27.0474 11.2915 27.029 11.2647 27.0157 11.2359C27.0014 11.2071 26.9882 11.1793 26.9739 11.1515C26.9187 11.0404 26.8646 10.9322 26.8135 10.8299C26.8013 10.8041 26.787 10.7793 26.7758 10.7535C26.7656 10.7277 26.7553 10.7018 26.7451 10.677C26.7247 10.6274 26.7053 10.5777 26.6859 10.5311C26.6471 10.4368 26.6114 10.3494 26.5787 10.269C26.5246 10.1062 26.4817 9.97417 26.45 9.87986C26.4194 9.78952 26.4 9.73889 26.3969 9.73988Z"
            fill="#263238" />
        <path
            d="M24.8782 14.2559C24.9681 14.2817 25.0212 14.3711 24.9977 14.4594C24.9538 14.6282 24.8823 14.8933 24.8241 15.0551C24.8057 15.1077 24.7853 15.1603 24.7475 15.202C24.7097 15.2437 24.6515 15.2715 24.5964 15.2576C24.5382 15.2437 24.4984 15.1871 24.4882 15.1295C24.4779 15.0719 24.4902 15.0134 24.5035 14.9568C24.5392 14.7999 24.6056 14.5627 24.6628 14.3701C24.6893 14.2817 24.7863 14.2301 24.8782 14.2559Z"
            fill="#FFBE9D" />
        <path
            d="M25.1551 14.5309C25.2449 14.5567 25.298 14.646 25.2745 14.7344C25.2306 14.9032 25.1592 15.1682 25.101 15.33C25.0826 15.3827 25.0622 15.4353 25.0244 15.477C24.9866 15.5187 24.9284 15.5465 24.8733 15.5326C24.815 15.5187 24.7752 15.4621 24.765 15.4045C24.7548 15.3469 24.7671 15.2883 24.7803 15.2318C24.8161 15.0749 24.8824 14.8376 24.9396 14.6451C24.9662 14.5557 25.0632 14.5041 25.1551 14.5309Z"
            fill="#FFBE9D" />
        <path
            d="M25.4225 14.6947C25.5001 14.7165 25.546 14.795 25.5256 14.8714C25.4878 15.0173 25.4255 15.2466 25.3755 15.3876C25.3592 15.4333 25.3418 15.4789 25.3091 15.5147C25.2764 15.5504 25.2254 15.5742 25.1774 15.5633C25.1274 15.5514 25.0927 15.5028 25.0835 15.4531C25.0743 15.4035 25.0855 15.3529 25.0967 15.3032C25.1284 15.1672 25.1846 14.9627 25.2346 14.795C25.2581 14.7165 25.3418 14.6719 25.4225 14.6947Z"
            fill="#FFBE9D" />
        <path
            d="M25.7247 14.7285C25.8023 14.7503 25.8483 14.8288 25.8289 14.9052C25.7911 15.0521 25.7278 15.2825 25.6777 15.4234C25.6614 15.4691 25.644 15.5148 25.6114 15.5515C25.5787 15.5872 25.5276 15.612 25.4796 15.6001C25.4286 15.5882 25.3949 15.5386 25.3857 15.4889C25.3765 15.4393 25.3878 15.3877 25.399 15.338C25.4306 15.201 25.4878 14.9956 25.5379 14.8278C25.5603 14.7503 25.644 14.7057 25.7247 14.7285Z"
            fill="#FFBE9D" />
        <path
            d="M24.7821 15.206C24.7678 15.2021 24.8015 15.0591 24.8577 14.8883C24.9128 14.7176 24.97 14.5816 24.9832 14.5866C24.9975 14.5905 24.9638 14.7335 24.9077 14.9042C24.8525 15.075 24.7964 15.21 24.7821 15.206Z"
            fill="#EB996E" />
        <path
            d="M25.3572 15.4313C25.3429 15.4264 25.3878 15.2864 25.4399 15.1156C25.493 14.9439 25.5338 14.8049 25.5481 14.8069C25.5624 14.8099 25.544 14.9558 25.4909 15.1295C25.4378 15.3043 25.3705 15.4363 25.3572 15.4313Z"
            fill="#EB996E" />
        <path
            d="M25.072 15.3956C25.0577 15.3906 25.1027 15.2506 25.1547 15.0799C25.2078 14.9081 25.2487 14.7692 25.263 14.7711C25.2773 14.7741 25.2589 14.92 25.2058 15.0938C25.1527 15.2675 25.0853 15.4005 25.072 15.3956Z"
            fill="#EB996E" />
        <path
            d="M30.2604 6.99999C30.2716 7.00892 29.853 7.56187 29.3251 8.23495C28.7972 8.90802 28.3591 9.44707 28.3479 9.43814C28.3366 9.42921 28.7553 8.87725 29.2832 8.20318C29.8111 7.53011 30.2481 6.99105 30.2604 6.99999Z"
            fill="#263238" />
        <path
            d="M33.0002 8.57551C33.0063 8.58841 32.1261 8.99841 31.0335 9.49081C29.941 9.9842 29.0506 10.3724 29.0445 10.3594C29.0383 10.3465 29.9185 9.93654 31.0111 9.44316C32.1036 8.95175 32.994 8.5626 33.0002 8.57551Z"
            fill="#263238" />
        <path
            d="M32.5913 11.8545C32.5903 11.8684 31.9623 11.8217 31.1893 11.7493C30.4164 11.6768 29.7915 11.6063 29.7925 11.5924C29.7935 11.5785 30.4215 11.6252 31.1944 11.6976C31.9674 11.7691 32.5933 11.8396 32.5913 11.8545Z"
            fill="#263238" />
        <path
            d="M16.4928 13.693L17.1861 17.5249C17.3056 18.1871 17.9519 18.6388 18.6473 18.5455C19.3702 18.4482 19.8675 17.8009 19.7501 17.112L19.6378 16.4528C19.6378 16.4528 20.6078 16.1967 20.5067 15.2506C20.4577 14.7939 20.278 13.8627 20.1044 13.0209C19.9104 12.0788 18.97 11.4534 17.9805 11.6082C16.9584 11.778 16.2865 12.7211 16.4928 13.693Z"
            fill="#FFBE9D" />
        <path
            d="M19.6385 16.4537C19.6385 16.4537 19.0208 16.5709 18.3091 16.2452C18.3091 16.2452 18.6951 16.8925 19.6702 16.6989L19.6385 16.4537Z"
            fill="#EB996E" />
        <path
            d="M19.8926 13.6582C19.9038 13.7297 19.8497 13.7972 19.7731 13.8091C19.6966 13.822 19.6241 13.7744 19.6128 13.7029C19.6016 13.6314 19.6547 13.5639 19.7323 13.552C19.8089 13.5401 19.8814 13.5877 19.8926 13.6582Z"
            fill="#263238" />
        <path
            d="M19.9243 13.4299C19.909 13.4498 19.7926 13.3853 19.6415 13.4021C19.4894 13.417 19.3872 13.5044 19.3689 13.4885C19.3597 13.4816 19.374 13.4478 19.4179 13.4091C19.4618 13.3704 19.5394 13.3287 19.6333 13.3188C19.7283 13.3088 19.811 13.3336 19.861 13.3624C19.9121 13.3902 19.9325 13.421 19.9243 13.4299Z"
            fill="#263238" />
        <path
            d="M18.4653 13.826C18.4766 13.8974 18.4225 13.965 18.3459 13.9769C18.2683 13.9898 18.1968 13.9421 18.1856 13.8706C18.1743 13.7992 18.2284 13.7317 18.305 13.7197C18.3826 13.7078 18.4541 13.7545 18.4653 13.826Z"
            fill="#263238" />
        <path
            d="M18.459 13.6205C18.4437 13.6403 18.3273 13.5758 18.1762 13.5927C18.024 13.6076 17.9219 13.6949 17.9035 13.6791C17.8943 13.6721 17.9086 13.6384 17.9525 13.5996C17.9965 13.5609 18.0741 13.5192 18.168 13.5093C18.263 13.4994 18.3457 13.5242 18.3957 13.553C18.4468 13.5818 18.4662 13.6116 18.459 13.6205Z"
            fill="#263238" />
        <path
            d="M19.138 14.7254C19.1359 14.7175 19.2288 14.6917 19.3789 14.6559C19.4167 14.648 19.4535 14.6361 19.4566 14.6103C19.4627 14.5825 19.4412 14.5438 19.4178 14.5031C19.3708 14.4177 19.3207 14.3274 19.2697 14.233C19.0624 13.8479 18.9072 13.5302 18.9235 13.5222C18.9399 13.5143 19.1206 13.8201 19.3289 14.2043C19.3789 14.2996 19.4269 14.3899 19.4729 14.4763C19.4923 14.517 19.5239 14.5616 19.5107 14.6192C19.5035 14.648 19.478 14.6718 19.4535 14.6808C19.43 14.6907 19.4075 14.6937 19.3892 14.6966C19.235 14.7225 19.14 14.7334 19.138 14.7254Z"
            fill="#263238" />
        <path
            d="M18.7039 14.8743C18.7284 14.8704 18.7478 15.0282 18.902 15.1245C19.0562 15.2218 19.2298 15.1841 19.2338 15.2059C19.2369 15.2158 19.1981 15.2407 19.1246 15.2506C19.0521 15.2605 18.9439 15.2506 18.8489 15.191C18.755 15.1315 18.707 15.0441 18.6937 14.9806C18.6784 14.916 18.6927 14.8753 18.7039 14.8743Z"
            fill="#263238" />
        <path
            d="M18.4296 13.1341C18.4194 13.1748 18.2652 13.1728 18.0906 13.2135C17.914 13.2502 17.7772 13.3158 17.7486 13.283C17.7363 13.2671 17.7567 13.2274 17.8098 13.1827C17.8629 13.1381 17.9497 13.0914 18.0559 13.0686C18.1611 13.0457 18.2612 13.0507 18.3296 13.0696C18.397 13.0874 18.4337 13.1152 18.4296 13.1341Z"
            fill="#263238" />
        <path
            d="M19.841 13.1023C19.8185 13.138 19.7092 13.1152 19.5836 13.1281C19.457 13.136 19.3539 13.1757 19.3253 13.144C19.3131 13.1281 19.3253 13.0934 19.3682 13.0576C19.4101 13.0219 19.4836 12.9871 19.5704 12.9802C19.6572 12.9732 19.7358 12.9951 19.7828 13.0239C19.8318 13.0527 19.8512 13.0854 19.841 13.1023Z"
            fill="#263238" />
        <path
            d="M20.1086 11.4007C19.9779 11.3044 19.7686 11.3094 19.6604 11.4285C19.7492 11.3064 19.6971 11.1228 19.5736 11.0314C19.45 10.9401 19.2775 10.9302 19.1264 10.9689C18.9752 11.0076 18.8415 11.088 18.7098 11.1684C18.7251 11.1108 18.6903 11.0493 18.6403 11.0146C18.5903 10.9798 18.527 10.9669 18.4647 10.9609C18.2104 10.9361 17.9541 11.0076 17.7285 11.1218C17.5028 11.2359 17.2455 11.4176 17.0474 11.5715H17.0484C16.8412 11.7273 16.6349 11.9398 16.4256 12.2187C16.4225 12.2207 16.4205 12.2227 16.4174 12.2257C16.2734 12.3508 16.1519 12.728 16.1734 12.9127C16.254 13.5937 16.4858 13.9878 16.6165 14.6341C16.6247 14.6767 16.6349 14.7224 16.6666 14.7542C16.7472 14.8356 16.8922 14.7671 16.9688 14.6807C17.1546 14.4722 17.219 14.1873 17.2281 13.9133C17.2373 13.6393 17.1975 13.3663 17.2036 13.0923C17.2036 13.0864 17.2036 13.0794 17.2036 13.0725C17.2057 13.006 17.2118 12.9345 17.2241 12.863C17.2363 12.8183 17.3558 12.4272 17.7428 12.3637C18.1533 12.2962 18.963 12.6833 19.3643 12.6218C19.7656 12.5602 19.786 12.2853 19.786 12.2853L20.0219 12.7518C20.0219 12.7518 20.1117 12.4778 20.0596 12.1691C20.1577 12.0748 20.2332 11.9586 20.2587 11.8286C20.2914 11.6717 20.2393 11.497 20.1086 11.4007Z"
            fill="#263238" />
        <path
            d="M16.8779 14.1C16.8605 14.095 16.1764 13.9828 16.2754 14.6261C16.3745 15.2704 17.029 15.0421 17.028 15.0232C17.0259 15.0053 16.8779 14.1 16.8779 14.1Z"
            fill="#FFBE9D" />
        <path
            d="M16.7849 14.8088C16.7818 14.8068 16.7747 14.8187 16.7563 14.8296C16.7379 14.8405 16.7063 14.8514 16.6695 14.8435C16.595 14.8286 16.5184 14.7293 16.497 14.6132C16.4857 14.5546 16.4908 14.497 16.5051 14.4484C16.5184 14.3988 16.5449 14.361 16.5797 14.3501C16.6144 14.3372 16.643 14.3541 16.6532 14.371C16.6654 14.3878 16.6624 14.4007 16.6665 14.4017C16.6685 14.4027 16.6797 14.3888 16.6695 14.363C16.6644 14.3511 16.6542 14.3362 16.6368 14.3263C16.6185 14.3164 16.594 14.3134 16.5695 14.3193C16.5184 14.3303 16.4786 14.3829 16.4622 14.4365C16.4439 14.4911 16.4367 14.5566 16.449 14.6221C16.4735 14.7512 16.5613 14.8634 16.6624 14.8763C16.7114 14.8812 16.7492 14.8624 16.7665 14.8445C16.7859 14.8246 16.788 14.8098 16.7849 14.8088Z"
            fill="#EB996E" />
        <path
            d="M15.3678 18.7649C15.3678 18.7649 15.3862 18.7549 15.426 18.7559C15.4648 18.7569 15.5241 18.7758 15.5772 18.8284C15.6313 18.879 15.6711 18.9694 15.665 19.0726C15.6629 19.1759 15.6221 19.287 15.5874 19.4072C15.5527 19.5253 15.5292 19.6683 15.6109 19.7894C15.6834 19.9125 15.8314 20.0068 15.8927 20.1785C15.9509 20.3443 15.9029 20.5567 15.7446 20.6769C15.668 20.7374 15.571 20.7761 15.4689 20.7811C15.3658 20.7851 15.2678 20.7573 15.1738 20.7344C15.0799 20.7116 14.9839 20.6928 14.8992 20.7176C14.8134 20.7404 14.7501 20.8079 14.696 20.8784C14.6408 20.9499 14.5928 21.0283 14.5214 21.0898C14.4519 21.1534 14.3549 21.1891 14.263 21.1822C14.0792 21.1703 13.9302 21.0531 13.8556 20.9191C13.7801 20.7831 13.7606 20.6401 13.7515 20.5141C13.7433 20.387 13.7484 20.2728 13.7453 20.1736C13.7433 20.0743 13.7361 19.9889 13.7229 19.9204C13.6973 19.7824 13.6555 19.7139 13.6606 19.7119C13.6616 19.7109 13.6739 19.7278 13.6902 19.7616C13.7065 19.7953 13.727 19.8469 13.7433 19.9164C13.7596 19.9859 13.7698 20.0723 13.7749 20.1726C13.7801 20.2728 13.779 20.387 13.7882 20.5111C13.7984 20.6342 13.8209 20.7722 13.8934 20.8982C13.9628 21.0204 14.1027 21.1256 14.2651 21.1345C14.3457 21.1395 14.4254 21.1097 14.4866 21.0531C14.55 20.9975 14.5969 20.9211 14.6531 20.8476C14.7082 20.7751 14.7797 20.6957 14.8838 20.6679C14.986 20.6391 15.0911 20.661 15.1861 20.6838C15.2821 20.7076 15.375 20.7335 15.4659 20.7295C15.5557 20.7255 15.6435 20.6908 15.712 20.6372C15.8529 20.5309 15.8968 20.3413 15.8467 20.1924C15.7967 20.0405 15.6537 19.9442 15.5741 19.8112C15.5333 19.7447 15.5128 19.6673 15.5159 19.5958C15.5179 19.5243 15.5343 19.4578 15.5527 19.3972C15.5915 19.2761 15.6323 19.1699 15.6364 19.0716C15.6446 18.9743 15.6109 18.8919 15.5629 18.8423C15.5159 18.7907 15.4628 18.7698 15.426 18.7659C15.3883 18.7619 15.3678 18.7678 15.3678 18.7649Z"
            fill="#FAFAFA" />
        <path
            d="M15.6484 25.713C15.6515 25.712 15.6546 25.7368 15.6791 25.7746C15.7026 25.8113 15.7536 25.8599 15.8373 25.8818C15.919 25.9046 16.0344 25.8997 16.1284 25.8222C16.2243 25.7488 16.2928 25.6227 16.3234 25.4758C16.3561 25.3278 16.3499 25.1591 16.3795 24.9774C16.3949 24.8871 16.4224 24.7928 16.4735 24.7064C16.5235 24.62 16.6042 24.5406 16.7083 24.5019C16.8115 24.4612 16.9268 24.4602 17.0361 24.4731C17.1464 24.485 17.2556 24.5088 17.3669 24.5227C17.4782 24.5376 17.5906 24.5386 17.6998 24.5068C17.8091 24.4771 17.9122 24.4215 17.998 24.346C18.0837 24.2696 18.1491 24.1733 18.1818 24.0691C18.2134 23.9648 18.2104 23.8536 18.1756 23.7524C18.1093 23.5518 17.9316 23.389 17.7315 23.3682C17.5313 23.3463 17.3435 23.4426 17.1505 23.4466C17.0535 23.4506 16.9595 23.4258 16.8809 23.388C16.8013 23.3503 16.7328 23.3017 16.6695 23.256C16.5439 23.1627 16.4296 23.0803 16.3122 23.0436C16.1957 23.0038 16.0855 23.0217 16.0109 23.0624C15.9343 23.1021 15.8945 23.1597 15.8802 23.2004C15.8649 23.2421 15.867 23.2669 15.8639 23.2669C15.8639 23.2669 15.8578 23.2421 15.87 23.1974C15.8823 23.1528 15.9221 23.0902 16.0007 23.0446C16.0395 23.0227 16.0875 23.0038 16.1437 22.9969C16.1998 22.99 16.2601 22.9969 16.3224 23.0158C16.4469 23.0515 16.5674 23.1359 16.693 23.2262C16.8186 23.3136 16.9687 23.4138 17.1505 23.4039C17.2403 23.4009 17.3322 23.3761 17.4292 23.3543C17.5252 23.3324 17.6294 23.3086 17.7396 23.3215C17.9622 23.3444 18.1542 23.5201 18.2277 23.7375C18.2655 23.8467 18.2696 23.9698 18.2349 24.0849C18.1991 24.1991 18.1287 24.3033 18.0368 24.3847C17.9439 24.4661 17.8336 24.5257 17.7162 24.5575C17.5987 24.5912 17.4752 24.5902 17.3618 24.5734C17.2475 24.5585 17.1382 24.5346 17.032 24.5227C16.9258 24.5108 16.8196 24.5108 16.7277 24.5475C16.6348 24.5813 16.5633 24.6508 16.5153 24.7302C16.4674 24.8106 16.4398 24.899 16.4245 24.9853C16.3938 25.1601 16.3979 25.3318 16.3622 25.4847C16.3275 25.6376 16.2529 25.7696 16.1488 25.847C16.0456 25.9284 15.918 25.9314 15.8333 25.9036C15.7454 25.8778 15.6934 25.8232 15.6709 25.7825C15.6474 25.7378 15.6484 25.713 15.6484 25.713Z"
            fill="#FAFAFA" />
        <path
            d="M19.1172 19.698C19.1172 19.698 19.1336 19.6603 19.1877 19.6057C19.2418 19.5521 19.3398 19.4806 19.4899 19.4568C19.6359 19.431 19.8402 19.4816 19.978 19.6454C20.0474 19.7248 20.0914 19.836 20.1005 19.9522C20.1159 20.0663 20.1108 20.1944 20.1781 20.2977C20.2108 20.3483 20.266 20.385 20.3272 20.4049C20.3895 20.4257 20.4589 20.4317 20.5294 20.4356C20.6009 20.4396 20.6744 20.4386 20.75 20.4466C20.8245 20.4545 20.9072 20.4704 20.9736 20.523C21.0073 20.5478 21.0318 20.5826 21.0512 20.6203C21.0685 20.659 21.0747 20.7017 21.0716 20.7444C21.0634 20.8288 21.0205 20.9052 20.9654 20.9687C20.9103 21.0323 20.8408 21.0859 20.7622 21.1246C20.6856 21.1623 20.605 21.1931 20.5263 21.2288C20.4477 21.2636 20.3711 21.3033 20.3088 21.3589C20.2455 21.4145 20.2027 21.4879 20.1812 21.5703C20.1393 21.7381 20.1781 21.9178 20.169 22.1074C20.1608 22.2017 20.1404 22.298 20.0914 22.3854C20.0444 22.4717 19.9566 22.5492 19.8483 22.5631C19.7401 22.5799 19.6339 22.5333 19.5553 22.4688C19.4756 22.4042 19.4123 22.3238 19.3603 22.2375C19.3092 22.1531 19.2612 22.0677 19.203 21.9932C19.1448 21.9188 19.0733 21.8553 18.9855 21.8284C18.8987 21.7997 18.8038 21.8126 18.718 21.8453C18.6312 21.8781 18.5505 21.9267 18.4699 21.9744C18.3892 22.022 18.3075 22.0717 18.2156 22.1034C18.1247 22.1362 18.0298 22.1501 17.9348 22.1481C17.7459 22.1451 17.5662 22.0786 17.4232 21.9734C17.2803 21.8692 17.1761 21.7173 17.1435 21.5535C17.1098 21.3926 17.1414 21.211 17.265 21.1008C17.3252 21.0452 17.4008 21.0134 17.4753 20.9955C17.5499 20.9767 17.6234 20.9677 17.6949 20.9588C17.8358 20.9419 17.9726 20.9151 18.0706 20.8347C18.1686 20.7553 18.2268 20.6451 18.2708 20.5399C18.3136 20.4337 18.3432 20.3284 18.38 20.2321C18.4168 20.1358 18.4607 20.0485 18.5179 19.979C18.5761 19.9095 18.6383 19.8569 18.6965 19.8122C18.814 19.7239 18.9212 19.6732 19.0019 19.6683C19.0866 19.6593 19.1183 19.701 19.1172 19.698C19.1162 19.704 19.0825 19.6663 19.0049 19.6772C18.9294 19.6841 18.8242 19.7368 18.7119 19.8261C18.6557 19.8718 18.5944 19.9254 18.5403 19.9919C18.4862 20.0594 18.4454 20.1448 18.4106 20.2401C18.3749 20.3354 18.3473 20.4406 18.3044 20.5498C18.2605 20.657 18.2023 20.7732 18.0972 20.8605C17.991 20.9489 17.8439 20.9777 17.703 20.9955C17.5631 21.0154 17.4069 21.0303 17.2987 21.1296C17.1904 21.2269 17.1598 21.3926 17.1925 21.5425C17.2241 21.6944 17.3211 21.8354 17.4569 21.9337C17.5917 22.032 17.7622 22.0945 17.9399 22.0965C18.0277 22.0975 18.1176 22.0846 18.2013 22.0538C18.2861 22.024 18.3647 21.9764 18.4464 21.9287C18.527 21.8811 18.6098 21.8304 18.7027 21.7947C18.7946 21.759 18.9048 21.7441 19.0049 21.7768C19.106 21.8076 19.1867 21.8811 19.2479 21.9585C19.3102 22.0369 19.3592 22.1243 19.4093 22.2077C19.4593 22.2901 19.5195 22.3665 19.592 22.4251C19.6645 22.4837 19.7544 22.5224 19.8432 22.5085C19.9321 22.4966 20.0056 22.435 20.0485 22.3576C20.0924 22.2801 20.1128 22.1898 20.1199 22.1005C20.1302 21.9228 20.0903 21.7371 20.1353 21.5554C20.1577 21.4651 20.2078 21.3807 20.2782 21.3202C20.3476 21.2586 20.4293 21.2179 20.509 21.1822C20.5886 21.1464 20.6693 21.1167 20.7438 21.0799C20.8173 21.0442 20.8817 20.9946 20.9327 20.936C20.9838 20.8774 21.0226 20.8089 21.0297 20.7374C21.0328 20.7017 21.0267 20.667 21.0134 20.6352C20.9971 20.6044 20.9766 20.5746 20.9491 20.5538C20.8939 20.5101 20.8204 20.4932 20.7489 20.4853C20.6764 20.4773 20.6029 20.4773 20.5304 20.4734C20.4579 20.4694 20.3854 20.4624 20.317 20.4386C20.2496 20.4158 20.1863 20.3731 20.1496 20.3145C20.075 20.1954 20.0842 20.0644 20.0699 19.9532C20.0617 19.839 20.0219 19.7378 19.9576 19.6603C19.8289 19.5025 19.637 19.4509 19.495 19.4727C19.3511 19.4925 19.253 19.5591 19.1979 19.6097C19.1397 19.6643 19.1203 19.7 19.1172 19.698Z"
            fill="#FAFAFA" />
        <path
            d="M17.3989 18.0223C17.4029 18.0252 17.3345 18.0937 17.1875 18.1235C17.115 18.1384 17.0251 18.1434 16.9271 18.1255C16.8321 18.1056 16.7208 18.0649 16.6484 17.9696C16.5789 17.8753 16.5565 17.7681 16.5483 17.6738C16.5401 17.5785 16.5503 17.4931 16.5667 17.4226C16.5993 17.2807 16.6729 17.2142 16.6749 17.2191C16.682 17.2241 16.6249 17.2936 16.6034 17.4296C16.5922 17.4971 16.5861 17.5795 16.5973 17.6688C16.6075 17.7572 16.632 17.8575 16.6912 17.9379C16.7515 18.0183 16.8495 18.057 16.9373 18.0778C17.0272 18.0967 17.1119 18.0957 17.1803 18.0868C17.3202 18.0679 17.3937 18.0133 17.3989 18.0223Z"
            fill="#FAFAFA" />
        <path
            d="M21.7944 17.7681C21.7965 17.7691 21.7934 17.778 21.7873 17.7959C21.7811 17.8138 21.7689 17.8386 21.7474 17.8674C21.7066 17.925 21.6229 17.9984 21.4932 18.0322C21.4299 18.0481 21.3543 18.053 21.2777 18.0371C21.1991 18.0212 21.1266 17.9736 21.0602 17.924C20.9929 17.8753 20.9255 17.8177 20.8448 17.7959C20.7652 17.7721 20.6773 17.8058 20.6273 17.8793C20.5742 17.9518 20.5446 18.0401 20.5017 18.1205C20.4609 18.2039 20.3955 18.2744 20.321 18.3201C20.1719 18.4154 19.9953 18.4173 19.8737 18.3677C19.7502 18.3191 19.6767 18.2367 19.6389 18.1771C19.6011 18.1166 19.595 18.0768 19.597 18.0758C19.6011 18.0739 19.6144 18.1106 19.6562 18.1652C19.6971 18.2188 19.7706 18.2913 19.887 18.333C20.0004 18.3747 20.1596 18.3687 20.2934 18.2804C20.3608 18.2367 20.4159 18.1751 20.4537 18.0977C20.4946 18.0203 20.5232 17.9309 20.5824 17.8485C20.612 17.8078 20.6528 17.7701 20.7039 17.7522C20.7539 17.7334 20.8091 17.7324 20.8571 17.7463C20.9541 17.7751 21.0214 17.8366 21.0878 17.8852C21.1532 17.9359 21.2165 17.9786 21.2859 17.9944C21.3543 18.0113 21.4227 18.0083 21.482 17.9954C21.6024 17.9686 21.6841 17.9051 21.728 17.8535C21.776 17.8028 21.7903 17.7661 21.7944 17.7681Z"
            fill="#FAFAFA" />
        <path
            d="M22.5228 21.6667C22.5207 21.6696 22.4799 21.6448 22.4094 21.5952C22.34 21.5445 22.2399 21.4681 22.1307 21.3599C22.0766 21.3053 22.0194 21.2418 21.9683 21.1653C21.9183 21.0879 21.8795 20.9946 21.8662 20.8923C21.8529 20.7901 21.8621 20.6759 21.9183 20.5737C21.9459 20.523 21.9857 20.4764 22.0337 20.4396C22.0817 20.4029 22.1337 20.3751 22.1848 20.3463C22.2348 20.3175 22.2838 20.2887 22.3206 20.251C22.3584 20.2143 22.3839 20.1686 22.3992 20.12C22.4288 20.0217 22.4207 19.9175 22.4094 19.8202C22.3972 19.7219 22.3829 19.6256 22.388 19.5343C22.3951 19.4449 22.4176 19.3526 22.4829 19.297C22.6065 19.1928 22.7382 19.164 22.8271 19.163C22.92 19.162 22.9567 19.2096 22.9537 19.2086C22.9506 19.2126 22.9138 19.1759 22.8281 19.1828C22.7464 19.1888 22.6188 19.2245 22.5095 19.3228C22.4564 19.3705 22.437 19.4519 22.4329 19.5362C22.4288 19.6216 22.4441 19.7149 22.4584 19.8142C22.4717 19.9135 22.4819 20.0237 22.4492 20.1349C22.4329 20.1905 22.4023 20.2441 22.3594 20.2877C22.3165 20.3314 22.2634 20.3622 22.2124 20.392C22.1082 20.4486 22.0132 20.5052 21.9653 20.5985C21.9152 20.6888 21.905 20.793 21.9162 20.8874C21.9367 21.0819 22.0572 21.2259 22.1582 21.3361C22.3686 21.5515 22.5289 21.6587 22.5228 21.6667Z"
            fill="#FAFAFA" />
        <path
            d="M20.3875 23.6362C20.3875 23.6342 20.4038 23.6332 20.4355 23.6332C20.4671 23.6332 20.5131 23.6342 20.5723 23.6411C20.6897 23.654 20.8643 23.6808 21.0563 23.7781C21.2452 23.8724 21.4505 24.063 21.5138 24.341C21.5444 24.477 21.5321 24.6368 21.4505 24.7709C21.3708 24.9039 21.235 25.0151 21.0665 25.0498C20.9828 25.0667 20.894 25.0568 20.8184 25.0369C20.7428 25.018 20.6714 25.0071 20.606 25.0329C20.5407 25.0568 20.4855 25.1034 20.4416 25.156C20.3967 25.2086 20.362 25.2682 20.3273 25.3278C20.2609 25.4459 20.1812 25.565 20.0607 25.6236C19.9443 25.6822 19.8167 25.6901 19.7105 25.6643C19.6023 25.6385 19.5196 25.576 19.4665 25.5094C19.4124 25.4429 19.3858 25.3734 19.3725 25.3169C19.3593 25.2593 19.3613 25.2126 19.3654 25.1828C19.3695 25.1521 19.3746 25.1372 19.3756 25.1372C19.3817 25.1372 19.3633 25.2017 19.393 25.3119C19.4083 25.3655 19.4369 25.43 19.49 25.4916C19.542 25.5521 19.6196 25.6077 19.7197 25.6286C19.8177 25.6504 19.9362 25.6405 20.0403 25.5859C20.1465 25.5323 20.219 25.4241 20.2844 25.3049C20.3507 25.1888 20.4304 25.0478 20.5876 24.9853C20.6663 24.9535 20.7561 24.9674 20.8307 24.9863C20.9072 25.0061 20.9797 25.0131 21.0553 24.9992C21.2054 24.9684 21.332 24.8671 21.4045 24.745C21.4801 24.6229 21.4923 24.478 21.4647 24.3499C21.4076 24.0888 21.2166 23.9042 21.0369 23.8089C20.8541 23.7106 20.6836 23.6788 20.5682 23.66C20.4528 23.6421 20.3865 23.6401 20.3875 23.6362Z"
            fill="#FAFAFA" />
        <path
            d="M18.4748 26.9152C18.4635 26.9172 18.4656 26.8229 18.3788 26.7107C18.3369 26.6551 18.2716 26.5995 18.1878 26.5608C18.1041 26.5221 17.9989 26.5042 17.8968 26.53C17.7958 26.5578 17.713 26.6243 17.661 26.6988C17.6079 26.7732 17.5813 26.8536 17.5732 26.9212C17.5558 27.0601 17.6058 27.1415 17.5956 27.1445C17.5926 27.1455 17.5783 27.1276 17.5619 27.0899C17.5456 27.0522 17.5313 26.9916 17.5354 26.9172C17.5395 26.8427 17.564 26.7544 17.6201 26.671C17.6753 26.5876 17.7661 26.5112 17.8825 26.4794C18 26.4496 18.1184 26.4724 18.2083 26.5171C18.2991 26.5618 18.3676 26.6263 18.4084 26.6889C18.4503 26.7514 18.4697 26.81 18.4738 26.8507C18.4809 26.8924 18.4778 26.9152 18.4748 26.9152Z"
            fill="#FAFAFA" />
        <path
            d="M18.803 28.3596C18.7979 28.3606 18.7938 28.3129 18.757 28.2375C18.7213 28.164 18.6478 28.0588 18.512 27.9933C18.3802 27.9267 18.1791 27.9238 18.0137 28.03C17.9299 28.0806 17.8728 28.166 17.8074 28.2563C17.7737 28.301 17.739 28.3477 17.691 28.3854C17.644 28.4241 17.5797 28.4509 17.5133 28.4499C17.3765 28.444 17.2795 28.3536 17.207 28.2712C17.1345 28.1868 17.0733 28.1005 16.9905 28.0518C16.9089 28.0012 16.8119 27.9923 16.7261 28.0052C16.6393 28.0181 16.5627 28.0528 16.5025 28.0955C16.3799 28.1829 16.3125 28.2881 16.2666 28.3586C16.2227 28.4311 16.2002 28.4728 16.1972 28.4708C16.1941 28.4698 16.2094 28.4251 16.2492 28.3487C16.2901 28.2742 16.3534 28.162 16.481 28.0657C16.5443 28.0181 16.626 27.9784 16.72 27.9625C16.8129 27.9466 16.9232 27.9536 17.0171 28.0101C17.1121 28.0657 17.1764 28.1571 17.2479 28.2375C17.3163 28.3159 17.4082 28.3943 17.5154 28.3973C17.6246 28.4003 17.7043 28.3119 17.7666 28.2256C17.8299 28.1392 17.8942 28.0449 17.9881 27.9893C18.1709 27.8751 18.3894 27.8831 18.5303 27.9605C18.6743 28.0359 18.7458 28.1501 18.7774 28.2295C18.7938 28.2692 18.7999 28.303 18.804 28.3248C18.805 28.3477 18.805 28.3586 18.803 28.3596Z"
            fill="#FAFAFA" />
        <path
            d="M19.5859 24.758C19.5798 24.7669 19.4858 24.6785 19.2918 24.6319C19.1959 24.609 19.0774 24.5971 18.9477 24.614C18.8191 24.6299 18.6792 24.6746 18.5597 24.7609C18.4392 24.8463 18.3586 24.9664 18.3147 25.0836C18.2718 25.2017 18.2646 25.3188 18.2779 25.4132C18.3055 25.6048 18.3974 25.6991 18.3861 25.705C18.3841 25.707 18.3606 25.6852 18.3289 25.6385C18.2963 25.5928 18.2605 25.5174 18.2411 25.4181C18.2228 25.3188 18.2258 25.1948 18.2687 25.0677C18.3126 24.9416 18.3984 24.8106 18.5281 24.7192C18.6567 24.6259 18.8058 24.5812 18.9416 24.5664C19.0784 24.5515 19.202 24.5674 19.301 24.5961C19.4001 24.6249 19.4736 24.6646 19.5195 24.6984C19.5665 24.7321 19.5879 24.756 19.5859 24.758Z"
            fill="#FAFAFA" />
    </g>
    <defs>
        <clipPath id="clip0_1908_136127">
            <rect width="26" height="25" fill="white" transform="translate(7 7)" />
        </clipPath>
    </defs>
</svg>